M48
INCH
T56C0.020
T55C0.030
T54C0.048
T53C0.038
T52C0.128
T51C0.129
%
T56
X005250Y009550
X005650Y006650
X007900Y005950
X009300Y004550
X009300Y004050
X009950Y004150
X010050Y003550
X010100Y001750
X010550Y003550
X015000Y000950
X015450Y006100
X016500Y000950
X017050Y003700
X017050Y000950
T55
X005700Y004800
X005700Y003800
X005700Y002800
X006700Y005300
X006700Y004300
X006700Y003300
X015492Y004700
X015492Y003700
X015492Y002700
X016492Y005200
X016492Y004200
X016492Y003200
T53
X000750Y009700
X000750Y007700
X000850Y008700
X001150Y000750
X002000Y009700
X002150Y000850
X002650Y008600
X002650Y007600
X003000Y009600
X003150Y000750
X003650Y008600
X003650Y007600
X004000Y009700
X004650Y008600
X004650Y007600
X005650Y008600
X005650Y007600
X006650Y008600
X006650Y007600
X007650Y008600
X007650Y007600
X008650Y008600
X008650Y007600
X009650Y008600
X009650Y007600
X010650Y008600
X010650Y007600
X011650Y008600
X011650Y007600
T54
X014550Y008450
X016550Y008450
T52
X003200Y006050
X003200Y002050
X018992Y005950
X018992Y001950
T51
X020600Y008800
M30
