G04 start of page 2 for group 0 idx 0 *
G04 Title: (unknown), component *
G04 Creator: pcb 20140316 *
G04 CreationDate: Tue 10 May 2016 09:41:56 AM GMT UTC *
G04 For: ndholmes *
G04 Format: Gerber/RS-274X *
G04 PCB-Dimensions (mil): 2220.00 1040.00 *
G04 PCB-Coordinate-Origin: lower left *
%MOIN*%
%FSLAX25Y25*%
%LNTOP*%
%ADD33C,0.0300*%
%ADD32C,0.0480*%
%ADD31C,0.0380*%
%ADD30C,0.1280*%
%ADD29C,0.1285*%
%ADD28C,0.0360*%
%ADD27R,0.0130X0.0130*%
%ADD26R,0.0945X0.0945*%
%ADD25R,0.0378X0.0378*%
%ADD24R,0.0360X0.0360*%
%ADD23R,0.0630X0.0630*%
%ADD22R,0.0512X0.0512*%
%ADD21C,0.0700*%
%ADD20C,0.0800*%
%ADD19C,0.0600*%
%ADD18C,0.1440*%
%ADD17C,0.2937*%
%ADD16C,0.0350*%
%ADD15C,0.0250*%
%ADD14C,0.0400*%
%ADD13C,0.0200*%
%ADD12C,0.0100*%
%ADD11C,0.0001*%
G54D11*G36*
X118000Y15500D02*Y14500D01*
X114000D01*
Y20500D01*
X117500Y24000D01*
Y46500D01*
X131000Y33000D01*
Y22500D01*
X129500D01*
X122500Y15500D01*
X118000D01*
G37*
G54D12*X93500Y98000D02*Y94000D01*
X95000Y92500D01*
X108500D01*
X109500Y91500D01*
X115000D01*
X116500Y90000D01*
Y85500D01*
G54D13*X145500Y92000D02*Y84500D01*
G54D12*X111000Y81500D02*X106500Y86000D01*
X101500Y81000D02*X96500Y86000D01*
X91500Y81000D02*X86500Y86000D01*
G54D14*X116500D02*Y76000D01*
G54D12*X89500Y102000D02*X93500Y98000D01*
G54D13*X100543Y97500D02*X115457D01*
X122543D02*X140000D01*
X145500Y92000D01*
G54D12*X106500Y64500D02*Y76000D01*
X111000Y66000D02*Y81500D01*
X101500Y62500D02*Y81000D01*
X104000Y59000D02*X111000Y66000D01*
X93000Y57500D02*X96500Y61000D01*
Y76500D01*
X91500Y60000D02*Y81000D01*
X90162Y58662D02*X91500Y60000D01*
X85000Y68000D02*X81500Y71500D01*
Y81000D01*
X87603Y70397D02*X86500Y71500D01*
Y76000D01*
X85044Y67956D02*X84000Y69000D01*
G54D14*X123000Y47348D02*X137442Y32906D01*
X146000Y29500D02*Y52500D01*
Y51500D02*Y52500D01*
G54D12*X149500Y28000D02*Y30000D01*
G54D14*X136500Y27000D02*X143500D01*
G54D12*X138500Y17500D02*X142500D01*
X144000Y19000D01*
Y27500D01*
G54D14*X143500Y27000D02*X146000Y29500D01*
G54D12*X146500Y25000D02*X149500Y28000D01*
X143000Y12500D02*Y15000D01*
G54D15*X150000Y9500D02*X143500D01*
G54D12*X143000Y14000D02*Y9000D01*
Y15000D02*X146500Y18500D01*
Y25000D01*
G54D15*X165000Y18500D02*X162000Y21500D01*
X156500D01*
X155000Y23000D01*
Y27000D01*
X165000Y9500D02*Y18500D01*
G54D12*X170500Y37000D02*Y9500D01*
G54D14*X182500Y71600D02*X152600D01*
X146000Y37000D02*X155000D01*
X146000Y52500D02*X154500Y61000D01*
G54D12*X149500Y30000D02*X151500Y32000D01*
X157500D01*
X160000Y34500D01*
Y41000D01*
X161000Y42000D01*
X165000D01*
X165500Y42500D01*
G54D14*X152600Y71600D02*X142000Y61000D01*
G54D16*X165500Y84500D02*X182500D01*
G54D14*X127000Y12000D02*Y14500D01*
X133500Y21000D01*
X137500D01*
G54D12*X136500Y12500D02*Y15500D01*
X138500Y17500D01*
X136500Y13500D02*Y8500D01*
G54D14*X120000Y11500D02*Y29500D01*
X113500Y17500D02*X120000D01*
X107000D02*Y8000D01*
G54D12*X105515Y28886D02*Y35485D01*
X105500Y35500D01*
X108074Y33074D02*X112500Y37500D01*
X108074Y33074D02*Y22074D01*
X107000Y21000D01*
G54D14*Y8000D02*X111500Y3500D01*
X126000D01*
X127000Y4500D01*
Y12500D01*
X123500Y66500D02*Y78500D01*
X121000Y81000D01*
X116500D01*
X142000Y61000D02*X127000D01*
X123000Y57000D01*
Y52842D01*
X121658Y51500D01*
X123000Y52500D02*Y47348D01*
X118000Y61000D02*X123500Y66500D01*
X112500Y54500D02*Y58000D01*
X115500Y61000D01*
X118000D01*
G54D12*X105500Y47500D02*Y52099D01*
X105515Y52114D01*
X108000Y44000D02*Y52040D01*
X108074Y52114D01*
G54D14*X26500Y86500D02*Y76000D01*
G54D12*X36500Y86000D02*Y84500D01*
X32500Y90500D02*X30000Y93000D01*
Y97500D01*
X7500Y77000D02*X5000D01*
X2500Y79500D01*
Y100000D01*
X4500Y102000D01*
X38000D01*
X7500Y97000D02*X20000D01*
Y88500D01*
X22500Y86000D01*
X26500D01*
X7500Y76500D02*X7000Y77000D01*
X42000Y65500D02*Y17000D01*
X44500Y66000D02*Y18500D01*
X46500Y76000D02*Y20000D01*
X48500Y68500D02*Y22000D01*
X50500Y24500D02*Y66000D01*
X46500Y20000D02*X48000Y18500D01*
X52500Y22500D02*X50500Y24500D01*
X48500Y22000D02*X50000Y20500D01*
X44500Y18500D02*X46500Y16500D01*
X42000Y17000D02*X45000Y14000D01*
X11500Y7500D02*Y58500D01*
X7500Y62500D01*
Y76500D01*
X36500Y76000D02*Y71000D01*
X42000Y65500D01*
X41500Y79500D02*Y69000D01*
X44500Y66000D01*
X36500Y84500D02*X41500Y79500D01*
X46500Y86000D02*X51500Y81000D01*
Y71500D01*
X48500Y68500D01*
X50500Y66000D02*X56500Y72000D01*
Y76500D01*
X49500Y95500D02*X44500Y90500D01*
X32500D01*
X38000Y102000D02*X39500Y100500D01*
Y96500D01*
X36000Y102000D02*X89500D01*
X52500Y95500D02*X49500D01*
X87603Y52114D02*Y70397D01*
X85044Y52114D02*Y67956D01*
X82485Y52114D02*Y67015D01*
X81250Y68250D01*
X79926Y52114D02*Y58574D01*
X79000Y59500D01*
X79926Y28886D02*Y33074D01*
X74000Y39000D01*
X82485Y28886D02*Y33515D01*
X87603Y28886D02*Y23603D01*
X86500Y22500D01*
X85044Y28886D02*Y25544D01*
X84000Y24500D01*
X82485Y33515D02*X76000Y40000D01*
X81500Y81000D02*X76500Y86000D01*
X61500Y81000D02*X66500Y86000D01*
X82500Y67000D02*X77000Y72500D01*
Y76000D01*
X66500D02*Y67000D01*
X61500Y69000D02*Y81000D01*
X79000Y59500D02*Y59000D01*
X74000Y39000D02*Y56500D01*
X76000Y57500D02*Y40000D01*
X86500Y22500D02*X52500D01*
X84000Y24500D02*X63000D01*
X62000Y25500D01*
X90162Y28886D02*Y22162D01*
X89000Y21000D01*
X50000Y20500D02*X88500D01*
X48000Y18500D02*X91000D01*
X46500Y16500D02*X94000D01*
X45000Y14000D02*X95500D01*
X62000Y25500D02*Y51000D01*
X74000Y56500D02*X70000Y60500D01*
X66500Y67000D02*X76000Y57500D01*
X70500Y60000D02*X61500Y69000D01*
X62000Y51000D02*X56000Y57000D01*
Y67000D01*
X94500Y59000D02*X92750Y57250D01*
Y52143D01*
X90162Y52114D02*Y58662D01*
X88500Y20500D02*X90000Y22000D01*
X91000Y18500D02*X92500Y20000D01*
X92721Y20221D02*X91500Y19000D01*
X102956Y22456D02*X101000Y20500D01*
X97838Y28886D02*Y16338D01*
X95279Y28886D02*Y17779D01*
X92721Y28886D02*Y20221D01*
X95500Y14000D02*X97500Y16000D01*
X101000Y17500D02*Y20500D01*
X97838Y16338D02*X96500Y15000D01*
X95279Y17779D02*X94000Y16500D01*
X98500Y45500D02*X93000Y40000D01*
Y45500D02*X94500D01*
X96500Y47500D01*
X92750Y52143D02*X92721Y52114D01*
X95250Y56250D02*Y52143D01*
X95279Y52114D01*
X97838D02*Y55838D01*
X103500Y45500D02*X98500D01*
X101500Y62500D02*X95250Y56250D01*
X97838Y55838D02*X106500Y64500D01*
X100397Y55397D02*X104250Y59250D01*
X99500Y42500D02*X106500D01*
X100397Y52114D02*Y55397D01*
X102956Y52114D02*Y48456D01*
X102000Y47500D01*
X103500Y45500D02*X105500Y47500D01*
X102000D02*X96500D01*
G54D14*X112500Y25500D02*Y55500D01*
G54D12*X106500Y42500D02*X108000Y44000D01*
X102956Y28886D02*Y22456D01*
X100397Y28886D02*Y35397D01*
X100500Y35000D02*X100000Y35500D01*
X100397Y35397D02*X100500Y35500D01*
G54D14*X107000Y17000D02*Y20000D01*
X112500Y25500D01*
G54D17*X206000Y88000D03*
G54D18*X189925Y19500D03*
Y59500D03*
G54D19*X56500Y76000D03*
X66500D03*
X76500D03*
X66500Y86000D03*
X76500D03*
X86500D03*
X96500D03*
X106500D03*
X116500D03*
X86500Y76000D03*
X96500D03*
X106500D03*
X116500D03*
G54D20*X145500Y84500D03*
G54D21*X154925Y27000D03*
Y37000D03*
Y47000D03*
X164925Y32000D03*
Y42000D03*
Y52000D03*
G54D11*G36*
X161500Y88500D02*Y80500D01*
X169500D01*
Y88500D01*
X161500D01*
G37*
G54D21*X67000Y53000D03*
X57000Y48000D03*
X67000Y43000D03*
X57000Y38000D03*
X67000Y33000D03*
X57000Y28000D03*
G54D18*X32000Y20500D03*
G54D11*G36*
X8500Y10500D02*Y4500D01*
X14500D01*
Y10500D01*
X8500D01*
G37*
G54D19*X21500Y8500D03*
X31500Y7500D03*
G54D11*G36*
X23500Y79000D02*Y73000D01*
X29500D01*
Y79000D01*
X23500D01*
G37*
G54D19*X36500Y76000D03*
G54D18*X32000Y60500D03*
G54D19*X46500Y76000D03*
Y86000D03*
X56500D03*
X26500D03*
X36500D03*
G54D11*G36*
X37000Y100000D02*Y94000D01*
X43000D01*
Y100000D01*
X37000D01*
G37*
G54D19*X30000Y96000D03*
X20000Y97000D03*
G54D11*G36*
X4500Y80000D02*Y74000D01*
X10500D01*
Y80000D01*
X4500D01*
G37*
G54D19*X8500Y87000D03*
X7500Y97000D03*
G54D22*X93457Y97893D02*Y97107D01*
X100543Y97893D02*Y97107D01*
X122543Y97893D02*Y97107D01*
X115457Y97893D02*Y97107D01*
G54D23*X118508Y51500D02*X124807D01*
X138193D02*X144492D01*
G54D24*X181900Y71600D02*X183100D01*
X181900Y84500D02*X183100D01*
G54D25*X135395Y21094D02*X139489D01*
X127679Y27000D02*X139489D01*
G54D26*X124055D02*X125945D01*
G54D11*G36*
X129250Y23695D02*X132090Y26535D01*
X133510Y25115D01*
X130670Y22275D01*
X129250Y23695D01*
G37*
G36*
X130670Y31725D02*X133510Y28885D01*
X132090Y27465D01*
X129250Y30305D01*
X130670Y31725D01*
G37*
G54D25*X135395Y32906D02*X139489D01*
G54D27*X108074Y54417D02*Y49811D01*
X105515Y54417D02*Y49811D01*
X102956Y54417D02*Y49811D01*
X100397Y54417D02*Y49811D01*
X97838Y54417D02*Y49811D01*
X95279Y54417D02*Y49811D01*
X92721Y54417D02*Y49811D01*
X90162Y54417D02*Y49811D01*
X87603Y54417D02*Y49811D01*
X85044Y54417D02*Y49811D01*
X82485Y54417D02*Y49811D01*
X79926Y54417D02*Y49811D01*
Y31189D02*Y26583D01*
X82485Y31189D02*Y26583D01*
X85044Y31189D02*Y26583D01*
X87603Y31189D02*Y26583D01*
X90162Y31189D02*Y26583D01*
X92721Y31189D02*Y26583D01*
X95279Y31189D02*Y26583D01*
X97838Y31189D02*Y26583D01*
X100397Y31189D02*Y26583D01*
X102956Y31189D02*Y26583D01*
X105515Y31189D02*Y26583D01*
G54D22*X106957Y17893D02*Y17107D01*
X114043Y17893D02*Y17107D01*
G54D27*X108074Y31189D02*Y26583D01*
G54D22*X127043Y9893D02*Y9107D01*
X119957Y9893D02*Y9107D01*
X143543Y9893D02*Y9107D01*
X136457Y9893D02*Y9107D01*
G54D28*X52500Y95500D03*
X56500Y66500D03*
X93000Y40500D03*
Y45500D03*
X79000Y59500D03*
X105500Y35500D03*
X101000Y17500D03*
X100500Y35500D03*
X99500Y41500D03*
G54D14*X154500Y61000D03*
G54D28*X150000Y9500D03*
X170500Y37000D03*
X165000Y9500D03*
X170500D03*
G54D13*G54D29*G54D30*G54D31*G54D32*G54D33*G54D32*G54D33*G54D30*G54D31*G54D30*G54D31*M02*
