G04 start of page 6 for group -4062 idx -4062 *
G04 Title: (unknown), soldermask *
G04 Creator: pcb 20110918 *
G04 CreationDate: Tue 05 Feb 2013 03:55:55 AM GMT UTC *
G04 For: railfan *
G04 Format: Gerber/RS-274X *
G04 PCB-Dimensions: 222000 104000 *
G04 PCB-Coordinate-Origin: lower left *
%MOIN*%
%FSLAX25Y25*%
%LNBOTTOMMASK*%
%ADD72C,0.0760*%
%ADD71C,0.0860*%
%ADD70C,0.0660*%
%ADD69C,0.0001*%
%ADD68C,0.1500*%
%ADD67C,0.2997*%
G54D67*X206500Y88500D03*
G54D68*X189925Y19500D03*
Y59500D03*
G54D69*G36*
X23200Y79300D02*Y72700D01*
X29800D01*
Y79300D01*
X23200D01*
G37*
G54D70*X36500Y76000D03*
Y86000D03*
X46500Y76000D03*
Y86000D03*
X56500D03*
X26500D03*
G54D69*G36*
X36700Y100300D02*Y93700D01*
X43300D01*
Y100300D01*
X36700D01*
G37*
G54D70*X30000Y97000D03*
X20000D03*
X7500Y87000D03*
Y97000D03*
X86500Y76000D03*
X96500D03*
X106500D03*
X116500D03*
G54D71*X145500Y84500D03*
G54D72*X154925Y27000D03*
Y37000D03*
Y47000D03*
X164925Y32000D03*
Y42000D03*
Y52000D03*
G54D69*G36*
X161200Y88800D02*Y80200D01*
X169800D01*
Y88800D01*
X161200D01*
G37*
G54D70*X56500Y76000D03*
X66500D03*
X76500D03*
X66500Y86000D03*
X76500D03*
X86500D03*
X96500D03*
X106500D03*
X116500D03*
G54D69*G36*
X4200Y80300D02*Y73700D01*
X10800D01*
Y80300D01*
X4200D01*
G37*
G36*
X8200Y10800D02*Y4200D01*
X14800D01*
Y10800D01*
X8200D01*
G37*
G54D70*X21500Y7500D03*
X31500D03*
G54D72*X67000Y53000D03*
X57000Y48000D03*
X67000Y43000D03*
X57000Y38000D03*
X67000Y33000D03*
X57000Y28000D03*
G54D68*X32000Y60500D03*
Y20500D03*
M02*
