M48
INCH
T59C0.012
T58C0.096
T57C0.128
T56C0.030
T55C0.043
T54C0.038
%
T59
X002000Y008750
X002000Y007550
X002000Y006350
X004400Y012400
X004400Y012000
X004400Y011600
X004400Y011200
X004400Y010800
X004400Y010400
X004800Y012400
X004800Y012000
X004800Y011600
X004800Y011200
X004800Y010800
X004800Y010400
X006050Y004800
X006550Y007200
X006550Y004800
X006900Y007200
X007050Y004800
X007550Y004800
X007700Y009000
X008000Y010200
X008050Y004800
X008400Y010200
X008550Y004800
X008700Y011500
X008800Y011000
X008800Y010200
X009200Y010200
X009600Y010200
X009900Y012100
X010000Y010200
X010400Y010200
X010600Y003200
X010700Y003900
X010800Y010200
X010800Y005650
X010800Y004950
X010900Y002850
X011100Y003550
X011300Y011300
X011300Y009650
X011300Y009050
X011400Y004600
X011700Y011450
X011700Y009650
X011700Y009050
X011700Y005750
X011700Y004250
X012000Y009950
X012100Y007000
X012150Y009350
X012150Y005750
X012150Y002150
X012450Y007000
X012500Y005750
X012500Y002500
X012693Y010150
X012800Y007350
X012800Y007000
X013008Y011450
X013322Y011150
X014400Y001450
X014850Y001950
X015900Y006750
X015900Y006400
X016250Y007100
X016250Y006750
X016250Y006400
X017178Y003200
X017493Y002850
X017808Y003900
X018122Y003550
X018450Y004600
X018750Y004250
X019050Y005300
X019350Y004950
X021350Y002359
X021800Y003541
X021800Y001950
X022200Y001050
X022200Y000700
X022200Y000350
X022500Y015700
X022500Y015400
X022550Y001050
X022550Y000700
X022550Y000350
X022900Y001050
X022900Y000700
X022900Y000350
X023250Y001050
X023250Y000700
X023250Y000350
X023600Y001050
X023600Y000700
X023600Y000350
X023650Y015700
X023650Y015400
X023950Y001050
X023950Y000700
X023950Y000350
X024300Y001050
X024300Y000700
X024300Y000350
X024650Y001050
X024650Y000700
X024650Y000350
T56
X020350Y008900
X020350Y007900
X020350Y006900
X021350Y009400
X021350Y008400
X021350Y007400
T54
X000550Y001550
X000550Y000550
X001550Y001550
X001550Y000550
X002550Y001550
X002550Y000550
X003550Y001550
X003550Y000550
X004550Y001550
X004550Y000550
X005550Y001550
X005550Y000550
X006550Y001550
X006550Y000550
X007550Y001550
X007550Y000550
X008550Y001550
X008550Y000550
X009550Y001550
X009550Y000550
T55
X002412Y014066
X002412Y012334
T58
X019700Y002950
T57
X023850Y010150
X023850Y006150
M30
