G04 start of page 3 for group 1 idx 1 *
G04 Title: (unknown), bottom *
G04 Creator: pcb 20140316 *
G04 CreationDate: Thu 05 Mar 2020 03:13:11 AM GMT UTC *
G04 For: railfan *
G04 Format: Gerber/RS-274X *
G04 PCB-Dimensions (mil): 2500.00 1600.00 *
G04 PCB-Coordinate-Origin: lower left *
%MOIN*%
%FSLAX25Y25*%
%LNBOTTOM*%
%ADD52C,0.0960*%
%ADD51C,0.1280*%
%ADD50C,0.0300*%
%ADD49C,0.0433*%
%ADD48C,0.0380*%
%ADD47C,0.0120*%
%ADD46C,0.0260*%
%ADD45C,0.1360*%
%ADD44C,0.1440*%
%ADD43C,0.0700*%
%ADD42C,0.0633*%
%ADD41C,0.0600*%
%ADD40C,0.0550*%
%ADD39C,0.0100*%
%ADD38C,0.0001*%
G54D38*G36*
X248500Y1500D02*X238487D01*
Y53276D01*
X238500Y53275D01*
X239787Y53376D01*
X241042Y53677D01*
X242234Y54171D01*
X243335Y54846D01*
X244316Y55684D01*
X245154Y56665D01*
X245829Y57766D01*
X246323Y58958D01*
X246624Y60213D01*
X246700Y61500D01*
X246624Y62787D01*
X246323Y64042D01*
X245829Y65234D01*
X245154Y66335D01*
X244316Y67316D01*
X243335Y68154D01*
X242234Y68829D01*
X241042Y69323D01*
X239787Y69624D01*
X238500Y69725D01*
X238487Y69724D01*
Y93276D01*
X238500Y93275D01*
X239787Y93376D01*
X241042Y93677D01*
X242234Y94171D01*
X243335Y94846D01*
X244316Y95684D01*
X245154Y96665D01*
X245829Y97766D01*
X246323Y98958D01*
X246624Y100213D01*
X246700Y101500D01*
X246624Y102787D01*
X246323Y104042D01*
X245829Y105234D01*
X245154Y106335D01*
X244316Y107316D01*
X243335Y108154D01*
X242234Y108829D01*
X241042Y109323D01*
X239787Y109624D01*
X238500Y109725D01*
X238487Y109724D01*
Y158500D01*
X248500D01*
Y1500D01*
G37*
G36*
X238487D02*X219500D01*
Y17756D01*
X219631Y17869D01*
X219866Y18144D01*
X220056Y18453D01*
X220194Y18787D01*
X220279Y19139D01*
X220300Y19500D01*
X220279Y19861D01*
X220194Y20213D01*
X220056Y20547D01*
X219866Y20856D01*
X219631Y21131D01*
X219500Y21244D01*
Y33662D01*
X219631Y33774D01*
X219866Y34049D01*
X220056Y34358D01*
X220194Y34693D01*
X220279Y35045D01*
X220300Y35406D01*
X220279Y35766D01*
X220194Y36118D01*
X220056Y36453D01*
X219866Y36762D01*
X219631Y37037D01*
X219500Y37149D01*
Y158500D01*
X238487D01*
Y109724D01*
X237213Y109624D01*
X235958Y109323D01*
X234766Y108829D01*
X233665Y108154D01*
X232684Y107316D01*
X231846Y106335D01*
X231171Y105234D01*
X230677Y104042D01*
X230376Y102787D01*
X230275Y101500D01*
X230376Y100213D01*
X230677Y98958D01*
X231171Y97766D01*
X231846Y96665D01*
X232684Y95684D01*
X233665Y94846D01*
X234766Y94171D01*
X235958Y93677D01*
X237213Y93376D01*
X238487Y93276D01*
Y69724D01*
X237213Y69624D01*
X235958Y69323D01*
X234766Y68829D01*
X233665Y68154D01*
X232684Y67316D01*
X231846Y66335D01*
X231171Y65234D01*
X230677Y64042D01*
X230376Y62787D01*
X230275Y61500D01*
X230376Y60213D01*
X230677Y58958D01*
X231171Y57766D01*
X231846Y56665D01*
X232684Y55684D01*
X233665Y54846D01*
X234766Y54171D01*
X235958Y53677D01*
X237213Y53376D01*
X238487Y53276D01*
Y1500D01*
G37*
G36*
X147000Y17756D02*Y16621D01*
X146379Y16000D01*
X146246D01*
Y19034D01*
X146306Y18787D01*
X146444Y18453D01*
X146634Y18144D01*
X146869Y17869D01*
X147000Y17756D01*
G37*
G36*
X207220Y158500D02*X218000D01*
Y94000D01*
X217958Y94706D01*
X217793Y95395D01*
X217522Y96049D01*
X217152Y96653D01*
X216692Y97192D01*
X216153Y97652D01*
X215549Y98022D01*
X214895Y98293D01*
X214206Y98458D01*
X213500Y98514D01*
X212794Y98458D01*
X212105Y98293D01*
X211451Y98022D01*
X210847Y97652D01*
X210308Y97192D01*
X209848Y96653D01*
X209478Y96049D01*
X209207Y95395D01*
X209042Y94706D01*
X208986Y94000D01*
X209042Y93294D01*
X209207Y92605D01*
X209478Y91951D01*
X209848Y91347D01*
X210308Y90808D01*
X210847Y90348D01*
X211451Y89978D01*
X212105Y89707D01*
X212794Y89542D01*
X213500Y89486D01*
X214206Y89542D01*
X214895Y89707D01*
X215549Y89978D01*
X216153Y90348D01*
X216692Y90808D01*
X217152Y91347D01*
X217522Y91951D01*
X217793Y92605D01*
X217958Y93294D01*
X218000Y94000D01*
Y89000D01*
X209000D01*
Y84176D01*
X208986Y84000D01*
X209000Y83824D01*
Y79000D01*
X218000D01*
Y74000D01*
X217958Y74706D01*
X217793Y75395D01*
X217522Y76049D01*
X217152Y76653D01*
X216692Y77192D01*
X216153Y77652D01*
X215549Y78022D01*
X214895Y78293D01*
X214206Y78458D01*
X213500Y78514D01*
X212794Y78458D01*
X212105Y78293D01*
X211451Y78022D01*
X210847Y77652D01*
X210308Y77192D01*
X209848Y76653D01*
X209478Y76049D01*
X209207Y75395D01*
X209042Y74706D01*
X208986Y74000D01*
X209042Y73294D01*
X209207Y72605D01*
X209478Y71951D01*
X209848Y71347D01*
X210308Y70808D01*
X210847Y70348D01*
X211451Y69978D01*
X212105Y69707D01*
X212794Y69542D01*
X213500Y69486D01*
X214206Y69542D01*
X214895Y69707D01*
X215549Y69978D01*
X216153Y70348D01*
X216692Y70808D01*
X217152Y71347D01*
X217522Y71951D01*
X217793Y72605D01*
X217958Y73294D01*
X218000Y74000D01*
Y37713D01*
X217639Y37684D01*
X217287Y37600D01*
X216953Y37461D01*
X216644Y37272D01*
X216369Y37037D01*
X216134Y36762D01*
X215944Y36453D01*
X215806Y36118D01*
X215721Y35766D01*
X215693Y35406D01*
X215721Y35045D01*
X215806Y34693D01*
X215944Y34358D01*
X216134Y34049D01*
X216369Y33774D01*
X216500Y33662D01*
Y21244D01*
X216369Y21131D01*
X216134Y20856D01*
X215944Y20547D01*
X215806Y20213D01*
X215721Y19861D01*
X215693Y19500D01*
X215721Y19139D01*
X215806Y18787D01*
X215944Y18453D01*
X216134Y18144D01*
X216369Y17869D01*
X216644Y17634D01*
X216953Y17444D01*
X217287Y17306D01*
X217639Y17221D01*
X218000Y17193D01*
Y1500D01*
X207220D01*
Y66544D01*
X207271Y66583D01*
X207326Y66639D01*
X207370Y66704D01*
X207564Y67056D01*
X207721Y67426D01*
X207844Y67809D01*
X207933Y68200D01*
X207987Y68599D01*
X208004Y69000D01*
X207987Y69401D01*
X207933Y69800D01*
X207844Y70191D01*
X207721Y70574D01*
X207564Y70944D01*
X207374Y71298D01*
X207329Y71363D01*
X207274Y71420D01*
X207220Y71460D01*
Y76544D01*
X207271Y76583D01*
X207326Y76639D01*
X207370Y76704D01*
X207564Y77056D01*
X207721Y77426D01*
X207844Y77809D01*
X207933Y78200D01*
X207987Y78599D01*
X208004Y79000D01*
X207987Y79401D01*
X207933Y79800D01*
X207844Y80191D01*
X207721Y80574D01*
X207564Y80944D01*
X207374Y81298D01*
X207329Y81363D01*
X207274Y81420D01*
X207220Y81460D01*
Y86459D01*
X207522Y86951D01*
X207793Y87605D01*
X207958Y88294D01*
X208000Y89000D01*
X207958Y89706D01*
X207793Y90395D01*
X207522Y91049D01*
X207220Y91541D01*
Y158500D01*
G37*
G36*
Y1500D02*X203502D01*
Y25182D01*
X203971Y25948D01*
X204441Y27082D01*
X204728Y28276D01*
X204800Y29500D01*
X204728Y30724D01*
X204441Y31918D01*
X203971Y33052D01*
X203502Y33818D01*
Y64496D01*
X203901Y64513D01*
X204300Y64567D01*
X204691Y64656D01*
X205074Y64779D01*
X205444Y64936D01*
X205798Y65126D01*
X205863Y65171D01*
X205920Y65226D01*
X205968Y65290D01*
X206004Y65360D01*
X206030Y65435D01*
X206044Y65513D01*
X206045Y65592D01*
X206033Y65671D01*
X206010Y65746D01*
X205975Y65817D01*
X205929Y65882D01*
X205874Y65939D01*
X205811Y65987D01*
X205741Y66024D01*
X205666Y66049D01*
X205588Y66063D01*
X205508Y66064D01*
X205430Y66052D01*
X205354Y66029D01*
X205284Y65993D01*
X205010Y65843D01*
X204723Y65721D01*
X204426Y65625D01*
X204121Y65556D01*
X203812Y65514D01*
X203502Y65500D01*
Y72500D01*
X203812Y72486D01*
X204121Y72444D01*
X204426Y72375D01*
X204723Y72279D01*
X205010Y72157D01*
X205286Y72010D01*
X205355Y71974D01*
X205431Y71951D01*
X205509Y71940D01*
X205587Y71941D01*
X205665Y71954D01*
X205739Y71980D01*
X205809Y72016D01*
X205872Y72064D01*
X205927Y72120D01*
X205972Y72184D01*
X206007Y72255D01*
X206030Y72330D01*
X206041Y72408D01*
X206040Y72487D01*
X206027Y72564D01*
X206001Y72639D01*
X205965Y72708D01*
X205917Y72771D01*
X205861Y72826D01*
X205796Y72870D01*
X205444Y73064D01*
X205074Y73221D01*
X204691Y73344D01*
X204300Y73433D01*
X203901Y73487D01*
X203502Y73504D01*
Y74496D01*
X203901Y74513D01*
X204300Y74567D01*
X204691Y74656D01*
X205074Y74779D01*
X205444Y74936D01*
X205798Y75126D01*
X205863Y75171D01*
X205920Y75226D01*
X205968Y75290D01*
X206004Y75360D01*
X206030Y75435D01*
X206044Y75513D01*
X206045Y75592D01*
X206033Y75671D01*
X206010Y75746D01*
X205975Y75817D01*
X205929Y75882D01*
X205874Y75939D01*
X205811Y75987D01*
X205741Y76024D01*
X205666Y76049D01*
X205588Y76063D01*
X205508Y76064D01*
X205430Y76052D01*
X205354Y76029D01*
X205284Y75993D01*
X205010Y75843D01*
X204723Y75721D01*
X204426Y75625D01*
X204121Y75556D01*
X203812Y75514D01*
X203502Y75500D01*
Y82500D01*
X203812Y82486D01*
X204121Y82444D01*
X204426Y82375D01*
X204723Y82279D01*
X205010Y82157D01*
X205286Y82010D01*
X205355Y81974D01*
X205431Y81951D01*
X205509Y81940D01*
X205587Y81941D01*
X205665Y81954D01*
X205739Y81980D01*
X205809Y82016D01*
X205872Y82064D01*
X205927Y82120D01*
X205972Y82184D01*
X206007Y82255D01*
X206030Y82330D01*
X206041Y82408D01*
X206040Y82487D01*
X206027Y82564D01*
X206001Y82639D01*
X205965Y82708D01*
X205917Y82771D01*
X205861Y82826D01*
X205796Y82870D01*
X205444Y83064D01*
X205074Y83221D01*
X204691Y83344D01*
X204300Y83433D01*
X203901Y83487D01*
X203502Y83504D01*
Y84486D01*
X204206Y84542D01*
X204895Y84707D01*
X205549Y84978D01*
X206153Y85348D01*
X206692Y85808D01*
X207152Y86347D01*
X207220Y86459D01*
Y81460D01*
X207210Y81468D01*
X207140Y81504D01*
X207065Y81530D01*
X206987Y81544D01*
X206908Y81545D01*
X206829Y81533D01*
X206754Y81510D01*
X206683Y81475D01*
X206618Y81429D01*
X206561Y81374D01*
X206513Y81311D01*
X206476Y81241D01*
X206451Y81166D01*
X206437Y81088D01*
X206436Y81008D01*
X206448Y80930D01*
X206471Y80854D01*
X206507Y80784D01*
X206657Y80510D01*
X206779Y80223D01*
X206875Y79926D01*
X206944Y79621D01*
X206986Y79312D01*
X207000Y79000D01*
X206986Y78688D01*
X206944Y78379D01*
X206875Y78074D01*
X206779Y77777D01*
X206657Y77490D01*
X206510Y77214D01*
X206474Y77145D01*
X206451Y77069D01*
X206440Y76991D01*
X206441Y76913D01*
X206454Y76835D01*
X206480Y76761D01*
X206516Y76691D01*
X206564Y76628D01*
X206620Y76573D01*
X206684Y76528D01*
X206755Y76493D01*
X206830Y76470D01*
X206908Y76459D01*
X206987Y76460D01*
X207064Y76473D01*
X207139Y76499D01*
X207208Y76535D01*
X207220Y76544D01*
Y71460D01*
X207210Y71468D01*
X207140Y71504D01*
X207065Y71530D01*
X206987Y71544D01*
X206908Y71545D01*
X206829Y71533D01*
X206754Y71510D01*
X206683Y71475D01*
X206618Y71429D01*
X206561Y71374D01*
X206513Y71311D01*
X206476Y71241D01*
X206451Y71166D01*
X206437Y71088D01*
X206436Y71008D01*
X206448Y70930D01*
X206471Y70854D01*
X206507Y70784D01*
X206657Y70510D01*
X206779Y70223D01*
X206875Y69926D01*
X206944Y69621D01*
X206986Y69312D01*
X207000Y69000D01*
X206986Y68688D01*
X206944Y68379D01*
X206875Y68074D01*
X206779Y67777D01*
X206657Y67490D01*
X206510Y67214D01*
X206474Y67145D01*
X206451Y67069D01*
X206440Y66991D01*
X206441Y66913D01*
X206454Y66835D01*
X206480Y66761D01*
X206516Y66691D01*
X206564Y66628D01*
X206620Y66573D01*
X206684Y66528D01*
X206755Y66493D01*
X206830Y66470D01*
X206908Y66459D01*
X206987Y66460D01*
X207064Y66473D01*
X207139Y66499D01*
X207208Y66535D01*
X207220Y66544D01*
Y1500D01*
G37*
G36*
X203502Y158500D02*X207220D01*
Y91541D01*
X207152Y91653D01*
X206692Y92192D01*
X206153Y92652D01*
X205549Y93022D01*
X204895Y93293D01*
X204206Y93458D01*
X203502Y93514D01*
Y158500D01*
G37*
G36*
X199780Y22209D02*X200552Y22529D01*
X201599Y23170D01*
X202532Y23968D01*
X203330Y24901D01*
X203502Y25182D01*
Y1500D01*
X199780D01*
Y22209D01*
G37*
G36*
Y86459D02*X199848Y86347D01*
X200308Y85808D01*
X200847Y85348D01*
X201451Y84978D01*
X202105Y84707D01*
X202794Y84542D01*
X203500Y84486D01*
X203502Y84486D01*
Y83504D01*
X203500Y83504D01*
X203099Y83487D01*
X202700Y83433D01*
X202309Y83344D01*
X201926Y83221D01*
X201556Y83064D01*
X201202Y82874D01*
X201137Y82829D01*
X201080Y82774D01*
X201032Y82710D01*
X200996Y82640D01*
X200970Y82565D01*
X200956Y82487D01*
X200955Y82408D01*
X200967Y82329D01*
X200990Y82254D01*
X201025Y82183D01*
X201071Y82118D01*
X201126Y82061D01*
X201189Y82013D01*
X201259Y81976D01*
X201334Y81951D01*
X201412Y81937D01*
X201492Y81936D01*
X201570Y81948D01*
X201646Y81971D01*
X201716Y82007D01*
X201990Y82157D01*
X202277Y82279D01*
X202574Y82375D01*
X202879Y82444D01*
X203188Y82486D01*
X203500Y82500D01*
X203502Y82500D01*
Y75500D01*
X203500Y75500D01*
X203188Y75514D01*
X202879Y75556D01*
X202574Y75625D01*
X202277Y75721D01*
X201990Y75843D01*
X201714Y75990D01*
X201645Y76026D01*
X201569Y76049D01*
X201491Y76060D01*
X201413Y76059D01*
X201335Y76046D01*
X201261Y76020D01*
X201191Y75984D01*
X201128Y75936D01*
X201073Y75880D01*
X201028Y75816D01*
X200993Y75745D01*
X200970Y75670D01*
X200959Y75592D01*
X200960Y75513D01*
X200973Y75436D01*
X200999Y75361D01*
X201035Y75292D01*
X201083Y75229D01*
X201139Y75174D01*
X201204Y75130D01*
X201556Y74936D01*
X201926Y74779D01*
X202309Y74656D01*
X202700Y74567D01*
X203099Y74513D01*
X203500Y74496D01*
X203502Y74496D01*
Y73504D01*
X203500Y73504D01*
X203099Y73487D01*
X202700Y73433D01*
X202309Y73344D01*
X201926Y73221D01*
X201556Y73064D01*
X201202Y72874D01*
X201137Y72829D01*
X201080Y72774D01*
X201032Y72710D01*
X200996Y72640D01*
X200970Y72565D01*
X200956Y72487D01*
X200955Y72408D01*
X200967Y72329D01*
X200990Y72254D01*
X201025Y72183D01*
X201071Y72118D01*
X201126Y72061D01*
X201189Y72013D01*
X201259Y71976D01*
X201334Y71951D01*
X201412Y71937D01*
X201492Y71936D01*
X201570Y71948D01*
X201646Y71971D01*
X201716Y72007D01*
X201990Y72157D01*
X202277Y72279D01*
X202574Y72375D01*
X202879Y72444D01*
X203188Y72486D01*
X203500Y72500D01*
X203502Y72500D01*
Y65500D01*
X203500Y65500D01*
X203188Y65514D01*
X202879Y65556D01*
X202574Y65625D01*
X202277Y65721D01*
X201990Y65843D01*
X201714Y65990D01*
X201645Y66026D01*
X201569Y66049D01*
X201491Y66060D01*
X201413Y66059D01*
X201335Y66046D01*
X201261Y66020D01*
X201191Y65984D01*
X201128Y65936D01*
X201073Y65880D01*
X201028Y65816D01*
X200993Y65745D01*
X200970Y65670D01*
X200959Y65592D01*
X200960Y65513D01*
X200973Y65436D01*
X200999Y65361D01*
X201035Y65292D01*
X201083Y65229D01*
X201139Y65174D01*
X201204Y65130D01*
X201556Y64936D01*
X201926Y64779D01*
X202309Y64656D01*
X202700Y64567D01*
X203099Y64513D01*
X203500Y64496D01*
X203502Y64496D01*
Y33818D01*
X203330Y34099D01*
X202532Y35032D01*
X201599Y35830D01*
X200552Y36471D01*
X199780Y36791D01*
Y66540D01*
X199790Y66532D01*
X199860Y66496D01*
X199935Y66470D01*
X200013Y66456D01*
X200092Y66455D01*
X200171Y66467D01*
X200246Y66490D01*
X200317Y66525D01*
X200382Y66571D01*
X200439Y66626D01*
X200487Y66689D01*
X200524Y66759D01*
X200549Y66834D01*
X200563Y66912D01*
X200564Y66992D01*
X200552Y67070D01*
X200529Y67146D01*
X200493Y67216D01*
X200343Y67490D01*
X200221Y67777D01*
X200125Y68074D01*
X200056Y68379D01*
X200014Y68688D01*
X200000Y69000D01*
X200014Y69312D01*
X200056Y69621D01*
X200125Y69926D01*
X200221Y70223D01*
X200343Y70510D01*
X200490Y70786D01*
X200526Y70855D01*
X200549Y70931D01*
X200560Y71009D01*
X200559Y71087D01*
X200546Y71165D01*
X200520Y71239D01*
X200484Y71309D01*
X200436Y71372D01*
X200380Y71427D01*
X200316Y71472D01*
X200245Y71507D01*
X200170Y71530D01*
X200092Y71541D01*
X200013Y71540D01*
X199936Y71527D01*
X199861Y71501D01*
X199792Y71465D01*
X199780Y71456D01*
Y76540D01*
X199790Y76532D01*
X199860Y76496D01*
X199935Y76470D01*
X200013Y76456D01*
X200092Y76455D01*
X200171Y76467D01*
X200246Y76490D01*
X200317Y76525D01*
X200382Y76571D01*
X200439Y76626D01*
X200487Y76689D01*
X200524Y76759D01*
X200549Y76834D01*
X200563Y76912D01*
X200564Y76992D01*
X200552Y77070D01*
X200529Y77146D01*
X200493Y77216D01*
X200343Y77490D01*
X200221Y77777D01*
X200125Y78074D01*
X200056Y78379D01*
X200014Y78688D01*
X200000Y79000D01*
X200014Y79312D01*
X200056Y79621D01*
X200125Y79926D01*
X200221Y80223D01*
X200343Y80510D01*
X200490Y80786D01*
X200526Y80855D01*
X200549Y80931D01*
X200560Y81009D01*
X200559Y81087D01*
X200546Y81165D01*
X200520Y81239D01*
X200484Y81309D01*
X200436Y81372D01*
X200380Y81427D01*
X200316Y81472D01*
X200245Y81507D01*
X200170Y81530D01*
X200092Y81541D01*
X200013Y81540D01*
X199936Y81527D01*
X199861Y81501D01*
X199792Y81465D01*
X199780Y81456D01*
Y86459D01*
G37*
G36*
Y158500D02*X203502D01*
Y93514D01*
X203500Y93514D01*
X202794Y93458D01*
X202105Y93293D01*
X201451Y93022D01*
X200847Y92652D01*
X200308Y92192D01*
X199848Y91653D01*
X199780Y91541D01*
Y158500D01*
G37*
G36*
X146246D02*X199780D01*
Y91541D01*
X199478Y91049D01*
X199207Y90395D01*
X199042Y89706D01*
X198986Y89000D01*
X199042Y88294D01*
X199207Y87605D01*
X199478Y86951D01*
X199780Y86459D01*
Y81456D01*
X199729Y81417D01*
X199674Y81361D01*
X199630Y81296D01*
X199436Y80944D01*
X199279Y80574D01*
X199156Y80191D01*
X199067Y79800D01*
X199013Y79401D01*
X198996Y79000D01*
X199013Y78599D01*
X199067Y78200D01*
X199156Y77809D01*
X199279Y77426D01*
X199436Y77056D01*
X199626Y76702D01*
X199671Y76637D01*
X199726Y76580D01*
X199780Y76540D01*
Y71456D01*
X199729Y71417D01*
X199674Y71361D01*
X199630Y71296D01*
X199436Y70944D01*
X199279Y70574D01*
X199156Y70191D01*
X199067Y69800D01*
X199013Y69401D01*
X198996Y69000D01*
X199013Y68599D01*
X199067Y68200D01*
X199156Y67809D01*
X199279Y67426D01*
X199436Y67056D01*
X199626Y66702D01*
X199671Y66637D01*
X199726Y66580D01*
X199780Y66540D01*
Y36791D01*
X199418Y36941D01*
X198224Y37228D01*
X197000Y37324D01*
X195776Y37228D01*
X194582Y36941D01*
X193448Y36471D01*
X192401Y35830D01*
X191468Y35032D01*
X190670Y34099D01*
X190029Y33052D01*
X189559Y31918D01*
X189272Y30724D01*
X189176Y29500D01*
X189272Y28276D01*
X189559Y27082D01*
X190029Y25948D01*
X190670Y24901D01*
X191468Y23968D01*
X192401Y23170D01*
X193448Y22529D01*
X194582Y22059D01*
X195776Y21772D01*
X197000Y21676D01*
X198224Y21772D01*
X199418Y22059D01*
X199780Y22209D01*
Y1500D01*
X146246D01*
Y13000D01*
X146941D01*
X147000Y12995D01*
X147235Y13014D01*
X147235Y13014D01*
X147465Y13069D01*
X147683Y13159D01*
X147884Y13283D01*
X148064Y13436D01*
X148102Y13481D01*
X149519Y14898D01*
X149564Y14936D01*
X149717Y15115D01*
X149717Y15116D01*
X149841Y15317D01*
X149931Y15535D01*
X149986Y15765D01*
X150005Y16000D01*
X150000Y16059D01*
Y17756D01*
X150131Y17869D01*
X150366Y18144D01*
X150556Y18453D01*
X150694Y18787D01*
X150779Y19139D01*
X150800Y19500D01*
X150779Y19861D01*
X150694Y20213D01*
X150556Y20547D01*
X150366Y20856D01*
X150131Y21131D01*
X149856Y21366D01*
X149547Y21556D01*
X149213Y21694D01*
X148861Y21779D01*
X148500Y21807D01*
X148139Y21779D01*
X147787Y21694D01*
X147453Y21556D01*
X147144Y21366D01*
X146869Y21131D01*
X146634Y20856D01*
X146444Y20547D01*
X146306Y20213D01*
X146246Y19966D01*
Y27000D01*
X173182D01*
X173294Y26869D01*
X173569Y26634D01*
X173878Y26444D01*
X174212Y26306D01*
X174564Y26221D01*
X174925Y26193D01*
X175286Y26221D01*
X175638Y26306D01*
X175973Y26444D01*
X176281Y26634D01*
X176557Y26869D01*
X176792Y27144D01*
X176981Y27453D01*
X177119Y27787D01*
X177204Y28139D01*
X177225Y28500D01*
X177204Y28861D01*
X177119Y29213D01*
X176981Y29547D01*
X176792Y29856D01*
X176557Y30131D01*
X176281Y30366D01*
X175973Y30556D01*
X175638Y30694D01*
X175286Y30779D01*
X174925Y30807D01*
X174564Y30779D01*
X174212Y30694D01*
X173878Y30556D01*
X173569Y30366D01*
X173294Y30131D01*
X173182Y30000D01*
X172914D01*
X173132Y30134D01*
X173407Y30369D01*
X173642Y30644D01*
X173832Y30953D01*
X173970Y31287D01*
X174055Y31639D01*
X174076Y32000D01*
X174055Y32361D01*
X173970Y32713D01*
X173832Y33047D01*
X173642Y33356D01*
X173407Y33631D01*
X173132Y33866D01*
X172914Y34000D01*
X179480D01*
X179593Y33869D01*
X179868Y33634D01*
X180177Y33444D01*
X180511Y33306D01*
X180863Y33221D01*
X181224Y33193D01*
X181585Y33221D01*
X181937Y33306D01*
X182271Y33444D01*
X182580Y33634D01*
X182855Y33869D01*
X183090Y34144D01*
X183280Y34453D01*
X183418Y34787D01*
X183503Y35139D01*
X183524Y35500D01*
X183503Y35861D01*
X183418Y36213D01*
X183280Y36547D01*
X183090Y36856D01*
X182855Y37131D01*
X182580Y37366D01*
X182271Y37556D01*
X181937Y37694D01*
X181585Y37779D01*
X181224Y37807D01*
X180863Y37779D01*
X180511Y37694D01*
X180177Y37556D01*
X179868Y37366D01*
X179593Y37131D01*
X179480Y37000D01*
X179213D01*
X179431Y37134D01*
X179707Y37369D01*
X179942Y37644D01*
X180131Y37953D01*
X180269Y38287D01*
X180354Y38639D01*
X180375Y39000D01*
X180354Y39361D01*
X180269Y39713D01*
X180131Y40047D01*
X179942Y40356D01*
X179707Y40631D01*
X179431Y40866D01*
X179213Y41000D01*
X185756D01*
X185869Y40869D01*
X186144Y40634D01*
X186453Y40444D01*
X186787Y40306D01*
X187139Y40221D01*
X187500Y40193D01*
X187861Y40221D01*
X188213Y40306D01*
X188547Y40444D01*
X188856Y40634D01*
X189131Y40869D01*
X189366Y41144D01*
X189556Y41453D01*
X189694Y41787D01*
X189779Y42139D01*
X189800Y42500D01*
X189779Y42861D01*
X189694Y43213D01*
X189556Y43547D01*
X189366Y43856D01*
X189131Y44131D01*
X188856Y44366D01*
X188547Y44556D01*
X188213Y44694D01*
X187861Y44779D01*
X187500Y44807D01*
X187139Y44779D01*
X186787Y44694D01*
X186453Y44556D01*
X186144Y44366D01*
X185869Y44131D01*
X185756Y44000D01*
X185638D01*
X185856Y44134D01*
X186131Y44369D01*
X186366Y44644D01*
X186556Y44953D01*
X186694Y45287D01*
X186779Y45639D01*
X186800Y46000D01*
X186779Y46361D01*
X186694Y46713D01*
X186556Y47047D01*
X186366Y47356D01*
X186131Y47631D01*
X185856Y47866D01*
X185638Y48000D01*
X191756D01*
X191869Y47869D01*
X192144Y47634D01*
X192453Y47444D01*
X192787Y47306D01*
X193139Y47221D01*
X193500Y47193D01*
X193861Y47221D01*
X194213Y47306D01*
X194547Y47444D01*
X194856Y47634D01*
X195131Y47869D01*
X195366Y48144D01*
X195556Y48453D01*
X195694Y48787D01*
X195779Y49139D01*
X195800Y49500D01*
X195779Y49861D01*
X195694Y50213D01*
X195556Y50547D01*
X195366Y50856D01*
X195131Y51131D01*
X194856Y51366D01*
X194547Y51556D01*
X194213Y51694D01*
X193861Y51779D01*
X193500Y51807D01*
X193139Y51779D01*
X192787Y51694D01*
X192453Y51556D01*
X192144Y51366D01*
X191869Y51131D01*
X191756Y51000D01*
X191638D01*
X191856Y51134D01*
X192131Y51369D01*
X192366Y51644D01*
X192556Y51953D01*
X192694Y52287D01*
X192779Y52639D01*
X192800Y53000D01*
X192779Y53361D01*
X192694Y53713D01*
X192556Y54047D01*
X192366Y54356D01*
X192131Y54631D01*
X191856Y54866D01*
X191547Y55056D01*
X191213Y55194D01*
X190861Y55279D01*
X190500Y55307D01*
X190139Y55279D01*
X189787Y55194D01*
X189453Y55056D01*
X189144Y54866D01*
X188869Y54631D01*
X188756Y54500D01*
X146246D01*
Y158500D01*
G37*
G36*
Y1500D02*X97585D01*
X98153Y1848D01*
X98692Y2308D01*
X99152Y2847D01*
X99522Y3451D01*
X99793Y4105D01*
X99958Y4794D01*
X100000Y5500D01*
X99958Y6206D01*
X99793Y6895D01*
X99522Y7549D01*
X99152Y8153D01*
X98692Y8692D01*
X98153Y9152D01*
X97549Y9522D01*
X96895Y9793D01*
X96206Y9958D01*
X95500Y10014D01*
X94794Y9958D01*
X94105Y9793D01*
X93451Y9522D01*
X92847Y9152D01*
X92308Y8692D01*
X91848Y8153D01*
X91478Y7549D01*
X91207Y6895D01*
X91042Y6206D01*
X90986Y5500D01*
X91042Y4794D01*
X91207Y4105D01*
X91478Y3451D01*
X91848Y2847D01*
X92308Y2308D01*
X92847Y1848D01*
X93415Y1500D01*
X87585D01*
X88153Y1848D01*
X88692Y2308D01*
X89152Y2847D01*
X89522Y3451D01*
X89793Y4105D01*
X89958Y4794D01*
X90000Y5500D01*
X89958Y6206D01*
X89793Y6895D01*
X89522Y7549D01*
X89152Y8153D01*
X88692Y8692D01*
X88153Y9152D01*
X87549Y9522D01*
X86895Y9793D01*
X86206Y9958D01*
X85500Y10014D01*
X84794Y9958D01*
X84105Y9793D01*
X83451Y9522D01*
X82847Y9152D01*
X82308Y8692D01*
X81848Y8153D01*
X81478Y7549D01*
X81207Y6895D01*
X81042Y6206D01*
X80986Y5500D01*
X81042Y4794D01*
X81207Y4105D01*
X81478Y3451D01*
X81848Y2847D01*
X82308Y2308D01*
X82847Y1848D01*
X83415Y1500D01*
X77585D01*
X78153Y1848D01*
X78692Y2308D01*
X79152Y2847D01*
X79522Y3451D01*
X79793Y4105D01*
X79958Y4794D01*
X80000Y5500D01*
X79958Y6206D01*
X79793Y6895D01*
X79522Y7549D01*
X79152Y8153D01*
X78692Y8692D01*
X78153Y9152D01*
X77549Y9522D01*
X76895Y9793D01*
X76206Y9958D01*
X75500Y10014D01*
X74794Y9958D01*
X74105Y9793D01*
X73451Y9522D01*
X72847Y9152D01*
X72308Y8692D01*
X71848Y8153D01*
X71478Y7549D01*
X71207Y6895D01*
X71042Y6206D01*
X70986Y5500D01*
X71042Y4794D01*
X71207Y4105D01*
X71478Y3451D01*
X71848Y2847D01*
X72308Y2308D01*
X72847Y1848D01*
X73415Y1500D01*
X67585D01*
X68153Y1848D01*
X68692Y2308D01*
X69152Y2847D01*
X69522Y3451D01*
X69793Y4105D01*
X69958Y4794D01*
X70000Y5500D01*
X69958Y6206D01*
X69793Y6895D01*
X69522Y7549D01*
X69152Y8153D01*
X68692Y8692D01*
X68153Y9152D01*
X67549Y9522D01*
X66895Y9793D01*
X66206Y9958D01*
X65500Y10014D01*
X64794Y9958D01*
X64105Y9793D01*
X63451Y9522D01*
X62847Y9152D01*
X62308Y8692D01*
X61848Y8153D01*
X61478Y7549D01*
X61207Y6895D01*
X61042Y6206D01*
X60986Y5500D01*
X61042Y4794D01*
X61207Y4105D01*
X61478Y3451D01*
X61848Y2847D01*
X62308Y2308D01*
X62847Y1848D01*
X63415Y1500D01*
X57585D01*
X58153Y1848D01*
X58692Y2308D01*
X59152Y2847D01*
X59522Y3451D01*
X59793Y4105D01*
X59958Y4794D01*
X60000Y5500D01*
X59958Y6206D01*
X59793Y6895D01*
X59565Y7444D01*
X61519Y9398D01*
X61564Y9436D01*
X61717Y9615D01*
X61717Y9616D01*
X61841Y9817D01*
X61931Y10035D01*
X61986Y10265D01*
X62005Y10500D01*
X62000Y10559D01*
Y12669D01*
X62308Y12308D01*
X62847Y11848D01*
X63451Y11478D01*
X64105Y11207D01*
X64794Y11042D01*
X65500Y10986D01*
X66206Y11042D01*
X66895Y11207D01*
X67549Y11478D01*
X68153Y11848D01*
X68692Y12308D01*
X69152Y12847D01*
X69522Y13451D01*
X69793Y14105D01*
X69958Y14794D01*
X70000Y15500D01*
X69958Y16206D01*
X69793Y16895D01*
X69522Y17549D01*
X69152Y18153D01*
X68692Y18692D01*
X68153Y19152D01*
X67549Y19522D01*
X66895Y19793D01*
X66206Y19958D01*
X65676Y20000D01*
X75324D01*
X74794Y19958D01*
X74105Y19793D01*
X73451Y19522D01*
X72847Y19152D01*
X72308Y18692D01*
X71848Y18153D01*
X71478Y17549D01*
X71207Y16895D01*
X71042Y16206D01*
X70986Y15500D01*
X71042Y14794D01*
X71207Y14105D01*
X71478Y13451D01*
X71848Y12847D01*
X72308Y12308D01*
X72847Y11848D01*
X73451Y11478D01*
X74105Y11207D01*
X74794Y11042D01*
X75500Y10986D01*
X76206Y11042D01*
X76895Y11207D01*
X77549Y11478D01*
X78153Y11848D01*
X78692Y12308D01*
X79152Y12847D01*
X79522Y13451D01*
X79793Y14105D01*
X79958Y14794D01*
X80000Y15500D01*
X79958Y16206D01*
X79793Y16895D01*
X79522Y17549D01*
X79152Y18153D01*
X78692Y18692D01*
X78153Y19152D01*
X77549Y19522D01*
X76895Y19793D01*
X76206Y19958D01*
X75676Y20000D01*
X85324D01*
X84794Y19958D01*
X84105Y19793D01*
X83451Y19522D01*
X82847Y19152D01*
X82308Y18692D01*
X81848Y18153D01*
X81478Y17549D01*
X81207Y16895D01*
X81042Y16206D01*
X80986Y15500D01*
X81042Y14794D01*
X81207Y14105D01*
X81478Y13451D01*
X81848Y12847D01*
X82308Y12308D01*
X82847Y11848D01*
X83451Y11478D01*
X84105Y11207D01*
X84794Y11042D01*
X85500Y10986D01*
X86206Y11042D01*
X86895Y11207D01*
X87549Y11478D01*
X88153Y11848D01*
X88692Y12308D01*
X89152Y12847D01*
X89522Y13451D01*
X89793Y14105D01*
X89958Y14794D01*
X90000Y15500D01*
X89958Y16206D01*
X89793Y16895D01*
X89522Y17549D01*
X89152Y18153D01*
X88692Y18692D01*
X88153Y19152D01*
X87549Y19522D01*
X86895Y19793D01*
X86206Y19958D01*
X85676Y20000D01*
X95324D01*
X94794Y19958D01*
X94105Y19793D01*
X93451Y19522D01*
X92847Y19152D01*
X92308Y18692D01*
X91848Y18153D01*
X91478Y17549D01*
X91207Y16895D01*
X91042Y16206D01*
X90986Y15500D01*
X91042Y14794D01*
X91207Y14105D01*
X91478Y13451D01*
X91848Y12847D01*
X92308Y12308D01*
X92847Y11848D01*
X93451Y11478D01*
X94105Y11207D01*
X94794Y11042D01*
X95500Y10986D01*
X96206Y11042D01*
X96895Y11207D01*
X97549Y11478D01*
X98153Y11848D01*
X98692Y12308D01*
X99152Y12847D01*
X99522Y13451D01*
X99793Y14105D01*
X99958Y14794D01*
X100000Y15500D01*
X99958Y16206D01*
X99793Y16895D01*
X99522Y17549D01*
X99152Y18153D01*
X98692Y18692D01*
X98153Y19152D01*
X97549Y19522D01*
X96895Y19793D01*
X96206Y19958D01*
X95676Y20000D01*
X119756D01*
X119869Y19869D01*
X120144Y19634D01*
X120453Y19444D01*
X120787Y19306D01*
X121139Y19221D01*
X121500Y19193D01*
X121861Y19221D01*
X122213Y19306D01*
X122547Y19444D01*
X122856Y19634D01*
X123131Y19869D01*
X123366Y20144D01*
X123556Y20453D01*
X123694Y20787D01*
X123779Y21139D01*
X123800Y21500D01*
X123779Y21861D01*
X123694Y22213D01*
X123556Y22547D01*
X123366Y22856D01*
X123131Y23131D01*
X122856Y23366D01*
X122638Y23500D01*
X123256D01*
X123369Y23369D01*
X123644Y23134D01*
X123953Y22944D01*
X124287Y22806D01*
X124639Y22721D01*
X125000Y22693D01*
X125361Y22721D01*
X125713Y22806D01*
X126047Y22944D01*
X126356Y23134D01*
X126631Y23369D01*
X126866Y23644D01*
X127056Y23953D01*
X127194Y24287D01*
X127279Y24639D01*
X127300Y25000D01*
X127279Y25361D01*
X127194Y25713D01*
X127056Y26047D01*
X126866Y26356D01*
X126631Y26631D01*
X126356Y26866D01*
X126138Y27000D01*
X146246D01*
Y19966D01*
X146221Y19861D01*
X146193Y19500D01*
X146221Y19139D01*
X146246Y19034D01*
Y16000D01*
X145744D01*
X145631Y16131D01*
X145356Y16366D01*
X145047Y16556D01*
X144713Y16694D01*
X144361Y16779D01*
X144000Y16807D01*
X143639Y16779D01*
X143287Y16694D01*
X142953Y16556D01*
X142644Y16366D01*
X142369Y16131D01*
X142134Y15856D01*
X141944Y15547D01*
X141806Y15213D01*
X141721Y14861D01*
X141693Y14500D01*
X141721Y14139D01*
X141806Y13787D01*
X141944Y13453D01*
X142134Y13144D01*
X142369Y12869D01*
X142644Y12634D01*
X142953Y12444D01*
X143287Y12306D01*
X143639Y12221D01*
X144000Y12193D01*
X144361Y12221D01*
X144713Y12306D01*
X145047Y12444D01*
X145356Y12634D01*
X145631Y12869D01*
X145744Y13000D01*
X146246D01*
Y1500D01*
G37*
G36*
X123108Y158500D02*X146246D01*
Y54500D01*
X123108D01*
Y55849D01*
X123131Y55869D01*
X123250Y56008D01*
X123369Y55869D01*
X123644Y55634D01*
X123953Y55444D01*
X124287Y55306D01*
X124639Y55221D01*
X125000Y55193D01*
X125361Y55221D01*
X125713Y55306D01*
X126047Y55444D01*
X126356Y55634D01*
X126631Y55869D01*
X126866Y56144D01*
X127056Y56453D01*
X127194Y56787D01*
X127279Y57139D01*
X127300Y57500D01*
X127279Y57861D01*
X127194Y58213D01*
X127056Y58547D01*
X126866Y58856D01*
X126631Y59131D01*
X126500Y59244D01*
Y59441D01*
X126505Y59500D01*
X126486Y59735D01*
X126431Y59965D01*
X126341Y60183D01*
X126217Y60384D01*
X126064Y60564D01*
X126019Y60602D01*
X123108Y63513D01*
Y91849D01*
X123131Y91869D01*
X123366Y92144D01*
X123556Y92453D01*
X123694Y92787D01*
X123779Y93139D01*
X123800Y93500D01*
X123790Y93669D01*
X127944Y97823D01*
X127989Y97861D01*
X128142Y98041D01*
X128142Y98041D01*
X128266Y98242D01*
X128356Y98460D01*
X128411Y98690D01*
X128430Y98925D01*
X128425Y98984D01*
Y99756D01*
X128557Y99869D01*
X128792Y100144D01*
X128981Y100453D01*
X129119Y100787D01*
X129204Y101139D01*
X129225Y101500D01*
X129204Y101861D01*
X129119Y102213D01*
X128981Y102547D01*
X128792Y102856D01*
X128557Y103131D01*
X128281Y103366D01*
X127973Y103556D01*
X127638Y103694D01*
X127286Y103779D01*
X126925Y103807D01*
X126564Y103779D01*
X126212Y103694D01*
X125878Y103556D01*
X125569Y103366D01*
X125294Y103131D01*
X125059Y102856D01*
X124870Y102547D01*
X124731Y102213D01*
X124647Y101861D01*
X124618Y101500D01*
X124647Y101139D01*
X124731Y100787D01*
X124870Y100453D01*
X125059Y100144D01*
X125294Y99869D01*
X125425Y99756D01*
Y99547D01*
X123108Y97230D01*
Y110000D01*
X131480D01*
X131593Y109869D01*
X131868Y109634D01*
X132177Y109444D01*
X132511Y109306D01*
X132863Y109221D01*
X133224Y109193D01*
X133585Y109221D01*
X133937Y109306D01*
X134271Y109444D01*
X134580Y109634D01*
X134855Y109869D01*
X135090Y110144D01*
X135280Y110453D01*
X135418Y110787D01*
X135503Y111139D01*
X135524Y111500D01*
X135503Y111861D01*
X135418Y112213D01*
X135280Y112547D01*
X135090Y112856D01*
X134855Y113131D01*
X134580Y113366D01*
X134271Y113556D01*
X133937Y113694D01*
X133585Y113779D01*
X133224Y113807D01*
X132863Y113779D01*
X132511Y113694D01*
X132177Y113556D01*
X132172Y113553D01*
X132269Y113787D01*
X132354Y114139D01*
X132375Y114500D01*
X132354Y114861D01*
X132269Y115213D01*
X132131Y115547D01*
X131942Y115856D01*
X131707Y116131D01*
X131431Y116366D01*
X131123Y116556D01*
X130788Y116694D01*
X130436Y116779D01*
X130075Y116807D01*
X129714Y116779D01*
X129362Y116694D01*
X129028Y116556D01*
X128719Y116366D01*
X128444Y116131D01*
X128332Y116000D01*
X123108D01*
Y158500D01*
G37*
G36*
Y54500D02*X114000D01*
Y58441D01*
X114005Y58500D01*
X113986Y58735D01*
X113986Y58735D01*
X113931Y58965D01*
X113841Y59183D01*
X113717Y59384D01*
X113564Y59564D01*
X113519Y59602D01*
X112102Y61019D01*
X112064Y61064D01*
X111884Y61217D01*
X111683Y61341D01*
X111465Y61431D01*
X111235Y61486D01*
X111235Y61486D01*
X111000Y61505D01*
X110941Y61500D01*
X108621D01*
X108121Y62000D01*
X113879D01*
X115500Y60379D01*
Y59244D01*
X115369Y59131D01*
X115134Y58856D01*
X114944Y58547D01*
X114806Y58213D01*
X114721Y57861D01*
X114693Y57500D01*
X114721Y57139D01*
X114806Y56787D01*
X114944Y56453D01*
X115134Y56144D01*
X115369Y55869D01*
X115644Y55634D01*
X115953Y55444D01*
X116287Y55306D01*
X116639Y55221D01*
X117000Y55193D01*
X117361Y55221D01*
X117713Y55306D01*
X118047Y55444D01*
X118356Y55634D01*
X118631Y55869D01*
X118866Y56144D01*
X119056Y56453D01*
X119194Y56787D01*
X119250Y57020D01*
X119306Y56787D01*
X119444Y56453D01*
X119634Y56144D01*
X119869Y55869D01*
X120144Y55634D01*
X120453Y55444D01*
X120787Y55306D01*
X121139Y55221D01*
X121500Y55193D01*
X121861Y55221D01*
X122213Y55306D01*
X122547Y55444D01*
X122856Y55634D01*
X123108Y55849D01*
Y54500D01*
G37*
G36*
X72790Y48169D02*X73297Y48676D01*
X73221Y48361D01*
X73193Y48000D01*
X73221Y47639D01*
X73306Y47287D01*
X73444Y46953D01*
X73634Y46644D01*
X73869Y46369D01*
X74144Y46134D01*
X74453Y45944D01*
X74787Y45806D01*
X75139Y45721D01*
X75500Y45693D01*
X75861Y45721D01*
X76213Y45806D01*
X76547Y45944D01*
X76856Y46134D01*
X77131Y46369D01*
X77366Y46644D01*
X77556Y46953D01*
X77694Y47287D01*
X77779Y47639D01*
X77800Y48000D01*
X77790Y48169D01*
X78297Y48676D01*
X78221Y48361D01*
X78193Y48000D01*
X78221Y47639D01*
X78306Y47287D01*
X78444Y46953D01*
X78634Y46644D01*
X78869Y46369D01*
X79144Y46134D01*
X79453Y45944D01*
X79787Y45806D01*
X80139Y45721D01*
X80500Y45693D01*
X80861Y45721D01*
X81213Y45806D01*
X81547Y45944D01*
X81856Y46134D01*
X82131Y46369D01*
X82366Y46644D01*
X82556Y46953D01*
X82694Y47287D01*
X82779Y47639D01*
X82800Y48000D01*
X82790Y48169D01*
X83297Y48676D01*
X83221Y48361D01*
X83193Y48000D01*
X83221Y47639D01*
X83306Y47287D01*
X83444Y46953D01*
X83634Y46644D01*
X83869Y46369D01*
X84144Y46134D01*
X84453Y45944D01*
X84787Y45806D01*
X85139Y45721D01*
X85500Y45693D01*
X85861Y45721D01*
X86213Y45806D01*
X86547Y45944D01*
X86856Y46134D01*
X87131Y46369D01*
X87366Y46644D01*
X87556Y46953D01*
X87694Y47287D01*
X87779Y47639D01*
X87800Y48000D01*
X87790Y48169D01*
X97019Y57398D01*
X97064Y57436D01*
X97217Y57615D01*
X97217Y57616D01*
X97341Y57817D01*
X97431Y58035D01*
X97486Y58265D01*
X97505Y58500D01*
X97500Y58559D01*
Y64879D01*
X105706Y56672D01*
X105693Y56500D01*
X105721Y56139D01*
X105806Y55787D01*
X105944Y55453D01*
X106134Y55144D01*
X106369Y54869D01*
X106644Y54634D01*
X106871Y54494D01*
X106765Y54486D01*
X106535Y54431D01*
X106317Y54341D01*
X106116Y54217D01*
X106115Y54217D01*
X105936Y54064D01*
X105898Y54019D01*
X92879Y41000D01*
X34559D01*
X34500Y41005D01*
X34265Y40986D01*
X34035Y40931D01*
X33817Y40841D01*
X33616Y40717D01*
X33615Y40717D01*
X33436Y40564D01*
X33398Y40519D01*
X24116Y31237D01*
Y119161D01*
X24122Y119160D01*
X24776Y119212D01*
X25413Y119365D01*
X26019Y119616D01*
X26578Y119958D01*
X27076Y120384D01*
X27502Y120883D01*
X27845Y121442D01*
X28096Y122047D01*
X28249Y122685D01*
X28287Y123339D01*
X28249Y123992D01*
X28096Y124630D01*
X27845Y125235D01*
X27502Y125794D01*
X27076Y126293D01*
X26578Y126719D01*
X26019Y127061D01*
X25413Y127312D01*
X24776Y127465D01*
X24122Y127517D01*
X24116Y127516D01*
Y136484D01*
X24122Y136483D01*
X24776Y136535D01*
X25413Y136688D01*
X26019Y136939D01*
X26578Y137281D01*
X27076Y137707D01*
X27502Y138206D01*
X27845Y138765D01*
X28096Y139370D01*
X28249Y140008D01*
X28287Y140661D01*
X28249Y141315D01*
X28096Y141953D01*
X27845Y142558D01*
X27502Y143117D01*
X27076Y143616D01*
X26578Y144042D01*
X26019Y144384D01*
X25413Y144635D01*
X24776Y144788D01*
X24122Y144840D01*
X24116Y144839D01*
Y158500D01*
X123108D01*
Y116000D01*
X118744D01*
X118631Y116131D01*
X118356Y116366D01*
X118047Y116556D01*
X117713Y116694D01*
X117361Y116779D01*
X117000Y116807D01*
X116639Y116779D01*
X116287Y116694D01*
X115953Y116556D01*
X115644Y116366D01*
X115369Y116131D01*
X115134Y115856D01*
X114944Y115547D01*
X114806Y115213D01*
X114721Y114861D01*
X114697Y114554D01*
X114631Y114631D01*
X114356Y114866D01*
X114047Y115056D01*
X113713Y115194D01*
X113361Y115279D01*
X113000Y115307D01*
X112639Y115279D01*
X112287Y115194D01*
X111953Y115056D01*
X111644Y114866D01*
X111369Y114631D01*
X111134Y114356D01*
X110944Y114047D01*
X110806Y113713D01*
X110721Y113361D01*
X110693Y113000D01*
X110721Y112639D01*
X110806Y112287D01*
X110944Y111953D01*
X111134Y111644D01*
X111369Y111369D01*
X111644Y111134D01*
X111953Y110944D01*
X112287Y110806D01*
X112639Y110721D01*
X113000Y110693D01*
X113172Y110706D01*
X113398Y110481D01*
X113436Y110436D01*
X113615Y110283D01*
X113616Y110283D01*
X113817Y110159D01*
X114035Y110069D01*
X114265Y110014D01*
X114500Y109995D01*
X114559Y110000D01*
X123108D01*
Y97230D01*
X121672Y95794D01*
X121500Y95807D01*
X121139Y95779D01*
X120787Y95694D01*
X120453Y95556D01*
X120144Y95366D01*
X119869Y95131D01*
X119634Y94856D01*
X119444Y94547D01*
X119306Y94213D01*
X119221Y93861D01*
X119193Y93500D01*
X119221Y93139D01*
X119306Y92787D01*
X119444Y92453D01*
X119634Y92144D01*
X119869Y91869D01*
X120144Y91634D01*
X120453Y91444D01*
X120787Y91306D01*
X121139Y91221D01*
X121500Y91193D01*
X121861Y91221D01*
X122213Y91306D01*
X122547Y91444D01*
X122856Y91634D01*
X123108Y91849D01*
Y63513D01*
X118500Y68121D01*
Y88756D01*
X118631Y88869D01*
X118866Y89144D01*
X119056Y89453D01*
X119194Y89787D01*
X119279Y90139D01*
X119300Y90500D01*
X119279Y90861D01*
X119194Y91213D01*
X119056Y91547D01*
X118866Y91856D01*
X118631Y92131D01*
X118500Y92244D01*
Y94756D01*
X118631Y94869D01*
X118866Y95144D01*
X119056Y95453D01*
X119194Y95787D01*
X119279Y96139D01*
X119300Y96500D01*
X119279Y96861D01*
X119194Y97213D01*
X119128Y97372D01*
X119287Y97306D01*
X119639Y97221D01*
X120000Y97193D01*
X120361Y97221D01*
X120713Y97306D01*
X121047Y97444D01*
X121356Y97634D01*
X121631Y97869D01*
X121866Y98144D01*
X122056Y98453D01*
X122194Y98787D01*
X122279Y99139D01*
X122300Y99500D01*
X122279Y99861D01*
X122194Y100213D01*
X122056Y100547D01*
X121866Y100856D01*
X121631Y101131D01*
X121356Y101366D01*
X121047Y101556D01*
X120713Y101694D01*
X120361Y101779D01*
X120000Y101807D01*
X119639Y101779D01*
X119287Y101694D01*
X118953Y101556D01*
X118644Y101366D01*
X118369Y101131D01*
X118256Y101000D01*
X115621D01*
X110102Y106519D01*
X110064Y106564D01*
X109884Y106717D01*
X109683Y106841D01*
X109465Y106931D01*
X109235Y106986D01*
X109000Y107005D01*
X108941Y107000D01*
X95121D01*
X92500Y109621D01*
Y110941D01*
X92505Y111000D01*
X92486Y111235D01*
X92431Y111465D01*
X92341Y111683D01*
X92217Y111884D01*
X92064Y112064D01*
X92019Y112102D01*
X89290Y114831D01*
X89300Y115000D01*
X89279Y115361D01*
X89194Y115713D01*
X89056Y116047D01*
X88866Y116356D01*
X88631Y116631D01*
X88356Y116866D01*
X88047Y117056D01*
X87713Y117194D01*
X87361Y117279D01*
X87000Y117307D01*
X86639Y117279D01*
X86287Y117194D01*
X85953Y117056D01*
X85644Y116866D01*
X85369Y116631D01*
X85134Y116356D01*
X84944Y116047D01*
X84806Y115713D01*
X84721Y115361D01*
X84693Y115000D01*
X84706Y114828D01*
X82981Y113102D01*
X82936Y113064D01*
X82783Y112884D01*
X82659Y112683D01*
X82569Y112465D01*
X82514Y112235D01*
X82514Y112235D01*
X82495Y112000D01*
X82500Y111941D01*
Y103744D01*
X82369Y103631D01*
X82134Y103356D01*
X82000Y103138D01*
X81866Y103356D01*
X81631Y103631D01*
X81500Y103744D01*
Y116879D01*
X84121Y119500D01*
X97256D01*
X97369Y119369D01*
X97644Y119134D01*
X97953Y118944D01*
X98287Y118806D01*
X98639Y118721D01*
X99000Y118693D01*
X99361Y118721D01*
X99713Y118806D01*
X100047Y118944D01*
X100356Y119134D01*
X100631Y119369D01*
X100866Y119644D01*
X101056Y119953D01*
X101194Y120287D01*
X101279Y120639D01*
X101300Y121000D01*
X101279Y121361D01*
X101194Y121713D01*
X101056Y122047D01*
X100866Y122356D01*
X100631Y122631D01*
X100356Y122866D01*
X100047Y123056D01*
X99713Y123194D01*
X99361Y123279D01*
X99000Y123307D01*
X98639Y123279D01*
X98287Y123194D01*
X97953Y123056D01*
X97644Y122866D01*
X97369Y122631D01*
X97256Y122500D01*
X83559D01*
X83500Y122505D01*
X83265Y122486D01*
X83035Y122431D01*
X82817Y122341D01*
X82616Y122217D01*
X82615Y122217D01*
X82436Y122064D01*
X82398Y122019D01*
X78981Y118602D01*
X78936Y118564D01*
X78783Y118384D01*
X78659Y118183D01*
X78569Y117965D01*
X78514Y117735D01*
X78514Y117735D01*
X78495Y117500D01*
X78500Y117441D01*
Y103744D01*
X78369Y103631D01*
X78134Y103356D01*
X77944Y103047D01*
X77806Y102713D01*
X77721Y102361D01*
X77693Y102000D01*
X77721Y101639D01*
X77806Y101287D01*
X77944Y100953D01*
X78134Y100644D01*
X78369Y100369D01*
X78500Y100256D01*
Y91744D01*
X78356Y91866D01*
X78047Y92056D01*
X77713Y92194D01*
X77361Y92279D01*
X77000Y92307D01*
X76639Y92279D01*
X76287Y92194D01*
X75953Y92056D01*
X75644Y91866D01*
X75369Y91631D01*
X75134Y91356D01*
X74944Y91047D01*
X74806Y90713D01*
X74721Y90361D01*
X74693Y90000D01*
X74721Y89639D01*
X74806Y89287D01*
X74944Y88953D01*
X75134Y88644D01*
X75369Y88369D01*
X75500Y88256D01*
Y65121D01*
X60672Y50294D01*
X60500Y50307D01*
X60139Y50279D01*
X59787Y50194D01*
X59453Y50056D01*
X59144Y49866D01*
X58869Y49631D01*
X58634Y49356D01*
X58444Y49047D01*
X58306Y48713D01*
X58221Y48361D01*
X58193Y48000D01*
X58221Y47639D01*
X58306Y47287D01*
X58444Y46953D01*
X58634Y46644D01*
X58869Y46369D01*
X59144Y46134D01*
X59453Y45944D01*
X59787Y45806D01*
X60139Y45721D01*
X60500Y45693D01*
X60861Y45721D01*
X61213Y45806D01*
X61547Y45944D01*
X61856Y46134D01*
X62131Y46369D01*
X62366Y46644D01*
X62556Y46953D01*
X62694Y47287D01*
X62779Y47639D01*
X62800Y48000D01*
X62790Y48169D01*
X63297Y48676D01*
X63221Y48361D01*
X63193Y48000D01*
X63221Y47639D01*
X63306Y47287D01*
X63444Y46953D01*
X63634Y46644D01*
X63869Y46369D01*
X64144Y46134D01*
X64453Y45944D01*
X64787Y45806D01*
X65139Y45721D01*
X65500Y45693D01*
X65861Y45721D01*
X66213Y45806D01*
X66547Y45944D01*
X66856Y46134D01*
X67131Y46369D01*
X67366Y46644D01*
X67556Y46953D01*
X67694Y47287D01*
X67779Y47639D01*
X67800Y48000D01*
X67790Y48169D01*
X68297Y48676D01*
X68221Y48361D01*
X68193Y48000D01*
X68221Y47639D01*
X68306Y47287D01*
X68444Y46953D01*
X68634Y46644D01*
X68869Y46369D01*
X69144Y46134D01*
X69453Y45944D01*
X69787Y45806D01*
X70139Y45721D01*
X70500Y45693D01*
X70861Y45721D01*
X71213Y45806D01*
X71547Y45944D01*
X71856Y46134D01*
X72131Y46369D01*
X72366Y46644D01*
X72556Y46953D01*
X72694Y47287D01*
X72779Y47639D01*
X72800Y48000D01*
X72790Y48169D01*
G37*
G36*
X24116Y31237D02*X14481Y21602D01*
X14436Y21564D01*
X14283Y21384D01*
X14159Y21183D01*
X14069Y20965D01*
X14014Y20735D01*
X14014Y20735D01*
X13995Y20500D01*
X14000Y20441D01*
Y19749D01*
X13451Y19522D01*
X12847Y19152D01*
X12308Y18692D01*
X11848Y18153D01*
X11478Y17549D01*
X11207Y16895D01*
X11042Y16206D01*
X10986Y15500D01*
X11042Y14794D01*
X11207Y14105D01*
X11478Y13451D01*
X11848Y12847D01*
X12308Y12308D01*
X12847Y11848D01*
X13451Y11478D01*
X14105Y11207D01*
X14794Y11042D01*
X15500Y10986D01*
X16206Y11042D01*
X16895Y11207D01*
X17549Y11478D01*
X18153Y11848D01*
X18692Y12308D01*
X19000Y12669D01*
Y11121D01*
X17444Y9565D01*
X16895Y9793D01*
X16206Y9958D01*
X15500Y10014D01*
X14794Y9958D01*
X14105Y9793D01*
X13451Y9522D01*
X12847Y9152D01*
X12308Y8692D01*
X11848Y8153D01*
X11478Y7549D01*
X11207Y6895D01*
X11042Y6206D01*
X10986Y5500D01*
X11042Y4794D01*
X11207Y4105D01*
X11478Y3451D01*
X11848Y2847D01*
X12308Y2308D01*
X12847Y1848D01*
X13415Y1500D01*
X9250D01*
Y3248D01*
X9368Y3257D01*
X9482Y3285D01*
X9592Y3330D01*
X9692Y3391D01*
X9782Y3468D01*
X9859Y3558D01*
X9920Y3658D01*
X9965Y3768D01*
X9993Y3882D01*
X10000Y4000D01*
Y7000D01*
X9993Y7118D01*
X9965Y7232D01*
X9920Y7342D01*
X9859Y7442D01*
X9782Y7532D01*
X9692Y7609D01*
X9592Y7670D01*
X9482Y7715D01*
X9368Y7743D01*
X9250Y7752D01*
Y13391D01*
X9268Y13397D01*
X9373Y13452D01*
X9468Y13522D01*
X9551Y13606D01*
X9619Y13702D01*
X9670Y13808D01*
X9818Y14216D01*
X9922Y14637D01*
X9984Y15067D01*
X10005Y15500D01*
X9984Y15933D01*
X9922Y16363D01*
X9818Y16784D01*
X9675Y17194D01*
X9622Y17300D01*
X9553Y17396D01*
X9470Y17481D01*
X9375Y17551D01*
X9269Y17606D01*
X9250Y17612D01*
Y158500D01*
X24116D01*
Y144839D01*
X23468Y144788D01*
X22831Y144635D01*
X22225Y144384D01*
X21666Y144042D01*
X21168Y143616D01*
X20742Y143117D01*
X20399Y142558D01*
X20148Y141953D01*
X19995Y141315D01*
X19944Y140661D01*
X19995Y140008D01*
X20148Y139370D01*
X20399Y138765D01*
X20742Y138206D01*
X21168Y137707D01*
X21666Y137281D01*
X22225Y136939D01*
X22831Y136688D01*
X23468Y136535D01*
X24116Y136484D01*
Y127516D01*
X23468Y127465D01*
X22831Y127312D01*
X22225Y127061D01*
X21666Y126719D01*
X21168Y126293D01*
X20742Y125794D01*
X20399Y125235D01*
X20148Y124630D01*
X19995Y123992D01*
X19944Y123339D01*
X19995Y122685D01*
X20148Y122047D01*
X20399Y121442D01*
X20742Y120883D01*
X21168Y120384D01*
X21666Y119958D01*
X22225Y119616D01*
X22831Y119365D01*
X23468Y119212D01*
X24116Y119161D01*
Y31237D01*
G37*
G36*
X9250Y1500D02*X7708D01*
X7715Y1518D01*
X7743Y1632D01*
X7752Y1750D01*
X7743Y1868D01*
X7715Y1982D01*
X7670Y2092D01*
X7609Y2192D01*
X7532Y2282D01*
X7442Y2359D01*
X7342Y2420D01*
X7232Y2465D01*
X7118Y2493D01*
X7000Y2500D01*
X5500D01*
Y8500D01*
X7000D01*
X7118Y8507D01*
X7232Y8535D01*
X7342Y8580D01*
X7442Y8641D01*
X7532Y8718D01*
X7609Y8808D01*
X7670Y8908D01*
X7715Y9018D01*
X7743Y9132D01*
X7752Y9250D01*
X7743Y9368D01*
X7715Y9482D01*
X7670Y9592D01*
X7609Y9692D01*
X7532Y9782D01*
X7442Y9859D01*
X7342Y9920D01*
X7232Y9965D01*
X7118Y9993D01*
X7000Y10000D01*
X5500D01*
Y10995D01*
X5933Y11016D01*
X6363Y11078D01*
X6784Y11182D01*
X7194Y11325D01*
X7300Y11378D01*
X7396Y11447D01*
X7481Y11530D01*
X7551Y11625D01*
X7606Y11731D01*
X7643Y11843D01*
X7663Y11960D01*
X7664Y12079D01*
X7646Y12196D01*
X7610Y12309D01*
X7557Y12415D01*
X7488Y12512D01*
X7405Y12596D01*
X7309Y12667D01*
X7204Y12721D01*
X7092Y12759D01*
X6975Y12778D01*
X6856Y12779D01*
X6739Y12761D01*
X6626Y12723D01*
X6355Y12624D01*
X6075Y12556D01*
X5789Y12514D01*
X5500Y12500D01*
Y18500D01*
X5789Y18486D01*
X6075Y18444D01*
X6355Y18376D01*
X6628Y18280D01*
X6739Y18242D01*
X6856Y18225D01*
X6974Y18225D01*
X7091Y18245D01*
X7203Y18282D01*
X7307Y18336D01*
X7402Y18406D01*
X7485Y18491D01*
X7554Y18587D01*
X7607Y18692D01*
X7643Y18805D01*
X7660Y18921D01*
X7659Y19039D01*
X7640Y19156D01*
X7603Y19268D01*
X7548Y19373D01*
X7478Y19468D01*
X7394Y19551D01*
X7298Y19619D01*
X7192Y19670D01*
X6784Y19818D01*
X6363Y19922D01*
X5933Y19984D01*
X5500Y20005D01*
Y158500D01*
X9250D01*
Y17612D01*
X9157Y17643D01*
X9040Y17663D01*
X8921Y17664D01*
X8804Y17646D01*
X8691Y17610D01*
X8585Y17557D01*
X8488Y17488D01*
X8404Y17405D01*
X8333Y17309D01*
X8279Y17204D01*
X8241Y17092D01*
X8222Y16975D01*
X8221Y16856D01*
X8239Y16739D01*
X8277Y16626D01*
X8376Y16355D01*
X8444Y16075D01*
X8486Y15789D01*
X8500Y15500D01*
X8486Y15211D01*
X8444Y14925D01*
X8376Y14645D01*
X8280Y14372D01*
X8242Y14261D01*
X8225Y14144D01*
X8225Y14026D01*
X8245Y13909D01*
X8282Y13797D01*
X8336Y13693D01*
X8406Y13598D01*
X8491Y13515D01*
X8587Y13446D01*
X8692Y13393D01*
X8805Y13357D01*
X8921Y13340D01*
X9039Y13341D01*
X9156Y13360D01*
X9250Y13391D01*
Y7752D01*
X9132Y7743D01*
X9018Y7715D01*
X8908Y7670D01*
X8808Y7609D01*
X8718Y7532D01*
X8641Y7442D01*
X8580Y7342D01*
X8535Y7232D01*
X8507Y7118D01*
X8500Y7000D01*
Y4000D01*
X8507Y3882D01*
X8535Y3768D01*
X8580Y3658D01*
X8641Y3558D01*
X8718Y3468D01*
X8808Y3391D01*
X8908Y3330D01*
X9018Y3285D01*
X9132Y3257D01*
X9250Y3248D01*
Y1500D01*
G37*
G36*
X5500Y2500D02*X4000D01*
X3882Y2493D01*
X3768Y2465D01*
X3658Y2420D01*
X3558Y2359D01*
X3468Y2282D01*
X3391Y2192D01*
X3330Y2092D01*
X3285Y1982D01*
X3257Y1868D01*
X3248Y1750D01*
X3257Y1632D01*
X3285Y1518D01*
X3292Y1500D01*
X1500D01*
Y3292D01*
X1518Y3285D01*
X1632Y3257D01*
X1750Y3248D01*
X1868Y3257D01*
X1982Y3285D01*
X2092Y3330D01*
X2192Y3391D01*
X2282Y3468D01*
X2359Y3558D01*
X2420Y3658D01*
X2465Y3768D01*
X2493Y3882D01*
X2500Y4000D01*
Y7000D01*
X2493Y7118D01*
X2465Y7232D01*
X2420Y7342D01*
X2359Y7442D01*
X2282Y7532D01*
X2192Y7609D01*
X2092Y7670D01*
X1982Y7715D01*
X1868Y7743D01*
X1750Y7752D01*
X1632Y7743D01*
X1518Y7715D01*
X1500Y7708D01*
Y13550D01*
X1530Y13519D01*
X1625Y13449D01*
X1731Y13394D01*
X1843Y13357D01*
X1960Y13337D01*
X2079Y13336D01*
X2196Y13354D01*
X2309Y13390D01*
X2415Y13443D01*
X2512Y13512D01*
X2596Y13595D01*
X2667Y13691D01*
X2721Y13796D01*
X2759Y13908D01*
X2778Y14025D01*
X2779Y14144D01*
X2761Y14261D01*
X2723Y14374D01*
X2624Y14645D01*
X2556Y14925D01*
X2514Y15211D01*
X2500Y15500D01*
X2514Y15789D01*
X2556Y16075D01*
X2624Y16355D01*
X2720Y16628D01*
X2758Y16739D01*
X2775Y16856D01*
X2775Y16974D01*
X2755Y17091D01*
X2718Y17203D01*
X2664Y17307D01*
X2594Y17402D01*
X2509Y17485D01*
X2413Y17554D01*
X2308Y17607D01*
X2195Y17643D01*
X2079Y17660D01*
X1961Y17659D01*
X1844Y17640D01*
X1732Y17603D01*
X1627Y17548D01*
X1532Y17478D01*
X1500Y17445D01*
Y158500D01*
X5500D01*
Y20005D01*
X5500D01*
X5067Y19984D01*
X4637Y19922D01*
X4216Y19818D01*
X3806Y19675D01*
X3700Y19622D01*
X3604Y19553D01*
X3519Y19470D01*
X3449Y19375D01*
X3394Y19269D01*
X3357Y19157D01*
X3337Y19040D01*
X3336Y18921D01*
X3354Y18804D01*
X3390Y18691D01*
X3443Y18585D01*
X3512Y18488D01*
X3595Y18404D01*
X3691Y18333D01*
X3796Y18279D01*
X3908Y18241D01*
X4025Y18222D01*
X4144Y18221D01*
X4261Y18239D01*
X4374Y18277D01*
X4645Y18376D01*
X4925Y18444D01*
X5211Y18486D01*
X5500Y18500D01*
X5500D01*
Y12500D01*
X5500D01*
X5211Y12514D01*
X4925Y12556D01*
X4645Y12624D01*
X4372Y12720D01*
X4261Y12758D01*
X4144Y12775D01*
X4026Y12775D01*
X3909Y12755D01*
X3797Y12718D01*
X3693Y12664D01*
X3598Y12594D01*
X3515Y12509D01*
X3446Y12413D01*
X3393Y12308D01*
X3357Y12195D01*
X3340Y12079D01*
X3341Y11961D01*
X3360Y11844D01*
X3397Y11732D01*
X3452Y11627D01*
X3522Y11532D01*
X3606Y11449D01*
X3702Y11381D01*
X3808Y11330D01*
X4216Y11182D01*
X4637Y11078D01*
X5067Y11016D01*
X5500Y10995D01*
X5500D01*
Y10000D01*
X4000D01*
X3882Y9993D01*
X3768Y9965D01*
X3658Y9920D01*
X3558Y9859D01*
X3468Y9782D01*
X3391Y9692D01*
X3330Y9592D01*
X3285Y9482D01*
X3257Y9368D01*
X3248Y9250D01*
X3257Y9132D01*
X3285Y9018D01*
X3330Y8908D01*
X3391Y8808D01*
X3468Y8718D01*
X3558Y8641D01*
X3658Y8580D01*
X3768Y8535D01*
X3882Y8507D01*
X4000Y8500D01*
X5500D01*
Y2500D01*
G37*
G54D39*X77000Y64500D02*Y90000D01*
X85500Y48000D02*X96000Y58500D01*
X80500Y48000D02*X92000Y59500D01*
X75500Y48000D02*X88000Y60500D01*
X70500Y48000D02*X85000Y62500D01*
X65500Y48000D02*X79000Y61500D01*
X60500Y48000D02*X77000Y64500D01*
X62000Y21500D02*X121500D01*
X101500Y23500D02*X103000Y25000D01*
X125000D01*
X100500Y25500D02*X103500Y28500D01*
X99500Y27500D02*X104000Y32000D01*
X97500Y31500D02*X105000Y39000D01*
X105500Y42500D02*X96500Y33500D01*
X94500Y37500D02*X106500Y49500D01*
X95500Y35500D02*X106000Y46000D01*
X107000Y53000D02*X93500Y39500D01*
X85000Y62500D02*Y98000D01*
X84000Y99000D01*
X79000Y61500D02*Y76500D01*
X80000Y77500D01*
Y117500D01*
X83500Y121000D01*
X96000Y58500D02*Y102000D01*
X92000Y59500D02*Y102000D01*
X94500Y105500D02*X91000Y109000D01*
Y111000D01*
X98500Y81500D02*Y66000D01*
X88000Y60500D02*Y110000D01*
X87000Y115000D02*X84000Y112000D01*
X83500Y121000D02*X99000D01*
X91000Y111000D02*X87000Y115000D01*
X84000Y112000D02*Y102500D01*
X103000Y80000D02*Y68000D01*
X107500Y63500D01*
X101000Y81000D02*Y67000D01*
X113000Y68000D02*Y96500D01*
X101000Y67000D02*X108000Y60000D01*
X98500Y66000D02*X108000Y56500D01*
Y60000D02*X111000D01*
X112500Y58500D01*
Y53000D01*
X114500Y63500D02*X107500D01*
X117000Y57500D02*Y61000D01*
X114500Y63500D01*
X113000Y68000D02*X121500Y59500D01*
Y57500D01*
X117000Y67500D02*X125000Y59500D01*
Y57500D01*
X84000Y99000D02*Y102000D01*
X108000D02*Y85000D01*
X103000Y80000D01*
X104000Y102000D02*Y84000D01*
X101000Y81000D01*
X100000Y102000D02*Y83000D01*
X98500Y81500D01*
X117000Y67500D02*Y96500D01*
X94500Y105500D02*X109000D01*
X115000Y99500D01*
X130075Y114500D02*X117000D01*
X133224Y111500D02*X114500D01*
X113000Y113000D01*
X120000Y99500D02*X115000D01*
X126925Y101500D02*Y98925D01*
X121500Y93500D01*
X55500Y5500D02*X60500Y10500D01*
X45500Y5500D02*X50500Y10500D01*
X60500D02*Y20000D01*
X55500Y15500D02*Y19500D01*
X59500Y23500D01*
X50500Y10500D02*Y20000D01*
X56000Y25500D01*
X60500Y20000D02*X62000Y21500D01*
X59500Y23500D02*X101500D01*
X56000Y25500D02*X100500D01*
X51000Y27500D02*X99500D01*
X98500Y29500D02*X47500D01*
X44000Y31500D02*X97500D01*
X96500Y33500D02*X41500D01*
X39000Y35500D02*X95500D01*
X36500Y37500D02*X94500D01*
X93500Y39500D02*X34500D01*
X45500Y15500D02*Y22000D01*
X51000Y27500D01*
X40500Y22500D02*X47500Y29500D01*
X35500Y23000D02*X44000Y31500D01*
X41500Y33500D02*X30500Y22500D01*
X25500Y22000D02*X39000Y35500D01*
X35500Y5500D02*X40500Y10500D01*
Y22500D01*
X35500Y15500D02*Y23000D01*
X30500Y22500D02*Y10500D01*
X25500Y5500D01*
Y15500D02*Y22000D01*
X15500Y5500D02*X20500Y10500D01*
Y21500D01*
X15500Y20500D02*Y15500D01*
X20500Y21500D02*X36500Y37500D01*
X34500Y39500D02*X15500Y20500D01*
X103500Y28500D02*X174925D01*
X104000Y32000D02*X171776D01*
X181224Y35500D02*X104500D01*
X105000Y39000D02*X178075D01*
X187500Y42500D02*X105500D01*
X106500Y49500D02*X193500D01*
X106000Y46000D02*X184500D01*
X190500Y53000D02*X107000D01*
X104500Y35500D02*X98500Y29500D01*
X218000Y35406D02*Y19500D01*
X148500D02*Y16000D01*
X147000Y14500D01*
X144000D01*
G54D40*X213500Y84000D02*X226500D01*
G54D38*G36*
X2500Y8500D02*Y2500D01*
X8500D01*
Y8500D01*
X2500D01*
G37*
G54D41*X15500Y5500D03*
X25500D03*
X5500Y15500D03*
X15500D03*
X25500D03*
G54D42*X24122Y140661D03*
Y123339D03*
G54D41*X35500Y5500D03*
X45500D03*
X55500D03*
X65500D03*
X75500D03*
X85500D03*
Y15500D03*
X95500Y5500D03*
Y15500D03*
X35500D03*
X45500D03*
X55500D03*
X65500D03*
X75500D03*
G54D43*X203500Y69000D03*
X213500Y74000D03*
X203500Y79000D03*
X213500Y84000D03*
X203500Y89000D03*
X213500Y94000D03*
G54D44*X238500Y61500D03*
Y101500D03*
G54D45*X197000Y29500D03*
G54D46*X106000Y32000D03*
X109000Y28500D03*
X107000Y39000D03*
X111000Y35500D03*
X114000Y46000D03*
X108000Y56500D03*
Y49500D03*
X117000Y42500D03*
X121500Y21500D03*
X125000Y25000D03*
X144000Y14500D03*
X117000Y57500D03*
X121500D03*
X125000D03*
X121000Y70000D03*
X124500D03*
X128000D03*
Y73500D03*
X162500Y71000D03*
Y67500D03*
Y64000D03*
X159000D03*
Y67500D03*
X113000Y90500D03*
Y96500D03*
Y113000D03*
X117000Y90500D03*
Y96500D03*
X120000Y99500D03*
X121500Y93500D03*
X117000Y114500D03*
X130075D03*
X133224Y111500D03*
X126925Y101500D03*
X148500Y19500D03*
X171776Y32000D03*
X174925Y28500D03*
X178075Y39000D03*
X181224Y35500D03*
X193500Y49500D03*
X190500Y53000D03*
X187500Y42500D03*
X184500Y46000D03*
X213500Y23594D03*
X218000Y35406D03*
Y19500D03*
X225000Y157000D03*
Y154000D03*
X236500Y157000D03*
Y154000D03*
X222000Y10500D03*
Y7000D03*
Y3500D03*
X225500Y10500D03*
Y7000D03*
Y3500D03*
X229000Y10500D03*
X232500D03*
X229000Y7000D03*
Y3500D03*
X232500Y7000D03*
Y3500D03*
X236000Y10500D03*
Y7000D03*
Y3500D03*
X239500Y10500D03*
X243000D03*
X239500Y7000D03*
Y3500D03*
X243000Y7000D03*
Y3500D03*
X246500Y10500D03*
Y7000D03*
Y3500D03*
X92000Y102000D03*
X96000D03*
X100000D03*
X104000D03*
X108000D03*
X88000D03*
X84000D03*
X87000Y115000D03*
X99000Y121000D03*
X88000Y110000D03*
X80000Y102000D03*
X77000Y90000D03*
X44000Y112000D03*
Y108000D03*
Y104000D03*
Y124000D03*
Y120000D03*
Y116000D03*
X48000Y124000D03*
Y120000D03*
Y116000D03*
Y112000D03*
Y108000D03*
Y104000D03*
X65500Y72000D03*
X69000D03*
X20000Y87500D03*
Y63500D03*
Y75500D03*
X85500Y48000D03*
X80500D03*
X70500D03*
X75500D03*
X60500D03*
X65500D03*
G54D47*G54D48*G54D49*G54D48*G54D50*G54D51*G54D52*M02*
