G04 start of page 12 for group -3984 idx -3984 *
G04 Title: (unknown), fab *
G04 Creator: pcb 20140316 *
G04 CreationDate: Thu 05 Mar 2020 03:13:11 AM GMT UTC *
G04 For: railfan *
G04 Format: Gerber/RS-274X *
G04 PCB-Dimensions (mil): 2500.00 1600.00 *
G04 PCB-Coordinate-Origin: lower left *
%MOIN*%
%FSLAX25Y25*%
%LNFAB*%
%ADD97C,0.0100*%
%ADD96C,0.0075*%
%ADD95C,0.0060*%
%ADD94C,0.0001*%
%ADD93R,0.0080X0.0080*%
G54D93*X238500Y61500D02*Y58300D01*
G54D94*G36*
X237954Y61647D02*X241420Y63646D01*
X241820Y62953D01*
X238353Y60954D01*
X237954Y61647D01*
G37*
G36*
X238647Y60954D02*X235180Y62953D01*
X235580Y63646D01*
X239046Y61647D01*
X238647Y60954D01*
G37*
G54D93*X236900Y61500D02*G75*G03X240100Y61500I1600J0D01*G01*
G75*G03X236900Y61500I-1600J0D01*G01*
X238500Y101500D02*Y98300D01*
G54D94*G36*
X237954Y101647D02*X241420Y103646D01*
X241820Y102953D01*
X238353Y100954D01*
X237954Y101647D01*
G37*
G36*
X238647Y100954D02*X235180Y102953D01*
X235580Y103646D01*
X239046Y101647D01*
X238647Y100954D01*
G37*
G54D93*X236900Y101500D02*G75*G03X240100Y101500I1600J0D01*G01*
G75*G03X236900Y101500I-1600J0D01*G01*
X15000Y171250D02*Y168050D01*
G54D94*G36*
X14454Y171397D02*X17920Y173396D01*
X18320Y172703D01*
X14853Y170704D01*
X14454Y171397D01*
G37*
G36*
X15147Y170704D02*X11680Y172703D01*
X12080Y173396D01*
X15546Y171397D01*
X15147Y170704D01*
G37*
G54D93*X13400Y171250D02*G75*G03X16600Y171250I1600J0D01*G01*
G75*G03X13400Y171250I-1600J0D01*G01*
G54D95*X135000Y173500D02*X136500Y170500D01*
X138000Y173500D01*
X136500Y170500D02*Y167500D01*
X139800Y170800D02*X142050D01*
X139800Y167500D02*X142800D01*
X139800Y173500D02*Y167500D01*
Y173500D02*X142800D01*
X147600D02*X148350Y172750D01*
X145350Y173500D02*X147600D01*
X144600Y172750D02*X145350Y173500D01*
X144600Y172750D02*Y171250D01*
X145350Y170500D01*
X147600D01*
X148350Y169750D01*
Y168250D01*
X147600Y167500D02*X148350Y168250D01*
X145350Y167500D02*X147600D01*
X144600Y168250D02*X145350Y167500D01*
X98000Y172750D02*X98750Y173500D01*
X101000D01*
X101750Y172750D01*
Y171250D01*
X98000Y167500D02*X101750Y171250D01*
X98000Y167500D02*X101750D01*
X45000Y168250D02*X45750Y167500D01*
X45000Y172750D02*Y168250D01*
Y172750D02*X45750Y173500D01*
X47250D01*
X48000Y172750D01*
Y168250D01*
X47250Y167500D02*X48000Y168250D01*
X45750Y167500D02*X47250D01*
X45000Y169000D02*X48000Y172000D01*
X49800Y167500D02*X50550D01*
X52350Y172300D02*X53550Y173500D01*
Y167500D01*
X52350D02*X54600D01*
X56400Y172750D02*X57150Y173500D01*
X59400D01*
X60150Y172750D01*
Y171250D01*
X56400Y167500D02*X60150Y171250D01*
X56400Y167500D02*X60150D01*
X61950Y168250D02*X62700Y167500D01*
X61950Y169450D02*Y168250D01*
Y169450D02*X63000Y170500D01*
X63900D01*
X64950Y169450D01*
Y168250D01*
X64200Y167500D02*X64950Y168250D01*
X62700Y167500D02*X64200D01*
X61950Y171550D02*X63000Y170500D01*
X61950Y172750D02*Y171550D01*
Y172750D02*X62700Y173500D01*
X64200D01*
X64950Y172750D01*
Y171550D01*
X63900Y170500D02*X64950Y171550D01*
X195400Y31100D02*X198600D01*
X195400D02*Y27900D01*
X198600D01*
Y31100D02*Y27900D01*
X13400Y187850D02*X16600D01*
X13400D02*Y184650D01*
X16600D01*
Y187850D02*Y184650D01*
X135000Y188500D02*X136500Y185500D01*
X138000Y188500D01*
X136500Y185500D02*Y182500D01*
X139800Y185800D02*X142050D01*
X139800Y182500D02*X142800D01*
X139800Y188500D02*Y182500D01*
Y188500D02*X142800D01*
X147600D02*X148350Y187750D01*
X145350Y188500D02*X147600D01*
X144600Y187750D02*X145350Y188500D01*
X144600Y187750D02*Y186250D01*
X145350Y185500D01*
X147600D01*
X148350Y184750D01*
Y183250D01*
X147600Y182500D02*X148350Y183250D01*
X145350Y182500D02*X147600D01*
X144600Y183250D02*X145350Y182500D01*
X98000Y187300D02*X99200Y188500D01*
Y182500D01*
X98000D02*X100250D01*
X45000Y183250D02*X45750Y182500D01*
X45000Y187750D02*Y183250D01*
Y187750D02*X45750Y188500D01*
X47250D01*
X48000Y187750D01*
Y183250D01*
X47250Y182500D02*X48000Y183250D01*
X45750Y182500D02*X47250D01*
X45000Y184000D02*X48000Y187000D01*
X49800Y182500D02*X50550D01*
X52350Y183250D02*X53100Y182500D01*
X52350Y187750D02*Y183250D01*
Y187750D02*X53100Y188500D01*
X54600D01*
X55350Y187750D01*
Y183250D01*
X54600Y182500D02*X55350Y183250D01*
X53100Y182500D02*X54600D01*
X52350Y184000D02*X55350Y187000D01*
X57900Y182500D02*X60150Y185500D01*
Y187750D02*Y185500D01*
X59400Y188500D02*X60150Y187750D01*
X57900Y188500D02*X59400D01*
X57150Y187750D02*X57900Y188500D01*
X57150Y187750D02*Y186250D01*
X57900Y185500D01*
X60150D01*
X64200Y188500D02*X64950Y187750D01*
X62700Y188500D02*X64200D01*
X61950Y187750D02*X62700Y188500D01*
X61950Y187750D02*Y183250D01*
X62700Y182500D01*
X64200Y185800D02*X64950Y185050D01*
X61950Y185800D02*X64200D01*
X62700Y182500D02*X64200D01*
X64950Y183250D01*
Y185050D02*Y183250D01*
X23322Y140661D02*G75*G03X24922Y140661I800J0D01*G01*
G75*G03X23322Y140661I-800J0D01*G01*
Y123339D02*G75*G03X24922Y123339I800J0D01*G01*
G75*G03X23322Y123339I-800J0D01*G01*
X14200Y201250D02*G75*G03X15800Y201250I800J0D01*G01*
G75*G03X14200Y201250I-800J0D01*G01*
X135000Y203500D02*X136500Y200500D01*
X138000Y203500D01*
X136500Y200500D02*Y197500D01*
X139800Y200800D02*X142050D01*
X139800Y197500D02*X142800D01*
X139800Y203500D02*Y197500D01*
Y203500D02*X142800D01*
X147600D02*X148350Y202750D01*
X145350Y203500D02*X147600D01*
X144600Y202750D02*X145350Y203500D01*
X144600Y202750D02*Y201250D01*
X145350Y200500D01*
X147600D01*
X148350Y199750D01*
Y198250D01*
X147600Y197500D02*X148350Y198250D01*
X145350Y197500D02*X147600D01*
X144600Y198250D02*X145350Y197500D01*
X98000Y202750D02*X98750Y203500D01*
X101000D01*
X101750Y202750D01*
Y201250D01*
X98000Y197500D02*X101750Y201250D01*
X98000Y197500D02*X101750D01*
X45000Y198250D02*X45750Y197500D01*
X45000Y202750D02*Y198250D01*
Y202750D02*X45750Y203500D01*
X47250D01*
X48000Y202750D01*
Y198250D01*
X47250Y197500D02*X48000Y198250D01*
X45750Y197500D02*X47250D01*
X45000Y199000D02*X48000Y202000D01*
X49800Y197500D02*X50550D01*
X52350Y198250D02*X53100Y197500D01*
X52350Y202750D02*Y198250D01*
Y202750D02*X53100Y203500D01*
X54600D01*
X55350Y202750D01*
Y198250D01*
X54600Y197500D02*X55350Y198250D01*
X53100Y197500D02*X54600D01*
X52350Y199000D02*X55350Y202000D01*
X57150Y199750D02*X60150Y203500D01*
X57150Y199750D02*X60900D01*
X60150Y203500D02*Y197500D01*
X62700Y202750D02*X63450Y203500D01*
X64950D01*
X65700Y202750D01*
X64950Y197500D02*X65700Y198250D01*
X63450Y197500D02*X64950D01*
X62700Y198250D02*X63450Y197500D01*
Y200800D02*X64950D01*
X65700Y202750D02*Y201550D01*
Y200050D02*Y198250D01*
Y200050D02*X64950Y200800D01*
X65700Y201550D02*X64950Y200800D01*
X4300Y6700D02*X6700Y4300D01*
X4300D02*X6700Y6700D01*
X14300D02*X16700Y4300D01*
X14300D02*X16700Y6700D01*
X24300D02*X26700Y4300D01*
X24300D02*X26700Y6700D01*
X34300D02*X36700Y4300D01*
X34300D02*X36700Y6700D01*
X44300D02*X46700Y4300D01*
X44300D02*X46700Y6700D01*
X54300D02*X56700Y4300D01*
X54300D02*X56700Y6700D01*
X64300D02*X66700Y4300D01*
X64300D02*X66700Y6700D01*
X74300D02*X76700Y4300D01*
X74300D02*X76700Y6700D01*
X84300D02*X86700Y4300D01*
X84300D02*X86700Y6700D01*
X94300D02*X96700Y4300D01*
X94300D02*X96700Y6700D01*
X4300Y16700D02*X6700Y14300D01*
X4300D02*X6700Y16700D01*
X14300D02*X16700Y14300D01*
X14300D02*X16700Y16700D01*
X24300D02*X26700Y14300D01*
X24300D02*X26700Y16700D01*
X34300D02*X36700Y14300D01*
X34300D02*X36700Y16700D01*
X44300D02*X46700Y14300D01*
X44300D02*X46700Y16700D01*
X54300D02*X56700Y14300D01*
X54300D02*X56700Y16700D01*
X64300D02*X66700Y14300D01*
X64300D02*X66700Y16700D01*
X74300D02*X76700Y14300D01*
X74300D02*X76700Y16700D01*
X84300D02*X86700Y14300D01*
X84300D02*X86700Y16700D01*
X94300D02*X96700Y14300D01*
X94300D02*X96700Y16700D01*
X13800Y217450D02*X16200Y215050D01*
X13800D02*X16200Y217450D01*
X135000Y218500D02*X136500Y215500D01*
X138000Y218500D01*
X136500Y215500D02*Y212500D01*
X139800Y215800D02*X142050D01*
X139800Y212500D02*X142800D01*
X139800Y218500D02*Y212500D01*
Y218500D02*X142800D01*
X147600D02*X148350Y217750D01*
X145350Y218500D02*X147600D01*
X144600Y217750D02*X145350Y218500D01*
X144600Y217750D02*Y216250D01*
X145350Y215500D01*
X147600D01*
X148350Y214750D01*
Y213250D01*
X147600Y212500D02*X148350Y213250D01*
X145350Y212500D02*X147600D01*
X144600Y213250D02*X145350Y212500D01*
X98000Y217750D02*X98750Y218500D01*
X101000D01*
X101750Y217750D01*
Y216250D01*
X98000Y212500D02*X101750Y216250D01*
X98000Y212500D02*X101750D01*
X103550Y213250D02*X104300Y212500D01*
X103550Y217750D02*Y213250D01*
Y217750D02*X104300Y218500D01*
X105800D01*
X106550Y217750D01*
Y213250D01*
X105800Y212500D02*X106550Y213250D01*
X104300Y212500D02*X105800D01*
X103550Y214000D02*X106550Y217000D01*
X45000Y213250D02*X45750Y212500D01*
X45000Y217750D02*Y213250D01*
Y217750D02*X45750Y218500D01*
X47250D01*
X48000Y217750D01*
Y213250D01*
X47250Y212500D02*X48000Y213250D01*
X45750Y212500D02*X47250D01*
X45000Y214000D02*X48000Y217000D01*
X49800Y212500D02*X50550D01*
X52350Y213250D02*X53100Y212500D01*
X52350Y217750D02*Y213250D01*
Y217750D02*X53100Y218500D01*
X54600D01*
X55350Y217750D01*
Y213250D01*
X54600Y212500D02*X55350Y213250D01*
X53100Y212500D02*X54600D01*
X52350Y214000D02*X55350Y217000D01*
X57150Y217750D02*X57900Y218500D01*
X59400D01*
X60150Y217750D01*
X59400Y212500D02*X60150Y213250D01*
X57900Y212500D02*X59400D01*
X57150Y213250D02*X57900Y212500D01*
Y215800D02*X59400D01*
X60150Y217750D02*Y216550D01*
Y215050D02*Y213250D01*
Y215050D02*X59400Y215800D01*
X60150Y216550D02*X59400Y215800D01*
X61950Y213250D02*X62700Y212500D01*
X61950Y214450D02*Y213250D01*
Y214450D02*X63000Y215500D01*
X63900D01*
X64950Y214450D01*
Y213250D01*
X64200Y212500D02*X64950Y213250D01*
X62700Y212500D02*X64200D01*
X61950Y216550D02*X63000Y215500D01*
X61950Y217750D02*Y216550D01*
Y217750D02*X62700Y218500D01*
X64200D01*
X64950Y217750D01*
Y216550D01*
X63900Y215500D02*X64950Y216550D01*
X203500Y70600D02*Y67400D01*
X201900Y69000D02*X205100D01*
X213500Y75600D02*Y72400D01*
X211900Y74000D02*X215100D01*
X203500Y80600D02*Y77400D01*
X201900Y79000D02*X205100D01*
X213500Y85600D02*Y82400D01*
X211900Y84000D02*X215100D01*
X203500Y90600D02*Y87400D01*
X201900Y89000D02*X205100D01*
X213500Y95600D02*Y92400D01*
X211900Y94000D02*X215100D01*
X15000Y232850D02*Y229650D01*
X13400Y231250D02*X16600D01*
X135000Y233500D02*X136500Y230500D01*
X138000Y233500D01*
X136500Y230500D02*Y227500D01*
X139800Y230800D02*X142050D01*
X139800Y227500D02*X142800D01*
X139800Y233500D02*Y227500D01*
Y233500D02*X142800D01*
X147600D02*X148350Y232750D01*
X145350Y233500D02*X147600D01*
X144600Y232750D02*X145350Y233500D01*
X144600Y232750D02*Y231250D01*
X145350Y230500D01*
X147600D01*
X148350Y229750D01*
Y228250D01*
X147600Y227500D02*X148350Y228250D01*
X145350Y227500D02*X147600D01*
X144600Y228250D02*X145350Y227500D01*
X100250Y233500D02*X101000Y232750D01*
X98750Y233500D02*X100250D01*
X98000Y232750D02*X98750Y233500D01*
X98000Y232750D02*Y228250D01*
X98750Y227500D01*
X100250Y230800D02*X101000Y230050D01*
X98000Y230800D02*X100250D01*
X98750Y227500D02*X100250D01*
X101000Y228250D01*
Y230050D02*Y228250D01*
X45000D02*X45750Y227500D01*
X45000Y232750D02*Y228250D01*
Y232750D02*X45750Y233500D01*
X47250D01*
X48000Y232750D01*
Y228250D01*
X47250Y227500D02*X48000Y228250D01*
X45750Y227500D02*X47250D01*
X45000Y229000D02*X48000Y232000D01*
X49800Y227500D02*X50550D01*
X52350Y228250D02*X53100Y227500D01*
X52350Y232750D02*Y228250D01*
Y232750D02*X53100Y233500D01*
X54600D01*
X55350Y232750D01*
Y228250D01*
X54600Y227500D02*X55350Y228250D01*
X53100Y227500D02*X54600D01*
X52350Y229000D02*X55350Y232000D01*
X57150Y232750D02*X57900Y233500D01*
X59400D01*
X60150Y232750D01*
X59400Y227500D02*X60150Y228250D01*
X57900Y227500D02*X59400D01*
X57150Y228250D02*X57900Y227500D01*
Y230800D02*X59400D01*
X60150Y232750D02*Y231550D01*
Y230050D02*Y228250D01*
Y230050D02*X59400Y230800D01*
X60150Y231550D02*X59400Y230800D01*
X61950Y228250D02*X62700Y227500D01*
X61950Y232750D02*Y228250D01*
Y232750D02*X62700Y233500D01*
X64200D01*
X64950Y232750D01*
Y228250D01*
X64200Y227500D02*X64950Y228250D01*
X62700Y227500D02*X64200D01*
X61950Y229000D02*X64950Y232000D01*
X44000Y124000D02*Y122400D01*
Y124000D02*X45387Y124800D01*
X44000Y124000D02*X42613Y124800D01*
X44000Y120000D02*Y118400D01*
Y120000D02*X45387Y120800D01*
X44000Y120000D02*X42613Y120800D01*
X44000Y116000D02*Y114400D01*
Y116000D02*X45387Y116800D01*
X44000Y116000D02*X42613Y116800D01*
X44000Y112000D02*Y110400D01*
Y112000D02*X45387Y112800D01*
X44000Y112000D02*X42613Y112800D01*
X44000Y108000D02*Y106400D01*
Y108000D02*X45387Y108800D01*
X44000Y108000D02*X42613Y108800D01*
X44000Y104000D02*Y102400D01*
Y104000D02*X45387Y104800D01*
X44000Y104000D02*X42613Y104800D01*
X48000Y124000D02*Y122400D01*
Y124000D02*X49387Y124800D01*
X48000Y124000D02*X46613Y124800D01*
X48000Y120000D02*Y118400D01*
Y120000D02*X49387Y120800D01*
X48000Y120000D02*X46613Y120800D01*
X48000Y116000D02*Y114400D01*
Y116000D02*X49387Y116800D01*
X48000Y116000D02*X46613Y116800D01*
X48000Y112000D02*Y110400D01*
Y112000D02*X49387Y112800D01*
X48000Y112000D02*X46613Y112800D01*
X48000Y108000D02*Y106400D01*
Y108000D02*X49387Y108800D01*
X48000Y108000D02*X46613Y108800D01*
X48000Y104000D02*Y102400D01*
Y104000D02*X49387Y104800D01*
X48000Y104000D02*X46613Y104800D01*
X20000Y87500D02*Y85900D01*
Y87500D02*X21387Y88300D01*
X20000Y87500D02*X18613Y88300D01*
X20000Y63500D02*Y61900D01*
Y63500D02*X21387Y64300D01*
X20000Y63500D02*X18613Y64300D01*
X92000Y102000D02*Y100400D01*
Y102000D02*X93387Y102800D01*
X92000Y102000D02*X90613Y102800D01*
X96000Y102000D02*Y100400D01*
Y102000D02*X97387Y102800D01*
X96000Y102000D02*X94613Y102800D01*
X100000Y102000D02*Y100400D01*
Y102000D02*X101387Y102800D01*
X100000Y102000D02*X98613Y102800D01*
X104000Y102000D02*Y100400D01*
Y102000D02*X105387Y102800D01*
X104000Y102000D02*X102613Y102800D01*
X108000Y102000D02*Y100400D01*
Y102000D02*X109387Y102800D01*
X108000Y102000D02*X106613Y102800D01*
X88000Y102000D02*Y100400D01*
Y102000D02*X89387Y102800D01*
X88000Y102000D02*X86613Y102800D01*
X84000Y102000D02*Y100400D01*
Y102000D02*X85387Y102800D01*
X84000Y102000D02*X82613Y102800D01*
X80000Y102000D02*Y100400D01*
Y102000D02*X81387Y102800D01*
X80000Y102000D02*X78613Y102800D01*
X65500Y72000D02*Y70400D01*
Y72000D02*X66887Y72800D01*
X65500Y72000D02*X64113Y72800D01*
X69000Y72000D02*Y70400D01*
Y72000D02*X70387Y72800D01*
X69000Y72000D02*X67613Y72800D01*
X77000Y90000D02*Y88400D01*
Y90000D02*X78387Y90800D01*
X77000Y90000D02*X75613Y90800D01*
X85500Y48000D02*Y46400D01*
Y48000D02*X86887Y48800D01*
X85500Y48000D02*X84113Y48800D01*
X80500Y48000D02*Y46400D01*
Y48000D02*X81887Y48800D01*
X80500Y48000D02*X79113Y48800D01*
X70500Y48000D02*Y46400D01*
Y48000D02*X71887Y48800D01*
X70500Y48000D02*X69113Y48800D01*
X75500Y48000D02*Y46400D01*
Y48000D02*X76887Y48800D01*
X75500Y48000D02*X74113Y48800D01*
X60500Y48000D02*Y46400D01*
Y48000D02*X61887Y48800D01*
X60500Y48000D02*X59113Y48800D01*
X65500Y48000D02*Y46400D01*
Y48000D02*X66887Y48800D01*
X65500Y48000D02*X64113Y48800D01*
X106000Y32000D02*Y30400D01*
Y32000D02*X107387Y32800D01*
X106000Y32000D02*X104613Y32800D01*
X109000Y28500D02*Y26900D01*
Y28500D02*X110387Y29300D01*
X109000Y28500D02*X107613Y29300D01*
X107000Y39000D02*Y37400D01*
Y39000D02*X108387Y39800D01*
X107000Y39000D02*X105613Y39800D01*
X111000Y35500D02*Y33900D01*
Y35500D02*X112387Y36300D01*
X111000Y35500D02*X109613Y36300D01*
X114000Y46000D02*Y44400D01*
Y46000D02*X115387Y46800D01*
X114000Y46000D02*X112613Y46800D01*
X108000Y56500D02*Y54900D01*
Y56500D02*X109387Y57300D01*
X108000Y56500D02*X106613Y57300D01*
X108000Y49500D02*Y47900D01*
Y49500D02*X109387Y50300D01*
X108000Y49500D02*X106613Y50300D01*
X117000Y42500D02*Y40900D01*
Y42500D02*X118387Y43300D01*
X117000Y42500D02*X115613Y43300D01*
X117000Y57500D02*Y55900D01*
Y57500D02*X118387Y58300D01*
X117000Y57500D02*X115613Y58300D01*
X113000Y90500D02*Y88900D01*
Y90500D02*X114387Y91300D01*
X113000Y90500D02*X111613Y91300D01*
X117000Y90500D02*Y88900D01*
Y90500D02*X118387Y91300D01*
X117000Y90500D02*X115613Y91300D01*
X121500Y57500D02*Y55900D01*
Y57500D02*X122887Y58300D01*
X121500Y57500D02*X120113Y58300D01*
X125000Y57500D02*Y55900D01*
Y57500D02*X126387Y58300D01*
X125000Y57500D02*X123613Y58300D01*
X121500Y21500D02*Y19900D01*
Y21500D02*X122887Y22300D01*
X121500Y21500D02*X120113Y22300D01*
X125000Y25000D02*Y23400D01*
Y25000D02*X126387Y25800D01*
X125000Y25000D02*X123613Y25800D01*
X87000Y115000D02*Y113400D01*
Y115000D02*X88387Y115800D01*
X87000Y115000D02*X85613Y115800D01*
X121000Y70000D02*Y68400D01*
Y70000D02*X122387Y70800D01*
X121000Y70000D02*X119613Y70800D01*
X124500Y70000D02*Y68400D01*
Y70000D02*X125887Y70800D01*
X124500Y70000D02*X123113Y70800D01*
X128000Y70000D02*Y68400D01*
Y70000D02*X129387Y70800D01*
X128000Y70000D02*X126613Y70800D01*
X128000Y73500D02*Y71900D01*
Y73500D02*X129387Y74300D01*
X128000Y73500D02*X126613Y74300D01*
X99000Y121000D02*Y119400D01*
Y121000D02*X100387Y121800D01*
X99000Y121000D02*X97613Y121800D01*
X113000Y96500D02*Y94900D01*
Y96500D02*X114387Y97300D01*
X113000Y96500D02*X111613Y97300D01*
X117000Y96500D02*Y94900D01*
Y96500D02*X118387Y97300D01*
X117000Y96500D02*X115613Y97300D01*
X117000Y114500D02*Y112900D01*
Y114500D02*X118387Y115300D01*
X117000Y114500D02*X115613Y115300D01*
X113000Y113000D02*Y111400D01*
Y113000D02*X114387Y113800D01*
X113000Y113000D02*X111613Y113800D01*
X130075Y114500D02*Y112900D01*
Y114500D02*X131462Y115300D01*
X130075Y114500D02*X128689Y115300D01*
X133224Y111500D02*Y109900D01*
Y111500D02*X134611Y112300D01*
X133224Y111500D02*X131837Y112300D01*
X213500Y23594D02*Y21994D01*
Y23594D02*X214887Y24394D01*
X213500Y23594D02*X212113Y24394D01*
X218000Y35406D02*Y33806D01*
Y35406D02*X219387Y36206D01*
X218000Y35406D02*X216613Y36206D01*
X218000Y19500D02*Y17900D01*
Y19500D02*X219387Y20300D01*
X218000Y19500D02*X216613Y20300D01*
X162500Y71000D02*Y69400D01*
Y71000D02*X163887Y71800D01*
X162500Y71000D02*X161113Y71800D01*
X162500Y67500D02*Y65900D01*
Y67500D02*X163887Y68300D01*
X162500Y67500D02*X161113Y68300D01*
X162500Y64000D02*Y62400D01*
Y64000D02*X163887Y64800D01*
X162500Y64000D02*X161113Y64800D01*
X159000Y64000D02*Y62400D01*
Y64000D02*X160387Y64800D01*
X159000Y64000D02*X157613Y64800D01*
X159000Y67500D02*Y65900D01*
Y67500D02*X160387Y68300D01*
X159000Y67500D02*X157613Y68300D01*
X144000Y14500D02*Y12900D01*
Y14500D02*X145387Y15300D01*
X144000Y14500D02*X142613Y15300D01*
X148500Y19500D02*Y17900D01*
Y19500D02*X149887Y20300D01*
X148500Y19500D02*X147113Y20300D01*
X120000Y99500D02*Y97900D01*
Y99500D02*X121387Y100300D01*
X120000Y99500D02*X118613Y100300D01*
X121500Y93500D02*Y91900D01*
Y93500D02*X122887Y94300D01*
X121500Y93500D02*X120113Y94300D01*
X126925Y101500D02*Y99900D01*
Y101500D02*X128312Y102300D01*
X126925Y101500D02*X125539Y102300D01*
X171776Y32000D02*Y30400D01*
Y32000D02*X173163Y32800D01*
X171776Y32000D02*X170389Y32800D01*
X174925Y28500D02*Y26900D01*
Y28500D02*X176312Y29300D01*
X174925Y28500D02*X173539Y29300D01*
X178075Y39000D02*Y37400D01*
Y39000D02*X179462Y39800D01*
X178075Y39000D02*X176689Y39800D01*
X181224Y35500D02*Y33900D01*
Y35500D02*X182611Y36300D01*
X181224Y35500D02*X179837Y36300D01*
X193500Y49500D02*Y47900D01*
Y49500D02*X194887Y50300D01*
X193500Y49500D02*X192113Y50300D01*
X190500Y53000D02*Y51400D01*
Y53000D02*X191887Y53800D01*
X190500Y53000D02*X189113Y53800D01*
X187500Y42500D02*Y40900D01*
Y42500D02*X188887Y43300D01*
X187500Y42500D02*X186113Y43300D01*
X184500Y46000D02*Y44400D01*
Y46000D02*X185887Y46800D01*
X184500Y46000D02*X183113Y46800D01*
X222000Y10500D02*Y8900D01*
Y10500D02*X223387Y11300D01*
X222000Y10500D02*X220613Y11300D01*
X222000Y7000D02*Y5400D01*
Y7000D02*X223387Y7800D01*
X222000Y7000D02*X220613Y7800D01*
X222000Y3500D02*Y1900D01*
Y3500D02*X223387Y4300D01*
X222000Y3500D02*X220613Y4300D01*
X225500Y10500D02*Y8900D01*
Y10500D02*X226887Y11300D01*
X225500Y10500D02*X224113Y11300D01*
X225500Y7000D02*Y5400D01*
Y7000D02*X226887Y7800D01*
X225500Y7000D02*X224113Y7800D01*
X225500Y3500D02*Y1900D01*
Y3500D02*X226887Y4300D01*
X225500Y3500D02*X224113Y4300D01*
X229000Y10500D02*Y8900D01*
Y10500D02*X230387Y11300D01*
X229000Y10500D02*X227613Y11300D01*
X229000Y7000D02*Y5400D01*
Y7000D02*X230387Y7800D01*
X229000Y7000D02*X227613Y7800D01*
X229000Y3500D02*Y1900D01*
Y3500D02*X230387Y4300D01*
X229000Y3500D02*X227613Y4300D01*
X232500Y10500D02*Y8900D01*
Y10500D02*X233887Y11300D01*
X232500Y10500D02*X231113Y11300D01*
X232500Y7000D02*Y5400D01*
Y7000D02*X233887Y7800D01*
X232500Y7000D02*X231113Y7800D01*
X232500Y3500D02*Y1900D01*
Y3500D02*X233887Y4300D01*
X232500Y3500D02*X231113Y4300D01*
X236000Y10500D02*Y8900D01*
Y10500D02*X237387Y11300D01*
X236000Y10500D02*X234613Y11300D01*
X236000Y7000D02*Y5400D01*
Y7000D02*X237387Y7800D01*
X236000Y7000D02*X234613Y7800D01*
X236000Y3500D02*Y1900D01*
Y3500D02*X237387Y4300D01*
X236000Y3500D02*X234613Y4300D01*
X239500Y10500D02*Y8900D01*
Y10500D02*X240887Y11300D01*
X239500Y10500D02*X238113Y11300D01*
X239500Y7000D02*Y5400D01*
Y7000D02*X240887Y7800D01*
X239500Y7000D02*X238113Y7800D01*
X239500Y3500D02*Y1900D01*
Y3500D02*X240887Y4300D01*
X239500Y3500D02*X238113Y4300D01*
X243000Y10500D02*Y8900D01*
Y10500D02*X244387Y11300D01*
X243000Y10500D02*X241613Y11300D01*
X243000Y7000D02*Y5400D01*
Y7000D02*X244387Y7800D01*
X243000Y7000D02*X241613Y7800D01*
X243000Y3500D02*Y1900D01*
Y3500D02*X244387Y4300D01*
X243000Y3500D02*X241613Y4300D01*
X246500Y10500D02*Y8900D01*
Y10500D02*X247887Y11300D01*
X246500Y10500D02*X245113Y11300D01*
X246500Y7000D02*Y5400D01*
Y7000D02*X247887Y7800D01*
X246500Y7000D02*X245113Y7800D01*
X246500Y3500D02*Y1900D01*
Y3500D02*X247887Y4300D01*
X246500Y3500D02*X245113Y4300D01*
X225000Y157000D02*Y155400D01*
Y157000D02*X226387Y157800D01*
X225000Y157000D02*X223613Y157800D01*
X225000Y154000D02*Y152400D01*
Y154000D02*X226387Y154800D01*
X225000Y154000D02*X223613Y154800D01*
X236500Y157000D02*Y155400D01*
Y157000D02*X237887Y157800D01*
X236500Y157000D02*X235113Y157800D01*
X236500Y154000D02*Y152400D01*
Y154000D02*X237887Y154800D01*
X236500Y154000D02*X235113Y154800D01*
X20000Y75500D02*Y73900D01*
Y75500D02*X21387Y76300D01*
X20000Y75500D02*X18613Y76300D01*
X88000Y110000D02*Y108400D01*
Y110000D02*X89387Y110800D01*
X88000Y110000D02*X86613Y110800D01*
X15000Y246250D02*Y244650D01*
Y246250D02*X16387Y247050D01*
X15000Y246250D02*X13613Y247050D01*
X135000Y248500D02*X136500Y245500D01*
X138000Y248500D01*
X136500Y245500D02*Y242500D01*
X139800Y245800D02*X142050D01*
X139800Y242500D02*X142800D01*
X139800Y248500D02*Y242500D01*
Y248500D02*X142800D01*
X147600D02*X148350Y247750D01*
X145350Y248500D02*X147600D01*
X144600Y247750D02*X145350Y248500D01*
X144600Y247750D02*Y246250D01*
X145350Y245500D01*
X147600D01*
X148350Y244750D01*
Y243250D01*
X147600Y242500D02*X148350Y243250D01*
X145350Y242500D02*X147600D01*
X144600Y243250D02*X145350Y242500D01*
X98000Y247300D02*X99200Y248500D01*
Y242500D01*
X98000D02*X100250D01*
X102050Y243250D02*X102800Y242500D01*
X102050Y247750D02*Y243250D01*
Y247750D02*X102800Y248500D01*
X104300D01*
X105050Y247750D01*
Y243250D01*
X104300Y242500D02*X105050Y243250D01*
X102800Y242500D02*X104300D01*
X102050Y244000D02*X105050Y247000D01*
X107600Y242500D02*X109850Y245500D01*
Y247750D02*Y245500D01*
X109100Y248500D02*X109850Y247750D01*
X107600Y248500D02*X109100D01*
X106850Y247750D02*X107600Y248500D01*
X106850Y247750D02*Y246250D01*
X107600Y245500D01*
X109850D01*
X45000Y243250D02*X45750Y242500D01*
X45000Y247750D02*Y243250D01*
Y247750D02*X45750Y248500D01*
X47250D01*
X48000Y247750D01*
Y243250D01*
X47250Y242500D02*X48000Y243250D01*
X45750Y242500D02*X47250D01*
X45000Y244000D02*X48000Y247000D01*
X49800Y242500D02*X50550D01*
X52350Y243250D02*X53100Y242500D01*
X52350Y247750D02*Y243250D01*
Y247750D02*X53100Y248500D01*
X54600D01*
X55350Y247750D01*
Y243250D01*
X54600Y242500D02*X55350Y243250D01*
X53100Y242500D02*X54600D01*
X52350Y244000D02*X55350Y247000D01*
X57150Y247300D02*X58350Y248500D01*
Y242500D01*
X57150D02*X59400D01*
X61200Y247750D02*X61950Y248500D01*
X64200D01*
X64950Y247750D01*
Y246250D01*
X61200Y242500D02*X64950Y246250D01*
X61200Y242500D02*X64950D01*
X3000Y263500D02*X3750Y262750D01*
X750Y263500D02*X3000D01*
X0Y262750D02*X750Y263500D01*
X0Y262750D02*Y261250D01*
X750Y260500D01*
X3000D01*
X3750Y259750D01*
Y258250D01*
X3000Y257500D02*X3750Y258250D01*
X750Y257500D02*X3000D01*
X0Y258250D02*X750Y257500D01*
X5550Y260500D02*Y258250D01*
X6300Y257500D01*
X8550Y260500D02*Y256000D01*
X7800Y255250D02*X8550Y256000D01*
X6300Y255250D02*X7800D01*
X5550Y256000D02*X6300Y255250D01*
Y257500D02*X7800D01*
X8550Y258250D01*
X11100Y259750D02*Y257500D01*
Y259750D02*X11850Y260500D01*
X12600D01*
X13350Y259750D01*
Y257500D01*
Y259750D02*X14100Y260500D01*
X14850D01*
X15600Y259750D01*
Y257500D01*
X10350Y260500D02*X11100Y259750D01*
X17400Y263500D02*Y257500D01*
Y258250D02*X18150Y257500D01*
X19650D01*
X20400Y258250D01*
Y259750D02*Y258250D01*
X19650Y260500D02*X20400Y259750D01*
X18150Y260500D02*X19650D01*
X17400Y259750D02*X18150Y260500D01*
X22200Y259750D02*Y258250D01*
Y259750D02*X22950Y260500D01*
X24450D01*
X25200Y259750D01*
Y258250D01*
X24450Y257500D02*X25200Y258250D01*
X22950Y257500D02*X24450D01*
X22200Y258250D02*X22950Y257500D01*
X27000Y263500D02*Y258250D01*
X27750Y257500D01*
X0Y254250D02*X29250D01*
X41750Y263500D02*Y257500D01*
X43700Y263500D02*X44750Y262450D01*
Y258550D01*
X43700Y257500D02*X44750Y258550D01*
X41000Y257500D02*X43700D01*
X41000Y263500D02*X43700D01*
G54D96*X46550Y262000D02*Y261850D01*
G54D95*Y259750D02*Y257500D01*
X50300Y260500D02*X51050Y259750D01*
X48800Y260500D02*X50300D01*
X48050Y259750D02*X48800Y260500D01*
X48050Y259750D02*Y258250D01*
X48800Y257500D01*
X51050Y260500D02*Y258250D01*
X51800Y257500D01*
X48800D02*X50300D01*
X51050Y258250D01*
X54350Y259750D02*Y257500D01*
Y259750D02*X55100Y260500D01*
X55850D01*
X56600Y259750D01*
Y257500D01*
Y259750D02*X57350Y260500D01*
X58100D01*
X58850Y259750D01*
Y257500D01*
X53600Y260500D02*X54350Y259750D01*
X60650Y257500D02*X61400D01*
X65900Y258250D02*X66650Y257500D01*
X65900Y262750D02*X66650Y263500D01*
X65900Y262750D02*Y258250D01*
X68450Y263500D02*X69950D01*
X69200D02*Y257500D01*
X68450D02*X69950D01*
X72500Y259750D02*Y257500D01*
Y259750D02*X73250Y260500D01*
X74000D01*
X74750Y259750D01*
Y257500D01*
X71750Y260500D02*X72500Y259750D01*
X77300Y260500D02*X79550D01*
X76550Y259750D02*X77300Y260500D01*
X76550Y259750D02*Y258250D01*
X77300Y257500D01*
X79550D01*
X81350Y263500D02*Y257500D01*
Y259750D02*X82100Y260500D01*
X83600D01*
X84350Y259750D01*
Y257500D01*
X86150Y263500D02*X86900Y262750D01*
Y258250D01*
X86150Y257500D02*X86900Y258250D01*
X41000Y254250D02*X88700D01*
X96050Y257500D02*X98000D01*
X95000Y258550D02*X96050Y257500D01*
X95000Y262450D02*Y258550D01*
Y262450D02*X96050Y263500D01*
X98000D01*
X99800Y259750D02*Y258250D01*
Y259750D02*X100550Y260500D01*
X102050D01*
X102800Y259750D01*
Y258250D01*
X102050Y257500D02*X102800Y258250D01*
X100550Y257500D02*X102050D01*
X99800Y258250D02*X100550Y257500D01*
X104600Y260500D02*Y258250D01*
X105350Y257500D01*
X106850D01*
X107600Y258250D01*
Y260500D02*Y258250D01*
X110150Y259750D02*Y257500D01*
Y259750D02*X110900Y260500D01*
X111650D01*
X112400Y259750D01*
Y257500D01*
X109400Y260500D02*X110150Y259750D01*
X114950Y263500D02*Y258250D01*
X115700Y257500D01*
X114200Y261250D02*X115700D01*
X95000Y254250D02*X117200D01*
X130750Y263500D02*Y257500D01*
X130000Y263500D02*X133000D01*
X133750Y262750D01*
Y261250D01*
X133000Y260500D02*X133750Y261250D01*
X130750Y260500D02*X133000D01*
X135550Y263500D02*Y258250D01*
X136300Y257500D01*
X140050Y260500D02*X140800Y259750D01*
X138550Y260500D02*X140050D01*
X137800Y259750D02*X138550Y260500D01*
X137800Y259750D02*Y258250D01*
X138550Y257500D01*
X140800Y260500D02*Y258250D01*
X141550Y257500D01*
X138550D02*X140050D01*
X140800Y258250D01*
X144100Y263500D02*Y258250D01*
X144850Y257500D01*
X143350Y261250D02*X144850D01*
X147100Y257500D02*X149350D01*
X146350Y258250D02*X147100Y257500D01*
X146350Y259750D02*Y258250D01*
Y259750D02*X147100Y260500D01*
X148600D01*
X149350Y259750D01*
X146350Y259000D02*X149350D01*
Y259750D02*Y259000D01*
X154150Y263500D02*Y257500D01*
X153400D02*X154150Y258250D01*
X151900Y257500D02*X153400D01*
X151150Y258250D02*X151900Y257500D01*
X151150Y259750D02*Y258250D01*
Y259750D02*X151900Y260500D01*
X153400D01*
X154150Y259750D01*
X157450Y260500D02*Y259750D01*
Y258250D02*Y257500D01*
X155950Y262750D02*Y262000D01*
Y262750D02*X156700Y263500D01*
X158200D01*
X158950Y262750D01*
Y262000D01*
X157450Y260500D02*X158950Y262000D01*
X130000Y254250D02*X160750D01*
X0Y278500D02*X3000D01*
X1500D02*Y272500D01*
X4800Y278500D02*Y272500D01*
Y274750D02*X5550Y275500D01*
X7050D01*
X7800Y274750D01*
Y272500D01*
X10350D02*X12600D01*
X9600Y273250D02*X10350Y272500D01*
X9600Y274750D02*Y273250D01*
Y274750D02*X10350Y275500D01*
X11850D01*
X12600Y274750D01*
X9600Y274000D02*X12600D01*
Y274750D02*Y274000D01*
X15150Y274750D02*Y272500D01*
Y274750D02*X15900Y275500D01*
X17400D01*
X14400D02*X15150Y274750D01*
X19950Y272500D02*X22200D01*
X19200Y273250D02*X19950Y272500D01*
X19200Y274750D02*Y273250D01*
Y274750D02*X19950Y275500D01*
X21450D01*
X22200Y274750D01*
X19200Y274000D02*X22200D01*
Y274750D02*Y274000D01*
X28950Y275500D02*X29700Y274750D01*
X27450Y275500D02*X28950D01*
X26700Y274750D02*X27450Y275500D01*
X26700Y274750D02*Y273250D01*
X27450Y272500D01*
X29700Y275500D02*Y273250D01*
X30450Y272500D01*
X27450D02*X28950D01*
X29700Y273250D01*
X33000Y274750D02*Y272500D01*
Y274750D02*X33750Y275500D01*
X35250D01*
X32250D02*X33000Y274750D01*
X37800Y272500D02*X40050D01*
X37050Y273250D02*X37800Y272500D01*
X37050Y274750D02*Y273250D01*
Y274750D02*X37800Y275500D01*
X39300D01*
X40050Y274750D01*
X37050Y274000D02*X40050D01*
Y274750D02*Y274000D01*
X46800Y278500D02*X47550Y277750D01*
X45300Y278500D02*X46800D01*
X44550Y277750D02*X45300Y278500D01*
X44550Y277750D02*Y273250D01*
X45300Y272500D01*
X46800Y275800D02*X47550Y275050D01*
X44550Y275800D02*X46800D01*
X45300Y272500D02*X46800D01*
X47550Y273250D01*
Y275050D02*Y273250D01*
X55050Y278500D02*Y272500D01*
X54300D02*X55050Y273250D01*
X52800Y272500D02*X54300D01*
X52050Y273250D02*X52800Y272500D01*
X52050Y274750D02*Y273250D01*
Y274750D02*X52800Y275500D01*
X54300D01*
X55050Y274750D01*
G54D96*X56850Y277000D02*Y276850D01*
G54D95*Y274750D02*Y272500D01*
X59100Y277750D02*Y272500D01*
Y277750D02*X59850Y278500D01*
X60600D01*
X58350Y275500D02*X59850D01*
X62850Y277750D02*Y272500D01*
Y277750D02*X63600Y278500D01*
X64350D01*
X62100Y275500D02*X63600D01*
X66600Y272500D02*X68850D01*
X65850Y273250D02*X66600Y272500D01*
X65850Y274750D02*Y273250D01*
Y274750D02*X66600Y275500D01*
X68100D01*
X68850Y274750D01*
X65850Y274000D02*X68850D01*
Y274750D02*Y274000D01*
X71400Y274750D02*Y272500D01*
Y274750D02*X72150Y275500D01*
X73650D01*
X70650D02*X71400Y274750D01*
X76200Y272500D02*X78450D01*
X75450Y273250D02*X76200Y272500D01*
X75450Y274750D02*Y273250D01*
Y274750D02*X76200Y275500D01*
X77700D01*
X78450Y274750D01*
X75450Y274000D02*X78450D01*
Y274750D02*Y274000D01*
X81000Y274750D02*Y272500D01*
Y274750D02*X81750Y275500D01*
X82500D01*
X83250Y274750D01*
Y272500D01*
X80250Y275500D02*X81000Y274750D01*
X85800Y278500D02*Y273250D01*
X86550Y272500D01*
X85050Y276250D02*X86550D01*
X93750Y278500D02*Y272500D01*
X93000D02*X93750Y273250D01*
X91500Y272500D02*X93000D01*
X90750Y273250D02*X91500Y272500D01*
X90750Y274750D02*Y273250D01*
Y274750D02*X91500Y275500D01*
X93000D01*
X93750Y274750D01*
X96300D02*Y272500D01*
Y274750D02*X97050Y275500D01*
X98550D01*
X95550D02*X96300Y274750D01*
G54D96*X100350Y277000D02*Y276850D01*
G54D95*Y274750D02*Y272500D01*
X101850Y278500D02*Y273250D01*
X102600Y272500D01*
X104100Y278500D02*Y273250D01*
X104850Y272500D01*
X109800D02*X112050D01*
X112800Y273250D01*
X112050Y274000D02*X112800Y273250D01*
X109800Y274000D02*X112050D01*
X109050Y274750D02*X109800Y274000D01*
X109050Y274750D02*X109800Y275500D01*
X112050D01*
X112800Y274750D01*
X109050Y273250D02*X109800Y272500D01*
G54D96*X114600Y277000D02*Y276850D01*
G54D95*Y274750D02*Y272500D01*
X116100Y275500D02*X119100D01*
X116100Y272500D02*X119100Y275500D01*
X116100Y272500D02*X119100D01*
X121650D02*X123900D01*
X120900Y273250D02*X121650Y272500D01*
X120900Y274750D02*Y273250D01*
Y274750D02*X121650Y275500D01*
X123150D01*
X123900Y274750D01*
X120900Y274000D02*X123900D01*
Y274750D02*Y274000D01*
X126450Y272500D02*X128700D01*
X129450Y273250D01*
X128700Y274000D02*X129450Y273250D01*
X126450Y274000D02*X128700D01*
X125700Y274750D02*X126450Y274000D01*
X125700Y274750D02*X126450Y275500D01*
X128700D01*
X129450Y274750D01*
X125700Y273250D02*X126450Y272500D01*
X133950Y275500D02*Y273250D01*
X134700Y272500D01*
X136200D01*
X136950Y273250D01*
Y275500D02*Y273250D01*
X139500Y272500D02*X141750D01*
X142500Y273250D01*
X141750Y274000D02*X142500Y273250D01*
X139500Y274000D02*X141750D01*
X138750Y274750D02*X139500Y274000D01*
X138750Y274750D02*X139500Y275500D01*
X141750D01*
X142500Y274750D01*
X138750Y273250D02*X139500Y272500D01*
X145050D02*X147300D01*
X144300Y273250D02*X145050Y272500D01*
X144300Y274750D02*Y273250D01*
Y274750D02*X145050Y275500D01*
X146550D01*
X147300Y274750D01*
X144300Y274000D02*X147300D01*
Y274750D02*Y274000D01*
X152100Y278500D02*Y272500D01*
X151350D02*X152100Y273250D01*
X149850Y272500D02*X151350D01*
X149100Y273250D02*X149850Y272500D01*
X149100Y274750D02*Y273250D01*
Y274750D02*X149850Y275500D01*
X151350D01*
X152100Y274750D01*
G54D96*X156600Y277000D02*Y276850D01*
G54D95*Y274750D02*Y272500D01*
X158850Y274750D02*Y272500D01*
Y274750D02*X159600Y275500D01*
X160350D01*
X161100Y274750D01*
Y272500D01*
X158100Y275500D02*X158850Y274750D01*
X166350Y278500D02*Y273250D01*
X167100Y272500D01*
X165600Y276250D02*X167100D01*
X168600Y278500D02*Y272500D01*
Y274750D02*X169350Y275500D01*
X170850D01*
X171600Y274750D01*
Y272500D01*
G54D96*X173400Y277000D02*Y276850D01*
G54D95*Y274750D02*Y272500D01*
X175650D02*X177900D01*
X178650Y273250D01*
X177900Y274000D02*X178650Y273250D01*
X175650Y274000D02*X177900D01*
X174900Y274750D02*X175650Y274000D01*
X174900Y274750D02*X175650Y275500D01*
X177900D01*
X178650Y274750D01*
X174900Y273250D02*X175650Y272500D01*
X183150Y278500D02*Y273250D01*
X183900Y272500D01*
X187650Y275500D02*X188400Y274750D01*
X186150Y275500D02*X187650D01*
X185400Y274750D02*X186150Y275500D01*
X185400Y274750D02*Y273250D01*
X186150Y272500D01*
X188400Y275500D02*Y273250D01*
X189150Y272500D01*
X186150D02*X187650D01*
X188400Y273250D01*
X190950Y275500D02*Y273250D01*
X191700Y272500D01*
X193950Y275500D02*Y271000D01*
X193200Y270250D02*X193950Y271000D01*
X191700Y270250D02*X193200D01*
X190950Y271000D02*X191700Y270250D01*
Y272500D02*X193200D01*
X193950Y273250D01*
X195750Y274750D02*Y273250D01*
Y274750D02*X196500Y275500D01*
X198000D01*
X198750Y274750D01*
Y273250D01*
X198000Y272500D02*X198750Y273250D01*
X196500Y272500D02*X198000D01*
X195750Y273250D02*X196500Y272500D01*
X200550Y275500D02*Y273250D01*
X201300Y272500D01*
X202800D01*
X203550Y273250D01*
Y275500D02*Y273250D01*
X206100Y278500D02*Y273250D01*
X206850Y272500D01*
X205350Y276250D02*X206850D01*
X208350Y271000D02*X209850Y272500D01*
X214350Y277300D02*X215550Y278500D01*
Y272500D01*
X214350D02*X216600D01*
X218400Y274750D02*X221400Y278500D01*
X218400Y274750D02*X222150D01*
X221400Y278500D02*Y272500D01*
X223950Y273250D02*X224700Y272500D01*
X223950Y277750D02*Y273250D01*
Y277750D02*X224700Y278500D01*
X226200D01*
X226950Y277750D01*
Y273250D01*
X226200Y272500D02*X226950Y273250D01*
X224700Y272500D02*X226200D01*
X223950Y274000D02*X226950Y277000D01*
X231450Y278500D02*Y272500D01*
Y274750D02*X232200Y275500D01*
X233700D01*
X234450Y274750D01*
Y272500D01*
X236250Y274750D02*Y273250D01*
Y274750D02*X237000Y275500D01*
X238500D01*
X239250Y274750D01*
Y273250D01*
X238500Y272500D02*X239250Y273250D01*
X237000Y272500D02*X238500D01*
X236250Y273250D02*X237000Y272500D01*
X241050Y278500D02*Y273250D01*
X241800Y272500D01*
X244050D02*X246300D01*
X243300Y273250D02*X244050Y272500D01*
X243300Y274750D02*Y273250D01*
Y274750D02*X244050Y275500D01*
X245550D01*
X246300Y274750D01*
X243300Y274000D02*X246300D01*
Y274750D02*Y274000D01*
X248850Y272500D02*X251100D01*
X251850Y273250D01*
X251100Y274000D02*X251850Y273250D01*
X248850Y274000D02*X251100D01*
X248100Y274750D02*X248850Y274000D01*
X248100Y274750D02*X248850Y275500D01*
X251100D01*
X251850Y274750D01*
X248100Y273250D02*X248850Y272500D01*
X257100Y278500D02*Y273250D01*
X257850Y272500D01*
X256350Y276250D02*X257850D01*
X259350Y274750D02*Y273250D01*
Y274750D02*X260100Y275500D01*
X261600D01*
X262350Y274750D01*
Y273250D01*
X261600Y272500D02*X262350Y273250D01*
X260100Y272500D02*X261600D01*
X259350Y273250D02*X260100Y272500D01*
X264900Y278500D02*Y273250D01*
X265650Y272500D01*
X264150Y276250D02*X265650D01*
X269400Y275500D02*X270150Y274750D01*
X267900Y275500D02*X269400D01*
X267150Y274750D02*X267900Y275500D01*
X267150Y274750D02*Y273250D01*
X267900Y272500D01*
X270150Y275500D02*Y273250D01*
X270900Y272500D01*
X267900D02*X269400D01*
X270150Y273250D01*
X272700Y278500D02*Y273250D01*
X273450Y272500D01*
G54D97*X0Y160000D02*X250000D01*
Y0D01*
X0D01*
Y160000D01*
G54D95*X38675Y-9500D02*X41675D01*
X42425Y-8750D01*
Y-6950D02*Y-8750D01*
X41675Y-6200D02*X42425Y-6950D01*
X39425Y-6200D02*X41675D01*
X39425Y-3500D02*Y-9500D01*
X38675Y-3500D02*X41675D01*
X42425Y-4250D01*
Y-5450D01*
X41675Y-6200D02*X42425Y-5450D01*
X44225Y-7250D02*Y-8750D01*
Y-7250D02*X44975Y-6500D01*
X46475D01*
X47225Y-7250D01*
Y-8750D01*
X46475Y-9500D02*X47225Y-8750D01*
X44975Y-9500D02*X46475D01*
X44225Y-8750D02*X44975Y-9500D01*
X51275Y-6500D02*X52025Y-7250D01*
X49775Y-6500D02*X51275D01*
X49025Y-7250D02*X49775Y-6500D01*
X49025Y-7250D02*Y-8750D01*
X49775Y-9500D01*
X52025Y-6500D02*Y-8750D01*
X52775Y-9500D01*
X49775D02*X51275D01*
X52025Y-8750D01*
X55325Y-7250D02*Y-9500D01*
Y-7250D02*X56075Y-6500D01*
X57575D01*
X54575D02*X55325Y-7250D01*
X62375Y-3500D02*Y-9500D01*
X61625D02*X62375Y-8750D01*
X60125Y-9500D02*X61625D01*
X59375Y-8750D02*X60125Y-9500D01*
X59375Y-7250D02*Y-8750D01*
Y-7250D02*X60125Y-6500D01*
X61625D01*
X62375Y-7250D01*
X66875D02*Y-8750D01*
Y-7250D02*X67625Y-6500D01*
X69125D01*
X69875Y-7250D01*
Y-8750D01*
X69125Y-9500D02*X69875Y-8750D01*
X67625Y-9500D02*X69125D01*
X66875Y-8750D02*X67625Y-9500D01*
X71675Y-6500D02*Y-8750D01*
X72425Y-9500D01*
X73925D01*
X74675Y-8750D01*
Y-6500D02*Y-8750D01*
X77225Y-3500D02*Y-8750D01*
X77975Y-9500D01*
X76475Y-5750D02*X77975D01*
X79475Y-3500D02*Y-8750D01*
X80225Y-9500D01*
G54D96*X81725Y-5000D02*Y-5150D01*
G54D95*Y-7250D02*Y-9500D01*
X83975Y-7250D02*Y-9500D01*
Y-7250D02*X84725Y-6500D01*
X85475D01*
X86225Y-7250D01*
Y-9500D01*
X83225Y-6500D02*X83975Y-7250D01*
X88775Y-9500D02*X91025D01*
X88025Y-8750D02*X88775Y-9500D01*
X88025Y-7250D02*Y-8750D01*
Y-7250D02*X88775Y-6500D01*
X90275D01*
X91025Y-7250D01*
X88025Y-8000D02*X91025D01*
Y-7250D02*Y-8000D01*
G54D96*X95525Y-5000D02*Y-5150D01*
G54D95*Y-7250D02*Y-9500D01*
X97775D02*X100025D01*
X100775Y-8750D01*
X100025Y-8000D02*X100775Y-8750D01*
X97775Y-8000D02*X100025D01*
X97025Y-7250D02*X97775Y-8000D01*
X97025Y-7250D02*X97775Y-6500D01*
X100025D01*
X100775Y-7250D01*
X97025Y-8750D02*X97775Y-9500D01*
X106025Y-3500D02*Y-8750D01*
X106775Y-9500D01*
X105275Y-5750D02*X106775D01*
X108275Y-3500D02*Y-9500D01*
Y-7250D02*X109025Y-6500D01*
X110525D01*
X111275Y-7250D01*
Y-9500D01*
X113825D02*X116075D01*
X113075Y-8750D02*X113825Y-9500D01*
X113075Y-7250D02*Y-8750D01*
Y-7250D02*X113825Y-6500D01*
X115325D01*
X116075Y-7250D01*
X113075Y-8000D02*X116075D01*
Y-7250D02*Y-8000D01*
X121325Y-6500D02*X123575D01*
X120575Y-7250D02*X121325Y-6500D01*
X120575Y-7250D02*Y-8750D01*
X121325Y-9500D01*
X123575D01*
X126125D02*X128375D01*
X125375Y-8750D02*X126125Y-9500D01*
X125375Y-7250D02*Y-8750D01*
Y-7250D02*X126125Y-6500D01*
X127625D01*
X128375Y-7250D01*
X125375Y-8000D02*X128375D01*
Y-7250D02*Y-8000D01*
X130925Y-7250D02*Y-9500D01*
Y-7250D02*X131675Y-6500D01*
X132425D01*
X133175Y-7250D01*
Y-9500D01*
X130175Y-6500D02*X130925Y-7250D01*
X135725Y-3500D02*Y-8750D01*
X136475Y-9500D01*
X134975Y-5750D02*X136475D01*
X138725Y-9500D02*X140975D01*
X137975Y-8750D02*X138725Y-9500D01*
X137975Y-7250D02*Y-8750D01*
Y-7250D02*X138725Y-6500D01*
X140225D01*
X140975Y-7250D01*
X137975Y-8000D02*X140975D01*
Y-7250D02*Y-8000D01*
X143525Y-7250D02*Y-9500D01*
Y-7250D02*X144275Y-6500D01*
X145775D01*
X142775D02*X143525Y-7250D01*
X147575Y-3500D02*Y-8750D01*
X148325Y-9500D01*
G54D96*X149825Y-5000D02*Y-5150D01*
G54D95*Y-7250D02*Y-9500D01*
X152075Y-7250D02*Y-9500D01*
Y-7250D02*X152825Y-6500D01*
X153575D01*
X154325Y-7250D01*
Y-9500D01*
X151325Y-6500D02*X152075Y-7250D01*
X156875Y-9500D02*X159125D01*
X156125Y-8750D02*X156875Y-9500D01*
X156125Y-7250D02*Y-8750D01*
Y-7250D02*X156875Y-6500D01*
X158375D01*
X159125Y-7250D01*
X156125Y-8000D02*X159125D01*
Y-7250D02*Y-8000D01*
X163625Y-7250D02*Y-8750D01*
Y-7250D02*X164375Y-6500D01*
X165875D01*
X166625Y-7250D01*
Y-8750D01*
X165875Y-9500D02*X166625Y-8750D01*
X164375Y-9500D02*X165875D01*
X163625Y-8750D02*X164375Y-9500D01*
X169175Y-4250D02*Y-9500D01*
Y-4250D02*X169925Y-3500D01*
X170675D01*
X168425Y-6500D02*X169925D01*
X175625Y-3500D02*Y-8750D01*
X176375Y-9500D01*
X174875Y-5750D02*X176375D01*
X177875Y-3500D02*Y-9500D01*
Y-7250D02*X178625Y-6500D01*
X180125D01*
X180875Y-7250D01*
Y-9500D01*
G54D96*X182675Y-5000D02*Y-5150D01*
G54D95*Y-7250D02*Y-9500D01*
X184925D02*X187175D01*
X187925Y-8750D01*
X187175Y-8000D02*X187925Y-8750D01*
X184925Y-8000D02*X187175D01*
X184175Y-7250D02*X184925Y-8000D01*
X184175Y-7250D02*X184925Y-6500D01*
X187175D01*
X187925Y-7250D01*
X184175Y-8750D02*X184925Y-9500D01*
X193175Y-7250D02*Y-11750D01*
X192425Y-6500D02*X193175Y-7250D01*
X193925Y-6500D01*
X195425D01*
X196175Y-7250D01*
Y-8750D01*
X195425Y-9500D02*X196175Y-8750D01*
X193925Y-9500D02*X195425D01*
X193175Y-8750D02*X193925Y-9500D01*
X200225Y-6500D02*X200975Y-7250D01*
X198725Y-6500D02*X200225D01*
X197975Y-7250D02*X198725Y-6500D01*
X197975Y-7250D02*Y-8750D01*
X198725Y-9500D01*
X200975Y-6500D02*Y-8750D01*
X201725Y-9500D01*
X198725D02*X200225D01*
X200975Y-8750D01*
X204275Y-3500D02*Y-8750D01*
X205025Y-9500D01*
X203525Y-5750D02*X205025D01*
X206525Y-3500D02*Y-9500D01*
Y-7250D02*X207275Y-6500D01*
X208775D01*
X209525Y-7250D01*
Y-9500D01*
X200750Y188500D02*Y182500D01*
X202700Y188500D02*X203750Y187450D01*
Y183550D01*
X202700Y182500D02*X203750Y183550D01*
X200000Y182500D02*X202700D01*
X200000Y188500D02*X202700D01*
X207800Y185500D02*X208550Y184750D01*
X206300Y185500D02*X207800D01*
X205550Y184750D02*X206300Y185500D01*
X205550Y184750D02*Y183250D01*
X206300Y182500D01*
X208550Y185500D02*Y183250D01*
X209300Y182500D01*
X206300D02*X207800D01*
X208550Y183250D01*
X211850Y188500D02*Y183250D01*
X212600Y182500D01*
X211100Y186250D02*X212600D01*
X214850Y182500D02*X217100D01*
X214100Y183250D02*X214850Y182500D01*
X214100Y184750D02*Y183250D01*
Y184750D02*X214850Y185500D01*
X216350D01*
X217100Y184750D01*
X214100Y184000D02*X217100D01*
Y184750D02*Y184000D01*
X218900Y186250D02*X219650D01*
X218900Y184750D02*X219650D01*
X224150Y188500D02*X227150D01*
X225650D02*Y182500D01*
X228950Y188500D02*Y182500D01*
Y184750D02*X229700Y185500D01*
X231200D01*
X231950Y184750D01*
Y182500D01*
X233750Y185500D02*Y183250D01*
X234500Y182500D01*
X236000D01*
X236750Y183250D01*
Y185500D02*Y183250D01*
X241250D02*X242000Y182500D01*
X241250Y187750D02*Y183250D01*
Y187750D02*X242000Y188500D01*
X243500D01*
X244250Y187750D01*
Y183250D01*
X243500Y182500D02*X244250Y183250D01*
X242000Y182500D02*X243500D01*
X241250Y184000D02*X244250Y187000D01*
X246050Y188500D02*X249050D01*
X246050D02*Y185500D01*
X246800Y186250D01*
X248300D01*
X249050Y185500D01*
Y183250D01*
X248300Y182500D02*X249050Y183250D01*
X246800Y182500D02*X248300D01*
X246050Y183250D02*X246800Y182500D01*
X253550Y188500D02*Y182500D01*
Y188500D02*X255800Y185500D01*
X258050Y188500D01*
Y182500D01*
X262100Y185500D02*X262850Y184750D01*
X260600Y185500D02*X262100D01*
X259850Y184750D02*X260600Y185500D01*
X259850Y184750D02*Y183250D01*
X260600Y182500D01*
X262850Y185500D02*Y183250D01*
X263600Y182500D01*
X260600D02*X262100D01*
X262850Y183250D01*
X266150Y184750D02*Y182500D01*
Y184750D02*X266900Y185500D01*
X268400D01*
X265400D02*X266150Y184750D01*
X272900Y187750D02*X273650Y188500D01*
X275900D01*
X276650Y187750D01*
Y186250D01*
X272900Y182500D02*X276650Y186250D01*
X272900Y182500D02*X276650D01*
X278450Y183250D02*X279200Y182500D01*
X278450Y187750D02*Y183250D01*
Y187750D02*X279200Y188500D01*
X280700D01*
X281450Y187750D01*
Y183250D01*
X280700Y182500D02*X281450Y183250D01*
X279200Y182500D02*X280700D01*
X278450Y184000D02*X281450Y187000D01*
X283250Y187750D02*X284000Y188500D01*
X286250D01*
X287000Y187750D01*
Y186250D01*
X283250Y182500D02*X287000Y186250D01*
X283250Y182500D02*X287000D01*
X288800Y183250D02*X289550Y182500D01*
X288800Y187750D02*Y183250D01*
Y187750D02*X289550Y188500D01*
X291050D01*
X291800Y187750D01*
Y183250D01*
X291050Y182500D02*X291800Y183250D01*
X289550Y182500D02*X291050D01*
X288800Y184000D02*X291800Y187000D01*
X296300Y183250D02*X297050Y182500D01*
X296300Y187750D02*Y183250D01*
Y187750D02*X297050Y188500D01*
X298550D01*
X299300Y187750D01*
Y183250D01*
X298550Y182500D02*X299300Y183250D01*
X297050Y182500D02*X298550D01*
X296300Y184000D02*X299300Y187000D01*
X301100Y187750D02*X301850Y188500D01*
X303350D01*
X304100Y187750D01*
X303350Y182500D02*X304100Y183250D01*
X301850Y182500D02*X303350D01*
X301100Y183250D02*X301850Y182500D01*
Y185800D02*X303350D01*
X304100Y187750D02*Y186550D01*
Y185050D02*Y183250D01*
Y185050D02*X303350Y185800D01*
X304100Y186550D02*X303350Y185800D01*
X305900Y186250D02*X306650D01*
X305900Y184750D02*X306650D01*
X308450Y187300D02*X309650Y188500D01*
Y182500D01*
X308450D02*X310700D01*
X312500Y187750D02*X313250Y188500D01*
X314750D01*
X315500Y187750D01*
X314750Y182500D02*X315500Y183250D01*
X313250Y182500D02*X314750D01*
X312500Y183250D02*X313250Y182500D01*
Y185800D02*X314750D01*
X315500Y187750D02*Y186550D01*
Y185050D02*Y183250D01*
Y185050D02*X314750Y185800D01*
X315500Y186550D02*X314750Y185800D01*
X317300Y186250D02*X318050D01*
X317300Y184750D02*X318050D01*
X319850Y187300D02*X321050Y188500D01*
Y182500D01*
X319850D02*X322100D01*
X323900Y187300D02*X325100Y188500D01*
Y182500D01*
X323900D02*X326150D01*
X330650Y187000D02*Y182500D01*
Y187000D02*X331700Y188500D01*
X333350D01*
X334400Y187000D01*
Y182500D01*
X330650Y185500D02*X334400D01*
X336200Y188500D02*Y182500D01*
Y188500D02*X338450Y185500D01*
X340700Y188500D01*
Y182500D01*
X348200Y188500D02*X348950Y187750D01*
X345950Y188500D02*X348200D01*
X345200Y187750D02*X345950Y188500D01*
X345200Y187750D02*Y183250D01*
X345950Y182500D01*
X348200D01*
X348950Y183250D01*
Y184750D02*Y183250D01*
X348200Y185500D02*X348950Y184750D01*
X346700Y185500D02*X348200D01*
X350750Y188500D02*Y182500D01*
Y188500D02*X353000Y185500D01*
X355250Y188500D01*
Y182500D01*
X357050Y188500D02*X360050D01*
X358550D02*Y182500D01*
X364550Y188500D02*Y183250D01*
X365300Y182500D01*
X366800D01*
X367550Y183250D01*
Y188500D02*Y183250D01*
X369350Y188500D02*X372350D01*
X370850D02*Y182500D01*
X375200D02*X377150D01*
X374150Y183550D02*X375200Y182500D01*
X374150Y187450D02*Y183550D01*
Y187450D02*X375200Y188500D01*
X377150D01*
X200000Y202000D02*Y197500D01*
Y202000D02*X201050Y203500D01*
X202700D01*
X203750Y202000D01*
Y197500D01*
X200000Y200500D02*X203750D01*
X205550D02*Y198250D01*
X206300Y197500D01*
X207800D01*
X208550Y198250D01*
Y200500D02*Y198250D01*
X211100Y203500D02*Y198250D01*
X211850Y197500D01*
X210350Y201250D02*X211850D01*
X213350Y203500D02*Y197500D01*
Y199750D02*X214100Y200500D01*
X215600D01*
X216350Y199750D01*
Y197500D01*
X218150Y199750D02*Y198250D01*
Y199750D02*X218900Y200500D01*
X220400D01*
X221150Y199750D01*
Y198250D01*
X220400Y197500D02*X221150Y198250D01*
X218900Y197500D02*X220400D01*
X218150Y198250D02*X218900Y197500D01*
X223700Y199750D02*Y197500D01*
Y199750D02*X224450Y200500D01*
X225950D01*
X222950D02*X223700Y199750D01*
X227750Y201250D02*X228500D01*
X227750Y199750D02*X228500D01*
X233000Y203500D02*Y197500D01*
Y203500D02*X235250Y200500D01*
X237500Y203500D01*
Y197500D01*
G54D96*X239300Y202000D02*Y201850D01*
G54D95*Y199750D02*Y197500D01*
X241550Y200500D02*X243800D01*
X240800Y199750D02*X241550Y200500D01*
X240800Y199750D02*Y198250D01*
X241550Y197500D01*
X243800D01*
X245600Y203500D02*Y197500D01*
Y199750D02*X246350Y200500D01*
X247850D01*
X248600Y199750D01*
Y197500D01*
X252650Y200500D02*X253400Y199750D01*
X251150Y200500D02*X252650D01*
X250400Y199750D02*X251150Y200500D01*
X250400Y199750D02*Y198250D01*
X251150Y197500D01*
X253400Y200500D02*Y198250D01*
X254150Y197500D01*
X251150D02*X252650D01*
X253400Y198250D01*
X256700Y197500D02*X258950D01*
X255950Y198250D02*X256700Y197500D01*
X255950Y199750D02*Y198250D01*
Y199750D02*X256700Y200500D01*
X258200D01*
X258950Y199750D01*
X255950Y199000D02*X258950D01*
Y199750D02*Y199000D01*
X260750Y203500D02*Y198250D01*
X261500Y197500D01*
X266450Y203500D02*Y197500D01*
X265700Y203500D02*X268700D01*
X269450Y202750D01*
Y201250D01*
X268700Y200500D02*X269450Y201250D01*
X266450Y200500D02*X268700D01*
X272000Y197500D02*X274250D01*
X271250Y198250D02*X272000Y197500D01*
X271250Y199750D02*Y198250D01*
Y199750D02*X272000Y200500D01*
X273500D01*
X274250Y199750D01*
X271250Y199000D02*X274250D01*
Y199750D02*Y199000D01*
X276800Y203500D02*Y198250D01*
X277550Y197500D01*
X276050Y201250D02*X277550D01*
X279800Y197500D02*X282050D01*
X279050Y198250D02*X279800Y197500D01*
X279050Y199750D02*Y198250D01*
Y199750D02*X279800Y200500D01*
X281300D01*
X282050Y199750D01*
X279050Y199000D02*X282050D01*
Y199750D02*Y199000D01*
X284600Y199750D02*Y197500D01*
Y199750D02*X285350Y200500D01*
X286850D01*
X283850D02*X284600Y199750D01*
X289400Y197500D02*X291650D01*
X292400Y198250D01*
X291650Y199000D02*X292400Y198250D01*
X289400Y199000D02*X291650D01*
X288650Y199750D02*X289400Y199000D01*
X288650Y199750D02*X289400Y200500D01*
X291650D01*
X292400Y199750D01*
X288650Y198250D02*X289400Y197500D01*
X294950D02*X297200D01*
X294200Y198250D02*X294950Y197500D01*
X294200Y199750D02*Y198250D01*
Y199750D02*X294950Y200500D01*
X296450D01*
X297200Y199750D01*
X294200Y199000D02*X297200D01*
Y199750D02*Y199000D01*
X299750Y199750D02*Y197500D01*
Y199750D02*X300500Y200500D01*
X301250D01*
X302000Y199750D01*
Y197500D01*
X299000Y200500D02*X299750Y199750D01*
X200000Y218500D02*X203000D01*
X201500D02*Y212500D01*
G54D96*X204800Y217000D02*Y216850D01*
G54D95*Y214750D02*Y212500D01*
X207050Y218500D02*Y213250D01*
X207800Y212500D01*
X206300Y216250D02*X207800D01*
X209300Y218500D02*Y213250D01*
X210050Y212500D01*
X212300D02*X214550D01*
X211550Y213250D02*X212300Y212500D01*
X211550Y214750D02*Y213250D01*
Y214750D02*X212300Y215500D01*
X213800D01*
X214550Y214750D01*
X211550Y214000D02*X214550D01*
Y214750D02*Y214000D01*
X216350Y216250D02*X217100D01*
X216350Y214750D02*X217100D01*
X221600Y213250D02*X222350Y212500D01*
X221600Y217750D02*X222350Y218500D01*
X221600Y217750D02*Y213250D01*
X224150Y215500D02*Y213250D01*
X224900Y212500D01*
X226400D01*
X227150Y213250D01*
Y215500D02*Y213250D01*
X229700Y214750D02*Y212500D01*
Y214750D02*X230450Y215500D01*
X231200D01*
X231950Y214750D01*
Y212500D01*
X228950Y215500D02*X229700Y214750D01*
X233750Y218500D02*Y212500D01*
Y214750D02*X236000Y212500D01*
X233750Y214750D02*X235250Y216250D01*
X238550Y214750D02*Y212500D01*
Y214750D02*X239300Y215500D01*
X240050D01*
X240800Y214750D01*
Y212500D01*
X237800Y215500D02*X238550Y214750D01*
X242600D02*Y213250D01*
Y214750D02*X243350Y215500D01*
X244850D01*
X245600Y214750D01*
Y213250D01*
X244850Y212500D02*X245600Y213250D01*
X243350Y212500D02*X244850D01*
X242600Y213250D02*X243350Y212500D01*
X247400Y215500D02*Y213250D01*
X248150Y212500D01*
X248900D01*
X249650Y213250D01*
Y215500D02*Y213250D01*
X250400Y212500D01*
X251150D01*
X251900Y213250D01*
Y215500D02*Y213250D01*
X254450Y214750D02*Y212500D01*
Y214750D02*X255200Y215500D01*
X255950D01*
X256700Y214750D01*
Y212500D01*
X253700Y215500D02*X254450Y214750D01*
X258500Y218500D02*X259250Y217750D01*
Y213250D01*
X258500Y212500D02*X259250Y213250D01*
X263750Y215500D02*X266750D01*
X271250Y218500D02*Y212500D01*
Y218500D02*X274250D01*
X271250Y215800D02*X273500D01*
X278300Y215500D02*X279050Y214750D01*
X276800Y215500D02*X278300D01*
X276050Y214750D02*X276800Y215500D01*
X276050Y214750D02*Y213250D01*
X276800Y212500D01*
X279050Y215500D02*Y213250D01*
X279800Y212500D01*
X276800D02*X278300D01*
X279050Y213250D01*
X281600Y218500D02*Y212500D01*
Y213250D02*X282350Y212500D01*
X283850D01*
X284600Y213250D01*
Y214750D02*Y213250D01*
X283850Y215500D02*X284600Y214750D01*
X282350Y215500D02*X283850D01*
X281600Y214750D02*X282350Y215500D01*
X287150Y214750D02*Y212500D01*
Y214750D02*X287900Y215500D01*
X289400D01*
X286400D02*X287150Y214750D01*
G54D96*X291200Y217000D02*Y216850D01*
G54D95*Y214750D02*Y212500D01*
X293450Y215500D02*X295700D01*
X292700Y214750D02*X293450Y215500D01*
X292700Y214750D02*Y213250D01*
X293450Y212500D01*
X295700D01*
X299750Y215500D02*X300500Y214750D01*
X298250Y215500D02*X299750D01*
X297500Y214750D02*X298250Y215500D01*
X297500Y214750D02*Y213250D01*
X298250Y212500D01*
X300500Y215500D02*Y213250D01*
X301250Y212500D01*
X298250D02*X299750D01*
X300500Y213250D01*
X303800Y218500D02*Y213250D01*
X304550Y212500D01*
X303050Y216250D02*X304550D01*
G54D96*X306050Y217000D02*Y216850D01*
G54D95*Y214750D02*Y212500D01*
X307550Y214750D02*Y213250D01*
Y214750D02*X308300Y215500D01*
X309800D01*
X310550Y214750D01*
Y213250D01*
X309800Y212500D02*X310550Y213250D01*
X308300Y212500D02*X309800D01*
X307550Y213250D02*X308300Y212500D01*
X313100Y214750D02*Y212500D01*
Y214750D02*X313850Y215500D01*
X314600D01*
X315350Y214750D01*
Y212500D01*
X312350Y215500D02*X313100Y214750D01*
X320600Y218500D02*Y212500D01*
X322550Y218500D02*X323600Y217450D01*
Y213550D01*
X322550Y212500D02*X323600Y213550D01*
X319850Y212500D02*X322550D01*
X319850Y218500D02*X322550D01*
X326150Y214750D02*Y212500D01*
Y214750D02*X326900Y215500D01*
X328400D01*
X325400D02*X326150Y214750D01*
X332450Y215500D02*X333200Y214750D01*
X330950Y215500D02*X332450D01*
X330200Y214750D02*X330950Y215500D01*
X330200Y214750D02*Y213250D01*
X330950Y212500D01*
X333200Y215500D02*Y213250D01*
X333950Y212500D01*
X330950D02*X332450D01*
X333200Y213250D01*
X335750Y215500D02*Y213250D01*
X336500Y212500D01*
X337250D01*
X338000Y213250D01*
Y215500D02*Y213250D01*
X338750Y212500D01*
X339500D01*
X340250Y213250D01*
Y215500D02*Y213250D01*
G54D96*X342050Y217000D02*Y216850D01*
G54D95*Y214750D02*Y212500D01*
X344300Y214750D02*Y212500D01*
Y214750D02*X345050Y215500D01*
X345800D01*
X346550Y214750D01*
Y212500D01*
X343550Y215500D02*X344300Y214750D01*
X350600Y215500D02*X351350Y214750D01*
X349100Y215500D02*X350600D01*
X348350Y214750D02*X349100Y215500D01*
X348350Y214750D02*Y213250D01*
X349100Y212500D01*
X350600D01*
X351350Y213250D01*
X348350Y211000D02*X349100Y210250D01*
X350600D01*
X351350Y211000D01*
Y215500D02*Y211000D01*
M02*
