G04 start of page 10 for group -4015 idx -4015 *
G04 Title: (unknown), toppaste *
G04 Creator: pcb 20140316 *
G04 CreationDate: Thu 30 Aug 2018 07:24:04 PM GMT UTC *
G04 For: railfan *
G04 Format: Gerber/RS-274X *
G04 PCB-Dimensions (mil): 2220.00 1040.00 *
G04 PCB-Coordinate-Origin: lower left *
%MOIN*%
%FSLAX25Y25*%
%LNTOPPASTE*%
%ADD67R,0.0120X0.0120*%
%ADD66R,0.0500X0.0500*%
%ADD65R,0.0512X0.0512*%
G54D65*X116043Y97393D02*Y96607D01*
X108957Y97393D02*Y96607D01*
X143107Y9457D02*X143893D01*
X143107Y16543D02*X143893D01*
G54D66*X140260Y93000D02*X146913D01*
X126087Y83000D02*X132740D01*
X140260Y73000D02*X146913D01*
X126087Y63000D02*X132740D01*
X132760Y44500D02*X139413D01*
X118587Y34500D02*X125240D01*
X132760Y24500D02*X139413D01*
X118587Y14500D02*X125240D01*
X153500Y94413D02*Y87760D01*
X163500Y80240D02*Y73587D01*
X173500Y94413D02*Y87760D01*
X183500Y80240D02*Y73587D01*
G54D65*X109607Y14543D02*X110393D01*
X109607Y7457D02*X110393D01*
X97607Y14543D02*X98393D01*
X97607Y7457D02*X98393D01*
X177543Y7393D02*Y6607D01*
X170457Y7393D02*Y6607D01*
X85457Y97393D02*Y96607D01*
X92543Y97393D02*Y96607D01*
G54D67*X108074Y52811D02*Y51417D01*
X105515Y52811D02*Y51417D01*
X102956Y52811D02*Y51417D01*
X100397Y52811D02*Y51417D01*
X97838Y52811D02*Y51417D01*
X95279Y52811D02*Y51417D01*
X92721Y52811D02*Y51417D01*
X90162Y52811D02*Y51417D01*
X87603Y52811D02*Y51417D01*
X85044Y52811D02*Y51417D01*
X82485Y52811D02*Y51417D01*
X79926Y52811D02*Y51417D01*
Y29583D02*Y28189D01*
X82485Y29583D02*Y28189D01*
X85044Y29583D02*Y28189D01*
X87603Y29583D02*Y28189D01*
X90162Y29583D02*Y28189D01*
X92721Y29583D02*Y28189D01*
X95279Y29583D02*Y28189D01*
X97838Y29583D02*Y28189D01*
X100397Y29583D02*Y28189D01*
X102956Y29583D02*Y28189D01*
X105515Y29583D02*Y28189D01*
X108074Y29583D02*Y28189D01*
M02*
