G04 start of page 7 for group -4062 idx -4062 *
G04 Title: (unknown), soldermask *
G04 Creator: pcb 20140316 *
G04 CreationDate: Thu 30 Aug 2018 07:24:04 PM GMT UTC *
G04 For: railfan *
G04 Format: Gerber/RS-274X *
G04 PCB-Dimensions (mil): 2220.00 1040.00 *
G04 PCB-Coordinate-Origin: lower left *
%MOIN*%
%FSLAX25Y25*%
%LNBOTTOMMASK*%
%ADD60C,0.0760*%
%ADD59C,0.0660*%
%ADD58C,0.1500*%
%ADD57C,0.0001*%
%ADD56C,0.2997*%
G54D56*X206000Y88000D03*
G54D57*G36*
X191700Y10300D02*Y3700D01*
X198300D01*
Y10300D01*
X191700D01*
G37*
G54D58*X190000Y20500D03*
Y60500D03*
G54D59*X205000Y7000D03*
X215000D03*
G54D60*X155000Y28000D03*
Y38000D03*
Y48000D03*
X165000Y33000D03*
Y43000D03*
Y53000D03*
G54D57*G36*
X23200Y79300D02*Y72700D01*
X29800D01*
Y79300D01*
X23200D01*
G37*
G54D59*X36500Y76000D03*
X26500Y86000D03*
X36500D03*
X56500Y76000D03*
X66500D03*
X76500D03*
X46500D03*
Y86000D03*
X56500D03*
X66500D03*
X76500D03*
X86500D03*
X96500D03*
X106500D03*
X116500D03*
X86500Y76000D03*
X96500D03*
X106500D03*
X116500D03*
G54D60*X67000Y53000D03*
Y43000D03*
Y33000D03*
X57000Y48000D03*
Y38000D03*
Y28000D03*
G54D58*X32000Y60500D03*
Y20500D03*
G54D57*G36*
X3700Y10300D02*Y3700D01*
X10300D01*
Y10300D01*
X3700D01*
G37*
G54D59*X17000Y7000D03*
X27000D03*
M02*
