M48
INCH
T47C0.020
T46C0.030
T45C0.128
T44C0.038
T43C0.129
%
T47
X004900Y000550
X005050Y001000
X005650Y006650
X007900Y005950
X008000Y009700
X009300Y004550
X009300Y004050
X009950Y004150
X010050Y003550
X010400Y001750
X010550Y003550
X013300Y003750
X013850Y006300
X014500Y006450
X014500Y006050
X014600Y005050
X014600Y004600
X014850Y006650
X014850Y006250
X015250Y000950
X015350Y007300
X015850Y000950
X016300Y006850
X017550Y003150
X018000Y003650
X018350Y008550
T46
X005700Y004800
X005700Y003800
X005700Y002800
X006700Y005300
X006700Y004300
X006700Y003300
X015500Y004800
X015500Y003800
X015500Y002800
X016500Y005300
X016500Y004300
X016500Y003300
T44
X000700Y000700
X001700Y000700
X002650Y008600
X002650Y007600
X002700Y000700
X003650Y008600
X003650Y007600
X004650Y008600
X004650Y007600
X005650Y008600
X005650Y007600
X006650Y008600
X006650Y007600
X007650Y008600
X007650Y007600
X008650Y008600
X008650Y007600
X009650Y008600
X009650Y007600
X010650Y008600
X010650Y007600
X011650Y008600
X011650Y007600
X019500Y000700
X020500Y000700
X021500Y000700
T45
X003200Y006050
X003200Y002050
X019000Y006050
X019000Y002050
T43
X020600Y008800
M30
