G04 start of page 8 for group -4079 idx -4079 *
G04 Title: (unknown), topsilk *
G04 Creator: pcb 20140316 *
G04 CreationDate: Sun 30 Dec 2018 07:12:51 PM GMT UTC *
G04 For: railfan *
G04 Format: Gerber/RS-274X *
G04 PCB-Dimensions (mil): 2220.00 1040.00 *
G04 PCB-Coordinate-Origin: lower left *
%MOIN*%
%FSLAX25Y25*%
%LNTOPSILK*%
%ADD54C,0.0080*%
%ADD53C,0.0100*%
%ADD52C,0.0001*%
G54D52*G36*
X111000Y59500D02*X114000D01*
Y56500D01*
X111000D01*
Y59500D01*
G37*
G54D53*X500Y500D02*X221500D01*
X500D02*Y103500D01*
X221500D02*X500D01*
X96500Y97000D02*X100500D01*
X98500Y99000D02*Y95000D01*
X221500Y103500D02*Y500D01*
G54D54*X7500Y9000D02*X8500D01*
X8000D02*Y5000D01*
X7500D02*X8500D01*
X9700Y6500D02*Y5500D01*
Y6500D02*X10200Y7000D01*
X11200D01*
X11700Y6500D01*
Y5500D01*
X11200Y5000D02*X11700Y5500D01*
X10200Y5000D02*X11200D01*
X9700Y5500D02*X10200Y5000D01*
X12900Y7000D02*Y5500D01*
X13400Y5000D01*
X13900D01*
X14400Y5500D01*
Y7000D02*Y5500D01*
X14900Y5000D01*
X15400D01*
X15900Y5500D01*
Y7000D02*Y5500D01*
X18600Y7000D02*X19100Y6500D01*
X17600Y7000D02*X18600D01*
X17100Y6500D02*X17600Y7000D01*
X17100Y6500D02*Y5500D01*
X17600Y5000D01*
X19100Y7000D02*Y5500D01*
X19600Y5000D01*
X17600D02*X18600D01*
X19100Y5500D01*
X24600Y9000D02*X25100Y8500D01*
X23100Y9000D02*X24600D01*
X22600Y8500D02*X23100Y9000D01*
X22600Y8500D02*Y7500D01*
X23100Y7000D01*
X24600D01*
X25100Y6500D01*
Y5500D01*
X24600Y5000D02*X25100Y5500D01*
X23100Y5000D02*X24600D01*
X22600Y5500D02*X23100Y5000D01*
X26800Y7000D02*X28300D01*
X26300Y6500D02*X26800Y7000D01*
X26300Y6500D02*Y5500D01*
X26800Y5000D01*
X28300D01*
X31000Y7000D02*X31500Y6500D01*
X30000Y7000D02*X31000D01*
X29500Y6500D02*X30000Y7000D01*
X29500Y6500D02*Y5500D01*
X30000Y5000D01*
X31500Y7000D02*Y5500D01*
X32000Y5000D01*
X30000D02*X31000D01*
X31500Y5500D01*
X33200Y9000D02*Y5500D01*
X33700Y5000D01*
X35200D02*X36700D01*
X34700Y5500D02*X35200Y5000D01*
X34700Y6500D02*Y5500D01*
Y6500D02*X35200Y7000D01*
X36200D01*
X36700Y6500D01*
X34700Y6000D02*X36700D01*
Y6500D02*Y6000D01*
X39900Y9000D02*Y5000D01*
X39400D02*X39900Y5500D01*
X38400Y5000D02*X39400D01*
X37900Y5500D02*X38400Y5000D01*
X37900Y6500D02*Y5500D01*
Y6500D02*X38400Y7000D01*
X39400D01*
X39900Y6500D01*
X42900Y7200D02*X44400D01*
X42900Y5000D02*X44900D01*
X42900Y9000D02*Y5000D01*
Y9000D02*X44900D01*
X46600Y6500D02*Y5000D01*
Y6500D02*X47100Y7000D01*
X47600D01*
X48100Y6500D01*
Y5000D01*
X46100Y7000D02*X46600Y6500D01*
X50800Y7000D02*X51300Y6500D01*
X49800Y7000D02*X50800D01*
X49300Y6500D02*X49800Y7000D01*
X49300Y6500D02*Y5500D01*
X49800Y5000D01*
X50800D01*
X51300Y5500D01*
X49300Y4000D02*X49800Y3500D01*
X50800D01*
X51300Y4000D01*
Y7000D02*Y4000D01*
X52500Y8000D02*Y7900D01*
Y6500D02*Y5000D01*
X54000Y6500D02*Y5000D01*
Y6500D02*X54500Y7000D01*
X55000D01*
X55500Y6500D01*
Y5000D01*
X53500Y7000D02*X54000Y6500D01*
X57200Y5000D02*X58700D01*
X56700Y5500D02*X57200Y5000D01*
X56700Y6500D02*Y5500D01*
Y6500D02*X57200Y7000D01*
X58200D01*
X58700Y6500D01*
X56700Y6000D02*X58700D01*
Y6500D02*Y6000D01*
X60400Y5000D02*X61900D01*
X59900Y5500D02*X60400Y5000D01*
X59900Y6500D02*Y5500D01*
Y6500D02*X60400Y7000D01*
X61400D01*
X61900Y6500D01*
X59900Y6000D02*X61900D01*
Y6500D02*Y6000D01*
X63600Y6500D02*Y5000D01*
Y6500D02*X64100Y7000D01*
X65100D01*
X63100D02*X63600Y6500D01*
X66300Y8000D02*Y7900D01*
Y6500D02*Y5000D01*
X67800Y6500D02*Y5000D01*
Y6500D02*X68300Y7000D01*
X68800D01*
X69300Y6500D01*
Y5000D01*
X67300Y7000D02*X67800Y6500D01*
X72000Y7000D02*X72500Y6500D01*
X71000Y7000D02*X72000D01*
X70500Y6500D02*X71000Y7000D01*
X70500Y6500D02*Y5500D01*
X71000Y5000D01*
X72000D01*
X72500Y5500D01*
X70500Y4000D02*X71000Y3500D01*
X72000D01*
X72500Y4000D01*
Y7000D02*Y4000D01*
X5700Y95000D02*X7000D01*
X5000Y95700D02*X5700Y95000D01*
X5000Y98300D02*Y95700D01*
Y98300D02*X5700Y99000D01*
X7000D01*
X8900Y95000D02*X10200D01*
X8200Y95700D02*X8900Y95000D01*
X8200Y98300D02*Y95700D01*
Y98300D02*X8900Y99000D01*
X10200D01*
X13200Y95000D02*X15200D01*
X15700Y95500D01*
Y96700D02*Y95500D01*
X15200Y97200D02*X15700Y96700D01*
X13700Y97200D02*X15200D01*
X13700Y99000D02*Y95000D01*
X13200Y99000D02*X15200D01*
X15700Y98500D01*
Y97700D01*
X15200Y97200D02*X15700Y97700D01*
X16900Y99000D02*X17900Y97000D01*
X18900Y99000D01*
X17900Y97000D02*Y95000D01*
X20100Y97000D02*X22100D01*
X25300Y99000D02*X25800Y98500D01*
X23800Y99000D02*X25300D01*
X23300Y98500D02*X23800Y99000D01*
X23300Y98500D02*Y97500D01*
X23800Y97000D01*
X25300D01*
X25800Y96500D01*
Y95500D01*
X25300Y95000D02*X25800Y95500D01*
X23800Y95000D02*X25300D01*
X23300Y95500D02*X23800Y95000D01*
X27000Y98000D02*Y95000D01*
Y98000D02*X27700Y99000D01*
X28800D01*
X29500Y98000D01*
Y95000D01*
X27000Y97000D02*X29500D01*
X32500Y95500D02*X33000Y95000D01*
X32500Y98500D02*X33000Y99000D01*
X32500Y98500D02*Y95500D01*
X34900Y95000D02*X36200D01*
X34200Y95700D02*X34900Y95000D01*
X34200Y98300D02*Y95700D01*
Y98300D02*X34900Y99000D01*
X36200D01*
X37400D02*X37900Y98500D01*
Y95500D01*
X37400Y95000D02*X37900Y95500D01*
X40900Y98500D02*X41400Y99000D01*
X42900D01*
X43400Y98500D01*
Y97500D01*
X40900Y95000D02*X43400Y97500D01*
X40900Y95000D02*X43400D01*
X44600Y95500D02*X45100Y95000D01*
X44600Y98500D02*Y95500D01*
Y98500D02*X45100Y99000D01*
X46100D01*
X46600Y98500D01*
Y95500D01*
X46100Y95000D02*X46600Y95500D01*
X45100Y95000D02*X46100D01*
X44600Y96000D02*X46600Y98000D01*
X47800Y98200D02*X48600Y99000D01*
Y95000D01*
X47800D02*X49300D01*
X51000D02*X52500Y97000D01*
Y98500D02*Y97000D01*
X52000Y99000D02*X52500Y98500D01*
X51000Y99000D02*X52000D01*
X50500Y98500D02*X51000Y99000D01*
X50500Y98500D02*Y97500D01*
X51000Y97000D01*
X52500D01*
X141500Y99000D02*Y96000D01*
Y99000D02*X142200Y100000D01*
X143300D01*
X144000Y99000D01*
Y96000D01*
X141500Y98000D02*X144000D01*
X145200Y99500D02*X145700Y100000D01*
X147200D01*
X147700Y99500D01*
Y98500D01*
X145200Y96000D02*X147700Y98500D01*
X145200Y96000D02*X147700D01*
X161000Y99000D02*Y96000D01*
Y99000D02*X161700Y100000D01*
X162800D01*
X163500Y99000D01*
Y96000D01*
X161000Y98000D02*X163500D01*
X164700Y99200D02*X165500Y100000D01*
Y96000D01*
X164700D02*X166200D01*
X181500Y99000D02*Y96000D01*
Y99000D02*X182200Y100000D01*
X183300D01*
X184000Y99000D01*
Y96000D01*
X181500Y98000D02*X184000D01*
X185200Y96500D02*X185700Y96000D01*
X185200Y99500D02*Y96500D01*
Y99500D02*X185700Y100000D01*
X186700D01*
X187200Y99500D01*
Y96500D01*
X186700Y96000D02*X187200Y96500D01*
X185700Y96000D02*X186700D01*
X185200Y97000D02*X187200Y99000D01*
X119500Y9000D02*Y5000D01*
Y6500D02*X120000Y7000D01*
X121000D01*
X121500Y6500D01*
Y5000D01*
X123200Y9000D02*Y5500D01*
X123700Y5000D01*
X122700Y7500D02*X123700D01*
X125200Y9000D02*Y5500D01*
X125700Y5000D01*
X124700Y7500D02*X125700D01*
X127200Y6500D02*Y3500D01*
X126700Y7000D02*X127200Y6500D01*
X127700Y7000D01*
X128700D01*
X129200Y6500D01*
Y5500D01*
X128700Y5000D02*X129200Y5500D01*
X127700Y5000D02*X128700D01*
X127200Y5500D02*X127700Y5000D01*
X130900D02*X132400D01*
X132900Y5500D01*
X132400Y6000D02*X132900Y5500D01*
X130900Y6000D02*X132400D01*
X130400Y6500D02*X130900Y6000D01*
X130400Y6500D02*X130900Y7000D01*
X132400D01*
X132900Y6500D01*
X130400Y5500D02*X130900Y5000D01*
X134100Y7500D02*X134600D01*
X134100Y6500D02*X134600D01*
X135800Y5500D02*X138800Y8500D01*
X140000Y5500D02*X143000Y8500D01*
X144200Y7000D02*Y5500D01*
X144700Y5000D01*
X145200D01*
X145700Y5500D01*
Y7000D02*Y5500D01*
X146200Y5000D01*
X146700D01*
X147200Y5500D01*
Y7000D02*Y5500D01*
X148400Y7000D02*Y5500D01*
X148900Y5000D01*
X149400D01*
X149900Y5500D01*
Y7000D02*Y5500D01*
X150400Y5000D01*
X150900D01*
X151400Y5500D01*
Y7000D02*Y5500D01*
X152600Y7000D02*Y5500D01*
X153100Y5000D01*
X153600D01*
X154100Y5500D01*
Y7000D02*Y5500D01*
X154600Y5000D01*
X155100D01*
X155600Y5500D01*
Y7000D02*Y5500D01*
X156800Y5000D02*X157300D01*
X158500Y8000D02*Y7900D01*
Y6500D02*Y5000D01*
X161000Y7000D02*X161500Y6500D01*
X160000Y7000D02*X161000D01*
X159500Y6500D02*X160000Y7000D01*
X159500Y6500D02*Y5500D01*
X160000Y5000D01*
X161500Y7000D02*Y5500D01*
X162000Y5000D01*
X160000D02*X161000D01*
X161500Y5500D01*
X163700Y5000D02*X165200D01*
X165700Y5500D01*
X165200Y6000D02*X165700Y5500D01*
X163700Y6000D02*X165200D01*
X163200Y6500D02*X163700Y6000D01*
X163200Y6500D02*X163700Y7000D01*
X165200D01*
X165700Y6500D01*
X163200Y5500D02*X163700Y5000D01*
X167400Y7000D02*X168900D01*
X166900Y6500D02*X167400Y7000D01*
X166900Y6500D02*Y5500D01*
X167400Y5000D01*
X168900D01*
X171600Y7000D02*X172100Y6500D01*
X170600Y7000D02*X171600D01*
X170100Y6500D02*X170600Y7000D01*
X170100Y6500D02*Y5500D01*
X170600Y5000D01*
X172100Y7000D02*Y5500D01*
X172600Y5000D01*
X170600D02*X171600D01*
X172100Y5500D01*
X173800Y9000D02*Y5500D01*
X174300Y5000D01*
X175800D02*X177300D01*
X175300Y5500D02*X175800Y5000D01*
X175300Y6500D02*Y5500D01*
Y6500D02*X175800Y7000D01*
X176800D01*
X177300Y6500D01*
X175300Y6000D02*X177300D01*
Y6500D02*Y6000D01*
X180500Y9000D02*Y5000D01*
X180000D02*X180500Y5500D01*
X179000Y5000D02*X180000D01*
X178500Y5500D02*X179000Y5000D01*
X178500Y6500D02*Y5500D01*
Y6500D02*X179000Y7000D01*
X180000D01*
X180500Y6500D01*
X181700Y5000D02*X182200D01*
X183900Y7000D02*X185400D01*
X183400Y6500D02*X183900Y7000D01*
X183400Y6500D02*Y5500D01*
X183900Y5000D01*
X185400D01*
X186600Y6500D02*Y5500D01*
Y6500D02*X187100Y7000D01*
X188100D01*
X188600Y6500D01*
Y5500D01*
X188100Y5000D02*X188600Y5500D01*
X187100Y5000D02*X188100D01*
X186600Y5500D02*X187100Y5000D01*
X190300Y6500D02*Y5000D01*
Y6500D02*X190800Y7000D01*
X191300D01*
X191800Y6500D01*
Y5000D01*
Y6500D02*X192300Y7000D01*
X192800D01*
X193300Y6500D01*
Y5000D01*
X189800Y7000D02*X190300Y6500D01*
X119000Y17000D02*X120000D01*
X119500D02*Y13000D01*
X119000D02*X120000D01*
X121200Y16500D02*X121700Y17000D01*
X123200D01*
X123700Y16500D01*
Y15500D01*
X121200Y13000D02*X123700Y15500D01*
X121200Y13000D02*X123700D01*
X125600D02*X126900D01*
X124900Y13700D02*X125600Y13000D01*
X124900Y16300D02*Y13700D01*
Y16300D02*X125600Y17000D01*
X126900D01*
X128100Y15000D02*X130100D01*
X131300Y17000D02*X133300D01*
X133800Y16500D01*
Y15500D01*
X133300Y15000D02*X133800Y15500D01*
X131800Y15000D02*X133300D01*
X131800Y17000D02*Y13000D01*
X132600Y15000D02*X133800Y13000D01*
X135000Y15200D02*X136500D01*
X135000Y13000D02*X137000D01*
X135000Y17000D02*Y13000D01*
Y17000D02*X137000D01*
X138200D02*Y13000D01*
X140200D01*
X141400Y16000D02*Y13000D01*
Y16000D02*X142100Y17000D01*
X143200D01*
X143900Y16000D01*
Y13000D01*
X141400Y15000D02*X143900D01*
X145100Y17000D02*X146100Y15000D01*
X147100Y17000D01*
X146100Y15000D02*Y13000D01*
X148300Y16200D02*X149100Y17000D01*
Y13000D01*
X148300D02*X149800D01*
X152500Y17000D02*X153000Y16500D01*
X151500Y17000D02*X152500D01*
X151000Y16500D02*X151500Y17000D01*
X151000Y16500D02*Y13500D01*
X151500Y13000D01*
X152500Y15200D02*X153000Y14700D01*
X151000Y15200D02*X152500D01*
X151500Y13000D02*X152500D01*
X153000Y13500D01*
Y14700D02*Y13500D01*
X156000Y16500D02*Y13500D01*
Y16500D02*X156500Y17000D01*
X157500D01*
X158000Y16500D01*
Y14000D01*
X157000Y13000D02*X158000Y14000D01*
X156500Y13000D02*X157000D01*
X156000Y13500D02*X156500Y13000D01*
X157000Y14500D02*X158000Y13000D01*
X159200Y17000D02*Y15000D01*
X159700Y13000D01*
X160700Y15000D01*
X161700Y13000D01*
X162200Y15000D01*
Y17000D02*Y15000D01*
X163400Y17000D02*X164400D01*
X163900D02*Y13000D01*
X163400D02*X164400D01*
X165600Y17000D02*X166600D01*
X166100D02*Y13000D01*
X165600D02*X166600D01*
X168500D02*X169800D01*
X167800Y13700D02*X168500Y13000D01*
X167800Y16300D02*Y13700D01*
Y16300D02*X168500Y17000D01*
X169800D01*
X172800Y15000D02*X173800Y13000D01*
X174800Y15000D02*X173800Y13000D01*
X176000Y16500D02*X176500Y17000D01*
X177500D01*
X178000Y16500D01*
X177500Y13000D02*X178000Y13500D01*
X176500Y13000D02*X177500D01*
X176000Y13500D02*X176500Y13000D01*
Y15200D02*X177500D01*
X178000Y16500D02*Y15700D01*
Y14700D02*Y13500D01*
Y14700D02*X177500Y15200D01*
X178000Y15700D02*X177500Y15200D01*
X179200Y13000D02*X179700D01*
X180900Y13500D02*X181400Y13000D01*
X180900Y16500D02*Y13500D01*
Y16500D02*X181400Y17000D01*
X182400D01*
X182900Y16500D01*
Y13500D01*
X182400Y13000D02*X182900Y13500D01*
X181400Y13000D02*X182400D01*
X180900Y14000D02*X182900Y16000D01*
G54D53*X21500Y71000D02*X121500D01*
Y91000D02*Y71000D01*
X21500Y91000D02*X121500D01*
X21500D02*Y71000D01*
X31500Y81000D02*Y71000D01*
X21500Y81000D02*X31500D01*
X112107Y94245D02*X112893D01*
X112107Y99755D02*X112893D01*
X132755Y55393D02*Y54607D01*
X127245Y55393D02*Y54607D01*
X32245Y50893D02*Y50107D01*
X37755Y50893D02*Y50107D01*
G54D54*X88607Y99755D02*X89393D01*
X88607Y94245D02*X89393D01*
G54D53*X78276Y56066D02*X109724D01*
X78276D02*Y24934D01*
X109724D01*
Y56066D02*Y43000D01*
Y38000D02*Y24934D01*
Y43000D02*G75*G03X109724Y38000I0J-2500D01*G01*
X127245Y37393D02*Y36607D01*
X132755Y37393D02*Y36607D01*
X144255Y55393D02*Y54607D01*
X138745Y55393D02*Y54607D01*
X133745Y79393D02*Y78607D01*
X139255Y79393D02*Y78607D01*
X153245Y79393D02*Y78607D01*
X158755Y79393D02*Y78607D01*
X173745Y79393D02*Y78607D01*
X179255Y79393D02*Y78607D01*
G54D54*X13700Y83500D02*X14500D01*
Y80000D01*
X14000Y79500D02*X14500Y80000D01*
X13500Y79500D02*X14000D01*
X13000Y80000D02*X13500Y79500D01*
X13000Y80500D02*Y80000D01*
X15700Y81000D02*X17700Y83500D01*
X15700Y81000D02*X18200D01*
X17700Y83500D02*Y79500D01*
X33700Y60000D02*X35000D01*
X33000Y60700D02*X33700Y60000D01*
X33000Y63300D02*Y60700D01*
Y63300D02*X33700Y64000D01*
X35000D01*
X36200Y63200D02*X37000Y64000D01*
Y60000D01*
X36200D02*X37700D01*
X6800Y26300D02*Y25500D01*
X3300D02*X6800D01*
X2800Y26000D02*X3300Y25500D01*
X2800Y26500D02*Y26000D01*
X3300Y27000D02*X2800Y26500D01*
X3300Y27000D02*X3800D01*
X6300Y24300D02*X6800Y23800D01*
Y22300D01*
X6300Y21800D01*
X5300D02*X6300D01*
X2800Y24300D02*X5300Y21800D01*
X2800Y24300D02*Y21800D01*
X215200Y24500D02*Y23700D01*
Y24500D02*X218700D01*
X219200Y24000D02*X218700Y24500D01*
X219200Y24000D02*Y23500D01*
X218700Y23000D02*X219200Y23500D01*
X218200Y23000D02*X218700D01*
X216000Y25700D02*X215200Y26500D01*
X219200D01*
Y27200D02*Y25700D01*
X73850Y99150D02*Y95150D01*
X75150Y99150D02*X75850Y98450D01*
Y95850D01*
X75150Y95150D02*X75850Y95850D01*
X73350Y95150D02*X75150D01*
X73350Y99150D02*X75150D01*
X77050Y98350D02*X77850Y99150D01*
Y95150D01*
X77050D02*X78550D01*
X120500Y99000D02*X122500D01*
X123000Y98500D01*
Y97500D01*
X122500Y97000D02*X123000Y97500D01*
X121000Y97000D02*X122500D01*
X121000Y99000D02*Y95000D01*
X121800Y97000D02*X123000Y95000D01*
X124200Y98200D02*X125000Y99000D01*
Y95000D01*
X124200D02*X125700D01*
X129200Y63500D02*X130500D01*
X128500Y64200D02*X129200Y63500D01*
X128500Y66800D02*Y64200D01*
Y66800D02*X129200Y67500D01*
X130500D01*
X131700Y67000D02*X132200Y67500D01*
X133200D01*
X133700Y67000D01*
X133200Y63500D02*X133700Y64000D01*
X132200Y63500D02*X133200D01*
X131700Y64000D02*X132200Y63500D01*
Y65700D02*X133200D01*
X133700Y67000D02*Y66200D01*
Y65200D02*Y64000D01*
Y65200D02*X133200Y65700D01*
X133700Y66200D02*X133200Y65700D01*
X128200Y25000D02*X129500D01*
X127500Y25700D02*X128200Y25000D01*
X127500Y28300D02*Y25700D01*
Y28300D02*X128200Y29000D01*
X129500D01*
X130700Y28500D02*X131200Y29000D01*
X132700D01*
X133200Y28500D01*
Y27500D01*
X130700Y25000D02*X133200Y27500D01*
X130700Y25000D02*X133200D01*
X138307Y46650D02*X140307D01*
X140807Y46150D01*
Y45150D01*
X140307Y44650D02*X140807Y45150D01*
X138807Y44650D02*X140307D01*
X138807Y46650D02*Y42650D01*
X139607Y44650D02*X140807Y42650D01*
X142007Y46150D02*X142507Y46650D01*
X144007D01*
X144507Y46150D01*
Y45150D01*
X142007Y42650D02*X144507Y45150D01*
X142007Y42650D02*X144507D01*
X112000Y53000D02*Y49500D01*
X112500Y49000D01*
X113500D01*
X114000Y49500D01*
Y53000D02*Y49500D01*
X115200Y52200D02*X116000Y53000D01*
Y49000D01*
X115200D02*X116700D01*
X127200Y91500D02*X128000D01*
Y88000D01*
X127500Y87500D02*X128000Y88000D01*
X127000Y87500D02*X127500D01*
X126500Y88000D02*X127000Y87500D01*
X126500Y88500D02*Y88000D01*
X129700Y87500D02*X131700Y91500D01*
X129200D02*X131700D01*
X141000Y78000D02*X143000D01*
X143500Y77500D01*
Y76500D01*
X143000Y76000D02*X143500Y76500D01*
X141500Y76000D02*X143000D01*
X141500Y78000D02*Y74000D01*
X142300Y76000D02*X143500Y74000D01*
X144700Y78000D02*X146700D01*
X144700D02*Y76000D01*
X145200Y76500D01*
X146200D01*
X146700Y76000D01*
Y74500D01*
X146200Y74000D02*X146700Y74500D01*
X145200Y74000D02*X146200D01*
X144700Y74500D02*X145200Y74000D01*
X160500Y78000D02*X162500D01*
X163000Y77500D01*
Y76500D01*
X162500Y76000D02*X163000Y76500D01*
X161000Y76000D02*X162500D01*
X161000Y78000D02*Y74000D01*
X161800Y76000D02*X163000Y74000D01*
X164200Y75500D02*X166200Y78000D01*
X164200Y75500D02*X166700D01*
X166200Y78000D02*Y74000D01*
X181000Y78000D02*X183000D01*
X183500Y77500D01*
Y76500D01*
X183000Y76000D02*X183500Y76500D01*
X181500Y76000D02*X183000D01*
X181500Y78000D02*Y74000D01*
X182300Y76000D02*X183500Y74000D01*
X184700Y77500D02*X185200Y78000D01*
X186200D01*
X186700Y77500D01*
X186200Y74000D02*X186700Y74500D01*
X185200Y74000D02*X186200D01*
X184700Y74500D02*X185200Y74000D01*
Y76200D02*X186200D01*
X186700Y77500D02*Y76700D01*
Y75700D02*Y74500D01*
Y75700D02*X186200Y76200D01*
X186700Y76700D02*X186200Y76200D01*
X147200Y91500D02*X148000D01*
Y88000D01*
X147500Y87500D02*X148000Y88000D01*
X147000Y87500D02*X147500D01*
X146500Y88000D02*X147000Y87500D01*
X146500Y88500D02*Y88000D01*
X150700Y91500D02*X151200Y91000D01*
X149700Y91500D02*X150700D01*
X149200Y91000D02*X149700Y91500D01*
X149200Y91000D02*Y88000D01*
X149700Y87500D01*
X150700Y89700D02*X151200Y89200D01*
X149200Y89700D02*X150700D01*
X149700Y87500D02*X150700D01*
X151200Y88000D01*
Y89200D02*Y88000D01*
X167700Y91500D02*X168500D01*
Y88000D01*
X168000Y87500D02*X168500Y88000D01*
X167500Y87500D02*X168000D01*
X167000Y88000D02*X167500Y87500D01*
X167000Y88500D02*Y88000D01*
X169700Y91500D02*X171700D01*
X169700D02*Y89500D01*
X170200Y90000D01*
X171200D01*
X171700Y89500D01*
Y88000D01*
X171200Y87500D02*X171700Y88000D01*
X170200Y87500D02*X171200D01*
X169700Y88000D02*X170200Y87500D01*
M02*
