G04 start of page 12 for group -3984 idx -3984 *
G04 Title: (unknown), fab *
G04 Creator: pcb 20140316 *
G04 CreationDate: Sun 30 Dec 2018 07:12:51 PM GMT UTC *
G04 For: railfan *
G04 Format: Gerber/RS-274X *
G04 PCB-Dimensions (mil): 2220.00 1040.00 *
G04 PCB-Coordinate-Origin: lower left *
%MOIN*%
%FSLAX25Y25*%
%LNFAB*%
%ADD64C,0.0100*%
%ADD63C,0.0075*%
%ADD62C,0.0060*%
%ADD61C,0.0001*%
G54D61*G36*
X204800Y89766D02*X207766Y86800D01*
X207200Y86234D01*
X204234Y89200D01*
X204800Y89766D01*
G37*
G36*
X204234Y86800D02*X207200Y89766D01*
X207766Y89200D01*
X204800Y86234D01*
X204234Y86800D01*
G37*
G36*
X13800Y132016D02*X16766Y129050D01*
X16200Y128484D01*
X13234Y131450D01*
X13800Y132016D01*
G37*
G36*
X13234Y129050D02*X16200Y132016D01*
X16766Y131450D01*
X13800Y128484D01*
X13234Y129050D01*
G37*
G54D62*X135000Y132500D02*X136500Y129500D01*
X138000Y132500D01*
X136500Y129500D02*Y126500D01*
X139800Y129800D02*X142050D01*
X139800Y126500D02*X142800D01*
X139800Y132500D02*Y126500D01*
Y132500D02*X142800D01*
X147600D02*X148350Y131750D01*
X145350Y132500D02*X147600D01*
X144600Y131750D02*X145350Y132500D01*
X144600Y131750D02*Y130250D01*
X145350Y129500D01*
X147600D01*
X148350Y128750D01*
Y127250D01*
X147600Y126500D02*X148350Y127250D01*
X145350Y126500D02*X147600D01*
X144600Y127250D02*X145350Y126500D01*
X98000Y131300D02*X99200Y132500D01*
Y126500D01*
X98000D02*X100250D01*
X45000Y127250D02*X45750Y126500D01*
X45000Y131750D02*Y127250D01*
Y131750D02*X45750Y132500D01*
X47250D01*
X48000Y131750D01*
Y127250D01*
X47250Y126500D02*X48000Y127250D01*
X45750Y126500D02*X47250D01*
X45000Y128000D02*X48000Y131000D01*
X49800Y126500D02*X50550D01*
X52350Y131300D02*X53550Y132500D01*
Y126500D01*
X52350D02*X54600D01*
X56400Y131750D02*X57150Y132500D01*
X59400D01*
X60150Y131750D01*
Y130250D01*
X56400Y126500D02*X60150Y130250D01*
X56400Y126500D02*X60150D01*
X62700D02*X64950Y129500D01*
Y131750D02*Y129500D01*
X64200Y132500D02*X64950Y131750D01*
X62700Y132500D02*X64200D01*
X61950Y131750D02*X62700Y132500D01*
X61950Y131750D02*Y130250D01*
X62700Y129500D01*
X64950D01*
X26500Y77600D02*Y74400D01*
X24900Y76000D02*X28100D01*
X36500Y77600D02*Y74400D01*
X34900Y76000D02*X38100D01*
X46500Y77600D02*Y74400D01*
X44900Y76000D02*X48100D01*
X56500Y77600D02*Y74400D01*
X54900Y76000D02*X58100D01*
X66500Y77600D02*Y74400D01*
X64900Y76000D02*X68100D01*
X76500Y77600D02*Y74400D01*
X74900Y76000D02*X78100D01*
X86500Y77600D02*Y74400D01*
X84900Y76000D02*X88100D01*
X96500Y77600D02*Y74400D01*
X94900Y76000D02*X98100D01*
X106500Y77600D02*Y74400D01*
X104900Y76000D02*X108100D01*
X116500Y77600D02*Y74400D01*
X114900Y76000D02*X118100D01*
X26500Y87600D02*Y84400D01*
X24900Y86000D02*X28100D01*
X36500Y87600D02*Y84400D01*
X34900Y86000D02*X38100D01*
X46500Y87600D02*Y84400D01*
X44900Y86000D02*X48100D01*
X56500Y87600D02*Y84400D01*
X54900Y86000D02*X58100D01*
X66500Y87600D02*Y84400D01*
X64900Y86000D02*X68100D01*
X76500Y87600D02*Y84400D01*
X74900Y86000D02*X78100D01*
X86500Y87600D02*Y84400D01*
X84900Y86000D02*X88100D01*
X96500Y87600D02*Y84400D01*
X94900Y86000D02*X98100D01*
X106500Y87600D02*Y84400D01*
X104900Y86000D02*X108100D01*
X116500Y87600D02*Y84400D01*
X114900Y86000D02*X118100D01*
X15000Y146850D02*Y143650D01*
X13400Y145250D02*X16600D01*
X135000Y147500D02*X136500Y144500D01*
X138000Y147500D01*
X136500Y144500D02*Y141500D01*
X139800Y144800D02*X142050D01*
X139800Y141500D02*X142800D01*
X139800Y147500D02*Y141500D01*
Y147500D02*X142800D01*
X147600D02*X148350Y146750D01*
X145350Y147500D02*X147600D01*
X144600Y146750D02*X145350Y147500D01*
X144600Y146750D02*Y145250D01*
X145350Y144500D01*
X147600D01*
X148350Y143750D01*
Y142250D01*
X147600Y141500D02*X148350Y142250D01*
X145350Y141500D02*X147600D01*
X144600Y142250D02*X145350Y141500D01*
X98000Y146750D02*X98750Y147500D01*
X101000D01*
X101750Y146750D01*
Y145250D01*
X98000Y141500D02*X101750Y145250D01*
X98000Y141500D02*X101750D01*
X103550Y142250D02*X104300Y141500D01*
X103550Y146750D02*Y142250D01*
Y146750D02*X104300Y147500D01*
X105800D01*
X106550Y146750D01*
Y142250D01*
X105800Y141500D02*X106550Y142250D01*
X104300Y141500D02*X105800D01*
X103550Y143000D02*X106550Y146000D01*
X45000Y142250D02*X45750Y141500D01*
X45000Y146750D02*Y142250D01*
Y146750D02*X45750Y147500D01*
X47250D01*
X48000Y146750D01*
Y142250D01*
X47250Y141500D02*X48000Y142250D01*
X45750Y141500D02*X47250D01*
X45000Y143000D02*X48000Y146000D01*
X49800Y141500D02*X50550D01*
X52350Y142250D02*X53100Y141500D01*
X52350Y146750D02*Y142250D01*
Y146750D02*X53100Y147500D01*
X54600D01*
X55350Y146750D01*
Y142250D01*
X54600Y141500D02*X55350Y142250D01*
X53100Y141500D02*X54600D01*
X52350Y143000D02*X55350Y146000D01*
X57150Y146750D02*X57900Y147500D01*
X59400D01*
X60150Y146750D01*
X59400Y141500D02*X60150Y142250D01*
X57900Y141500D02*X59400D01*
X57150Y142250D02*X57900Y141500D01*
Y144800D02*X59400D01*
X60150Y146750D02*Y145550D01*
Y144050D02*Y142250D01*
Y144050D02*X59400Y144800D01*
X60150Y145550D02*X59400Y144800D01*
X61950Y142250D02*X62700Y141500D01*
X61950Y143450D02*Y142250D01*
Y143450D02*X63000Y144500D01*
X63900D01*
X64950Y143450D01*
Y142250D01*
X64200Y141500D02*X64950Y142250D01*
X62700Y141500D02*X64200D01*
X61950Y145550D02*X63000Y144500D01*
X61950Y146750D02*Y145550D01*
Y146750D02*X62700Y147500D01*
X64200D01*
X64950Y146750D01*
Y145550D01*
X63900Y144500D02*X64950Y145550D01*
X56500Y66500D02*Y64900D01*
Y66500D02*X57887Y67300D01*
X56500Y66500D02*X55113Y67300D01*
X79000Y59500D02*Y57900D01*
Y59500D02*X80387Y60300D01*
X79000Y59500D02*X77613Y60300D01*
X80000Y97000D02*Y95400D01*
Y97000D02*X81387Y97800D01*
X80000Y97000D02*X78613Y97800D01*
X130500Y75500D02*Y73900D01*
Y75500D02*X131887Y76300D01*
X130500Y75500D02*X129113Y76300D01*
X150000Y75500D02*Y73900D01*
Y75500D02*X151387Y76300D01*
X150000Y75500D02*X148613Y76300D01*
X170500Y75500D02*Y73900D01*
Y75500D02*X171887Y76300D01*
X170500Y75500D02*X169113Y76300D01*
X21500Y54000D02*Y52400D01*
Y54000D02*X22887Y54800D01*
X21500Y54000D02*X20113Y54800D01*
X123500Y53000D02*Y51400D01*
Y53000D02*X124887Y53800D01*
X123500Y53000D02*X122113Y53800D01*
X192000Y28500D02*Y26900D01*
Y28500D02*X193387Y29300D01*
X192000Y28500D02*X190613Y29300D01*
X192000Y33000D02*Y31400D01*
Y33000D02*X193387Y33800D01*
X192000Y33000D02*X190613Y33800D01*
X116000Y29000D02*Y27400D01*
Y29000D02*X117387Y29800D01*
X116000Y29000D02*X114613Y29800D01*
X121500Y29000D02*Y27400D01*
Y29000D02*X122887Y29800D01*
X121500Y29000D02*X120113Y29800D01*
X118500Y53000D02*Y51400D01*
Y53000D02*X119887Y53800D01*
X118500Y53000D02*X117113Y53800D01*
X105500Y46000D02*Y44400D01*
Y46000D02*X106887Y46800D01*
X105500Y46000D02*X104113Y46800D01*
X153500Y52000D02*Y50400D01*
Y52000D02*X154887Y52800D01*
X153500Y52000D02*X152113Y52800D01*
X21500Y58500D02*Y56900D01*
Y58500D02*X22887Y59300D01*
X21500Y58500D02*X20113Y59300D01*
X35000Y39500D02*Y37900D01*
Y39500D02*X36387Y40300D01*
X35000Y39500D02*X33613Y40300D01*
X35000Y35000D02*Y33400D01*
Y35000D02*X36387Y35800D01*
X35000Y35000D02*X33613Y35800D01*
X35000Y30500D02*Y28900D01*
Y30500D02*X36387Y31300D01*
X35000Y30500D02*X33613Y31300D01*
X192000Y37500D02*Y35900D01*
Y37500D02*X193387Y38300D01*
X192000Y37500D02*X190613Y38300D01*
X203000Y18000D02*Y16400D01*
Y18000D02*X204387Y18800D01*
X203000Y18000D02*X201613Y18800D01*
X203000Y22500D02*Y20900D01*
Y22500D02*X204387Y23300D01*
X203000Y22500D02*X201613Y23300D01*
X203000Y27000D02*Y25400D01*
Y27000D02*X204387Y27800D01*
X203000Y27000D02*X201613Y27800D01*
X175000Y46500D02*Y44900D01*
Y46500D02*X176387Y47300D01*
X175000Y46500D02*X173613Y47300D01*
X183500Y45000D02*Y43400D01*
Y45000D02*X184887Y45800D01*
X183500Y45000D02*X182113Y45800D01*
X103000Y6000D02*Y4400D01*
Y6000D02*X104387Y6800D01*
X103000Y6000D02*X101613Y6800D01*
X103000Y15500D02*Y13900D01*
Y15500D02*X104387Y16300D01*
X103000Y15500D02*X101613Y16300D01*
X114500Y44500D02*Y42900D01*
Y44500D02*X115887Y45300D01*
X114500Y44500D02*X113113Y45300D01*
X157500Y46500D02*Y44900D01*
Y46500D02*X158887Y47300D01*
X157500Y46500D02*X156113Y47300D01*
X15000Y160250D02*Y158650D01*
Y160250D02*X16387Y161050D01*
X15000Y160250D02*X13613Y161050D01*
X135000Y162500D02*X136500Y159500D01*
X138000Y162500D01*
X136500Y159500D02*Y156500D01*
X139800Y159800D02*X142050D01*
X139800Y156500D02*X142800D01*
X139800Y162500D02*Y156500D01*
Y162500D02*X142800D01*
X147600D02*X148350Y161750D01*
X145350Y162500D02*X147600D01*
X144600Y161750D02*X145350Y162500D01*
X144600Y161750D02*Y160250D01*
X145350Y159500D01*
X147600D01*
X148350Y158750D01*
Y157250D01*
X147600Y156500D02*X148350Y157250D01*
X145350Y156500D02*X147600D01*
X144600Y157250D02*X145350Y156500D01*
X98000Y161750D02*X98750Y162500D01*
X101000D01*
X101750Y161750D01*
Y160250D01*
X98000Y156500D02*X101750Y160250D01*
X98000Y156500D02*X101750D01*
X104300D02*X106550Y159500D01*
Y161750D02*Y159500D01*
X105800Y162500D02*X106550Y161750D01*
X104300Y162500D02*X105800D01*
X103550Y161750D02*X104300Y162500D01*
X103550Y161750D02*Y160250D01*
X104300Y159500D01*
X106550D01*
X45000Y157250D02*X45750Y156500D01*
X45000Y161750D02*Y157250D01*
Y161750D02*X45750Y162500D01*
X47250D01*
X48000Y161750D01*
Y157250D01*
X47250Y156500D02*X48000Y157250D01*
X45750Y156500D02*X47250D01*
X45000Y158000D02*X48000Y161000D01*
X49800Y156500D02*X50550D01*
X52350Y157250D02*X53100Y156500D01*
X52350Y161750D02*Y157250D01*
Y161750D02*X53100Y162500D01*
X54600D01*
X55350Y161750D01*
Y157250D01*
X54600Y156500D02*X55350Y157250D01*
X53100Y156500D02*X54600D01*
X52350Y158000D02*X55350Y161000D01*
X57150Y161750D02*X57900Y162500D01*
X60150D01*
X60900Y161750D01*
Y160250D01*
X57150Y156500D02*X60900Y160250D01*
X57150Y156500D02*X60900D01*
X62700Y157250D02*X63450Y156500D01*
X62700Y161750D02*Y157250D01*
Y161750D02*X63450Y162500D01*
X64950D01*
X65700Y161750D01*
Y157250D01*
X64950Y156500D02*X65700Y157250D01*
X63450Y156500D02*X64950D01*
X62700Y158000D02*X65700Y161000D01*
X3000Y177500D02*X3750Y176750D01*
X750Y177500D02*X3000D01*
X0Y176750D02*X750Y177500D01*
X0Y176750D02*Y175250D01*
X750Y174500D01*
X3000D01*
X3750Y173750D01*
Y172250D01*
X3000Y171500D02*X3750Y172250D01*
X750Y171500D02*X3000D01*
X0Y172250D02*X750Y171500D01*
X5550Y174500D02*Y172250D01*
X6300Y171500D01*
X8550Y174500D02*Y170000D01*
X7800Y169250D02*X8550Y170000D01*
X6300Y169250D02*X7800D01*
X5550Y170000D02*X6300Y169250D01*
Y171500D02*X7800D01*
X8550Y172250D01*
X11100Y173750D02*Y171500D01*
Y173750D02*X11850Y174500D01*
X12600D01*
X13350Y173750D01*
Y171500D01*
Y173750D02*X14100Y174500D01*
X14850D01*
X15600Y173750D01*
Y171500D01*
X10350Y174500D02*X11100Y173750D01*
X17400Y177500D02*Y171500D01*
Y172250D02*X18150Y171500D01*
X19650D01*
X20400Y172250D01*
Y173750D02*Y172250D01*
X19650Y174500D02*X20400Y173750D01*
X18150Y174500D02*X19650D01*
X17400Y173750D02*X18150Y174500D01*
X22200Y173750D02*Y172250D01*
Y173750D02*X22950Y174500D01*
X24450D01*
X25200Y173750D01*
Y172250D01*
X24450Y171500D02*X25200Y172250D01*
X22950Y171500D02*X24450D01*
X22200Y172250D02*X22950Y171500D01*
X27000Y177500D02*Y172250D01*
X27750Y171500D01*
X0Y168250D02*X29250D01*
X41750Y177500D02*Y171500D01*
X43700Y177500D02*X44750Y176450D01*
Y172550D01*
X43700Y171500D02*X44750Y172550D01*
X41000Y171500D02*X43700D01*
X41000Y177500D02*X43700D01*
G54D63*X46550Y176000D02*Y175850D01*
G54D62*Y173750D02*Y171500D01*
X50300Y174500D02*X51050Y173750D01*
X48800Y174500D02*X50300D01*
X48050Y173750D02*X48800Y174500D01*
X48050Y173750D02*Y172250D01*
X48800Y171500D01*
X51050Y174500D02*Y172250D01*
X51800Y171500D01*
X48800D02*X50300D01*
X51050Y172250D01*
X54350Y173750D02*Y171500D01*
Y173750D02*X55100Y174500D01*
X55850D01*
X56600Y173750D01*
Y171500D01*
Y173750D02*X57350Y174500D01*
X58100D01*
X58850Y173750D01*
Y171500D01*
X53600Y174500D02*X54350Y173750D01*
X60650Y171500D02*X61400D01*
X65900Y172250D02*X66650Y171500D01*
X65900Y176750D02*X66650Y177500D01*
X65900Y176750D02*Y172250D01*
X68450Y177500D02*X69950D01*
X69200D02*Y171500D01*
X68450D02*X69950D01*
X72500Y173750D02*Y171500D01*
Y173750D02*X73250Y174500D01*
X74000D01*
X74750Y173750D01*
Y171500D01*
X71750Y174500D02*X72500Y173750D01*
X77300Y174500D02*X79550D01*
X76550Y173750D02*X77300Y174500D01*
X76550Y173750D02*Y172250D01*
X77300Y171500D01*
X79550D01*
X81350Y177500D02*Y171500D01*
Y173750D02*X82100Y174500D01*
X83600D01*
X84350Y173750D01*
Y171500D01*
X86150Y177500D02*X86900Y176750D01*
Y172250D01*
X86150Y171500D02*X86900Y172250D01*
X41000Y168250D02*X88700D01*
X96050Y171500D02*X98000D01*
X95000Y172550D02*X96050Y171500D01*
X95000Y176450D02*Y172550D01*
Y176450D02*X96050Y177500D01*
X98000D01*
X99800Y173750D02*Y172250D01*
Y173750D02*X100550Y174500D01*
X102050D01*
X102800Y173750D01*
Y172250D01*
X102050Y171500D02*X102800Y172250D01*
X100550Y171500D02*X102050D01*
X99800Y172250D02*X100550Y171500D01*
X104600Y174500D02*Y172250D01*
X105350Y171500D01*
X106850D01*
X107600Y172250D01*
Y174500D02*Y172250D01*
X110150Y173750D02*Y171500D01*
Y173750D02*X110900Y174500D01*
X111650D01*
X112400Y173750D01*
Y171500D01*
X109400Y174500D02*X110150Y173750D01*
X114950Y177500D02*Y172250D01*
X115700Y171500D01*
X114200Y175250D02*X115700D01*
X95000Y168250D02*X117200D01*
X130750Y177500D02*Y171500D01*
X130000Y177500D02*X133000D01*
X133750Y176750D01*
Y175250D01*
X133000Y174500D02*X133750Y175250D01*
X130750Y174500D02*X133000D01*
X135550Y177500D02*Y172250D01*
X136300Y171500D01*
X140050Y174500D02*X140800Y173750D01*
X138550Y174500D02*X140050D01*
X137800Y173750D02*X138550Y174500D01*
X137800Y173750D02*Y172250D01*
X138550Y171500D01*
X140800Y174500D02*Y172250D01*
X141550Y171500D01*
X138550D02*X140050D01*
X140800Y172250D01*
X144100Y177500D02*Y172250D01*
X144850Y171500D01*
X143350Y175250D02*X144850D01*
X147100Y171500D02*X149350D01*
X146350Y172250D02*X147100Y171500D01*
X146350Y173750D02*Y172250D01*
Y173750D02*X147100Y174500D01*
X148600D01*
X149350Y173750D01*
X146350Y173000D02*X149350D01*
Y173750D02*Y173000D01*
X154150Y177500D02*Y171500D01*
X153400D02*X154150Y172250D01*
X151900Y171500D02*X153400D01*
X151150Y172250D02*X151900Y171500D01*
X151150Y173750D02*Y172250D01*
Y173750D02*X151900Y174500D01*
X153400D01*
X154150Y173750D01*
X157450Y174500D02*Y173750D01*
Y172250D02*Y171500D01*
X155950Y176750D02*Y176000D01*
Y176750D02*X156700Y177500D01*
X158200D01*
X158950Y176750D01*
Y176000D01*
X157450Y174500D02*X158950Y176000D01*
X130000Y168250D02*X160750D01*
X0Y192500D02*X3000D01*
X1500D02*Y186500D01*
X4800Y192500D02*Y186500D01*
Y188750D02*X5550Y189500D01*
X7050D01*
X7800Y188750D01*
Y186500D01*
X10350D02*X12600D01*
X9600Y187250D02*X10350Y186500D01*
X9600Y188750D02*Y187250D01*
Y188750D02*X10350Y189500D01*
X11850D01*
X12600Y188750D01*
X9600Y188000D02*X12600D01*
Y188750D02*Y188000D01*
X15150Y188750D02*Y186500D01*
Y188750D02*X15900Y189500D01*
X17400D01*
X14400D02*X15150Y188750D01*
X19950Y186500D02*X22200D01*
X19200Y187250D02*X19950Y186500D01*
X19200Y188750D02*Y187250D01*
Y188750D02*X19950Y189500D01*
X21450D01*
X22200Y188750D01*
X19200Y188000D02*X22200D01*
Y188750D02*Y188000D01*
X28950Y189500D02*X29700Y188750D01*
X27450Y189500D02*X28950D01*
X26700Y188750D02*X27450Y189500D01*
X26700Y188750D02*Y187250D01*
X27450Y186500D01*
X29700Y189500D02*Y187250D01*
X30450Y186500D01*
X27450D02*X28950D01*
X29700Y187250D01*
X33000Y188750D02*Y186500D01*
Y188750D02*X33750Y189500D01*
X35250D01*
X32250D02*X33000Y188750D01*
X37800Y186500D02*X40050D01*
X37050Y187250D02*X37800Y186500D01*
X37050Y188750D02*Y187250D01*
Y188750D02*X37800Y189500D01*
X39300D01*
X40050Y188750D01*
X37050Y188000D02*X40050D01*
Y188750D02*Y188000D01*
X44550Y191750D02*X45300Y192500D01*
X46800D01*
X47550Y191750D01*
X46800Y186500D02*X47550Y187250D01*
X45300Y186500D02*X46800D01*
X44550Y187250D02*X45300Y186500D01*
Y189800D02*X46800D01*
X47550Y191750D02*Y190550D01*
Y189050D02*Y187250D01*
Y189050D02*X46800Y189800D01*
X47550Y190550D02*X46800Y189800D01*
X55050Y192500D02*Y186500D01*
X54300D02*X55050Y187250D01*
X52800Y186500D02*X54300D01*
X52050Y187250D02*X52800Y186500D01*
X52050Y188750D02*Y187250D01*
Y188750D02*X52800Y189500D01*
X54300D01*
X55050Y188750D01*
G54D63*X56850Y191000D02*Y190850D01*
G54D62*Y188750D02*Y186500D01*
X59100Y191750D02*Y186500D01*
Y191750D02*X59850Y192500D01*
X60600D01*
X58350Y189500D02*X59850D01*
X62850Y191750D02*Y186500D01*
Y191750D02*X63600Y192500D01*
X64350D01*
X62100Y189500D02*X63600D01*
X66600Y186500D02*X68850D01*
X65850Y187250D02*X66600Y186500D01*
X65850Y188750D02*Y187250D01*
Y188750D02*X66600Y189500D01*
X68100D01*
X68850Y188750D01*
X65850Y188000D02*X68850D01*
Y188750D02*Y188000D01*
X71400Y188750D02*Y186500D01*
Y188750D02*X72150Y189500D01*
X73650D01*
X70650D02*X71400Y188750D01*
X76200Y186500D02*X78450D01*
X75450Y187250D02*X76200Y186500D01*
X75450Y188750D02*Y187250D01*
Y188750D02*X76200Y189500D01*
X77700D01*
X78450Y188750D01*
X75450Y188000D02*X78450D01*
Y188750D02*Y188000D01*
X81000Y188750D02*Y186500D01*
Y188750D02*X81750Y189500D01*
X82500D01*
X83250Y188750D01*
Y186500D01*
X80250Y189500D02*X81000Y188750D01*
X85800Y192500D02*Y187250D01*
X86550Y186500D01*
X85050Y190250D02*X86550D01*
X93750Y192500D02*Y186500D01*
X93000D02*X93750Y187250D01*
X91500Y186500D02*X93000D01*
X90750Y187250D02*X91500Y186500D01*
X90750Y188750D02*Y187250D01*
Y188750D02*X91500Y189500D01*
X93000D01*
X93750Y188750D01*
X96300D02*Y186500D01*
Y188750D02*X97050Y189500D01*
X98550D01*
X95550D02*X96300Y188750D01*
G54D63*X100350Y191000D02*Y190850D01*
G54D62*Y188750D02*Y186500D01*
X101850Y192500D02*Y187250D01*
X102600Y186500D01*
X104100Y192500D02*Y187250D01*
X104850Y186500D01*
X109800D02*X112050D01*
X112800Y187250D01*
X112050Y188000D02*X112800Y187250D01*
X109800Y188000D02*X112050D01*
X109050Y188750D02*X109800Y188000D01*
X109050Y188750D02*X109800Y189500D01*
X112050D01*
X112800Y188750D01*
X109050Y187250D02*X109800Y186500D01*
G54D63*X114600Y191000D02*Y190850D01*
G54D62*Y188750D02*Y186500D01*
X116100Y189500D02*X119100D01*
X116100Y186500D02*X119100Y189500D01*
X116100Y186500D02*X119100D01*
X121650D02*X123900D01*
X120900Y187250D02*X121650Y186500D01*
X120900Y188750D02*Y187250D01*
Y188750D02*X121650Y189500D01*
X123150D01*
X123900Y188750D01*
X120900Y188000D02*X123900D01*
Y188750D02*Y188000D01*
X126450Y186500D02*X128700D01*
X129450Y187250D01*
X128700Y188000D02*X129450Y187250D01*
X126450Y188000D02*X128700D01*
X125700Y188750D02*X126450Y188000D01*
X125700Y188750D02*X126450Y189500D01*
X128700D01*
X129450Y188750D01*
X125700Y187250D02*X126450Y186500D01*
X133950Y189500D02*Y187250D01*
X134700Y186500D01*
X136200D01*
X136950Y187250D01*
Y189500D02*Y187250D01*
X139500Y186500D02*X141750D01*
X142500Y187250D01*
X141750Y188000D02*X142500Y187250D01*
X139500Y188000D02*X141750D01*
X138750Y188750D02*X139500Y188000D01*
X138750Y188750D02*X139500Y189500D01*
X141750D01*
X142500Y188750D01*
X138750Y187250D02*X139500Y186500D01*
X145050D02*X147300D01*
X144300Y187250D02*X145050Y186500D01*
X144300Y188750D02*Y187250D01*
Y188750D02*X145050Y189500D01*
X146550D01*
X147300Y188750D01*
X144300Y188000D02*X147300D01*
Y188750D02*Y188000D01*
X152100Y192500D02*Y186500D01*
X151350D02*X152100Y187250D01*
X149850Y186500D02*X151350D01*
X149100Y187250D02*X149850Y186500D01*
X149100Y188750D02*Y187250D01*
Y188750D02*X149850Y189500D01*
X151350D01*
X152100Y188750D01*
G54D63*X156600Y191000D02*Y190850D01*
G54D62*Y188750D02*Y186500D01*
X158850Y188750D02*Y186500D01*
Y188750D02*X159600Y189500D01*
X160350D01*
X161100Y188750D01*
Y186500D01*
X158100Y189500D02*X158850Y188750D01*
X166350Y192500D02*Y187250D01*
X167100Y186500D01*
X165600Y190250D02*X167100D01*
X168600Y192500D02*Y186500D01*
Y188750D02*X169350Y189500D01*
X170850D01*
X171600Y188750D01*
Y186500D01*
G54D63*X173400Y191000D02*Y190850D01*
G54D62*Y188750D02*Y186500D01*
X175650D02*X177900D01*
X178650Y187250D01*
X177900Y188000D02*X178650Y187250D01*
X175650Y188000D02*X177900D01*
X174900Y188750D02*X175650Y188000D01*
X174900Y188750D02*X175650Y189500D01*
X177900D01*
X178650Y188750D01*
X174900Y187250D02*X175650Y186500D01*
X183150Y192500D02*Y187250D01*
X183900Y186500D01*
X187650Y189500D02*X188400Y188750D01*
X186150Y189500D02*X187650D01*
X185400Y188750D02*X186150Y189500D01*
X185400Y188750D02*Y187250D01*
X186150Y186500D01*
X188400Y189500D02*Y187250D01*
X189150Y186500D01*
X186150D02*X187650D01*
X188400Y187250D01*
X190950Y189500D02*Y187250D01*
X191700Y186500D01*
X193950Y189500D02*Y185000D01*
X193200Y184250D02*X193950Y185000D01*
X191700Y184250D02*X193200D01*
X190950Y185000D02*X191700Y184250D01*
Y186500D02*X193200D01*
X193950Y187250D01*
X195750Y188750D02*Y187250D01*
Y188750D02*X196500Y189500D01*
X198000D01*
X198750Y188750D01*
Y187250D01*
X198000Y186500D02*X198750Y187250D01*
X196500Y186500D02*X198000D01*
X195750Y187250D02*X196500Y186500D01*
X200550Y189500D02*Y187250D01*
X201300Y186500D01*
X202800D01*
X203550Y187250D01*
Y189500D02*Y187250D01*
X206100Y192500D02*Y187250D01*
X206850Y186500D01*
X205350Y190250D02*X206850D01*
X208350Y185000D02*X209850Y186500D01*
X214350Y192500D02*X217350D01*
X214350D02*Y189500D01*
X215100Y190250D01*
X216600D01*
X217350Y189500D01*
Y187250D01*
X216600Y186500D02*X217350Y187250D01*
X215100Y186500D02*X216600D01*
X214350Y187250D02*X215100Y186500D01*
X219150Y187250D02*X219900Y186500D01*
X219150Y191750D02*Y187250D01*
Y191750D02*X219900Y192500D01*
X221400D01*
X222150Y191750D01*
Y187250D01*
X221400Y186500D02*X222150Y187250D01*
X219900Y186500D02*X221400D01*
X219150Y188000D02*X222150Y191000D01*
X226650Y192500D02*Y186500D01*
Y188750D02*X227400Y189500D01*
X228900D01*
X229650Y188750D01*
Y186500D01*
X231450Y188750D02*Y187250D01*
Y188750D02*X232200Y189500D01*
X233700D01*
X234450Y188750D01*
Y187250D01*
X233700Y186500D02*X234450Y187250D01*
X232200Y186500D02*X233700D01*
X231450Y187250D02*X232200Y186500D01*
X236250Y192500D02*Y187250D01*
X237000Y186500D01*
X239250D02*X241500D01*
X238500Y187250D02*X239250Y186500D01*
X238500Y188750D02*Y187250D01*
Y188750D02*X239250Y189500D01*
X240750D01*
X241500Y188750D01*
X238500Y188000D02*X241500D01*
Y188750D02*Y188000D01*
X244050Y186500D02*X246300D01*
X247050Y187250D01*
X246300Y188000D02*X247050Y187250D01*
X244050Y188000D02*X246300D01*
X243300Y188750D02*X244050Y188000D01*
X243300Y188750D02*X244050Y189500D01*
X246300D01*
X247050Y188750D01*
X243300Y187250D02*X244050Y186500D01*
X252300Y192500D02*Y187250D01*
X253050Y186500D01*
X251550Y190250D02*X253050D01*
X254550Y188750D02*Y187250D01*
Y188750D02*X255300Y189500D01*
X256800D01*
X257550Y188750D01*
Y187250D01*
X256800Y186500D02*X257550Y187250D01*
X255300Y186500D02*X256800D01*
X254550Y187250D02*X255300Y186500D01*
X260100Y192500D02*Y187250D01*
X260850Y186500D01*
X259350Y190250D02*X260850D01*
X264600Y189500D02*X265350Y188750D01*
X263100Y189500D02*X264600D01*
X262350Y188750D02*X263100Y189500D01*
X262350Y188750D02*Y187250D01*
X263100Y186500D01*
X265350Y189500D02*Y187250D01*
X266100Y186500D01*
X263100D02*X264600D01*
X265350Y187250D01*
X267900Y192500D02*Y187250D01*
X268650Y186500D01*
G54D64*X222000Y104000D02*Y0D01*
X0D01*
Y104000D01*
X222000D01*
G54D62*X24675Y-9500D02*X27675D01*
X28425Y-8750D01*
Y-6950D02*Y-8750D01*
X27675Y-6200D02*X28425Y-6950D01*
X25425Y-6200D02*X27675D01*
X25425Y-3500D02*Y-9500D01*
X24675Y-3500D02*X27675D01*
X28425Y-4250D01*
Y-5450D01*
X27675Y-6200D02*X28425Y-5450D01*
X30225Y-7250D02*Y-8750D01*
Y-7250D02*X30975Y-6500D01*
X32475D01*
X33225Y-7250D01*
Y-8750D01*
X32475Y-9500D02*X33225Y-8750D01*
X30975Y-9500D02*X32475D01*
X30225Y-8750D02*X30975Y-9500D01*
X37275Y-6500D02*X38025Y-7250D01*
X35775Y-6500D02*X37275D01*
X35025Y-7250D02*X35775Y-6500D01*
X35025Y-7250D02*Y-8750D01*
X35775Y-9500D01*
X38025Y-6500D02*Y-8750D01*
X38775Y-9500D01*
X35775D02*X37275D01*
X38025Y-8750D01*
X41325Y-7250D02*Y-9500D01*
Y-7250D02*X42075Y-6500D01*
X43575D01*
X40575D02*X41325Y-7250D01*
X48375Y-3500D02*Y-9500D01*
X47625D02*X48375Y-8750D01*
X46125Y-9500D02*X47625D01*
X45375Y-8750D02*X46125Y-9500D01*
X45375Y-7250D02*Y-8750D01*
Y-7250D02*X46125Y-6500D01*
X47625D01*
X48375Y-7250D01*
X52875D02*Y-8750D01*
Y-7250D02*X53625Y-6500D01*
X55125D01*
X55875Y-7250D01*
Y-8750D01*
X55125Y-9500D02*X55875Y-8750D01*
X53625Y-9500D02*X55125D01*
X52875Y-8750D02*X53625Y-9500D01*
X57675Y-6500D02*Y-8750D01*
X58425Y-9500D01*
X59925D01*
X60675Y-8750D01*
Y-6500D02*Y-8750D01*
X63225Y-3500D02*Y-8750D01*
X63975Y-9500D01*
X62475Y-5750D02*X63975D01*
X65475Y-3500D02*Y-8750D01*
X66225Y-9500D01*
G54D63*X67725Y-5000D02*Y-5150D01*
G54D62*Y-7250D02*Y-9500D01*
X69975Y-7250D02*Y-9500D01*
Y-7250D02*X70725Y-6500D01*
X71475D01*
X72225Y-7250D01*
Y-9500D01*
X69225Y-6500D02*X69975Y-7250D01*
X74775Y-9500D02*X77025D01*
X74025Y-8750D02*X74775Y-9500D01*
X74025Y-7250D02*Y-8750D01*
Y-7250D02*X74775Y-6500D01*
X76275D01*
X77025Y-7250D01*
X74025Y-8000D02*X77025D01*
Y-7250D02*Y-8000D01*
G54D63*X81525Y-5000D02*Y-5150D01*
G54D62*Y-7250D02*Y-9500D01*
X83775D02*X86025D01*
X86775Y-8750D01*
X86025Y-8000D02*X86775Y-8750D01*
X83775Y-8000D02*X86025D01*
X83025Y-7250D02*X83775Y-8000D01*
X83025Y-7250D02*X83775Y-6500D01*
X86025D01*
X86775Y-7250D01*
X83025Y-8750D02*X83775Y-9500D01*
X92025Y-3500D02*Y-8750D01*
X92775Y-9500D01*
X91275Y-5750D02*X92775D01*
X94275Y-3500D02*Y-9500D01*
Y-7250D02*X95025Y-6500D01*
X96525D01*
X97275Y-7250D01*
Y-9500D01*
X99825D02*X102075D01*
X99075Y-8750D02*X99825Y-9500D01*
X99075Y-7250D02*Y-8750D01*
Y-7250D02*X99825Y-6500D01*
X101325D01*
X102075Y-7250D01*
X99075Y-8000D02*X102075D01*
Y-7250D02*Y-8000D01*
X107325Y-6500D02*X109575D01*
X106575Y-7250D02*X107325Y-6500D01*
X106575Y-7250D02*Y-8750D01*
X107325Y-9500D01*
X109575D01*
X112125D02*X114375D01*
X111375Y-8750D02*X112125Y-9500D01*
X111375Y-7250D02*Y-8750D01*
Y-7250D02*X112125Y-6500D01*
X113625D01*
X114375Y-7250D01*
X111375Y-8000D02*X114375D01*
Y-7250D02*Y-8000D01*
X116925Y-7250D02*Y-9500D01*
Y-7250D02*X117675Y-6500D01*
X118425D01*
X119175Y-7250D01*
Y-9500D01*
X116175Y-6500D02*X116925Y-7250D01*
X121725Y-3500D02*Y-8750D01*
X122475Y-9500D01*
X120975Y-5750D02*X122475D01*
X124725Y-9500D02*X126975D01*
X123975Y-8750D02*X124725Y-9500D01*
X123975Y-7250D02*Y-8750D01*
Y-7250D02*X124725Y-6500D01*
X126225D01*
X126975Y-7250D01*
X123975Y-8000D02*X126975D01*
Y-7250D02*Y-8000D01*
X129525Y-7250D02*Y-9500D01*
Y-7250D02*X130275Y-6500D01*
X131775D01*
X128775D02*X129525Y-7250D01*
X133575Y-3500D02*Y-8750D01*
X134325Y-9500D01*
G54D63*X135825Y-5000D02*Y-5150D01*
G54D62*Y-7250D02*Y-9500D01*
X138075Y-7250D02*Y-9500D01*
Y-7250D02*X138825Y-6500D01*
X139575D01*
X140325Y-7250D01*
Y-9500D01*
X137325Y-6500D02*X138075Y-7250D01*
X142875Y-9500D02*X145125D01*
X142125Y-8750D02*X142875Y-9500D01*
X142125Y-7250D02*Y-8750D01*
Y-7250D02*X142875Y-6500D01*
X144375D01*
X145125Y-7250D01*
X142125Y-8000D02*X145125D01*
Y-7250D02*Y-8000D01*
X149625Y-7250D02*Y-8750D01*
Y-7250D02*X150375Y-6500D01*
X151875D01*
X152625Y-7250D01*
Y-8750D01*
X151875Y-9500D02*X152625Y-8750D01*
X150375Y-9500D02*X151875D01*
X149625Y-8750D02*X150375Y-9500D01*
X155175Y-4250D02*Y-9500D01*
Y-4250D02*X155925Y-3500D01*
X156675D01*
X154425Y-6500D02*X155925D01*
X161625Y-3500D02*Y-8750D01*
X162375Y-9500D01*
X160875Y-5750D02*X162375D01*
X163875Y-3500D02*Y-9500D01*
Y-7250D02*X164625Y-6500D01*
X166125D01*
X166875Y-7250D01*
Y-9500D01*
G54D63*X168675Y-5000D02*Y-5150D01*
G54D62*Y-7250D02*Y-9500D01*
X170925D02*X173175D01*
X173925Y-8750D01*
X173175Y-8000D02*X173925Y-8750D01*
X170925Y-8000D02*X173175D01*
X170175Y-7250D02*X170925Y-8000D01*
X170175Y-7250D02*X170925Y-6500D01*
X173175D01*
X173925Y-7250D01*
X170175Y-8750D02*X170925Y-9500D01*
X179175Y-7250D02*Y-11750D01*
X178425Y-6500D02*X179175Y-7250D01*
X179925Y-6500D01*
X181425D01*
X182175Y-7250D01*
Y-8750D01*
X181425Y-9500D02*X182175Y-8750D01*
X179925Y-9500D02*X181425D01*
X179175Y-8750D02*X179925Y-9500D01*
X186225Y-6500D02*X186975Y-7250D01*
X184725Y-6500D02*X186225D01*
X183975Y-7250D02*X184725Y-6500D01*
X183975Y-7250D02*Y-8750D01*
X184725Y-9500D01*
X186975Y-6500D02*Y-8750D01*
X187725Y-9500D01*
X184725D02*X186225D01*
X186975Y-8750D01*
X190275Y-3500D02*Y-8750D01*
X191025Y-9500D01*
X189525Y-5750D02*X191025D01*
X192525Y-3500D02*Y-9500D01*
Y-7250D02*X193275Y-6500D01*
X194775D01*
X195525Y-7250D01*
Y-9500D01*
X200750Y132500D02*Y126500D01*
X202700Y132500D02*X203750Y131450D01*
Y127550D01*
X202700Y126500D02*X203750Y127550D01*
X200000Y126500D02*X202700D01*
X200000Y132500D02*X202700D01*
X207800Y129500D02*X208550Y128750D01*
X206300Y129500D02*X207800D01*
X205550Y128750D02*X206300Y129500D01*
X205550Y128750D02*Y127250D01*
X206300Y126500D01*
X208550Y129500D02*Y127250D01*
X209300Y126500D01*
X206300D02*X207800D01*
X208550Y127250D01*
X211850Y132500D02*Y127250D01*
X212600Y126500D01*
X211100Y130250D02*X212600D01*
X214850Y126500D02*X217100D01*
X214100Y127250D02*X214850Y126500D01*
X214100Y128750D02*Y127250D01*
Y128750D02*X214850Y129500D01*
X216350D01*
X217100Y128750D01*
X214100Y128000D02*X217100D01*
Y128750D02*Y128000D01*
X218900Y130250D02*X219650D01*
X218900Y128750D02*X219650D01*
X227150Y132500D02*X227900Y131750D01*
X224900Y132500D02*X227150D01*
X224150Y131750D02*X224900Y132500D01*
X224150Y131750D02*Y130250D01*
X224900Y129500D01*
X227150D01*
X227900Y128750D01*
Y127250D01*
X227150Y126500D02*X227900Y127250D01*
X224900Y126500D02*X227150D01*
X224150Y127250D02*X224900Y126500D01*
X229700Y129500D02*Y127250D01*
X230450Y126500D01*
X231950D01*
X232700Y127250D01*
Y129500D02*Y127250D01*
X235250Y128750D02*Y126500D01*
Y128750D02*X236000Y129500D01*
X236750D01*
X237500Y128750D01*
Y126500D01*
X234500Y129500D02*X235250Y128750D01*
X242000Y131750D02*X242750Y132500D01*
X244250D01*
X245000Y131750D01*
X244250Y126500D02*X245000Y127250D01*
X242750Y126500D02*X244250D01*
X242000Y127250D02*X242750Y126500D01*
Y129800D02*X244250D01*
X245000Y131750D02*Y130550D01*
Y129050D02*Y127250D01*
Y129050D02*X244250Y129800D01*
X245000Y130550D02*X244250Y129800D01*
X246800Y127250D02*X247550Y126500D01*
X246800Y131750D02*Y127250D01*
Y131750D02*X247550Y132500D01*
X249050D01*
X249800Y131750D01*
Y127250D01*
X249050Y126500D02*X249800Y127250D01*
X247550Y126500D02*X249050D01*
X246800Y128000D02*X249800Y131000D01*
X255050Y132500D02*Y126500D01*
X257000Y132500D02*X258050Y131450D01*
Y127550D01*
X257000Y126500D02*X258050Y127550D01*
X254300Y126500D02*X257000D01*
X254300Y132500D02*X257000D01*
X260600Y126500D02*X262850D01*
X259850Y127250D02*X260600Y126500D01*
X259850Y128750D02*Y127250D01*
Y128750D02*X260600Y129500D01*
X262100D01*
X262850Y128750D01*
X259850Y128000D02*X262850D01*
Y128750D02*Y128000D01*
X265400Y129500D02*X267650D01*
X264650Y128750D02*X265400Y129500D01*
X264650Y128750D02*Y127250D01*
X265400Y126500D01*
X267650D01*
X272150Y131750D02*X272900Y132500D01*
X275150D01*
X275900Y131750D01*
Y130250D01*
X272150Y126500D02*X275900Y130250D01*
X272150Y126500D02*X275900D01*
X277700Y127250D02*X278450Y126500D01*
X277700Y131750D02*Y127250D01*
Y131750D02*X278450Y132500D01*
X279950D01*
X280700Y131750D01*
Y127250D01*
X279950Y126500D02*X280700Y127250D01*
X278450Y126500D02*X279950D01*
X277700Y128000D02*X280700Y131000D01*
X282500Y131300D02*X283700Y132500D01*
Y126500D01*
X282500D02*X284750D01*
X286550Y127250D02*X287300Y126500D01*
X286550Y128450D02*Y127250D01*
Y128450D02*X287600Y129500D01*
X288500D01*
X289550Y128450D01*
Y127250D01*
X288800Y126500D02*X289550Y127250D01*
X287300Y126500D02*X288800D01*
X286550Y130550D02*X287600Y129500D01*
X286550Y131750D02*Y130550D01*
Y131750D02*X287300Y132500D01*
X288800D01*
X289550Y131750D01*
Y130550D01*
X288500Y129500D02*X289550Y130550D01*
X294050Y127250D02*X294800Y126500D01*
X294050Y131750D02*Y127250D01*
Y131750D02*X294800Y132500D01*
X296300D01*
X297050Y131750D01*
Y127250D01*
X296300Y126500D02*X297050Y127250D01*
X294800Y126500D02*X296300D01*
X294050Y128000D02*X297050Y131000D01*
X299600Y126500D02*X302600Y132500D01*
X298850D02*X302600D01*
X304400Y130250D02*X305150D01*
X304400Y128750D02*X305150D01*
X306950Y131300D02*X308150Y132500D01*
Y126500D01*
X306950D02*X309200D01*
X311000Y131750D02*X311750Y132500D01*
X314000D01*
X314750Y131750D01*
Y130250D01*
X311000Y126500D02*X314750Y130250D01*
X311000Y126500D02*X314750D01*
X316550Y130250D02*X317300D01*
X316550Y128750D02*X317300D01*
X319100Y132500D02*X322100D01*
X319100D02*Y129500D01*
X319850Y130250D01*
X321350D01*
X322100Y129500D01*
Y127250D01*
X321350Y126500D02*X322100Y127250D01*
X319850Y126500D02*X321350D01*
X319100Y127250D02*X319850Y126500D01*
X323900Y131300D02*X325100Y132500D01*
Y126500D01*
X323900D02*X326150D01*
X331400Y132500D02*Y126500D01*
X330650Y132500D02*X333650D01*
X334400Y131750D01*
Y130250D01*
X333650Y129500D02*X334400Y130250D01*
X331400Y129500D02*X333650D01*
X336200Y132500D02*Y126500D01*
Y132500D02*X338450Y129500D01*
X340700Y132500D01*
Y126500D01*
X348200Y132500D02*X348950Y131750D01*
X345950Y132500D02*X348200D01*
X345200Y131750D02*X345950Y132500D01*
X345200Y131750D02*Y127250D01*
X345950Y126500D01*
X348200D01*
X348950Y127250D01*
Y128750D02*Y127250D01*
X348200Y129500D02*X348950Y128750D01*
X346700Y129500D02*X348200D01*
X350750Y132500D02*Y126500D01*
Y132500D02*X353000Y129500D01*
X355250Y132500D01*
Y126500D01*
X357050Y132500D02*X360050D01*
X358550D02*Y126500D01*
X364550Y132500D02*Y127250D01*
X365300Y126500D01*
X366800D01*
X367550Y127250D01*
Y132500D02*Y127250D01*
X369350Y132500D02*X372350D01*
X370850D02*Y126500D01*
X375200D02*X377150D01*
X374150Y127550D02*X375200Y126500D01*
X374150Y131450D02*Y127550D01*
Y131450D02*X375200Y132500D01*
X377150D01*
X200000Y146000D02*Y141500D01*
Y146000D02*X201050Y147500D01*
X202700D01*
X203750Y146000D01*
Y141500D01*
X200000Y144500D02*X203750D01*
X205550D02*Y142250D01*
X206300Y141500D01*
X207800D01*
X208550Y142250D01*
Y144500D02*Y142250D01*
X211100Y147500D02*Y142250D01*
X211850Y141500D01*
X210350Y145250D02*X211850D01*
X213350Y147500D02*Y141500D01*
Y143750D02*X214100Y144500D01*
X215600D01*
X216350Y143750D01*
Y141500D01*
X218150Y143750D02*Y142250D01*
Y143750D02*X218900Y144500D01*
X220400D01*
X221150Y143750D01*
Y142250D01*
X220400Y141500D02*X221150Y142250D01*
X218900Y141500D02*X220400D01*
X218150Y142250D02*X218900Y141500D01*
X223700Y143750D02*Y141500D01*
Y143750D02*X224450Y144500D01*
X225950D01*
X222950D02*X223700Y143750D01*
X227750Y145250D02*X228500D01*
X227750Y143750D02*X228500D01*
X233000Y147500D02*Y141500D01*
Y147500D02*X235250Y144500D01*
X237500Y147500D01*
Y141500D01*
G54D63*X239300Y146000D02*Y145850D01*
G54D62*Y143750D02*Y141500D01*
X241550Y144500D02*X243800D01*
X240800Y143750D02*X241550Y144500D01*
X240800Y143750D02*Y142250D01*
X241550Y141500D01*
X243800D01*
X245600Y147500D02*Y141500D01*
Y143750D02*X246350Y144500D01*
X247850D01*
X248600Y143750D01*
Y141500D01*
X252650Y144500D02*X253400Y143750D01*
X251150Y144500D02*X252650D01*
X250400Y143750D02*X251150Y144500D01*
X250400Y143750D02*Y142250D01*
X251150Y141500D01*
X253400Y144500D02*Y142250D01*
X254150Y141500D01*
X251150D02*X252650D01*
X253400Y142250D01*
X256700Y141500D02*X258950D01*
X255950Y142250D02*X256700Y141500D01*
X255950Y143750D02*Y142250D01*
Y143750D02*X256700Y144500D01*
X258200D01*
X258950Y143750D01*
X255950Y143000D02*X258950D01*
Y143750D02*Y143000D01*
X260750Y147500D02*Y142250D01*
X261500Y141500D01*
X266450Y147500D02*Y141500D01*
X265700Y147500D02*X268700D01*
X269450Y146750D01*
Y145250D01*
X268700Y144500D02*X269450Y145250D01*
X266450Y144500D02*X268700D01*
X272000Y141500D02*X274250D01*
X271250Y142250D02*X272000Y141500D01*
X271250Y143750D02*Y142250D01*
Y143750D02*X272000Y144500D01*
X273500D01*
X274250Y143750D01*
X271250Y143000D02*X274250D01*
Y143750D02*Y143000D01*
X276800Y147500D02*Y142250D01*
X277550Y141500D01*
X276050Y145250D02*X277550D01*
X279800Y141500D02*X282050D01*
X279050Y142250D02*X279800Y141500D01*
X279050Y143750D02*Y142250D01*
Y143750D02*X279800Y144500D01*
X281300D01*
X282050Y143750D01*
X279050Y143000D02*X282050D01*
Y143750D02*Y143000D01*
X284600Y143750D02*Y141500D01*
Y143750D02*X285350Y144500D01*
X286850D01*
X283850D02*X284600Y143750D01*
X289400Y141500D02*X291650D01*
X292400Y142250D01*
X291650Y143000D02*X292400Y142250D01*
X289400Y143000D02*X291650D01*
X288650Y143750D02*X289400Y143000D01*
X288650Y143750D02*X289400Y144500D01*
X291650D01*
X292400Y143750D01*
X288650Y142250D02*X289400Y141500D01*
X294950D02*X297200D01*
X294200Y142250D02*X294950Y141500D01*
X294200Y143750D02*Y142250D01*
Y143750D02*X294950Y144500D01*
X296450D01*
X297200Y143750D01*
X294200Y143000D02*X297200D01*
Y143750D02*Y143000D01*
X299750Y143750D02*Y141500D01*
Y143750D02*X300500Y144500D01*
X301250D01*
X302000Y143750D01*
Y141500D01*
X299000Y144500D02*X299750Y143750D01*
X200000Y162500D02*X203000D01*
X201500D02*Y156500D01*
G54D63*X204800Y161000D02*Y160850D01*
G54D62*Y158750D02*Y156500D01*
X207050Y162500D02*Y157250D01*
X207800Y156500D01*
X206300Y160250D02*X207800D01*
X209300Y162500D02*Y157250D01*
X210050Y156500D01*
X212300D02*X214550D01*
X211550Y157250D02*X212300Y156500D01*
X211550Y158750D02*Y157250D01*
Y158750D02*X212300Y159500D01*
X213800D01*
X214550Y158750D01*
X211550Y158000D02*X214550D01*
Y158750D02*Y158000D01*
X216350Y160250D02*X217100D01*
X216350Y158750D02*X217100D01*
X221600Y157250D02*X222350Y156500D01*
X221600Y161750D02*X222350Y162500D01*
X221600Y161750D02*Y157250D01*
X224150Y159500D02*Y157250D01*
X224900Y156500D01*
X226400D01*
X227150Y157250D01*
Y159500D02*Y157250D01*
X229700Y158750D02*Y156500D01*
Y158750D02*X230450Y159500D01*
X231200D01*
X231950Y158750D01*
Y156500D01*
X228950Y159500D02*X229700Y158750D01*
X233750Y162500D02*Y156500D01*
Y158750D02*X236000Y156500D01*
X233750Y158750D02*X235250Y160250D01*
X238550Y158750D02*Y156500D01*
Y158750D02*X239300Y159500D01*
X240050D01*
X240800Y158750D01*
Y156500D01*
X237800Y159500D02*X238550Y158750D01*
X242600D02*Y157250D01*
Y158750D02*X243350Y159500D01*
X244850D01*
X245600Y158750D01*
Y157250D01*
X244850Y156500D02*X245600Y157250D01*
X243350Y156500D02*X244850D01*
X242600Y157250D02*X243350Y156500D01*
X247400Y159500D02*Y157250D01*
X248150Y156500D01*
X248900D01*
X249650Y157250D01*
Y159500D02*Y157250D01*
X250400Y156500D01*
X251150D01*
X251900Y157250D01*
Y159500D02*Y157250D01*
X254450Y158750D02*Y156500D01*
Y158750D02*X255200Y159500D01*
X255950D01*
X256700Y158750D01*
Y156500D01*
X253700Y159500D02*X254450Y158750D01*
X258500Y162500D02*X259250Y161750D01*
Y157250D01*
X258500Y156500D02*X259250Y157250D01*
X263750Y159500D02*X266750D01*
X271250Y162500D02*Y156500D01*
Y162500D02*X274250D01*
X271250Y159800D02*X273500D01*
X278300Y159500D02*X279050Y158750D01*
X276800Y159500D02*X278300D01*
X276050Y158750D02*X276800Y159500D01*
X276050Y158750D02*Y157250D01*
X276800Y156500D01*
X279050Y159500D02*Y157250D01*
X279800Y156500D01*
X276800D02*X278300D01*
X279050Y157250D01*
X281600Y162500D02*Y156500D01*
Y157250D02*X282350Y156500D01*
X283850D01*
X284600Y157250D01*
Y158750D02*Y157250D01*
X283850Y159500D02*X284600Y158750D01*
X282350Y159500D02*X283850D01*
X281600Y158750D02*X282350Y159500D01*
X287150Y158750D02*Y156500D01*
Y158750D02*X287900Y159500D01*
X289400D01*
X286400D02*X287150Y158750D01*
G54D63*X291200Y161000D02*Y160850D01*
G54D62*Y158750D02*Y156500D01*
X293450Y159500D02*X295700D01*
X292700Y158750D02*X293450Y159500D01*
X292700Y158750D02*Y157250D01*
X293450Y156500D01*
X295700D01*
X299750Y159500D02*X300500Y158750D01*
X298250Y159500D02*X299750D01*
X297500Y158750D02*X298250Y159500D01*
X297500Y158750D02*Y157250D01*
X298250Y156500D01*
X300500Y159500D02*Y157250D01*
X301250Y156500D01*
X298250D02*X299750D01*
X300500Y157250D01*
X303800Y162500D02*Y157250D01*
X304550Y156500D01*
X303050Y160250D02*X304550D01*
G54D63*X306050Y161000D02*Y160850D01*
G54D62*Y158750D02*Y156500D01*
X307550Y158750D02*Y157250D01*
Y158750D02*X308300Y159500D01*
X309800D01*
X310550Y158750D01*
Y157250D01*
X309800Y156500D02*X310550Y157250D01*
X308300Y156500D02*X309800D01*
X307550Y157250D02*X308300Y156500D01*
X313100Y158750D02*Y156500D01*
Y158750D02*X313850Y159500D01*
X314600D01*
X315350Y158750D01*
Y156500D01*
X312350Y159500D02*X313100Y158750D01*
X320600Y162500D02*Y156500D01*
X322550Y162500D02*X323600Y161450D01*
Y157550D01*
X322550Y156500D02*X323600Y157550D01*
X319850Y156500D02*X322550D01*
X319850Y162500D02*X322550D01*
X326150Y158750D02*Y156500D01*
Y158750D02*X326900Y159500D01*
X328400D01*
X325400D02*X326150Y158750D01*
X332450Y159500D02*X333200Y158750D01*
X330950Y159500D02*X332450D01*
X330200Y158750D02*X330950Y159500D01*
X330200Y158750D02*Y157250D01*
X330950Y156500D01*
X333200Y159500D02*Y157250D01*
X333950Y156500D01*
X330950D02*X332450D01*
X333200Y157250D01*
X335750Y159500D02*Y157250D01*
X336500Y156500D01*
X337250D01*
X338000Y157250D01*
Y159500D02*Y157250D01*
X338750Y156500D01*
X339500D01*
X340250Y157250D01*
Y159500D02*Y157250D01*
G54D63*X342050Y161000D02*Y160850D01*
G54D62*Y158750D02*Y156500D01*
X344300Y158750D02*Y156500D01*
Y158750D02*X345050Y159500D01*
X345800D01*
X346550Y158750D01*
Y156500D01*
X343550Y159500D02*X344300Y158750D01*
X350600Y159500D02*X351350Y158750D01*
X349100Y159500D02*X350600D01*
X348350Y158750D02*X349100Y159500D01*
X348350Y158750D02*Y157250D01*
X349100Y156500D01*
X350600D01*
X351350Y157250D01*
X348350Y155000D02*X349100Y154250D01*
X350600D01*
X351350Y155000D01*
Y159500D02*Y155000D01*
M02*
