M48
INCH
T39C0.020
T38C0.038
T37C0.129
%
T39
X002150Y005850
X002150Y005400
X003500Y003950
X003500Y003500
X003500Y003050
X005650Y006650
X007900Y005950
X008000Y009700
X010300Y001550
X010300Y000600
X010550Y004600
X011450Y004450
X011600Y002900
X011850Y005300
X012150Y002900
X012350Y005300
X013050Y007550
X015000Y007550
X015350Y005200
X015750Y004650
X017050Y007550
X017500Y004650
X018350Y004500
X019200Y003750
X019200Y003300
X019200Y002850
X020300Y002700
X020300Y002250
X020300Y001800
T38
X002650Y008600
X002650Y007600
X003650Y008600
X003650Y007600
X004650Y008600
X004650Y007600
X005650Y008600
X005650Y007600
X006650Y008600
X006650Y007600
X007650Y008600
X007650Y007600
X008650Y008600
X008650Y007600
X009650Y008600
X009650Y007600
X010650Y008600
X010650Y007600
X011650Y008600
X011650Y007600
T37
X020600Y008800
M30
