G04 start of page 10 for group -4015 idx -4015 *
G04 Title: (unknown), toppaste *
G04 Creator: pcb 20110918 *
G04 CreationDate: Mon 02 Feb 2015 06:09:46 PM GMT UTC *
G04 For: railfan *
G04 Format: Gerber/RS-274X *
G04 PCB-Dimensions: 222000 104000 *
G04 PCB-Coordinate-Origin: lower left *
%MOIN*%
%FSLAX25Y25*%
%LNTOPPASTE*%
%ADD82R,0.0130X0.0130*%
%ADD81C,0.0001*%
%ADD80R,0.0945X0.0945*%
%ADD79R,0.0378X0.0378*%
%ADD78R,0.0630X0.0630*%
%ADD77R,0.0360X0.0360*%
%ADD76R,0.0512X0.0512*%
G54D76*X124405Y98181D02*Y95819D01*
X112595Y98181D02*Y95819D01*
G54D77*X181900Y71600D02*X183100D01*
X181900Y84500D02*X183100D01*
G54D78*X118508Y51500D02*X124807D01*
X138193D02*X144492D01*
G54D79*X135395Y21094D02*X139489D01*
X127679Y27000D02*X139489D01*
G54D80*X124055D02*X125945D01*
G54D81*G36*
X129250Y23695D02*X132090Y26535D01*
X133510Y25115D01*
X130670Y22275D01*
X129250Y23695D01*
G37*
G36*
X130670Y31725D02*X133510Y28885D01*
X132090Y27465D01*
X129250Y30305D01*
X130670Y31725D01*
G37*
G54D79*X135395Y32906D02*X139489D01*
G54D76*X93457Y97893D02*Y97107D01*
X100543Y97893D02*Y97107D01*
G54D82*X108074Y54417D02*Y49811D01*
X105515Y54417D02*Y49811D01*
X102956Y54417D02*Y49811D01*
X100397Y54417D02*Y49811D01*
X97838Y54417D02*Y49811D01*
X95279Y54417D02*Y49811D01*
X92721Y54417D02*Y49811D01*
X90162Y54417D02*Y49811D01*
X87603Y54417D02*Y49811D01*
X85044Y54417D02*Y49811D01*
X82485Y54417D02*Y49811D01*
X79926Y54417D02*Y49811D01*
Y31189D02*Y26583D01*
X82485Y31189D02*Y26583D01*
X85044Y31189D02*Y26583D01*
X87603Y31189D02*Y26583D01*
X90162Y31189D02*Y26583D01*
X92721Y31189D02*Y26583D01*
X95279Y31189D02*Y26583D01*
X97838Y31189D02*Y26583D01*
X100397Y31189D02*Y26583D01*
X102956Y31189D02*Y26583D01*
X105515Y31189D02*Y26583D01*
X108074Y31189D02*Y26583D01*
G54D76*X106957Y17893D02*Y17107D01*
X114043Y17893D02*Y17107D01*
X127043Y9893D02*Y9107D01*
X119957Y9893D02*Y9107D01*
X143543Y9893D02*Y9107D01*
X136457Y9893D02*Y9107D01*
M02*
