G04 start of page 2 for group 0 idx 0 *
G04 Title: (unknown), component *
G04 Creator: pcb 20140316 *
G04 CreationDate: Thu 29 Nov 2018 10:04:31 PM GMT UTC *
G04 For: railfan *
G04 Format: Gerber/RS-274X *
G04 PCB-Dimensions (mil): 2220.00 1040.00 *
G04 PCB-Coordinate-Origin: lower left *
%MOIN*%
%FSLAX25Y25*%
%LNTOP*%
%ADD28C,0.0300*%
%ADD27C,0.1280*%
%ADD26C,0.0380*%
%ADD25C,0.1285*%
%ADD24C,0.0200*%
%ADD23C,0.0360*%
%ADD22R,0.0120X0.0120*%
%ADD21R,0.0130X0.0130*%
%ADD20R,0.0300X0.0300*%
%ADD19R,0.0512X0.0512*%
%ADD18C,0.0700*%
%ADD17C,0.0600*%
%ADD16C,0.1440*%
%ADD15C,0.2937*%
%ADD14C,0.0400*%
%ADD13C,0.0250*%
%ADD12C,0.0100*%
%ADD11C,0.0001*%
G54D11*G36*
X95121Y17500D02*X101191D01*
X101226Y17061D01*
X101329Y16632D01*
X101497Y16225D01*
X101728Y15849D01*
X102014Y15514D01*
X102349Y15228D01*
X102725Y14997D01*
X103132Y14829D01*
X103561Y14726D01*
X104000Y14691D01*
X104439Y14726D01*
X104868Y14829D01*
X105275Y14997D01*
X105651Y15228D01*
X105986Y15514D01*
X106272Y15849D01*
X106503Y16225D01*
X106671Y16632D01*
X106774Y17061D01*
X106800Y17500D01*
X113500D01*
Y12000D01*
X95000D01*
Y17379D01*
X95121Y17500D01*
G37*
G36*
X95000Y10500D02*X139500D01*
Y4500D01*
X95000D01*
Y10500D01*
G37*
G36*
X150500Y13000D02*X146637D01*
X146609Y13007D01*
X146452Y13016D01*
X143000Y13011D01*
Y65500D01*
X150500D01*
Y48176D01*
X150486Y48000D01*
X150500Y47824D01*
Y38176D01*
X150486Y38000D01*
X150500Y37824D01*
Y28176D01*
X150486Y28000D01*
X150500Y27824D01*
Y13000D01*
G37*
G36*
X116000Y4500D02*Y21000D01*
X139500D01*
Y4500D01*
X116000D01*
G37*
G36*
X150500Y13000D02*X146637D01*
X146609Y13007D01*
X146452Y13016D01*
X140391Y13007D01*
X140363Y13000D01*
X116000D01*
Y21000D01*
X150500D01*
Y13000D01*
G37*
G36*
X142500Y58000D02*Y68379D01*
X143121Y69000D01*
X151000D01*
Y58000D01*
X142500D01*
G37*
G54D12*X165075Y43000D02*X165575Y43500D01*
X117500D02*Y38000D01*
G54D13*X169500Y5500D02*Y26500D01*
X171000Y28000D02*Y37000D01*
X165000Y43000D01*
G54D14*X155000Y38000D02*X146500D01*
G54D13*X152500Y9500D03*
X156500Y5500D01*
X158500Y9500D02*Y24500D01*
X155000Y28000D01*
G54D12*X152500Y9500D02*X143500D01*
G54D13*X156500Y5500D02*X169500D01*
G54D12*X176500Y2500D02*X94500D01*
X93000Y4000D02*X94500Y2500D01*
G54D13*X169500Y26500D02*X171000Y28000D01*
X175500Y31500D02*X201000D01*
X180000Y36500D02*X210000D01*
X201000Y31500D02*X205000Y27500D01*
Y7000D01*
X210000Y36500D02*X215000Y31500D01*
Y7000D01*
X169500Y12500D02*X184000D01*
X189500Y7000D01*
X195000D01*
G54D12*X176500Y2500D02*X177500Y3500D01*
Y7000D01*
G54D14*X26500Y86500D02*Y76000D01*
G54D12*X36500D02*Y71000D01*
X42000Y65500D01*
X41500Y79500D02*Y69000D01*
X44500Y66000D01*
X36500Y86000D02*Y84500D01*
X41500Y79500D01*
X46500Y86000D02*X51500Y81000D01*
Y71500D01*
X48500Y68500D01*
X50500Y66000D02*X56500Y72000D01*
Y76500D01*
X42000Y65500D02*Y17000D01*
X44500Y66000D02*Y18500D01*
X46500Y76000D02*Y20000D01*
X48500Y68500D02*Y22000D01*
X50500Y24500D02*Y66000D01*
X46500Y20000D02*X48000Y18500D01*
X52500Y22500D02*X50500Y24500D01*
X48500Y22000D02*X50000Y20500D01*
X44500Y18500D02*X46500Y16500D01*
X42000Y17000D02*X45000Y14000D01*
X50500Y10000D02*X31000D01*
G54D13*X49000Y5500D02*X43000D01*
X41500Y7000D01*
X27000D01*
G54D12*X31000Y10000D02*X29000Y12000D01*
X22000D01*
X17000Y7000D01*
X101500Y81000D02*X96500Y86000D01*
X91500Y81000D02*X86500Y86000D01*
X81500Y81000D02*X76500Y86000D01*
X61500Y81000D02*X66500Y86000D01*
X80000Y97000D02*X85457D01*
X96500Y61000D02*Y76500D01*
X91500Y60000D02*Y81000D01*
X87603Y70397D02*X86500Y71500D01*
Y76000D01*
X101500Y62500D02*X95250Y56250D01*
X90162Y58662D02*X91500Y60000D01*
X66500Y76000D02*Y67000D01*
X70500Y60000D02*X61500Y69000D01*
Y81000D01*
X85000Y68000D02*X81500Y71500D01*
Y81000D01*
X87603Y52114D02*Y70397D01*
X85044Y67956D02*X84000Y69000D01*
X82485Y52114D02*Y67015D01*
X85044Y52114D02*Y67956D01*
X82500Y67000D02*X77000Y72500D01*
Y76000D01*
X66500Y67000D02*X76000Y57500D01*
X82485Y67015D02*X81250Y68250D01*
X62000Y61000D02*X56500Y66500D01*
X93000Y57500D02*X96500Y61000D01*
X94500Y59000D02*X92750Y57250D01*
Y52143D02*X92721Y52114D01*
X103500Y45500D02*X98500D01*
X93000D02*X94500D01*
X96500Y47500D01*
X102000D02*X96500D01*
X92750Y57250D02*Y52143D01*
X95250Y56250D02*Y52143D01*
X95279Y52114D01*
X97838D02*Y55838D01*
X90162Y52114D02*Y58662D01*
X111000Y81500D02*X106500Y86000D01*
X101500Y62500D02*Y81000D01*
X106500Y64500D02*Y76000D01*
X104000Y59000D02*X111000Y66000D01*
Y81500D01*
G54D14*X112500Y54500D02*Y58000D01*
X116500Y62000D02*Y86000D01*
G54D12*X108957Y97000D02*X92543D01*
G54D13*X116500Y86000D02*Y97000D01*
G54D12*X97838Y55838D02*X106500Y64500D01*
G54D14*X112500Y58000D02*X116500Y62000D01*
G54D12*X100397Y52114D02*Y55397D01*
X104250Y59250D01*
X102956Y52114D02*Y48456D01*
X102000Y47500D01*
X103500Y45500D02*X105500Y47500D01*
Y52099D01*
X105515Y52114D01*
X108000Y44000D02*Y52040D01*
X108074Y52114D01*
X126500Y52500D02*X117500Y43500D01*
X136500Y91100D02*Y82543D01*
X131000Y82500D02*X136500D01*
X156000Y91100D02*Y82543D01*
X151543D02*X156000D01*
G54D13*X116500Y97000D02*X176500D01*
G54D12*X122000Y58500D02*X127000Y63500D01*
X123000Y54000D02*X151543Y82543D01*
X143000Y71000D02*X126500Y54500D01*
Y52500D01*
X130500Y75500D02*X136500D01*
X127000Y63500D02*Y78500D01*
X131000Y82500D01*
X164000Y71000D02*X143000D01*
X150000Y75500D02*X156000D01*
X166500Y73500D02*X164000Y71000D01*
X176500Y91100D02*Y82543D01*
X168543D01*
X170500Y75500D02*X176500D01*
X168543Y82543D02*X166500Y80500D01*
Y73500D01*
X79000Y59500D02*Y59000D01*
X74000Y39000D02*Y56500D01*
X70000Y60500D01*
X79926Y52114D02*Y58574D01*
X79000Y59500D01*
X76000Y57500D02*Y40000D01*
X79926Y33074D02*X74000Y39000D01*
X82485Y33515D02*X76000Y40000D01*
X62000Y25500D02*Y61000D01*
X84000Y24500D02*X63000D01*
X85044Y25544D02*X84000Y24500D01*
X63000D02*X62000Y25500D01*
X89500Y14000D02*X45000D01*
X89000Y16500D02*X46500D01*
X88000Y18500D02*X48000D01*
X50000Y20500D02*X87000D01*
X52500Y22500D02*X86000D01*
X92721Y23221D02*X88000Y18500D01*
X95279Y22779D02*X89000Y16500D01*
X97838Y22338D02*X89500Y14000D01*
X100500Y35000D02*X100000Y35500D01*
X98500Y45500D02*X93000Y40000D01*
X100397Y35397D02*X100500Y35500D01*
X92721Y28886D02*Y23221D01*
X95279Y28886D02*Y22779D01*
X97838Y28886D02*Y22338D01*
X97043Y14543D02*X93000Y10500D01*
Y4000D01*
X79926Y28886D02*Y33074D01*
X82485Y28886D02*Y33515D01*
X85044Y28886D02*Y25544D01*
X87603Y28886D02*Y24103D01*
X90162Y28886D02*Y23662D01*
X87603Y24103D02*X86000Y22500D01*
X90162Y23662D02*X87000Y20500D01*
X100397Y28886D02*Y35397D01*
X105515Y28886D02*Y35485D01*
X102956Y28886D02*Y22544D01*
X104000Y21500D01*
Y17500D01*
X108074Y24926D02*X109000Y24000D01*
X112500D01*
X108074Y24926D02*Y32846D01*
G54D14*X112500Y17043D02*X110000Y14543D01*
G54D12*X105515Y35485D02*X105500Y35500D01*
G54D14*X112500Y55500D02*Y17043D01*
G54D12*X108074Y32846D02*X109000Y33772D01*
X112500D01*
X108000Y44000D02*X105500Y41500D01*
X99500D01*
G54D15*X206000Y88000D03*
G54D11*G36*
X192000Y10000D02*Y4000D01*
X198000D01*
Y10000D01*
X192000D01*
G37*
G54D16*X190000Y20500D03*
Y60500D03*
G54D17*X205000Y7000D03*
X215000D03*
G54D18*X155000Y28000D03*
Y38000D03*
Y48000D03*
X165000Y33000D03*
Y43000D03*
Y53000D03*
G54D11*G36*
X23500Y79000D02*Y73000D01*
X29500D01*
Y79000D01*
X23500D01*
G37*
G54D17*X36500Y76000D03*
X26500Y86000D03*
X36500D03*
X56500Y76000D03*
X66500D03*
X76500D03*
X46500D03*
Y86000D03*
X56500D03*
X66500D03*
X76500D03*
X86500D03*
X96500D03*
X106500D03*
X116500D03*
X86500Y76000D03*
X96500D03*
X106500D03*
X116500D03*
G54D18*X67000Y53000D03*
Y43000D03*
Y33000D03*
X57000Y48000D03*
Y38000D03*
Y28000D03*
G54D16*X32000Y60500D03*
Y20500D03*
G54D11*G36*
X4000Y10000D02*Y4000D01*
X10000D01*
Y10000D01*
X4000D01*
G37*
G54D17*X17000Y7000D03*
X27000D03*
G54D19*X116043Y97393D02*Y96607D01*
X108957Y97393D02*Y96607D01*
X85457Y97393D02*Y96607D01*
X92543Y97393D02*Y96607D01*
G54D17*X136500Y97900D03*
G54D20*X135000Y96400D02*X138000D01*
G54D17*X156000Y91100D03*
G54D20*X154500Y92600D02*X157500D01*
G54D17*X176500Y91100D03*
G54D20*X175000Y92600D02*X178000D01*
G54D17*X156000Y97900D03*
G54D20*X154500Y96400D02*X157500D01*
G54D17*X176500Y97900D03*
G54D20*X175000Y96400D02*X178000D01*
G54D19*X143107Y9457D02*X143893D01*
X143107Y16543D02*X143893D01*
X109607Y14543D02*X110393D01*
X109607Y7457D02*X110393D01*
X97607Y14543D02*X98393D01*
X97607Y7457D02*X98393D01*
X177543Y7393D02*Y6607D01*
X170457Y7393D02*Y6607D01*
G54D21*X108074Y54417D02*Y49811D01*
G54D22*Y52811D02*Y51417D01*
G54D21*X105515Y54417D02*Y49811D01*
G54D22*Y52811D02*Y51417D01*
G54D21*X102956Y54417D02*Y49811D01*
G54D22*Y52811D02*Y51417D01*
G54D21*X100397Y54417D02*Y49811D01*
G54D22*Y52811D02*Y51417D01*
G54D21*X97838Y54417D02*Y49811D01*
G54D22*Y52811D02*Y51417D01*
G54D21*X95279Y54417D02*Y49811D01*
G54D22*Y52811D02*Y51417D01*
G54D19*X136107Y75457D02*X136893D01*
X155607D02*X156393D01*
X176107D02*X176893D01*
X136107Y82543D02*X136893D01*
X155607D02*X156393D01*
X176107D02*X176893D01*
G54D17*X136500Y91100D03*
G54D20*X135000Y92600D02*X138000D01*
G54D21*X92721Y54417D02*Y49811D01*
G54D22*Y52811D02*Y51417D01*
G54D21*X90162Y54417D02*Y49811D01*
G54D22*Y52811D02*Y51417D01*
G54D21*X87603Y54417D02*Y49811D01*
G54D22*Y52811D02*Y51417D01*
G54D21*X85044Y54417D02*Y49811D01*
G54D22*Y52811D02*Y51417D01*
G54D21*X82485Y54417D02*Y49811D01*
G54D22*Y52811D02*Y51417D01*
G54D21*X79926Y54417D02*Y49811D01*
G54D22*Y52811D02*Y51417D01*
G54D21*Y31189D02*Y26583D01*
G54D22*Y29583D02*Y28189D01*
G54D21*X82485Y31189D02*Y26583D01*
G54D22*Y29583D02*Y28189D01*
G54D21*X85044Y31189D02*Y26583D01*
G54D22*Y29583D02*Y28189D01*
G54D21*X87603Y31189D02*Y26583D01*
G54D22*Y29583D02*Y28189D01*
G54D21*X90162Y31189D02*Y26583D01*
G54D22*Y29583D02*Y28189D01*
G54D21*X92721Y31189D02*Y26583D01*
G54D22*Y29583D02*Y28189D01*
G54D21*X95279Y31189D02*Y26583D01*
G54D22*Y29583D02*Y28189D01*
G54D21*X97838Y31189D02*Y26583D01*
G54D22*Y29583D02*Y28189D01*
G54D21*X100397Y31189D02*Y26583D01*
G54D22*Y29583D02*Y28189D01*
G54D21*X102956Y31189D02*Y26583D01*
G54D22*Y29583D02*Y28189D01*
G54D21*X105515Y31189D02*Y26583D01*
G54D22*Y29583D02*Y28189D01*
G54D21*X108074Y31189D02*Y26583D01*
G54D22*Y29583D02*Y28189D01*
G54D23*X56500Y66500D03*
X79000Y59500D03*
X80000Y97000D03*
X145000Y60500D03*
X148500Y62500D03*
X145000Y64500D03*
X148500Y66500D03*
X146000Y46000D03*
Y50500D03*
X175500Y31500D03*
X180000Y36500D03*
X122000Y58500D03*
X123000Y54000D03*
X130500Y75500D03*
X150000D03*
X170500D03*
X105500Y35500D03*
X100500D03*
X99500Y41500D03*
X93000Y40500D03*
Y45500D03*
X117500Y38000D03*
X152500Y9500D03*
X50500Y10000D03*
X49000Y5500D03*
X158500Y9500D03*
X104000Y17500D03*
G54D24*G54D25*G54D26*G54D27*G54D26*G54D28*G54D26*G54D28*G54D27*G54D26*M02*
