G04 start of page 8 for group -4079 idx -4079 *
G04 Title: (unknown), topsilk *
G04 Creator: pcb 20140316 *
G04 CreationDate: Thu 29 Nov 2018 10:04:31 PM GMT UTC *
G04 For: railfan *
G04 Format: Gerber/RS-274X *
G04 PCB-Dimensions (mil): 2220.00 1040.00 *
G04 PCB-Coordinate-Origin: lower left *
%MOIN*%
%FSLAX25Y25*%
%LNTOPSILK*%
%ADD65C,0.0200*%
%ADD64C,0.0080*%
%ADD63C,0.0100*%
%ADD62C,0.0001*%
G54D62*G36*
X111000Y59500D02*X114000D01*
Y56500D01*
X111000D01*
Y59500D01*
G37*
G54D63*X500Y500D02*X221500D01*
X500D02*Y103500D01*
X221500D02*X500D01*
X96500Y97000D02*X100500D01*
X98500Y99000D02*Y95000D01*
X221500Y103500D02*Y500D01*
G54D64*X120000Y21720D02*Y18600D01*
X121560D01*
X141500Y99000D02*Y96000D01*
Y99000D02*X142200Y100000D01*
X143300D01*
X144000Y99000D01*
Y96000D01*
X141500Y98000D02*X144000D01*
X145200Y99500D02*X145700Y100000D01*
X147200D01*
X147700Y99500D01*
Y98500D01*
X145200Y96000D02*X147700Y98500D01*
X145200Y96000D02*X147700D01*
X161000Y99000D02*Y96000D01*
Y99000D02*X161700Y100000D01*
X162800D01*
X163500Y99000D01*
Y96000D01*
X161000Y98000D02*X163500D01*
X164700Y99200D02*X165500Y100000D01*
Y96000D01*
X164700D02*X166200D01*
X181500Y99000D02*Y96000D01*
Y99000D02*X182200Y100000D01*
X183300D01*
X184000Y99000D01*
Y96000D01*
X181500Y98000D02*X184000D01*
X185200Y96500D02*X185700Y96000D01*
X185200Y99500D02*Y96500D01*
Y99500D02*X185700Y100000D01*
X186700D01*
X187200Y99500D01*
Y96500D01*
X186700Y96000D02*X187200Y96500D01*
X185700Y96000D02*X186700D01*
X185200Y97000D02*X187200Y99000D01*
X45500Y9000D02*X46500D01*
X46000D02*Y5000D01*
X45500D02*X46500D01*
X47700Y6500D02*Y5500D01*
Y6500D02*X48200Y7000D01*
X49200D01*
X49700Y6500D01*
Y5500D01*
X49200Y5000D02*X49700Y5500D01*
X48200Y5000D02*X49200D01*
X47700Y5500D02*X48200Y5000D01*
X50900Y7000D02*Y5500D01*
X51400Y5000D01*
X51900D01*
X52400Y5500D01*
Y7000D02*Y5500D01*
X52900Y5000D01*
X53400D01*
X53900Y5500D01*
Y7000D02*Y5500D01*
X56600Y7000D02*X57100Y6500D01*
X55600Y7000D02*X56600D01*
X55100Y6500D02*X55600Y7000D01*
X55100Y6500D02*Y5500D01*
X55600Y5000D01*
X57100Y7000D02*Y5500D01*
X57600Y5000D01*
X55600D02*X56600D01*
X57100Y5500D01*
X62600Y9000D02*X63100Y8500D01*
X61100Y9000D02*X62600D01*
X60600Y8500D02*X61100Y9000D01*
X60600Y8500D02*Y7500D01*
X61100Y7000D01*
X62600D01*
X63100Y6500D01*
Y5500D01*
X62600Y5000D02*X63100Y5500D01*
X61100Y5000D02*X62600D01*
X60600Y5500D02*X61100Y5000D01*
X64800Y7000D02*X66300D01*
X64300Y6500D02*X64800Y7000D01*
X64300Y6500D02*Y5500D01*
X64800Y5000D01*
X66300D01*
X69000Y7000D02*X69500Y6500D01*
X68000Y7000D02*X69000D01*
X67500Y6500D02*X68000Y7000D01*
X67500Y6500D02*Y5500D01*
X68000Y5000D01*
X69500Y7000D02*Y5500D01*
X70000Y5000D01*
X68000D02*X69000D01*
X69500Y5500D01*
X71200Y9000D02*Y5500D01*
X71700Y5000D01*
X73200D02*X74700D01*
X72700Y5500D02*X73200Y5000D01*
X72700Y6500D02*Y5500D01*
Y6500D02*X73200Y7000D01*
X74200D01*
X74700Y6500D01*
X72700Y6000D02*X74700D01*
Y6500D02*Y6000D01*
X77900Y9000D02*Y5000D01*
X77400D02*X77900Y5500D01*
X76400Y5000D02*X77400D01*
X75900Y5500D02*X76400Y5000D01*
X75900Y6500D02*Y5500D01*
Y6500D02*X76400Y7000D01*
X77400D01*
X77900Y6500D01*
X80900Y7200D02*X82400D01*
X80900Y5000D02*X82900D01*
X80900Y9000D02*Y5000D01*
Y9000D02*X82900D01*
X84600Y6500D02*Y5000D01*
Y6500D02*X85100Y7000D01*
X85600D01*
X86100Y6500D01*
Y5000D01*
X84100Y7000D02*X84600Y6500D01*
X88800Y7000D02*X89300Y6500D01*
X87800Y7000D02*X88800D01*
X87300Y6500D02*X87800Y7000D01*
X87300Y6500D02*Y5500D01*
X87800Y5000D01*
X88800D01*
X89300Y5500D01*
X87300Y4000D02*X87800Y3500D01*
X88800D01*
X89300Y4000D01*
Y7000D02*Y4000D01*
X76200Y63500D02*X77500D01*
X75500Y64200D02*X76200Y63500D01*
X75500Y66800D02*Y64200D01*
Y66800D02*X76200Y67500D01*
X77500D01*
X79400Y63500D02*X80700D01*
X78700Y64200D02*X79400Y63500D01*
X78700Y66800D02*Y64200D01*
Y66800D02*X79400Y67500D01*
X80700D01*
X83700Y63500D02*X85700D01*
X86200Y64000D01*
Y65200D02*Y64000D01*
X85700Y65700D02*X86200Y65200D01*
X84200Y65700D02*X85700D01*
X84200Y67500D02*Y63500D01*
X83700Y67500D02*X85700D01*
X86200Y67000D01*
Y66200D01*
X85700Y65700D02*X86200Y66200D01*
X87400Y67500D02*X88400Y65500D01*
X89400Y67500D01*
X88400Y65500D02*Y63500D01*
X90600Y65500D02*X92600D01*
X95800Y67500D02*X96300Y67000D01*
X94300Y67500D02*X95800D01*
X93800Y67000D02*X94300Y67500D01*
X93800Y67000D02*Y66000D01*
X94300Y65500D01*
X95800D01*
X96300Y65000D01*
Y64000D01*
X95800Y63500D02*X96300Y64000D01*
X94300Y63500D02*X95800D01*
X93800Y64000D02*X94300Y63500D01*
X97500Y66500D02*Y63500D01*
Y66500D02*X98200Y67500D01*
X99300D01*
X100000Y66500D01*
Y63500D01*
X97500Y65500D02*X100000D01*
X103000Y64000D02*X103500Y63500D01*
X103000Y67000D02*X103500Y67500D01*
X103000Y67000D02*Y64000D01*
X105400Y63500D02*X106700D01*
X104700Y64200D02*X105400Y63500D01*
X104700Y66800D02*Y64200D01*
Y66800D02*X105400Y67500D01*
X106700D01*
X107900D02*X108400Y67000D01*
Y64000D01*
X107900Y63500D02*X108400Y64000D01*
X109600Y67000D02*X110100Y67500D01*
X111600D01*
X112100Y67000D01*
Y66000D01*
X109600Y63500D02*X112100Y66000D01*
X109600Y63500D02*X112100D01*
X113300Y64000D02*X113800Y63500D01*
X113300Y67000D02*Y64000D01*
Y67000D02*X113800Y67500D01*
X114800D01*
X115300Y67000D01*
Y64000D01*
X114800Y63500D02*X115300Y64000D01*
X113800Y63500D02*X114800D01*
X113300Y64500D02*X115300Y66500D01*
X116500Y66700D02*X117300Y67500D01*
Y63500D01*
X116500D02*X118000D01*
X119200Y64000D02*X119700Y63500D01*
X119200Y64800D02*Y64000D01*
Y64800D02*X119900Y65500D01*
X120500D01*
X121200Y64800D01*
Y64000D01*
X120700Y63500D02*X121200Y64000D01*
X119700Y63500D02*X120700D01*
X119200Y66200D02*X119900Y65500D01*
X119200Y67000D02*Y66200D01*
Y67000D02*X119700Y67500D01*
X120700D01*
X121200Y67000D01*
Y66200D01*
X120500Y65500D02*X121200Y66200D01*
X5500Y99500D02*X6500D01*
X6000D02*Y95500D01*
X5500D02*X6500D01*
X7700Y99000D02*X8200Y99500D01*
X9700D01*
X10200Y99000D01*
Y98000D01*
X7700Y95500D02*X10200Y98000D01*
X7700Y95500D02*X10200D01*
X12100D02*X13400D01*
X11400Y96200D02*X12100Y95500D01*
X11400Y98800D02*Y96200D01*
Y98800D02*X12100Y99500D01*
X13400D01*
X14600Y97500D02*X16600D01*
X17800Y99500D02*X19800D01*
X20300Y99000D01*
Y98000D01*
X19800Y97500D02*X20300Y98000D01*
X18300Y97500D02*X19800D01*
X18300Y99500D02*Y95500D01*
X19100Y97500D02*X20300Y95500D01*
X21500Y97700D02*X23000D01*
X21500Y95500D02*X23500D01*
X21500Y99500D02*Y95500D01*
Y99500D02*X23500D01*
X24700D02*Y95500D01*
X26700D01*
X27900Y98500D02*Y95500D01*
Y98500D02*X28600Y99500D01*
X29700D01*
X30400Y98500D01*
Y95500D01*
X27900Y97500D02*X30400D01*
X31600Y99500D02*X32600Y97500D01*
X33600Y99500D01*
X32600Y97500D02*Y95500D01*
X34800Y98700D02*X35600Y99500D01*
Y95500D01*
X34800D02*X36300D01*
X39000Y99500D02*X39500Y99000D01*
X38000Y99500D02*X39000D01*
X37500Y99000D02*X38000Y99500D01*
X37500Y99000D02*Y96000D01*
X38000Y95500D01*
X39000Y97700D02*X39500Y97200D01*
X37500Y97700D02*X39000D01*
X38000Y95500D02*X39000D01*
X39500Y96000D01*
Y97200D02*Y96000D01*
X42500Y97500D02*X43500Y95500D01*
X44500Y97500D02*X43500Y95500D01*
X45700Y99000D02*X46200Y99500D01*
X47200D01*
X47700Y99000D01*
X47200Y95500D02*X47700Y96000D01*
X46200Y95500D02*X47200D01*
X45700Y96000D02*X46200Y95500D01*
Y97700D02*X47200D01*
X47700Y99000D02*Y98200D01*
Y97200D02*Y96000D01*
Y97200D02*X47200Y97700D01*
X47700Y98200D02*X47200Y97700D01*
X48900Y95500D02*X49400D01*
X50600Y96000D02*X51100Y95500D01*
X50600Y99000D02*Y96000D01*
Y99000D02*X51100Y99500D01*
X52100D01*
X52600Y99000D01*
Y96000D01*
X52100Y95500D02*X52600Y96000D01*
X51100Y95500D02*X52100D01*
X50600Y96500D02*X52600Y98500D01*
G54D63*X153245Y79393D02*Y78607D01*
X158755Y79393D02*Y78607D01*
X173745Y79393D02*Y78607D01*
X179255Y79393D02*Y78607D01*
X190000Y2000D02*X220000D01*
Y12000D02*Y2000D01*
X190000Y12000D02*X220000D01*
X190000D02*Y2000D01*
X200000Y12000D02*Y2000D01*
X190000Y12000D02*X200000D01*
X173607Y4245D02*X174393D01*
X173607Y9755D02*X174393D01*
X140745Y13393D02*Y12607D01*
X146255Y13393D02*Y12607D01*
G54D65*X149700Y66500D02*X221000D01*
X149700Y14500D02*X221000D01*
X149700Y66500D02*Y14500D01*
X221000D02*X221020Y66500D01*
G54D63*X21500Y71000D02*X121500D01*
Y91000D02*Y71000D01*
X21500Y91000D02*X121500D01*
X21500D02*Y71000D01*
X31500Y81000D02*Y71000D01*
X21500Y81000D02*X31500D01*
X112107Y94245D02*X112893D01*
X112107Y99755D02*X112893D01*
G54D64*X88607D02*X89393D01*
X88607Y94245D02*X89393D01*
G54D63*X133745Y79393D02*Y78607D01*
X139255Y79393D02*Y78607D01*
X2000Y2000D02*X32000D01*
Y12000D02*Y2000D01*
X2000Y12000D02*X32000D01*
X2000D02*Y2000D01*
X12000Y12000D02*Y2000D01*
X2000Y12000D02*X12000D01*
G54D65*X1000Y14500D02*X72300D01*
X1000Y66500D02*X72300D01*
Y14500D01*
X1000Y66500D02*X980Y14500D01*
G54D63*X112755Y11393D02*Y10607D01*
X107245Y11393D02*Y10607D01*
X100755Y11393D02*Y10607D01*
X95245Y11393D02*Y10607D01*
X78276Y56066D02*X109724D01*
X78276D02*Y24934D01*
X109724D01*
Y56066D02*Y43000D01*
Y38000D02*Y24934D01*
Y43000D02*G75*G03X109724Y38000I0J-2500D01*G01*
G54D64*X120500Y99000D02*X122500D01*
X123000Y98500D01*
Y97500D01*
X122500Y97000D02*X123000Y97500D01*
X121000Y97000D02*X122500D01*
X121000Y99000D02*Y95000D01*
X121800Y97000D02*X123000Y95000D01*
X124200Y98200D02*X125000Y99000D01*
Y95000D01*
X124200D02*X125700D01*
X73850Y99150D02*Y95150D01*
X75150Y99150D02*X75850Y98450D01*
Y95850D01*
X75150Y95150D02*X75850Y95850D01*
X73350Y95150D02*X75150D01*
X73350Y99150D02*X75150D01*
X77050Y98350D02*X77850Y99150D01*
Y95150D01*
X77050D02*X78550D01*
X183700Y9000D02*X184500D01*
Y5500D01*
X184000Y5000D02*X184500Y5500D01*
X183500Y5000D02*X184000D01*
X183000Y5500D02*X183500Y5000D01*
X183000Y6000D02*Y5500D01*
X186200Y5000D02*X187700Y7000D01*
Y8500D02*Y7000D01*
X187200Y9000D02*X187700Y8500D01*
X186200Y9000D02*X187200D01*
X185700Y8500D02*X186200Y9000D01*
X185700Y8500D02*Y7500D01*
X186200Y7000D01*
X187700D01*
X214276Y73000D02*X215076D01*
Y69500D01*
X214576Y69000D02*X215076Y69500D01*
X214076Y69000D02*X214576D01*
X213576Y69500D02*X214076Y69000D01*
X213576Y70000D02*Y69500D01*
X216276Y72500D02*X216776Y73000D01*
X218276D01*
X218776Y72500D01*
Y71500D01*
X216276Y69000D02*X218776Y71500D01*
X216276Y69000D02*X218776D01*
X181000Y78000D02*X183000D01*
X183500Y77500D01*
Y76500D01*
X183000Y76000D02*X183500Y76500D01*
X181500Y76000D02*X183000D01*
X181500Y78000D02*Y74000D01*
X182300Y76000D02*X183500Y74000D01*
X184700Y77500D02*X185200Y78000D01*
X186200D01*
X186700Y77500D01*
X186200Y74000D02*X186700Y74500D01*
X185200Y74000D02*X186200D01*
X184700Y74500D02*X185200Y74000D01*
Y76200D02*X186200D01*
X186700Y77500D02*Y76700D01*
Y75700D02*Y74500D01*
Y75700D02*X186200Y76200D01*
X186700Y76700D02*X186200Y76200D01*
X160807Y9150D02*X162807D01*
X163307Y8650D01*
Y7650D01*
X162807Y7150D02*X163307Y7650D01*
X161307Y7150D02*X162807D01*
X161307Y9150D02*Y5150D01*
X162107Y7150D02*X163307Y5150D01*
X164507Y8650D02*X165007Y9150D01*
X166507D01*
X167007Y8650D01*
Y7650D01*
X164507Y5150D02*X167007Y7650D01*
X164507Y5150D02*X167007D01*
X160500Y78000D02*X162500D01*
X163000Y77500D01*
Y76500D01*
X162500Y76000D02*X163000Y76500D01*
X161000Y76000D02*X162500D01*
X161000Y78000D02*Y74000D01*
X161800Y76000D02*X163000Y74000D01*
X164200Y75500D02*X166200Y78000D01*
X164200Y75500D02*X166700D01*
X166200Y78000D02*Y74000D01*
X134200Y10500D02*X135500D01*
X133500Y11200D02*X134200Y10500D01*
X133500Y13800D02*Y11200D01*
Y13800D02*X134200Y14500D01*
X135500D01*
X136700Y14000D02*X137200Y14500D01*
X138200D01*
X138700Y14000D01*
X138200Y10500D02*X138700Y11000D01*
X137200Y10500D02*X138200D01*
X136700Y11000D02*X137200Y10500D01*
Y12700D02*X138200D01*
X138700Y14000D02*Y13200D01*
Y12200D02*Y11000D01*
Y12200D02*X138200Y12700D01*
X138700Y13200D02*X138200Y12700D01*
X115200Y5500D02*X116500D01*
X114500Y6200D02*X115200Y5500D01*
X114500Y8800D02*Y6200D01*
Y8800D02*X115200Y9500D01*
X116500D01*
X117700Y8700D02*X118500Y9500D01*
Y5500D01*
X117700D02*X119200D01*
X88200Y12500D02*X89500D01*
X87500Y13200D02*X88200Y12500D01*
X87500Y15800D02*Y13200D01*
Y15800D02*X88200Y16500D01*
X89500D01*
X90700Y16000D02*X91200Y16500D01*
X92700D01*
X93200Y16000D01*
Y15000D01*
X90700Y12500D02*X93200Y15000D01*
X90700Y12500D02*X93200D01*
X112000Y53000D02*Y49500D01*
X112500Y49000D01*
X113500D01*
X114000Y49500D01*
Y53000D02*Y49500D01*
X115200Y52200D02*X116000Y53000D01*
Y49000D01*
X115200D02*X116700D01*
X141000Y78000D02*X143000D01*
X143500Y77500D01*
Y76500D01*
X143000Y76000D02*X143500Y76500D01*
X141500Y76000D02*X143000D01*
X141500Y78000D02*Y74000D01*
X142300Y76000D02*X143500Y74000D01*
X144700Y78000D02*X146700D01*
X144700D02*Y76000D01*
X145200Y76500D01*
X146200D01*
X146700Y76000D01*
Y74500D01*
X146200Y74000D02*X146700Y74500D01*
X145200Y74000D02*X146200D01*
X144700Y74500D02*X145200Y74000D01*
X127200Y91500D02*X128000D01*
Y88000D01*
X127500Y87500D02*X128000Y88000D01*
X127000Y87500D02*X127500D01*
X126500Y88000D02*X127000Y87500D01*
X126500Y88500D02*Y88000D01*
X129700Y87500D02*X131700Y91500D01*
X129200D02*X131700D01*
X147200D02*X148000D01*
Y88000D01*
X147500Y87500D02*X148000Y88000D01*
X147000Y87500D02*X147500D01*
X146500Y88000D02*X147000Y87500D01*
X146500Y88500D02*Y88000D01*
X150700Y91500D02*X151200Y91000D01*
X149700Y91500D02*X150700D01*
X149200Y91000D02*X149700Y91500D01*
X149200Y91000D02*Y88000D01*
X149700Y87500D01*
X150700Y89700D02*X151200Y89200D01*
X149200Y89700D02*X150700D01*
X149700Y87500D02*X150700D01*
X151200Y88000D01*
Y89200D02*Y88000D01*
X167700Y91500D02*X168500D01*
Y88000D01*
X168000Y87500D02*X168500Y88000D01*
X167500Y87500D02*X168000D01*
X167000Y88000D02*X167500Y87500D01*
X167000Y88500D02*Y88000D01*
X169700Y91500D02*X171700D01*
X169700D02*Y89500D01*
X170200Y90000D01*
X171200D01*
X171700Y89500D01*
Y88000D01*
X171200Y87500D02*X171700Y88000D01*
X170200Y87500D02*X171200D01*
X169700Y88000D02*X170200Y87500D01*
X13700Y83500D02*X14500D01*
Y80000D01*
X14000Y79500D02*X14500Y80000D01*
X13500Y79500D02*X14000D01*
X13000Y80000D02*X13500Y79500D01*
X13000Y80500D02*Y80000D01*
X15700Y81000D02*X17700Y83500D01*
X15700Y81000D02*X18200D01*
X17700Y83500D02*Y79500D01*
X3700Y73000D02*X4500D01*
Y69500D01*
X4000Y69000D02*X4500Y69500D01*
X3500Y69000D02*X4000D01*
X3000Y69500D02*X3500Y69000D01*
X3000Y70000D02*Y69500D01*
X5700Y72200D02*X6500Y73000D01*
Y69000D01*
X5700D02*X7200D01*
X35200Y9000D02*X36000D01*
Y5500D01*
X35500Y5000D02*X36000Y5500D01*
X35000Y5000D02*X35500D01*
X34500Y5500D02*X35000Y5000D01*
X34500Y6000D02*Y5500D01*
X37200D02*X37700Y5000D01*
X37200Y6300D02*Y5500D01*
Y6300D02*X37900Y7000D01*
X38500D01*
X39200Y6300D01*
Y5500D01*
X38700Y5000D02*X39200Y5500D01*
X37700Y5000D02*X38700D01*
X37200Y7700D02*X37900Y7000D01*
X37200Y8500D02*Y7700D01*
Y8500D02*X37700Y9000D01*
X38700D01*
X39200Y8500D01*
Y7700D01*
X38500Y7000D02*X39200Y7700D01*
M02*
