G04 start of page 12 for group -3984 idx -3984 *
G04 Title: (unknown), fab *
G04 Creator: pcb 20140316 *
G04 CreationDate: Thu 29 Nov 2018 10:04:31 PM GMT UTC *
G04 For: railfan *
G04 Format: Gerber/RS-274X *
G04 PCB-Dimensions (mil): 2220.00 1040.00 *
G04 PCB-Coordinate-Origin: lower left *
%MOIN*%
%FSLAX25Y25*%
%LNFAB*%
%ADD74C,0.0100*%
%ADD73C,0.0075*%
%ADD72C,0.0060*%
%ADD71R,0.0080X0.0080*%
G54D71*X204400Y89600D02*X207600D01*
X204400D02*Y86400D01*
X207600D01*
Y89600D02*Y86400D01*
X13400Y116850D02*X16600D01*
X13400D02*Y113650D01*
X16600D01*
Y116850D02*Y113650D01*
G54D72*X135000Y117500D02*X136500Y114500D01*
X138000Y117500D01*
X136500Y114500D02*Y111500D01*
X139800Y114800D02*X142050D01*
X139800Y111500D02*X142800D01*
X139800Y117500D02*Y111500D01*
Y117500D02*X142800D01*
X147600D02*X148350Y116750D01*
X145350Y117500D02*X147600D01*
X144600Y116750D02*X145350Y117500D01*
X144600Y116750D02*Y115250D01*
X145350Y114500D01*
X147600D01*
X148350Y113750D01*
Y112250D01*
X147600Y111500D02*X148350Y112250D01*
X145350Y111500D02*X147600D01*
X144600Y112250D02*X145350Y111500D01*
X98000Y116300D02*X99200Y117500D01*
Y111500D01*
X98000D02*X100250D01*
X45000Y112250D02*X45750Y111500D01*
X45000Y116750D02*Y112250D01*
Y116750D02*X45750Y117500D01*
X47250D01*
X48000Y116750D01*
Y112250D01*
X47250Y111500D02*X48000Y112250D01*
X45750Y111500D02*X47250D01*
X45000Y113000D02*X48000Y116000D01*
X49800Y111500D02*X50550D01*
X52350Y116300D02*X53550Y117500D01*
Y111500D01*
X52350D02*X54600D01*
X56400Y116750D02*X57150Y117500D01*
X59400D01*
X60150Y116750D01*
Y115250D01*
X56400Y111500D02*X60150Y115250D01*
X56400Y111500D02*X60150D01*
X62700D02*X64950Y114500D01*
Y116750D02*Y114500D01*
X64200Y117500D02*X64950Y116750D01*
X62700Y117500D02*X64200D01*
X61950Y116750D02*X62700Y117500D01*
X61950Y116750D02*Y115250D01*
X62700Y114500D01*
X64950D01*
X31200Y60500D02*G75*G03X32800Y60500I800J0D01*G01*
G75*G03X31200Y60500I-800J0D01*G01*
Y20500D02*G75*G03X32800Y20500I800J0D01*G01*
G75*G03X31200Y20500I-800J0D01*G01*
X189200D02*G75*G03X190800Y20500I800J0D01*G01*
G75*G03X189200Y20500I-800J0D01*G01*
Y60500D02*G75*G03X190800Y60500I800J0D01*G01*
G75*G03X189200Y60500I-800J0D01*G01*
X14200Y130250D02*G75*G03X15800Y130250I800J0D01*G01*
G75*G03X14200Y130250I-800J0D01*G01*
X135000Y132500D02*X136500Y129500D01*
X138000Y132500D01*
X136500Y129500D02*Y126500D01*
X139800Y129800D02*X142050D01*
X139800Y126500D02*X142800D01*
X139800Y132500D02*Y126500D01*
Y132500D02*X142800D01*
X147600D02*X148350Y131750D01*
X145350Y132500D02*X147600D01*
X144600Y131750D02*X145350Y132500D01*
X144600Y131750D02*Y130250D01*
X145350Y129500D01*
X147600D01*
X148350Y128750D01*
Y127250D01*
X147600Y126500D02*X148350Y127250D01*
X145350Y126500D02*X147600D01*
X144600Y127250D02*X145350Y126500D01*
X98000Y128750D02*X101000Y132500D01*
X98000Y128750D02*X101750D01*
X101000Y132500D02*Y126500D01*
X45000Y127250D02*X45750Y126500D01*
X45000Y131750D02*Y127250D01*
Y131750D02*X45750Y132500D01*
X47250D01*
X48000Y131750D01*
Y127250D01*
X47250Y126500D02*X48000Y127250D01*
X45750Y126500D02*X47250D01*
X45000Y128000D02*X48000Y131000D01*
X49800Y126500D02*X50550D01*
X52350Y131300D02*X53550Y132500D01*
Y126500D01*
X52350D02*X54600D01*
X56400Y131750D02*X57150Y132500D01*
X59400D01*
X60150Y131750D01*
Y130250D01*
X56400Y126500D02*X60150Y130250D01*
X56400Y126500D02*X60150D01*
X61950Y127250D02*X62700Y126500D01*
X61950Y128450D02*Y127250D01*
Y128450D02*X63000Y129500D01*
X63900D01*
X64950Y128450D01*
Y127250D01*
X64200Y126500D02*X64950Y127250D01*
X62700Y126500D02*X64200D01*
X61950Y130550D02*X63000Y129500D01*
X61950Y131750D02*Y130550D01*
Y131750D02*X62700Y132500D01*
X64200D01*
X64950Y131750D01*
Y130550D01*
X63900Y129500D02*X64950Y130550D01*
X25300Y77200D02*X27700Y74800D01*
X25300D02*X27700Y77200D01*
X35300D02*X37700Y74800D01*
X35300D02*X37700Y77200D01*
X45300D02*X47700Y74800D01*
X45300D02*X47700Y77200D01*
X55300D02*X57700Y74800D01*
X55300D02*X57700Y77200D01*
X65300D02*X67700Y74800D01*
X65300D02*X67700Y77200D01*
X75300D02*X77700Y74800D01*
X75300D02*X77700Y77200D01*
X85300D02*X87700Y74800D01*
X85300D02*X87700Y77200D01*
X95300D02*X97700Y74800D01*
X95300D02*X97700Y77200D01*
X105300D02*X107700Y74800D01*
X105300D02*X107700Y77200D01*
X115300D02*X117700Y74800D01*
X115300D02*X117700Y77200D01*
X25300Y87200D02*X27700Y84800D01*
X25300D02*X27700Y87200D01*
X35300D02*X37700Y84800D01*
X35300D02*X37700Y87200D01*
X45300D02*X47700Y84800D01*
X45300D02*X47700Y87200D01*
X55300D02*X57700Y84800D01*
X55300D02*X57700Y87200D01*
X65300D02*X67700Y84800D01*
X65300D02*X67700Y87200D01*
X75300D02*X77700Y84800D01*
X75300D02*X77700Y87200D01*
X85300D02*X87700Y84800D01*
X85300D02*X87700Y87200D01*
X95300D02*X97700Y84800D01*
X95300D02*X97700Y87200D01*
X105300D02*X107700Y84800D01*
X105300D02*X107700Y87200D01*
X115300D02*X117700Y84800D01*
X115300D02*X117700Y87200D01*
X193800Y8200D02*X196200Y5800D01*
X193800D02*X196200Y8200D01*
X203800D02*X206200Y5800D01*
X203800D02*X206200Y8200D01*
X213800D02*X216200Y5800D01*
X213800D02*X216200Y8200D01*
X5800D02*X8200Y5800D01*
X5800D02*X8200Y8200D01*
X15800D02*X18200Y5800D01*
X15800D02*X18200Y8200D01*
X25800D02*X28200Y5800D01*
X25800D02*X28200Y8200D01*
X13800Y146450D02*X16200Y144050D01*
X13800D02*X16200Y146450D01*
X135000Y147500D02*X136500Y144500D01*
X138000Y147500D01*
X136500Y144500D02*Y141500D01*
X139800Y144800D02*X142050D01*
X139800Y141500D02*X142800D01*
X139800Y147500D02*Y141500D01*
Y147500D02*X142800D01*
X147600D02*X148350Y146750D01*
X145350Y147500D02*X147600D01*
X144600Y146750D02*X145350Y147500D01*
X144600Y146750D02*Y145250D01*
X145350Y144500D01*
X147600D01*
X148350Y143750D01*
Y142250D01*
X147600Y141500D02*X148350Y142250D01*
X145350Y141500D02*X147600D01*
X144600Y142250D02*X145350Y141500D01*
X98000Y146750D02*X98750Y147500D01*
X101000D01*
X101750Y146750D01*
Y145250D01*
X98000Y141500D02*X101750Y145250D01*
X98000Y141500D02*X101750D01*
X105800Y147500D02*X106550Y146750D01*
X104300Y147500D02*X105800D01*
X103550Y146750D02*X104300Y147500D01*
X103550Y146750D02*Y142250D01*
X104300Y141500D01*
X105800Y144800D02*X106550Y144050D01*
X103550Y144800D02*X105800D01*
X104300Y141500D02*X105800D01*
X106550Y142250D01*
Y144050D02*Y142250D01*
X45000D02*X45750Y141500D01*
X45000Y146750D02*Y142250D01*
Y146750D02*X45750Y147500D01*
X47250D01*
X48000Y146750D01*
Y142250D01*
X47250Y141500D02*X48000Y142250D01*
X45750Y141500D02*X47250D01*
X45000Y143000D02*X48000Y146000D01*
X49800Y141500D02*X50550D01*
X52350Y142250D02*X53100Y141500D01*
X52350Y146750D02*Y142250D01*
Y146750D02*X53100Y147500D01*
X54600D01*
X55350Y146750D01*
Y142250D01*
X54600Y141500D02*X55350Y142250D01*
X53100Y141500D02*X54600D01*
X52350Y143000D02*X55350Y146000D01*
X57150Y146750D02*X57900Y147500D01*
X59400D01*
X60150Y146750D01*
X59400Y141500D02*X60150Y142250D01*
X57900Y141500D02*X59400D01*
X57150Y142250D02*X57900Y141500D01*
Y144800D02*X59400D01*
X60150Y146750D02*Y145550D01*
Y144050D02*Y142250D01*
Y144050D02*X59400Y144800D01*
X60150Y145550D02*X59400Y144800D01*
X61950Y142250D02*X62700Y141500D01*
X61950Y143450D02*Y142250D01*
Y143450D02*X63000Y144500D01*
X63900D01*
X64950Y143450D01*
Y142250D01*
X64200Y141500D02*X64950Y142250D01*
X62700Y141500D02*X64200D01*
X61950Y145550D02*X63000Y144500D01*
X61950Y146750D02*Y145550D01*
Y146750D02*X62700Y147500D01*
X64200D01*
X64950Y146750D01*
Y145550D01*
X63900Y144500D02*X64950Y145550D01*
X67000Y54600D02*Y51400D01*
X65400Y53000D02*X68600D01*
X57000Y49600D02*Y46400D01*
X55400Y48000D02*X58600D01*
X67000Y44600D02*Y41400D01*
X65400Y43000D02*X68600D01*
X57000Y39600D02*Y36400D01*
X55400Y38000D02*X58600D01*
X67000Y34600D02*Y31400D01*
X65400Y33000D02*X68600D01*
X57000Y29600D02*Y26400D01*
X55400Y28000D02*X58600D01*
X155000Y29600D02*Y26400D01*
X153400Y28000D02*X156600D01*
X165000Y34600D02*Y31400D01*
X163400Y33000D02*X166600D01*
X155000Y39600D02*Y36400D01*
X153400Y38000D02*X156600D01*
X165000Y44600D02*Y41400D01*
X163400Y43000D02*X166600D01*
X155000Y49600D02*Y46400D01*
X153400Y48000D02*X156600D01*
X165000Y54600D02*Y51400D01*
X163400Y53000D02*X166600D01*
X15000Y161850D02*Y158650D01*
X13400Y160250D02*X16600D01*
X135000Y162500D02*X136500Y159500D01*
X138000Y162500D01*
X136500Y159500D02*Y156500D01*
X139800Y159800D02*X142050D01*
X139800Y156500D02*X142800D01*
X139800Y162500D02*Y156500D01*
Y162500D02*X142800D01*
X147600D02*X148350Y161750D01*
X145350Y162500D02*X147600D01*
X144600Y161750D02*X145350Y162500D01*
X144600Y161750D02*Y160250D01*
X145350Y159500D01*
X147600D01*
X148350Y158750D01*
Y157250D01*
X147600Y156500D02*X148350Y157250D01*
X145350Y156500D02*X147600D01*
X144600Y157250D02*X145350Y156500D01*
X98000Y161300D02*X99200Y162500D01*
Y156500D01*
X98000D02*X100250D01*
X102050Y161750D02*X102800Y162500D01*
X105050D01*
X105800Y161750D01*
Y160250D01*
X102050Y156500D02*X105800Y160250D01*
X102050Y156500D02*X105800D01*
X45000Y157250D02*X45750Y156500D01*
X45000Y161750D02*Y157250D01*
Y161750D02*X45750Y162500D01*
X47250D01*
X48000Y161750D01*
Y157250D01*
X47250Y156500D02*X48000Y157250D01*
X45750Y156500D02*X47250D01*
X45000Y158000D02*X48000Y161000D01*
X49800Y156500D02*X50550D01*
X52350Y157250D02*X53100Y156500D01*
X52350Y161750D02*Y157250D01*
Y161750D02*X53100Y162500D01*
X54600D01*
X55350Y161750D01*
Y157250D01*
X54600Y156500D02*X55350Y157250D01*
X53100Y156500D02*X54600D01*
X52350Y158000D02*X55350Y161000D01*
X57150Y161750D02*X57900Y162500D01*
X59400D01*
X60150Y161750D01*
X59400Y156500D02*X60150Y157250D01*
X57900Y156500D02*X59400D01*
X57150Y157250D02*X57900Y156500D01*
Y159800D02*X59400D01*
X60150Y161750D02*Y160550D01*
Y159050D02*Y157250D01*
Y159050D02*X59400Y159800D01*
X60150Y160550D02*X59400Y159800D01*
X61950Y157250D02*X62700Y156500D01*
X61950Y161750D02*Y157250D01*
Y161750D02*X62700Y162500D01*
X64200D01*
X64950Y161750D01*
Y157250D01*
X64200Y156500D02*X64950Y157250D01*
X62700Y156500D02*X64200D01*
X61950Y158000D02*X64950Y161000D01*
X105500Y35500D02*Y33900D01*
Y35500D02*X106887Y36300D01*
X105500Y35500D02*X104113Y36300D01*
X152500Y9500D02*Y7900D01*
Y9500D02*X153887Y10300D01*
X152500Y9500D02*X151113Y10300D01*
X56500Y66500D02*Y64900D01*
Y66500D02*X57887Y67300D01*
X56500Y66500D02*X55113Y67300D01*
X100500Y35500D02*Y33900D01*
Y35500D02*X101887Y36300D01*
X100500Y35500D02*X99113Y36300D01*
X99500Y41500D02*Y39900D01*
Y41500D02*X100887Y42300D01*
X99500Y41500D02*X98113Y42300D01*
X93000Y40500D02*Y38900D01*
Y40500D02*X94387Y41300D01*
X93000Y40500D02*X91613Y41300D01*
X93000Y45500D02*Y43900D01*
Y45500D02*X94387Y46300D01*
X93000Y45500D02*X91613Y46300D01*
X79000Y59500D02*Y57900D01*
Y59500D02*X80387Y60300D01*
X79000Y59500D02*X77613Y60300D01*
X104000Y17500D02*Y15900D01*
Y17500D02*X105387Y18300D01*
X104000Y17500D02*X102613Y18300D01*
X145000Y60500D02*Y58900D01*
Y60500D02*X146387Y61300D01*
X145000Y60500D02*X143613Y61300D01*
X146000Y46000D02*Y44400D01*
Y46000D02*X147387Y46800D01*
X146000Y46000D02*X144613Y46800D01*
X146000Y50500D02*Y48900D01*
Y50500D02*X147387Y51300D01*
X146000Y50500D02*X144613Y51300D01*
X50500Y10000D02*Y8400D01*
Y10000D02*X51887Y10800D01*
X50500Y10000D02*X49113Y10800D01*
X49000Y5500D02*Y3900D01*
Y5500D02*X50387Y6300D01*
X49000Y5500D02*X47613Y6300D01*
X175500Y31500D02*Y29900D01*
Y31500D02*X176887Y32300D01*
X175500Y31500D02*X174113Y32300D01*
X180000Y36500D02*Y34900D01*
Y36500D02*X181387Y37300D01*
X180000Y36500D02*X178613Y37300D01*
X158500Y9500D02*Y7900D01*
Y9500D02*X159887Y10300D01*
X158500Y9500D02*X157113Y10300D01*
X80000Y97000D02*Y95400D01*
Y97000D02*X81387Y97800D01*
X80000Y97000D02*X78613Y97800D01*
X148500Y62500D02*Y60900D01*
Y62500D02*X149887Y63300D01*
X148500Y62500D02*X147113Y63300D01*
X145000Y64500D02*Y62900D01*
Y64500D02*X146387Y65300D01*
X145000Y64500D02*X143613Y65300D01*
X148500Y66500D02*Y64900D01*
Y66500D02*X149887Y67300D01*
X148500Y66500D02*X147113Y67300D01*
X122000Y58500D02*Y56900D01*
Y58500D02*X123387Y59300D01*
X122000Y58500D02*X120613Y59300D01*
X117500Y38000D02*Y36400D01*
Y38000D02*X118887Y38800D01*
X117500Y38000D02*X116113Y38800D01*
X123000Y54000D02*Y52400D01*
Y54000D02*X124387Y54800D01*
X123000Y54000D02*X121613Y54800D01*
X130500Y75500D02*Y73900D01*
Y75500D02*X131887Y76300D01*
X130500Y75500D02*X129113Y76300D01*
X150000Y75500D02*Y73900D01*
Y75500D02*X151387Y76300D01*
X150000Y75500D02*X148613Y76300D01*
X170500Y75500D02*Y73900D01*
Y75500D02*X171887Y76300D01*
X170500Y75500D02*X169113Y76300D01*
X15000Y175250D02*Y173650D01*
Y175250D02*X16387Y176050D01*
X15000Y175250D02*X13613Y176050D01*
X135000Y177500D02*X136500Y174500D01*
X138000Y177500D01*
X136500Y174500D02*Y171500D01*
X139800Y174800D02*X142050D01*
X139800Y171500D02*X142800D01*
X139800Y177500D02*Y171500D01*
Y177500D02*X142800D01*
X147600D02*X148350Y176750D01*
X145350Y177500D02*X147600D01*
X144600Y176750D02*X145350Y177500D01*
X144600Y176750D02*Y175250D01*
X145350Y174500D01*
X147600D01*
X148350Y173750D01*
Y172250D01*
X147600Y171500D02*X148350Y172250D01*
X145350Y171500D02*X147600D01*
X144600Y172250D02*X145350Y171500D01*
X98000Y176750D02*X98750Y177500D01*
X101000D01*
X101750Y176750D01*
Y175250D01*
X98000Y171500D02*X101750Y175250D01*
X98000Y171500D02*X101750D01*
X104300D02*X107300Y177500D01*
X103550D02*X107300D01*
X45000Y172250D02*X45750Y171500D01*
X45000Y176750D02*Y172250D01*
Y176750D02*X45750Y177500D01*
X47250D01*
X48000Y176750D01*
Y172250D01*
X47250Y171500D02*X48000Y172250D01*
X45750Y171500D02*X47250D01*
X45000Y173000D02*X48000Y176000D01*
X49800Y171500D02*X50550D01*
X52350Y172250D02*X53100Y171500D01*
X52350Y176750D02*Y172250D01*
Y176750D02*X53100Y177500D01*
X54600D01*
X55350Y176750D01*
Y172250D01*
X54600Y171500D02*X55350Y172250D01*
X53100Y171500D02*X54600D01*
X52350Y173000D02*X55350Y176000D01*
X57150Y176750D02*X57900Y177500D01*
X60150D01*
X60900Y176750D01*
Y175250D01*
X57150Y171500D02*X60900Y175250D01*
X57150Y171500D02*X60900D01*
X62700Y172250D02*X63450Y171500D01*
X62700Y176750D02*Y172250D01*
Y176750D02*X63450Y177500D01*
X64950D01*
X65700Y176750D01*
Y172250D01*
X64950Y171500D02*X65700Y172250D01*
X63450Y171500D02*X64950D01*
X62700Y173000D02*X65700Y176000D01*
X3000Y192500D02*X3750Y191750D01*
X750Y192500D02*X3000D01*
X0Y191750D02*X750Y192500D01*
X0Y191750D02*Y190250D01*
X750Y189500D01*
X3000D01*
X3750Y188750D01*
Y187250D01*
X3000Y186500D02*X3750Y187250D01*
X750Y186500D02*X3000D01*
X0Y187250D02*X750Y186500D01*
X5550Y189500D02*Y187250D01*
X6300Y186500D01*
X8550Y189500D02*Y185000D01*
X7800Y184250D02*X8550Y185000D01*
X6300Y184250D02*X7800D01*
X5550Y185000D02*X6300Y184250D01*
Y186500D02*X7800D01*
X8550Y187250D01*
X11100Y188750D02*Y186500D01*
Y188750D02*X11850Y189500D01*
X12600D01*
X13350Y188750D01*
Y186500D01*
Y188750D02*X14100Y189500D01*
X14850D01*
X15600Y188750D01*
Y186500D01*
X10350Y189500D02*X11100Y188750D01*
X17400Y192500D02*Y186500D01*
Y187250D02*X18150Y186500D01*
X19650D01*
X20400Y187250D01*
Y188750D02*Y187250D01*
X19650Y189500D02*X20400Y188750D01*
X18150Y189500D02*X19650D01*
X17400Y188750D02*X18150Y189500D01*
X22200Y188750D02*Y187250D01*
Y188750D02*X22950Y189500D01*
X24450D01*
X25200Y188750D01*
Y187250D01*
X24450Y186500D02*X25200Y187250D01*
X22950Y186500D02*X24450D01*
X22200Y187250D02*X22950Y186500D01*
X27000Y192500D02*Y187250D01*
X27750Y186500D01*
X0Y183250D02*X29250D01*
X41750Y192500D02*Y186500D01*
X43700Y192500D02*X44750Y191450D01*
Y187550D01*
X43700Y186500D02*X44750Y187550D01*
X41000Y186500D02*X43700D01*
X41000Y192500D02*X43700D01*
G54D73*X46550Y191000D02*Y190850D01*
G54D72*Y188750D02*Y186500D01*
X50300Y189500D02*X51050Y188750D01*
X48800Y189500D02*X50300D01*
X48050Y188750D02*X48800Y189500D01*
X48050Y188750D02*Y187250D01*
X48800Y186500D01*
X51050Y189500D02*Y187250D01*
X51800Y186500D01*
X48800D02*X50300D01*
X51050Y187250D01*
X54350Y188750D02*Y186500D01*
Y188750D02*X55100Y189500D01*
X55850D01*
X56600Y188750D01*
Y186500D01*
Y188750D02*X57350Y189500D01*
X58100D01*
X58850Y188750D01*
Y186500D01*
X53600Y189500D02*X54350Y188750D01*
X60650Y186500D02*X61400D01*
X65900Y187250D02*X66650Y186500D01*
X65900Y191750D02*X66650Y192500D01*
X65900Y191750D02*Y187250D01*
X68450Y192500D02*X69950D01*
X69200D02*Y186500D01*
X68450D02*X69950D01*
X72500Y188750D02*Y186500D01*
Y188750D02*X73250Y189500D01*
X74000D01*
X74750Y188750D01*
Y186500D01*
X71750Y189500D02*X72500Y188750D01*
X77300Y189500D02*X79550D01*
X76550Y188750D02*X77300Y189500D01*
X76550Y188750D02*Y187250D01*
X77300Y186500D01*
X79550D01*
X81350Y192500D02*Y186500D01*
Y188750D02*X82100Y189500D01*
X83600D01*
X84350Y188750D01*
Y186500D01*
X86150Y192500D02*X86900Y191750D01*
Y187250D01*
X86150Y186500D02*X86900Y187250D01*
X41000Y183250D02*X88700D01*
X96050Y186500D02*X98000D01*
X95000Y187550D02*X96050Y186500D01*
X95000Y191450D02*Y187550D01*
Y191450D02*X96050Y192500D01*
X98000D01*
X99800Y188750D02*Y187250D01*
Y188750D02*X100550Y189500D01*
X102050D01*
X102800Y188750D01*
Y187250D01*
X102050Y186500D02*X102800Y187250D01*
X100550Y186500D02*X102050D01*
X99800Y187250D02*X100550Y186500D01*
X104600Y189500D02*Y187250D01*
X105350Y186500D01*
X106850D01*
X107600Y187250D01*
Y189500D02*Y187250D01*
X110150Y188750D02*Y186500D01*
Y188750D02*X110900Y189500D01*
X111650D01*
X112400Y188750D01*
Y186500D01*
X109400Y189500D02*X110150Y188750D01*
X114950Y192500D02*Y187250D01*
X115700Y186500D01*
X114200Y190250D02*X115700D01*
X95000Y183250D02*X117200D01*
X130750Y192500D02*Y186500D01*
X130000Y192500D02*X133000D01*
X133750Y191750D01*
Y190250D01*
X133000Y189500D02*X133750Y190250D01*
X130750Y189500D02*X133000D01*
X135550Y192500D02*Y187250D01*
X136300Y186500D01*
X140050Y189500D02*X140800Y188750D01*
X138550Y189500D02*X140050D01*
X137800Y188750D02*X138550Y189500D01*
X137800Y188750D02*Y187250D01*
X138550Y186500D01*
X140800Y189500D02*Y187250D01*
X141550Y186500D01*
X138550D02*X140050D01*
X140800Y187250D01*
X144100Y192500D02*Y187250D01*
X144850Y186500D01*
X143350Y190250D02*X144850D01*
X147100Y186500D02*X149350D01*
X146350Y187250D02*X147100Y186500D01*
X146350Y188750D02*Y187250D01*
Y188750D02*X147100Y189500D01*
X148600D01*
X149350Y188750D01*
X146350Y188000D02*X149350D01*
Y188750D02*Y188000D01*
X154150Y192500D02*Y186500D01*
X153400D02*X154150Y187250D01*
X151900Y186500D02*X153400D01*
X151150Y187250D02*X151900Y186500D01*
X151150Y188750D02*Y187250D01*
Y188750D02*X151900Y189500D01*
X153400D01*
X154150Y188750D01*
X157450Y189500D02*Y188750D01*
Y187250D02*Y186500D01*
X155950Y191750D02*Y191000D01*
Y191750D02*X156700Y192500D01*
X158200D01*
X158950Y191750D01*
Y191000D01*
X157450Y189500D02*X158950Y191000D01*
X130000Y183250D02*X160750D01*
X0Y207500D02*X3000D01*
X1500D02*Y201500D01*
X4800Y207500D02*Y201500D01*
Y203750D02*X5550Y204500D01*
X7050D01*
X7800Y203750D01*
Y201500D01*
X10350D02*X12600D01*
X9600Y202250D02*X10350Y201500D01*
X9600Y203750D02*Y202250D01*
Y203750D02*X10350Y204500D01*
X11850D01*
X12600Y203750D01*
X9600Y203000D02*X12600D01*
Y203750D02*Y203000D01*
X15150Y203750D02*Y201500D01*
Y203750D02*X15900Y204500D01*
X17400D01*
X14400D02*X15150Y203750D01*
X19950Y201500D02*X22200D01*
X19200Y202250D02*X19950Y201500D01*
X19200Y203750D02*Y202250D01*
Y203750D02*X19950Y204500D01*
X21450D01*
X22200Y203750D01*
X19200Y203000D02*X22200D01*
Y203750D02*Y203000D01*
X28950Y204500D02*X29700Y203750D01*
X27450Y204500D02*X28950D01*
X26700Y203750D02*X27450Y204500D01*
X26700Y203750D02*Y202250D01*
X27450Y201500D01*
X29700Y204500D02*Y202250D01*
X30450Y201500D01*
X27450D02*X28950D01*
X29700Y202250D01*
X33000Y203750D02*Y201500D01*
Y203750D02*X33750Y204500D01*
X35250D01*
X32250D02*X33000Y203750D01*
X37800Y201500D02*X40050D01*
X37050Y202250D02*X37800Y201500D01*
X37050Y203750D02*Y202250D01*
Y203750D02*X37800Y204500D01*
X39300D01*
X40050Y203750D01*
X37050Y203000D02*X40050D01*
Y203750D02*Y203000D01*
X44550Y207500D02*X47550D01*
X44550D02*Y204500D01*
X45300Y205250D01*
X46800D01*
X47550Y204500D01*
Y202250D01*
X46800Y201500D02*X47550Y202250D01*
X45300Y201500D02*X46800D01*
X44550Y202250D02*X45300Y201500D01*
X55050Y207500D02*Y201500D01*
X54300D02*X55050Y202250D01*
X52800Y201500D02*X54300D01*
X52050Y202250D02*X52800Y201500D01*
X52050Y203750D02*Y202250D01*
Y203750D02*X52800Y204500D01*
X54300D01*
X55050Y203750D01*
G54D73*X56850Y206000D02*Y205850D01*
G54D72*Y203750D02*Y201500D01*
X59100Y206750D02*Y201500D01*
Y206750D02*X59850Y207500D01*
X60600D01*
X58350Y204500D02*X59850D01*
X62850Y206750D02*Y201500D01*
Y206750D02*X63600Y207500D01*
X64350D01*
X62100Y204500D02*X63600D01*
X66600Y201500D02*X68850D01*
X65850Y202250D02*X66600Y201500D01*
X65850Y203750D02*Y202250D01*
Y203750D02*X66600Y204500D01*
X68100D01*
X68850Y203750D01*
X65850Y203000D02*X68850D01*
Y203750D02*Y203000D01*
X71400Y203750D02*Y201500D01*
Y203750D02*X72150Y204500D01*
X73650D01*
X70650D02*X71400Y203750D01*
X76200Y201500D02*X78450D01*
X75450Y202250D02*X76200Y201500D01*
X75450Y203750D02*Y202250D01*
Y203750D02*X76200Y204500D01*
X77700D01*
X78450Y203750D01*
X75450Y203000D02*X78450D01*
Y203750D02*Y203000D01*
X81000Y203750D02*Y201500D01*
Y203750D02*X81750Y204500D01*
X82500D01*
X83250Y203750D01*
Y201500D01*
X80250Y204500D02*X81000Y203750D01*
X85800Y207500D02*Y202250D01*
X86550Y201500D01*
X85050Y205250D02*X86550D01*
X93750Y207500D02*Y201500D01*
X93000D02*X93750Y202250D01*
X91500Y201500D02*X93000D01*
X90750Y202250D02*X91500Y201500D01*
X90750Y203750D02*Y202250D01*
Y203750D02*X91500Y204500D01*
X93000D01*
X93750Y203750D01*
X96300D02*Y201500D01*
Y203750D02*X97050Y204500D01*
X98550D01*
X95550D02*X96300Y203750D01*
G54D73*X100350Y206000D02*Y205850D01*
G54D72*Y203750D02*Y201500D01*
X101850Y207500D02*Y202250D01*
X102600Y201500D01*
X104100Y207500D02*Y202250D01*
X104850Y201500D01*
X109800D02*X112050D01*
X112800Y202250D01*
X112050Y203000D02*X112800Y202250D01*
X109800Y203000D02*X112050D01*
X109050Y203750D02*X109800Y203000D01*
X109050Y203750D02*X109800Y204500D01*
X112050D01*
X112800Y203750D01*
X109050Y202250D02*X109800Y201500D01*
G54D73*X114600Y206000D02*Y205850D01*
G54D72*Y203750D02*Y201500D01*
X116100Y204500D02*X119100D01*
X116100Y201500D02*X119100Y204500D01*
X116100Y201500D02*X119100D01*
X121650D02*X123900D01*
X120900Y202250D02*X121650Y201500D01*
X120900Y203750D02*Y202250D01*
Y203750D02*X121650Y204500D01*
X123150D01*
X123900Y203750D01*
X120900Y203000D02*X123900D01*
Y203750D02*Y203000D01*
X126450Y201500D02*X128700D01*
X129450Y202250D01*
X128700Y203000D02*X129450Y202250D01*
X126450Y203000D02*X128700D01*
X125700Y203750D02*X126450Y203000D01*
X125700Y203750D02*X126450Y204500D01*
X128700D01*
X129450Y203750D01*
X125700Y202250D02*X126450Y201500D01*
X133950Y204500D02*Y202250D01*
X134700Y201500D01*
X136200D01*
X136950Y202250D01*
Y204500D02*Y202250D01*
X139500Y201500D02*X141750D01*
X142500Y202250D01*
X141750Y203000D02*X142500Y202250D01*
X139500Y203000D02*X141750D01*
X138750Y203750D02*X139500Y203000D01*
X138750Y203750D02*X139500Y204500D01*
X141750D01*
X142500Y203750D01*
X138750Y202250D02*X139500Y201500D01*
X145050D02*X147300D01*
X144300Y202250D02*X145050Y201500D01*
X144300Y203750D02*Y202250D01*
Y203750D02*X145050Y204500D01*
X146550D01*
X147300Y203750D01*
X144300Y203000D02*X147300D01*
Y203750D02*Y203000D01*
X152100Y207500D02*Y201500D01*
X151350D02*X152100Y202250D01*
X149850Y201500D02*X151350D01*
X149100Y202250D02*X149850Y201500D01*
X149100Y203750D02*Y202250D01*
Y203750D02*X149850Y204500D01*
X151350D01*
X152100Y203750D01*
G54D73*X156600Y206000D02*Y205850D01*
G54D72*Y203750D02*Y201500D01*
X158850Y203750D02*Y201500D01*
Y203750D02*X159600Y204500D01*
X160350D01*
X161100Y203750D01*
Y201500D01*
X158100Y204500D02*X158850Y203750D01*
X166350Y207500D02*Y202250D01*
X167100Y201500D01*
X165600Y205250D02*X167100D01*
X168600Y207500D02*Y201500D01*
Y203750D02*X169350Y204500D01*
X170850D01*
X171600Y203750D01*
Y201500D01*
G54D73*X173400Y206000D02*Y205850D01*
G54D72*Y203750D02*Y201500D01*
X175650D02*X177900D01*
X178650Y202250D01*
X177900Y203000D02*X178650Y202250D01*
X175650Y203000D02*X177900D01*
X174900Y203750D02*X175650Y203000D01*
X174900Y203750D02*X175650Y204500D01*
X177900D01*
X178650Y203750D01*
X174900Y202250D02*X175650Y201500D01*
X183150Y207500D02*Y202250D01*
X183900Y201500D01*
X187650Y204500D02*X188400Y203750D01*
X186150Y204500D02*X187650D01*
X185400Y203750D02*X186150Y204500D01*
X185400Y203750D02*Y202250D01*
X186150Y201500D01*
X188400Y204500D02*Y202250D01*
X189150Y201500D01*
X186150D02*X187650D01*
X188400Y202250D01*
X190950Y204500D02*Y202250D01*
X191700Y201500D01*
X193950Y204500D02*Y200000D01*
X193200Y199250D02*X193950Y200000D01*
X191700Y199250D02*X193200D01*
X190950Y200000D02*X191700Y199250D01*
Y201500D02*X193200D01*
X193950Y202250D01*
X195750Y203750D02*Y202250D01*
Y203750D02*X196500Y204500D01*
X198000D01*
X198750Y203750D01*
Y202250D01*
X198000Y201500D02*X198750Y202250D01*
X196500Y201500D02*X198000D01*
X195750Y202250D02*X196500Y201500D01*
X200550Y204500D02*Y202250D01*
X201300Y201500D01*
X202800D01*
X203550Y202250D01*
Y204500D02*Y202250D01*
X206100Y207500D02*Y202250D01*
X206850Y201500D01*
X205350Y205250D02*X206850D01*
X208350Y200000D02*X209850Y201500D01*
X215100D02*X218100Y207500D01*
X214350D02*X218100D01*
X219900Y202250D02*X220650Y201500D01*
X219900Y206750D02*Y202250D01*
Y206750D02*X220650Y207500D01*
X222150D01*
X222900Y206750D01*
Y202250D01*
X222150Y201500D02*X222900Y202250D01*
X220650Y201500D02*X222150D01*
X219900Y203000D02*X222900Y206000D01*
X227400Y207500D02*Y201500D01*
Y203750D02*X228150Y204500D01*
X229650D01*
X230400Y203750D01*
Y201500D01*
X232200Y203750D02*Y202250D01*
Y203750D02*X232950Y204500D01*
X234450D01*
X235200Y203750D01*
Y202250D01*
X234450Y201500D02*X235200Y202250D01*
X232950Y201500D02*X234450D01*
X232200Y202250D02*X232950Y201500D01*
X237000Y207500D02*Y202250D01*
X237750Y201500D01*
X240000D02*X242250D01*
X239250Y202250D02*X240000Y201500D01*
X239250Y203750D02*Y202250D01*
Y203750D02*X240000Y204500D01*
X241500D01*
X242250Y203750D01*
X239250Y203000D02*X242250D01*
Y203750D02*Y203000D01*
X244800Y201500D02*X247050D01*
X247800Y202250D01*
X247050Y203000D02*X247800Y202250D01*
X244800Y203000D02*X247050D01*
X244050Y203750D02*X244800Y203000D01*
X244050Y203750D02*X244800Y204500D01*
X247050D01*
X247800Y203750D01*
X244050Y202250D02*X244800Y201500D01*
X253050Y207500D02*Y202250D01*
X253800Y201500D01*
X252300Y205250D02*X253800D01*
X255300Y203750D02*Y202250D01*
Y203750D02*X256050Y204500D01*
X257550D01*
X258300Y203750D01*
Y202250D01*
X257550Y201500D02*X258300Y202250D01*
X256050Y201500D02*X257550D01*
X255300Y202250D02*X256050Y201500D01*
X260850Y207500D02*Y202250D01*
X261600Y201500D01*
X260100Y205250D02*X261600D01*
X265350Y204500D02*X266100Y203750D01*
X263850Y204500D02*X265350D01*
X263100Y203750D02*X263850Y204500D01*
X263100Y203750D02*Y202250D01*
X263850Y201500D01*
X266100Y204500D02*Y202250D01*
X266850Y201500D01*
X263850D02*X265350D01*
X266100Y202250D01*
X268650Y207500D02*Y202250D01*
X269400Y201500D01*
G54D74*X222000Y104000D02*Y0D01*
X0D01*
Y104000D01*
X222000D01*
G54D72*X24675Y-9500D02*X27675D01*
X28425Y-8750D01*
Y-6950D02*Y-8750D01*
X27675Y-6200D02*X28425Y-6950D01*
X25425Y-6200D02*X27675D01*
X25425Y-3500D02*Y-9500D01*
X24675Y-3500D02*X27675D01*
X28425Y-4250D01*
Y-5450D01*
X27675Y-6200D02*X28425Y-5450D01*
X30225Y-7250D02*Y-8750D01*
Y-7250D02*X30975Y-6500D01*
X32475D01*
X33225Y-7250D01*
Y-8750D01*
X32475Y-9500D02*X33225Y-8750D01*
X30975Y-9500D02*X32475D01*
X30225Y-8750D02*X30975Y-9500D01*
X37275Y-6500D02*X38025Y-7250D01*
X35775Y-6500D02*X37275D01*
X35025Y-7250D02*X35775Y-6500D01*
X35025Y-7250D02*Y-8750D01*
X35775Y-9500D01*
X38025Y-6500D02*Y-8750D01*
X38775Y-9500D01*
X35775D02*X37275D01*
X38025Y-8750D01*
X41325Y-7250D02*Y-9500D01*
Y-7250D02*X42075Y-6500D01*
X43575D01*
X40575D02*X41325Y-7250D01*
X48375Y-3500D02*Y-9500D01*
X47625D02*X48375Y-8750D01*
X46125Y-9500D02*X47625D01*
X45375Y-8750D02*X46125Y-9500D01*
X45375Y-7250D02*Y-8750D01*
Y-7250D02*X46125Y-6500D01*
X47625D01*
X48375Y-7250D01*
X52875D02*Y-8750D01*
Y-7250D02*X53625Y-6500D01*
X55125D01*
X55875Y-7250D01*
Y-8750D01*
X55125Y-9500D02*X55875Y-8750D01*
X53625Y-9500D02*X55125D01*
X52875Y-8750D02*X53625Y-9500D01*
X57675Y-6500D02*Y-8750D01*
X58425Y-9500D01*
X59925D01*
X60675Y-8750D01*
Y-6500D02*Y-8750D01*
X63225Y-3500D02*Y-8750D01*
X63975Y-9500D01*
X62475Y-5750D02*X63975D01*
X65475Y-3500D02*Y-8750D01*
X66225Y-9500D01*
G54D73*X67725Y-5000D02*Y-5150D01*
G54D72*Y-7250D02*Y-9500D01*
X69975Y-7250D02*Y-9500D01*
Y-7250D02*X70725Y-6500D01*
X71475D01*
X72225Y-7250D01*
Y-9500D01*
X69225Y-6500D02*X69975Y-7250D01*
X74775Y-9500D02*X77025D01*
X74025Y-8750D02*X74775Y-9500D01*
X74025Y-7250D02*Y-8750D01*
Y-7250D02*X74775Y-6500D01*
X76275D01*
X77025Y-7250D01*
X74025Y-8000D02*X77025D01*
Y-7250D02*Y-8000D01*
G54D73*X81525Y-5000D02*Y-5150D01*
G54D72*Y-7250D02*Y-9500D01*
X83775D02*X86025D01*
X86775Y-8750D01*
X86025Y-8000D02*X86775Y-8750D01*
X83775Y-8000D02*X86025D01*
X83025Y-7250D02*X83775Y-8000D01*
X83025Y-7250D02*X83775Y-6500D01*
X86025D01*
X86775Y-7250D01*
X83025Y-8750D02*X83775Y-9500D01*
X92025Y-3500D02*Y-8750D01*
X92775Y-9500D01*
X91275Y-5750D02*X92775D01*
X94275Y-3500D02*Y-9500D01*
Y-7250D02*X95025Y-6500D01*
X96525D01*
X97275Y-7250D01*
Y-9500D01*
X99825D02*X102075D01*
X99075Y-8750D02*X99825Y-9500D01*
X99075Y-7250D02*Y-8750D01*
Y-7250D02*X99825Y-6500D01*
X101325D01*
X102075Y-7250D01*
X99075Y-8000D02*X102075D01*
Y-7250D02*Y-8000D01*
X107325Y-6500D02*X109575D01*
X106575Y-7250D02*X107325Y-6500D01*
X106575Y-7250D02*Y-8750D01*
X107325Y-9500D01*
X109575D01*
X112125D02*X114375D01*
X111375Y-8750D02*X112125Y-9500D01*
X111375Y-7250D02*Y-8750D01*
Y-7250D02*X112125Y-6500D01*
X113625D01*
X114375Y-7250D01*
X111375Y-8000D02*X114375D01*
Y-7250D02*Y-8000D01*
X116925Y-7250D02*Y-9500D01*
Y-7250D02*X117675Y-6500D01*
X118425D01*
X119175Y-7250D01*
Y-9500D01*
X116175Y-6500D02*X116925Y-7250D01*
X121725Y-3500D02*Y-8750D01*
X122475Y-9500D01*
X120975Y-5750D02*X122475D01*
X124725Y-9500D02*X126975D01*
X123975Y-8750D02*X124725Y-9500D01*
X123975Y-7250D02*Y-8750D01*
Y-7250D02*X124725Y-6500D01*
X126225D01*
X126975Y-7250D01*
X123975Y-8000D02*X126975D01*
Y-7250D02*Y-8000D01*
X129525Y-7250D02*Y-9500D01*
Y-7250D02*X130275Y-6500D01*
X131775D01*
X128775D02*X129525Y-7250D01*
X133575Y-3500D02*Y-8750D01*
X134325Y-9500D01*
G54D73*X135825Y-5000D02*Y-5150D01*
G54D72*Y-7250D02*Y-9500D01*
X138075Y-7250D02*Y-9500D01*
Y-7250D02*X138825Y-6500D01*
X139575D01*
X140325Y-7250D01*
Y-9500D01*
X137325Y-6500D02*X138075Y-7250D01*
X142875Y-9500D02*X145125D01*
X142125Y-8750D02*X142875Y-9500D01*
X142125Y-7250D02*Y-8750D01*
Y-7250D02*X142875Y-6500D01*
X144375D01*
X145125Y-7250D01*
X142125Y-8000D02*X145125D01*
Y-7250D02*Y-8000D01*
X149625Y-7250D02*Y-8750D01*
Y-7250D02*X150375Y-6500D01*
X151875D01*
X152625Y-7250D01*
Y-8750D01*
X151875Y-9500D02*X152625Y-8750D01*
X150375Y-9500D02*X151875D01*
X149625Y-8750D02*X150375Y-9500D01*
X155175Y-4250D02*Y-9500D01*
Y-4250D02*X155925Y-3500D01*
X156675D01*
X154425Y-6500D02*X155925D01*
X161625Y-3500D02*Y-8750D01*
X162375Y-9500D01*
X160875Y-5750D02*X162375D01*
X163875Y-3500D02*Y-9500D01*
Y-7250D02*X164625Y-6500D01*
X166125D01*
X166875Y-7250D01*
Y-9500D01*
G54D73*X168675Y-5000D02*Y-5150D01*
G54D72*Y-7250D02*Y-9500D01*
X170925D02*X173175D01*
X173925Y-8750D01*
X173175Y-8000D02*X173925Y-8750D01*
X170925Y-8000D02*X173175D01*
X170175Y-7250D02*X170925Y-8000D01*
X170175Y-7250D02*X170925Y-6500D01*
X173175D01*
X173925Y-7250D01*
X170175Y-8750D02*X170925Y-9500D01*
X179175Y-7250D02*Y-11750D01*
X178425Y-6500D02*X179175Y-7250D01*
X179925Y-6500D01*
X181425D01*
X182175Y-7250D01*
Y-8750D01*
X181425Y-9500D02*X182175Y-8750D01*
X179925Y-9500D02*X181425D01*
X179175Y-8750D02*X179925Y-9500D01*
X186225Y-6500D02*X186975Y-7250D01*
X184725Y-6500D02*X186225D01*
X183975Y-7250D02*X184725Y-6500D01*
X183975Y-7250D02*Y-8750D01*
X184725Y-9500D01*
X186975Y-6500D02*Y-8750D01*
X187725Y-9500D01*
X184725D02*X186225D01*
X186975Y-8750D01*
X190275Y-3500D02*Y-8750D01*
X191025Y-9500D01*
X189525Y-5750D02*X191025D01*
X192525Y-3500D02*Y-9500D01*
Y-7250D02*X193275Y-6500D01*
X194775D01*
X195525Y-7250D01*
Y-9500D01*
X200750Y132500D02*Y126500D01*
X202700Y132500D02*X203750Y131450D01*
Y127550D01*
X202700Y126500D02*X203750Y127550D01*
X200000Y126500D02*X202700D01*
X200000Y132500D02*X202700D01*
X207800Y129500D02*X208550Y128750D01*
X206300Y129500D02*X207800D01*
X205550Y128750D02*X206300Y129500D01*
X205550Y128750D02*Y127250D01*
X206300Y126500D01*
X208550Y129500D02*Y127250D01*
X209300Y126500D01*
X206300D02*X207800D01*
X208550Y127250D01*
X211850Y132500D02*Y127250D01*
X212600Y126500D01*
X211100Y130250D02*X212600D01*
X214850Y126500D02*X217100D01*
X214100Y127250D02*X214850Y126500D01*
X214100Y128750D02*Y127250D01*
Y128750D02*X214850Y129500D01*
X216350D01*
X217100Y128750D01*
X214100Y128000D02*X217100D01*
Y128750D02*Y128000D01*
X218900Y130250D02*X219650D01*
X218900Y128750D02*X219650D01*
X224150Y132500D02*X227150D01*
X225650D02*Y126500D01*
X228950Y132500D02*Y126500D01*
Y128750D02*X229700Y129500D01*
X231200D01*
X231950Y128750D01*
Y126500D01*
X233750Y129500D02*Y127250D01*
X234500Y126500D01*
X236000D01*
X236750Y127250D01*
Y129500D02*Y127250D01*
X241250Y131750D02*X242000Y132500D01*
X244250D01*
X245000Y131750D01*
Y130250D01*
X241250Y126500D02*X245000Y130250D01*
X241250Y126500D02*X245000D01*
X247550D02*X249800Y129500D01*
Y131750D02*Y129500D01*
X249050Y132500D02*X249800Y131750D01*
X247550Y132500D02*X249050D01*
X246800Y131750D02*X247550Y132500D01*
X246800Y131750D02*Y130250D01*
X247550Y129500D01*
X249800D01*
X254300Y132500D02*Y126500D01*
Y132500D02*X258050Y126500D01*
Y132500D02*Y126500D01*
X259850Y128750D02*Y127250D01*
Y128750D02*X260600Y129500D01*
X262100D01*
X262850Y128750D01*
Y127250D01*
X262100Y126500D02*X262850Y127250D01*
X260600Y126500D02*X262100D01*
X259850Y127250D02*X260600Y126500D01*
X264650Y129500D02*X266150Y126500D01*
X267650Y129500D02*X266150Y126500D01*
X272150Y131750D02*X272900Y132500D01*
X275150D01*
X275900Y131750D01*
Y130250D01*
X272150Y126500D02*X275900Y130250D01*
X272150Y126500D02*X275900D01*
X277700Y127250D02*X278450Y126500D01*
X277700Y131750D02*Y127250D01*
Y131750D02*X278450Y132500D01*
X279950D01*
X280700Y131750D01*
Y127250D01*
X279950Y126500D02*X280700Y127250D01*
X278450Y126500D02*X279950D01*
X277700Y128000D02*X280700Y131000D01*
X282500Y131300D02*X283700Y132500D01*
Y126500D01*
X282500D02*X284750D01*
X286550Y127250D02*X287300Y126500D01*
X286550Y128450D02*Y127250D01*
Y128450D02*X287600Y129500D01*
X288500D01*
X289550Y128450D01*
Y127250D01*
X288800Y126500D02*X289550Y127250D01*
X287300Y126500D02*X288800D01*
X286550Y130550D02*X287600Y129500D01*
X286550Y131750D02*Y130550D01*
Y131750D02*X287300Y132500D01*
X288800D01*
X289550Y131750D01*
Y130550D01*
X288500Y129500D02*X289550Y130550D01*
X294050Y131300D02*X295250Y132500D01*
Y126500D01*
X294050D02*X296300D01*
X298100Y127250D02*X298850Y126500D01*
X298100Y131750D02*Y127250D01*
Y131750D02*X298850Y132500D01*
X300350D01*
X301100Y131750D01*
Y127250D01*
X300350Y126500D02*X301100Y127250D01*
X298850Y126500D02*X300350D01*
X298100Y128000D02*X301100Y131000D01*
X302900Y130250D02*X303650D01*
X302900Y128750D02*X303650D01*
X305450Y127250D02*X306200Y126500D01*
X305450Y131750D02*Y127250D01*
Y131750D02*X306200Y132500D01*
X307700D01*
X308450Y131750D01*
Y127250D01*
X307700Y126500D02*X308450Y127250D01*
X306200Y126500D02*X307700D01*
X305450Y128000D02*X308450Y131000D01*
X310250Y128750D02*X313250Y132500D01*
X310250Y128750D02*X314000D01*
X313250Y132500D02*Y126500D01*
X315800Y130250D02*X316550D01*
X315800Y128750D02*X316550D01*
X318350Y131750D02*X319100Y132500D01*
X320600D01*
X321350Y131750D01*
X320600Y126500D02*X321350Y127250D01*
X319100Y126500D02*X320600D01*
X318350Y127250D02*X319100Y126500D01*
Y129800D02*X320600D01*
X321350Y131750D02*Y130550D01*
Y129050D02*Y127250D01*
Y129050D02*X320600Y129800D01*
X321350Y130550D02*X320600Y129800D01*
X323150Y131300D02*X324350Y132500D01*
Y126500D01*
X323150D02*X325400D01*
X330650Y132500D02*Y126500D01*
X329900Y132500D02*X332900D01*
X333650Y131750D01*
Y130250D01*
X332900Y129500D02*X333650Y130250D01*
X330650Y129500D02*X332900D01*
X335450Y132500D02*Y126500D01*
Y132500D02*X337700Y129500D01*
X339950Y132500D01*
Y126500D01*
X347450Y132500D02*X348200Y131750D01*
X345200Y132500D02*X347450D01*
X344450Y131750D02*X345200Y132500D01*
X344450Y131750D02*Y127250D01*
X345200Y126500D01*
X347450D01*
X348200Y127250D01*
Y128750D02*Y127250D01*
X347450Y129500D02*X348200Y128750D01*
X345950Y129500D02*X347450D01*
X350000Y132500D02*Y126500D01*
Y132500D02*X352250Y129500D01*
X354500Y132500D01*
Y126500D01*
X356300Y132500D02*X359300D01*
X357800D02*Y126500D01*
X363800Y132500D02*Y127250D01*
X364550Y126500D01*
X366050D01*
X366800Y127250D01*
Y132500D02*Y127250D01*
X368600Y132500D02*X371600D01*
X370100D02*Y126500D01*
X374450D02*X376400D01*
X373400Y127550D02*X374450Y126500D01*
X373400Y131450D02*Y127550D01*
Y131450D02*X374450Y132500D01*
X376400D01*
X200000Y146000D02*Y141500D01*
Y146000D02*X201050Y147500D01*
X202700D01*
X203750Y146000D01*
Y141500D01*
X200000Y144500D02*X203750D01*
X205550D02*Y142250D01*
X206300Y141500D01*
X207800D01*
X208550Y142250D01*
Y144500D02*Y142250D01*
X211100Y147500D02*Y142250D01*
X211850Y141500D01*
X210350Y145250D02*X211850D01*
X213350Y147500D02*Y141500D01*
Y143750D02*X214100Y144500D01*
X215600D01*
X216350Y143750D01*
Y141500D01*
X218150Y143750D02*Y142250D01*
Y143750D02*X218900Y144500D01*
X220400D01*
X221150Y143750D01*
Y142250D01*
X220400Y141500D02*X221150Y142250D01*
X218900Y141500D02*X220400D01*
X218150Y142250D02*X218900Y141500D01*
X223700Y143750D02*Y141500D01*
Y143750D02*X224450Y144500D01*
X225950D01*
X222950D02*X223700Y143750D01*
X227750Y145250D02*X228500D01*
X227750Y143750D02*X228500D01*
X233000Y147500D02*Y141500D01*
Y147500D02*X235250Y144500D01*
X237500Y147500D01*
Y141500D01*
G54D73*X239300Y146000D02*Y145850D01*
G54D72*Y143750D02*Y141500D01*
X241550Y144500D02*X243800D01*
X240800Y143750D02*X241550Y144500D01*
X240800Y143750D02*Y142250D01*
X241550Y141500D01*
X243800D01*
X245600Y147500D02*Y141500D01*
Y143750D02*X246350Y144500D01*
X247850D01*
X248600Y143750D01*
Y141500D01*
X252650Y144500D02*X253400Y143750D01*
X251150Y144500D02*X252650D01*
X250400Y143750D02*X251150Y144500D01*
X250400Y143750D02*Y142250D01*
X251150Y141500D01*
X253400Y144500D02*Y142250D01*
X254150Y141500D01*
X251150D02*X252650D01*
X253400Y142250D01*
X256700Y141500D02*X258950D01*
X255950Y142250D02*X256700Y141500D01*
X255950Y143750D02*Y142250D01*
Y143750D02*X256700Y144500D01*
X258200D01*
X258950Y143750D01*
X255950Y143000D02*X258950D01*
Y143750D02*Y143000D01*
X260750Y147500D02*Y142250D01*
X261500Y141500D01*
X266450Y147500D02*Y141500D01*
X265700Y147500D02*X268700D01*
X269450Y146750D01*
Y145250D01*
X268700Y144500D02*X269450Y145250D01*
X266450Y144500D02*X268700D01*
X272000Y141500D02*X274250D01*
X271250Y142250D02*X272000Y141500D01*
X271250Y143750D02*Y142250D01*
Y143750D02*X272000Y144500D01*
X273500D01*
X274250Y143750D01*
X271250Y143000D02*X274250D01*
Y143750D02*Y143000D01*
X276800Y147500D02*Y142250D01*
X277550Y141500D01*
X276050Y145250D02*X277550D01*
X279800Y141500D02*X282050D01*
X279050Y142250D02*X279800Y141500D01*
X279050Y143750D02*Y142250D01*
Y143750D02*X279800Y144500D01*
X281300D01*
X282050Y143750D01*
X279050Y143000D02*X282050D01*
Y143750D02*Y143000D01*
X284600Y143750D02*Y141500D01*
Y143750D02*X285350Y144500D01*
X286850D01*
X283850D02*X284600Y143750D01*
X289400Y141500D02*X291650D01*
X292400Y142250D01*
X291650Y143000D02*X292400Y142250D01*
X289400Y143000D02*X291650D01*
X288650Y143750D02*X289400Y143000D01*
X288650Y143750D02*X289400Y144500D01*
X291650D01*
X292400Y143750D01*
X288650Y142250D02*X289400Y141500D01*
X294950D02*X297200D01*
X294200Y142250D02*X294950Y141500D01*
X294200Y143750D02*Y142250D01*
Y143750D02*X294950Y144500D01*
X296450D01*
X297200Y143750D01*
X294200Y143000D02*X297200D01*
Y143750D02*Y143000D01*
X299750Y143750D02*Y141500D01*
Y143750D02*X300500Y144500D01*
X301250D01*
X302000Y143750D01*
Y141500D01*
X299000Y144500D02*X299750Y143750D01*
X200000Y162500D02*X203000D01*
X201500D02*Y156500D01*
G54D73*X204800Y161000D02*Y160850D01*
G54D72*Y158750D02*Y156500D01*
X207050Y162500D02*Y157250D01*
X207800Y156500D01*
X206300Y160250D02*X207800D01*
X209300Y162500D02*Y157250D01*
X210050Y156500D01*
X212300D02*X214550D01*
X211550Y157250D02*X212300Y156500D01*
X211550Y158750D02*Y157250D01*
Y158750D02*X212300Y159500D01*
X213800D01*
X214550Y158750D01*
X211550Y158000D02*X214550D01*
Y158750D02*Y158000D01*
X216350Y160250D02*X217100D01*
X216350Y158750D02*X217100D01*
X221600Y157250D02*X222350Y156500D01*
X221600Y161750D02*X222350Y162500D01*
X221600Y161750D02*Y157250D01*
X224150Y159500D02*Y157250D01*
X224900Y156500D01*
X226400D01*
X227150Y157250D01*
Y159500D02*Y157250D01*
X229700Y158750D02*Y156500D01*
Y158750D02*X230450Y159500D01*
X231200D01*
X231950Y158750D01*
Y156500D01*
X228950Y159500D02*X229700Y158750D01*
X233750Y162500D02*Y156500D01*
Y158750D02*X236000Y156500D01*
X233750Y158750D02*X235250Y160250D01*
X238550Y158750D02*Y156500D01*
Y158750D02*X239300Y159500D01*
X240050D01*
X240800Y158750D01*
Y156500D01*
X237800Y159500D02*X238550Y158750D01*
X242600D02*Y157250D01*
Y158750D02*X243350Y159500D01*
X244850D01*
X245600Y158750D01*
Y157250D01*
X244850Y156500D02*X245600Y157250D01*
X243350Y156500D02*X244850D01*
X242600Y157250D02*X243350Y156500D01*
X247400Y159500D02*Y157250D01*
X248150Y156500D01*
X248900D01*
X249650Y157250D01*
Y159500D02*Y157250D01*
X250400Y156500D01*
X251150D01*
X251900Y157250D01*
Y159500D02*Y157250D01*
X254450Y158750D02*Y156500D01*
Y158750D02*X255200Y159500D01*
X255950D01*
X256700Y158750D01*
Y156500D01*
X253700Y159500D02*X254450Y158750D01*
X258500Y162500D02*X259250Y161750D01*
Y157250D01*
X258500Y156500D02*X259250Y157250D01*
X263750Y159500D02*X266750D01*
X271250Y162500D02*Y156500D01*
Y162500D02*X274250D01*
X271250Y159800D02*X273500D01*
X278300Y159500D02*X279050Y158750D01*
X276800Y159500D02*X278300D01*
X276050Y158750D02*X276800Y159500D01*
X276050Y158750D02*Y157250D01*
X276800Y156500D01*
X279050Y159500D02*Y157250D01*
X279800Y156500D01*
X276800D02*X278300D01*
X279050Y157250D01*
X281600Y162500D02*Y156500D01*
Y157250D02*X282350Y156500D01*
X283850D01*
X284600Y157250D01*
Y158750D02*Y157250D01*
X283850Y159500D02*X284600Y158750D01*
X282350Y159500D02*X283850D01*
X281600Y158750D02*X282350Y159500D01*
X287150Y158750D02*Y156500D01*
Y158750D02*X287900Y159500D01*
X289400D01*
X286400D02*X287150Y158750D01*
G54D73*X291200Y161000D02*Y160850D01*
G54D72*Y158750D02*Y156500D01*
X293450Y159500D02*X295700D01*
X292700Y158750D02*X293450Y159500D01*
X292700Y158750D02*Y157250D01*
X293450Y156500D01*
X295700D01*
X299750Y159500D02*X300500Y158750D01*
X298250Y159500D02*X299750D01*
X297500Y158750D02*X298250Y159500D01*
X297500Y158750D02*Y157250D01*
X298250Y156500D01*
X300500Y159500D02*Y157250D01*
X301250Y156500D01*
X298250D02*X299750D01*
X300500Y157250D01*
X303800Y162500D02*Y157250D01*
X304550Y156500D01*
X303050Y160250D02*X304550D01*
G54D73*X306050Y161000D02*Y160850D01*
G54D72*Y158750D02*Y156500D01*
X307550Y158750D02*Y157250D01*
Y158750D02*X308300Y159500D01*
X309800D01*
X310550Y158750D01*
Y157250D01*
X309800Y156500D02*X310550Y157250D01*
X308300Y156500D02*X309800D01*
X307550Y157250D02*X308300Y156500D01*
X313100Y158750D02*Y156500D01*
Y158750D02*X313850Y159500D01*
X314600D01*
X315350Y158750D01*
Y156500D01*
X312350Y159500D02*X313100Y158750D01*
X320600Y162500D02*Y156500D01*
X322550Y162500D02*X323600Y161450D01*
Y157550D01*
X322550Y156500D02*X323600Y157550D01*
X319850Y156500D02*X322550D01*
X319850Y162500D02*X322550D01*
X326150Y158750D02*Y156500D01*
Y158750D02*X326900Y159500D01*
X328400D01*
X325400D02*X326150Y158750D01*
X332450Y159500D02*X333200Y158750D01*
X330950Y159500D02*X332450D01*
X330200Y158750D02*X330950Y159500D01*
X330200Y158750D02*Y157250D01*
X330950Y156500D01*
X333200Y159500D02*Y157250D01*
X333950Y156500D01*
X330950D02*X332450D01*
X333200Y157250D01*
X335750Y159500D02*Y157250D01*
X336500Y156500D01*
X337250D01*
X338000Y157250D01*
Y159500D02*Y157250D01*
X338750Y156500D01*
X339500D01*
X340250Y157250D01*
Y159500D02*Y157250D01*
G54D73*X342050Y161000D02*Y160850D01*
G54D72*Y158750D02*Y156500D01*
X344300Y158750D02*Y156500D01*
Y158750D02*X345050Y159500D01*
X345800D01*
X346550Y158750D01*
Y156500D01*
X343550Y159500D02*X344300Y158750D01*
X350600Y159500D02*X351350Y158750D01*
X349100Y159500D02*X350600D01*
X348350Y158750D02*X349100Y159500D01*
X348350Y158750D02*Y157250D01*
X349100Y156500D01*
X350600D01*
X351350Y157250D01*
X348350Y155000D02*X349100Y154250D01*
X350600D01*
X351350Y155000D01*
Y159500D02*Y155000D01*
M02*
