G04 start of page 6 for group -4063 idx -4063 *
G04 Title: (unknown), componentmask *
G04 Creator: pcb 20140316 *
G04 CreationDate: Thu 29 Nov 2018 10:04:31 PM GMT UTC *
G04 For: railfan *
G04 Format: Gerber/RS-274X *
G04 PCB-Dimensions (mil): 2220.00 1040.00 *
G04 PCB-Coordinate-Origin: lower left *
%MOIN*%
%FSLAX25Y25*%
%LNTOPMASK*%
%ADD56R,0.0190X0.0190*%
%ADD55R,0.0300X0.0300*%
%ADD54C,0.0600*%
%ADD53R,0.0572X0.0572*%
%ADD52C,0.0760*%
%ADD51C,0.0660*%
%ADD50C,0.1500*%
%ADD49C,0.0001*%
%ADD48C,0.2997*%
G54D48*X206000Y88000D03*
G54D49*G36*
X191700Y10300D02*Y3700D01*
X198300D01*
Y10300D01*
X191700D01*
G37*
G54D50*X190000Y20500D03*
Y60500D03*
G54D51*X205000Y7000D03*
X215000D03*
G54D52*X155000Y28000D03*
Y38000D03*
Y48000D03*
X165000Y33000D03*
Y43000D03*
Y53000D03*
G54D49*G36*
X23200Y79300D02*Y72700D01*
X29800D01*
Y79300D01*
X23200D01*
G37*
G54D51*X36500Y76000D03*
X26500Y86000D03*
X36500D03*
X56500Y76000D03*
X66500D03*
X76500D03*
X46500D03*
Y86000D03*
X56500D03*
X66500D03*
X76500D03*
X86500D03*
X96500D03*
X106500D03*
X116500D03*
X86500Y76000D03*
X96500D03*
X106500D03*
X116500D03*
G54D52*X67000Y53000D03*
Y43000D03*
Y33000D03*
X57000Y48000D03*
Y38000D03*
Y28000D03*
G54D50*X32000Y60500D03*
Y20500D03*
G54D49*G36*
X3700Y10300D02*Y3700D01*
X10300D01*
Y10300D01*
X3700D01*
G37*
G54D51*X17000Y7000D03*
X27000D03*
G54D53*X116043Y97393D02*Y96607D01*
X108957Y97393D02*Y96607D01*
X85457Y97393D02*Y96607D01*
X92543Y97393D02*Y96607D01*
G54D54*X136500Y97900D03*
G54D55*X135000Y96400D02*X138000D01*
G54D54*X156000Y91100D03*
G54D55*X154500Y92600D02*X157500D01*
G54D54*X176500Y91100D03*
G54D55*X175000Y92600D02*X178000D01*
G54D54*X156000Y97900D03*
G54D55*X154500Y96400D02*X157500D01*
G54D54*X176500Y97900D03*
G54D55*X175000Y96400D02*X178000D01*
G54D53*X143107Y9457D02*X143893D01*
X143107Y16543D02*X143893D01*
X109607Y14543D02*X110393D01*
X109607Y7457D02*X110393D01*
X97607Y14543D02*X98393D01*
X97607Y7457D02*X98393D01*
X177543Y7393D02*Y6607D01*
X170457Y7393D02*Y6607D01*
G54D56*X108074Y54417D02*Y49811D01*
Y52811D02*Y51417D01*
X105515Y54417D02*Y49811D01*
Y52811D02*Y51417D01*
X102956Y54417D02*Y49811D01*
Y52811D02*Y51417D01*
X100397Y54417D02*Y49811D01*
Y52811D02*Y51417D01*
X97838Y54417D02*Y49811D01*
Y52811D02*Y51417D01*
X95279Y54417D02*Y49811D01*
Y52811D02*Y51417D01*
G54D53*X136107Y75457D02*X136893D01*
X155607D02*X156393D01*
X176107D02*X176893D01*
X136107Y82543D02*X136893D01*
X155607D02*X156393D01*
X176107D02*X176893D01*
G54D54*X136500Y91100D03*
G54D55*X135000Y92600D02*X138000D01*
G54D56*X92721Y54417D02*Y49811D01*
Y52811D02*Y51417D01*
X90162Y54417D02*Y49811D01*
Y52811D02*Y51417D01*
X87603Y54417D02*Y49811D01*
Y52811D02*Y51417D01*
X85044Y54417D02*Y49811D01*
Y52811D02*Y51417D01*
X82485Y54417D02*Y49811D01*
Y52811D02*Y51417D01*
X79926Y54417D02*Y49811D01*
Y52811D02*Y51417D01*
Y31189D02*Y26583D01*
Y29583D02*Y28189D01*
X82485Y31189D02*Y26583D01*
Y29583D02*Y28189D01*
X85044Y31189D02*Y26583D01*
Y29583D02*Y28189D01*
X87603Y31189D02*Y26583D01*
Y29583D02*Y28189D01*
X90162Y31189D02*Y26583D01*
Y29583D02*Y28189D01*
X92721Y31189D02*Y26583D01*
Y29583D02*Y28189D01*
X95279Y31189D02*Y26583D01*
Y29583D02*Y28189D01*
X97838Y31189D02*Y26583D01*
Y29583D02*Y28189D01*
X100397Y31189D02*Y26583D01*
Y29583D02*Y28189D01*
X102956Y31189D02*Y26583D01*
Y29583D02*Y28189D01*
X105515Y31189D02*Y26583D01*
Y29583D02*Y28189D01*
X108074Y31189D02*Y26583D01*
Y29583D02*Y28189D01*
M02*
