G04 start of page 9 for group -3984 idx -3984 *
G04 Title: (unknown), fab *
G04 Creator: pcb 20110918 *
G04 CreationDate: Sun 03 Feb 2013 12:26:50 AM GMT UTC *
G04 For: petersen *
G04 Format: Gerber/RS-274X *
G04 PCB-Dimensions: 222000 104000 *
G04 PCB-Coordinate-Origin: lower left *
%MOIN*%
%FSLAX25Y25*%
%LNFAB*%
%ADD88C,0.0100*%
%ADD87C,0.0075*%
%ADD86C,0.0060*%
%ADD85R,0.0080X0.0080*%
G54D85*X206500Y91700D02*Y85300D01*
X203300Y88500D02*X209700D01*
X204900Y90100D02*X208100D01*
X204900D02*Y86900D01*
X208100D01*
Y90100D02*Y86900D01*
X15000Y118450D02*Y112050D01*
X11800Y115250D02*X18200D01*
X13400Y116850D02*X16600D01*
X13400D02*Y113650D01*
X16600D01*
Y116850D02*Y113650D01*
G54D86*X135000Y117500D02*X136500Y114500D01*
X138000Y117500D01*
X136500Y114500D02*Y111500D01*
X139800Y114800D02*X142050D01*
X139800Y111500D02*X142800D01*
X139800Y117500D02*Y111500D01*
Y117500D02*X142800D01*
X147600D02*X148350Y116750D01*
X145350Y117500D02*X147600D01*
X144600Y116750D02*X145350Y117500D01*
X144600Y116750D02*Y115250D01*
X145350Y114500D01*
X147600D01*
X148350Y113750D01*
Y112250D01*
X147600Y111500D02*X148350Y112250D01*
X145350Y111500D02*X147600D01*
X144600Y112250D02*X145350Y111500D01*
X98000Y116300D02*X99200Y117500D01*
Y111500D01*
X98000D02*X100250D01*
X45000Y112250D02*X45750Y111500D01*
X45000Y116750D02*Y112250D01*
Y116750D02*X45750Y117500D01*
X47250D01*
X48000Y116750D01*
Y112250D01*
X47250Y111500D02*X48000Y112250D01*
X45750Y111500D02*X47250D01*
X45000Y113000D02*X48000Y116000D01*
X49800Y111500D02*X50550D01*
X52350Y116300D02*X53550Y117500D01*
Y111500D01*
X52350D02*X54600D01*
X56400Y116750D02*X57150Y117500D01*
X59400D01*
X60150Y116750D01*
Y115250D01*
X56400Y111500D02*X60150Y115250D01*
X56400Y111500D02*X60150D01*
X62700D02*X64950Y114500D01*
Y116750D02*Y114500D01*
X64200Y117500D02*X64950Y116750D01*
X62700Y117500D02*X64200D01*
X61950Y116750D02*X62700Y117500D01*
X61950Y116750D02*Y115250D01*
X62700Y114500D01*
X64950D01*
X189925Y19500D02*Y16300D01*
Y19500D02*X192698Y21100D01*
X189925Y19500D02*X187152Y21100D01*
X188325Y19500D02*G75*G03X191525Y19500I1600J0D01*G01*
G75*G03X188325Y19500I-1600J0D01*G01*
X189925Y59500D02*Y56300D01*
Y59500D02*X192698Y61100D01*
X189925Y59500D02*X187152Y61100D01*
X188325Y59500D02*G75*G03X191525Y59500I1600J0D01*G01*
G75*G03X188325Y59500I-1600J0D01*G01*
X32000Y60500D02*Y57300D01*
Y60500D02*X34773Y62100D01*
X32000Y60500D02*X29227Y62100D01*
X30400Y60500D02*G75*G03X33600Y60500I1600J0D01*G01*
G75*G03X30400Y60500I-1600J0D01*G01*
X32000Y20500D02*Y17300D01*
Y20500D02*X34773Y22100D01*
X32000Y20500D02*X29227Y22100D01*
X30400Y20500D02*G75*G03X33600Y20500I1600J0D01*G01*
G75*G03X30400Y20500I-1600J0D01*G01*
X15000Y130250D02*Y127050D01*
Y130250D02*X17773Y131850D01*
X15000Y130250D02*X12227Y131850D01*
X13400Y130250D02*G75*G03X16600Y130250I1600J0D01*G01*
G75*G03X13400Y130250I-1600J0D01*G01*
X135000Y132500D02*X136500Y129500D01*
X138000Y132500D01*
X136500Y129500D02*Y126500D01*
X139800Y129800D02*X142050D01*
X139800Y126500D02*X142800D01*
X139800Y132500D02*Y126500D01*
Y132500D02*X142800D01*
X147600D02*X148350Y131750D01*
X145350Y132500D02*X147600D01*
X144600Y131750D02*X145350Y132500D01*
X144600Y131750D02*Y130250D01*
X145350Y129500D01*
X147600D01*
X148350Y128750D01*
Y127250D01*
X147600Y126500D02*X148350Y127250D01*
X145350Y126500D02*X147600D01*
X144600Y127250D02*X145350Y126500D01*
X98000Y128750D02*X101000Y132500D01*
X98000Y128750D02*X101750D01*
X101000Y132500D02*Y126500D01*
X45000Y127250D02*X45750Y126500D01*
X45000Y131750D02*Y127250D01*
Y131750D02*X45750Y132500D01*
X47250D01*
X48000Y131750D01*
Y127250D01*
X47250Y126500D02*X48000Y127250D01*
X45750Y126500D02*X47250D01*
X45000Y128000D02*X48000Y131000D01*
X49800Y126500D02*X50550D01*
X52350Y131300D02*X53550Y132500D01*
Y126500D01*
X52350D02*X54600D01*
X56400Y131750D02*X57150Y132500D01*
X59400D01*
X60150Y131750D01*
Y130250D01*
X56400Y126500D02*X60150Y130250D01*
X56400Y126500D02*X60150D01*
X61950Y127250D02*X62700Y126500D01*
X61950Y128450D02*Y127250D01*
Y128450D02*X63000Y129500D01*
X63900D01*
X64950Y128450D01*
Y127250D01*
X64200Y126500D02*X64950Y127250D01*
X62700Y126500D02*X64200D01*
X61950Y130550D02*X63000Y129500D01*
X61950Y131750D02*Y130550D01*
Y131750D02*X62700Y132500D01*
X64200D01*
X64950Y131750D01*
Y130550D01*
X63900Y129500D02*X64950Y130550D01*
X163900Y86100D02*X167100D01*
X163900D02*Y82900D01*
X167100D01*
Y86100D02*Y82900D01*
X143900Y86100D02*X147100D01*
X143900D02*Y82900D01*
X147100D01*
Y86100D02*Y82900D01*
X13400Y146850D02*X16600D01*
X13400D02*Y143650D01*
X16600D01*
Y146850D02*Y143650D01*
X135000Y147500D02*X136500Y144500D01*
X138000Y147500D01*
X136500Y144500D02*Y141500D01*
X139800Y144800D02*X142050D01*
X139800Y141500D02*X142800D01*
X139800Y147500D02*Y141500D01*
Y147500D02*X142800D01*
X147600D02*X148350Y146750D01*
X145350Y147500D02*X147600D01*
X144600Y146750D02*X145350Y147500D01*
X144600Y146750D02*Y145250D01*
X145350Y144500D01*
X147600D01*
X148350Y143750D01*
Y142250D01*
X147600Y141500D02*X148350Y142250D01*
X145350Y141500D02*X147600D01*
X144600Y142250D02*X145350Y141500D01*
X98000Y146750D02*X98750Y147500D01*
X101000D01*
X101750Y146750D01*
Y145250D01*
X98000Y141500D02*X101750Y145250D01*
X98000Y141500D02*X101750D01*
X45000Y142250D02*X45750Y141500D01*
X45000Y146750D02*Y142250D01*
Y146750D02*X45750Y147500D01*
X47250D01*
X48000Y146750D01*
Y142250D01*
X47250Y141500D02*X48000Y142250D01*
X45750Y141500D02*X47250D01*
X45000Y143000D02*X48000Y146000D01*
X49800Y141500D02*X50550D01*
X52350Y142250D02*X53100Y141500D01*
X52350Y146750D02*Y142250D01*
Y146750D02*X53100Y147500D01*
X54600D01*
X55350Y146750D01*
Y142250D01*
X54600Y141500D02*X55350Y142250D01*
X53100Y141500D02*X54600D01*
X52350Y143000D02*X55350Y146000D01*
X57150Y143750D02*X60150Y147500D01*
X57150Y143750D02*X60900D01*
X60150Y147500D02*Y141500D01*
X62700Y142250D02*X63450Y141500D01*
X62700Y143450D02*Y142250D01*
Y143450D02*X63750Y144500D01*
X64650D01*
X65700Y143450D01*
Y142250D01*
X64950Y141500D02*X65700Y142250D01*
X63450Y141500D02*X64950D01*
X62700Y145550D02*X63750Y144500D01*
X62700Y146750D02*Y145550D01*
Y146750D02*X63450Y147500D01*
X64950D01*
X65700Y146750D01*
Y145550D01*
X64650Y144500D02*X65700Y145550D01*
X25700Y76000D02*G75*G03X27300Y76000I800J0D01*G01*
G75*G03X25700Y76000I-800J0D01*G01*
X35700D02*G75*G03X37300Y76000I800J0D01*G01*
G75*G03X35700Y76000I-800J0D01*G01*
X45700D02*G75*G03X47300Y76000I800J0D01*G01*
G75*G03X45700Y76000I-800J0D01*G01*
X55700D02*G75*G03X57300Y76000I800J0D01*G01*
G75*G03X55700Y76000I-800J0D01*G01*
X65700D02*G75*G03X67300Y76000I800J0D01*G01*
G75*G03X65700Y76000I-800J0D01*G01*
X75700D02*G75*G03X77300Y76000I800J0D01*G01*
G75*G03X75700Y76000I-800J0D01*G01*
X85700D02*G75*G03X87300Y76000I800J0D01*G01*
G75*G03X85700Y76000I-800J0D01*G01*
X95700D02*G75*G03X97300Y76000I800J0D01*G01*
G75*G03X95700Y76000I-800J0D01*G01*
X105700D02*G75*G03X107300Y76000I800J0D01*G01*
G75*G03X105700Y76000I-800J0D01*G01*
X115700D02*G75*G03X117300Y76000I800J0D01*G01*
G75*G03X115700Y76000I-800J0D01*G01*
X25700Y86000D02*G75*G03X27300Y86000I800J0D01*G01*
G75*G03X25700Y86000I-800J0D01*G01*
X35700D02*G75*G03X37300Y86000I800J0D01*G01*
G75*G03X35700Y86000I-800J0D01*G01*
X45700D02*G75*G03X47300Y86000I800J0D01*G01*
G75*G03X45700Y86000I-800J0D01*G01*
X55700D02*G75*G03X57300Y86000I800J0D01*G01*
G75*G03X55700Y86000I-800J0D01*G01*
X65700D02*G75*G03X67300Y86000I800J0D01*G01*
G75*G03X65700Y86000I-800J0D01*G01*
X75700D02*G75*G03X77300Y86000I800J0D01*G01*
G75*G03X75700Y86000I-800J0D01*G01*
X85700D02*G75*G03X87300Y86000I800J0D01*G01*
G75*G03X85700Y86000I-800J0D01*G01*
X95700D02*G75*G03X97300Y86000I800J0D01*G01*
G75*G03X95700Y86000I-800J0D01*G01*
X105700D02*G75*G03X107300Y86000I800J0D01*G01*
G75*G03X105700Y86000I-800J0D01*G01*
X115700D02*G75*G03X117300Y86000I800J0D01*G01*
G75*G03X115700Y86000I-800J0D01*G01*
X39200Y97000D02*G75*G03X40800Y97000I800J0D01*G01*
G75*G03X39200Y97000I-800J0D01*G01*
X29200D02*G75*G03X30800Y97000I800J0D01*G01*
G75*G03X29200Y97000I-800J0D01*G01*
X19200D02*G75*G03X20800Y97000I800J0D01*G01*
G75*G03X19200Y97000I-800J0D01*G01*
X6700Y77000D02*G75*G03X8300Y77000I800J0D01*G01*
G75*G03X6700Y77000I-800J0D01*G01*
Y87000D02*G75*G03X8300Y87000I800J0D01*G01*
G75*G03X6700Y87000I-800J0D01*G01*
Y97000D02*G75*G03X8300Y97000I800J0D01*G01*
G75*G03X6700Y97000I-800J0D01*G01*
X10700Y7500D02*G75*G03X12300Y7500I800J0D01*G01*
G75*G03X10700Y7500I-800J0D01*G01*
X20700D02*G75*G03X22300Y7500I800J0D01*G01*
G75*G03X20700Y7500I-800J0D01*G01*
X30700D02*G75*G03X32300Y7500I800J0D01*G01*
G75*G03X30700Y7500I-800J0D01*G01*
X14200Y160250D02*G75*G03X15800Y160250I800J0D01*G01*
G75*G03X14200Y160250I-800J0D01*G01*
X135000Y162500D02*X136500Y159500D01*
X138000Y162500D01*
X136500Y159500D02*Y156500D01*
X139800Y159800D02*X142050D01*
X139800Y156500D02*X142800D01*
X139800Y162500D02*Y156500D01*
Y162500D02*X142800D01*
X147600D02*X148350Y161750D01*
X145350Y162500D02*X147600D01*
X144600Y161750D02*X145350Y162500D01*
X144600Y161750D02*Y160250D01*
X145350Y159500D01*
X147600D01*
X148350Y158750D01*
Y157250D01*
X147600Y156500D02*X148350Y157250D01*
X145350Y156500D02*X147600D01*
X144600Y157250D02*X145350Y156500D01*
X98000Y161750D02*X98750Y162500D01*
X101000D01*
X101750Y161750D01*
Y160250D01*
X98000Y156500D02*X101750Y160250D01*
X98000Y156500D02*X101750D01*
X104300D02*X106550Y159500D01*
Y161750D02*Y159500D01*
X105800Y162500D02*X106550Y161750D01*
X104300Y162500D02*X105800D01*
X103550Y161750D02*X104300Y162500D01*
X103550Y161750D02*Y160250D01*
X104300Y159500D01*
X106550D01*
X45000Y157250D02*X45750Y156500D01*
X45000Y161750D02*Y157250D01*
Y161750D02*X45750Y162500D01*
X47250D01*
X48000Y161750D01*
Y157250D01*
X47250Y156500D02*X48000Y157250D01*
X45750Y156500D02*X47250D01*
X45000Y158000D02*X48000Y161000D01*
X49800Y156500D02*X50550D01*
X52350Y157250D02*X53100Y156500D01*
X52350Y161750D02*Y157250D01*
Y161750D02*X53100Y162500D01*
X54600D01*
X55350Y161750D01*
Y157250D01*
X54600Y156500D02*X55350Y157250D01*
X53100Y156500D02*X54600D01*
X52350Y158000D02*X55350Y161000D01*
X57150Y161750D02*X57900Y162500D01*
X59400D01*
X60150Y161750D01*
X59400Y156500D02*X60150Y157250D01*
X57900Y156500D02*X59400D01*
X57150Y157250D02*X57900Y156500D01*
Y159800D02*X59400D01*
X60150Y161750D02*Y160550D01*
Y159050D02*Y157250D01*
Y159050D02*X59400Y159800D01*
X60150Y160550D02*X59400Y159800D01*
X61950Y157250D02*X62700Y156500D01*
X61950Y158450D02*Y157250D01*
Y158450D02*X63000Y159500D01*
X63900D01*
X64950Y158450D01*
Y157250D01*
X64200Y156500D02*X64950Y157250D01*
X62700Y156500D02*X64200D01*
X61950Y160550D02*X63000Y159500D01*
X61950Y161750D02*Y160550D01*
Y161750D02*X62700Y162500D01*
X64200D01*
X64950Y161750D01*
Y160550D01*
X63900Y159500D02*X64950Y160550D01*
X153300Y62200D02*X155700Y59800D01*
X153300D02*X155700Y62200D01*
X13800Y176450D02*X16200Y174050D01*
X13800D02*X16200Y176450D01*
X135000Y177500D02*X136500Y174500D01*
X138000Y177500D01*
X136500Y174500D02*Y171500D01*
X139800Y174800D02*X142050D01*
X139800Y171500D02*X142800D01*
X139800Y177500D02*Y171500D01*
Y177500D02*X142800D01*
X147600D02*X148350Y176750D01*
X145350Y177500D02*X147600D01*
X144600Y176750D02*X145350Y177500D01*
X144600Y176750D02*Y175250D01*
X145350Y174500D01*
X147600D01*
X148350Y173750D01*
Y172250D01*
X147600Y171500D02*X148350Y172250D01*
X145350Y171500D02*X147600D01*
X144600Y172250D02*X145350Y171500D01*
X98000Y176300D02*X99200Y177500D01*
Y171500D01*
X98000D02*X100250D01*
X45000Y172250D02*X45750Y171500D01*
X45000Y176750D02*Y172250D01*
Y176750D02*X45750Y177500D01*
X47250D01*
X48000Y176750D01*
Y172250D01*
X47250Y171500D02*X48000Y172250D01*
X45750Y171500D02*X47250D01*
X45000Y173000D02*X48000Y176000D01*
X49800Y171500D02*X50550D01*
X52350Y172250D02*X53100Y171500D01*
X52350Y176750D02*Y172250D01*
Y176750D02*X53100Y177500D01*
X54600D01*
X55350Y176750D01*
Y172250D01*
X54600Y171500D02*X55350Y172250D01*
X53100Y171500D02*X54600D01*
X52350Y173000D02*X55350Y176000D01*
X57150Y176750D02*X57900Y177500D01*
X59400D01*
X60150Y176750D01*
X59400Y171500D02*X60150Y172250D01*
X57900Y171500D02*X59400D01*
X57150Y172250D02*X57900Y171500D01*
Y174800D02*X59400D01*
X60150Y176750D02*Y175550D01*
Y174050D02*Y172250D01*
Y174050D02*X59400Y174800D01*
X60150Y175550D02*X59400Y174800D01*
X61950Y177500D02*X64950D01*
X61950D02*Y174500D01*
X62700Y175250D01*
X64200D01*
X64950Y174500D01*
Y172250D01*
X64200Y171500D02*X64950Y172250D01*
X62700Y171500D02*X64200D01*
X61950Y172250D02*X62700Y171500D01*
X154925Y28600D02*Y25400D01*
X153325Y27000D02*X156525D01*
X164925Y33600D02*Y30400D01*
X163325Y32000D02*X166525D01*
X154925Y38600D02*Y35400D01*
X153325Y37000D02*X156525D01*
X164925Y43600D02*Y40400D01*
X163325Y42000D02*X166525D01*
X154925Y48600D02*Y45400D01*
X153325Y47000D02*X156525D01*
X164925Y53600D02*Y50400D01*
X163325Y52000D02*X166525D01*
X67000Y54600D02*Y51400D01*
X65400Y53000D02*X68600D01*
X57000Y49600D02*Y46400D01*
X55400Y48000D02*X58600D01*
X67000Y44600D02*Y41400D01*
X65400Y43000D02*X68600D01*
X57000Y39600D02*Y36400D01*
X55400Y38000D02*X58600D01*
X67000Y34600D02*Y31400D01*
X65400Y33000D02*X68600D01*
X57000Y29600D02*Y26400D01*
X55400Y28000D02*X58600D01*
X15000Y191850D02*Y188650D01*
X13400Y190250D02*X16600D01*
X135000Y192500D02*X136500Y189500D01*
X138000Y192500D01*
X136500Y189500D02*Y186500D01*
X139800Y189800D02*X142050D01*
X139800Y186500D02*X142800D01*
X139800Y192500D02*Y186500D01*
Y192500D02*X142800D01*
X147600D02*X148350Y191750D01*
X145350Y192500D02*X147600D01*
X144600Y191750D02*X145350Y192500D01*
X144600Y191750D02*Y190250D01*
X145350Y189500D01*
X147600D01*
X148350Y188750D01*
Y187250D01*
X147600Y186500D02*X148350Y187250D01*
X145350Y186500D02*X147600D01*
X144600Y187250D02*X145350Y186500D01*
X98000Y191300D02*X99200Y192500D01*
Y186500D01*
X98000D02*X100250D01*
X102050Y191750D02*X102800Y192500D01*
X105050D01*
X105800Y191750D01*
Y190250D01*
X102050Y186500D02*X105800Y190250D01*
X102050Y186500D02*X105800D01*
X45000Y187250D02*X45750Y186500D01*
X45000Y191750D02*Y187250D01*
Y191750D02*X45750Y192500D01*
X47250D01*
X48000Y191750D01*
Y187250D01*
X47250Y186500D02*X48000Y187250D01*
X45750Y186500D02*X47250D01*
X45000Y188000D02*X48000Y191000D01*
X49800Y186500D02*X50550D01*
X52350Y187250D02*X53100Y186500D01*
X52350Y191750D02*Y187250D01*
Y191750D02*X53100Y192500D01*
X54600D01*
X55350Y191750D01*
Y187250D01*
X54600Y186500D02*X55350Y187250D01*
X53100Y186500D02*X54600D01*
X52350Y188000D02*X55350Y191000D01*
X57150Y191750D02*X57900Y192500D01*
X59400D01*
X60150Y191750D01*
X59400Y186500D02*X60150Y187250D01*
X57900Y186500D02*X59400D01*
X57150Y187250D02*X57900Y186500D01*
Y189800D02*X59400D01*
X60150Y191750D02*Y190550D01*
Y189050D02*Y187250D01*
Y189050D02*X59400Y189800D01*
X60150Y190550D02*X59400Y189800D01*
X61950Y187250D02*X62700Y186500D01*
X61950Y191750D02*Y187250D01*
Y191750D02*X62700Y192500D01*
X64200D01*
X64950Y191750D01*
Y187250D01*
X64200Y186500D02*X64950Y187250D01*
X62700Y186500D02*X64200D01*
X61950Y188000D02*X64950Y191000D01*
X105500Y35500D02*Y33900D01*
Y35500D02*X106887Y36300D01*
X105500Y35500D02*X104113Y36300D01*
X101000Y17500D02*Y15900D01*
Y17500D02*X102387Y18300D01*
X101000Y17500D02*X99613Y18300D01*
X150000Y9500D02*Y7900D01*
Y9500D02*X151387Y10300D01*
X150000Y9500D02*X148613Y10300D01*
X52500Y95500D02*Y93900D01*
Y95500D02*X53887Y96300D01*
X52500Y95500D02*X51113Y96300D01*
X56500Y66500D02*Y64900D01*
Y66500D02*X57887Y67300D01*
X56500Y66500D02*X55113Y67300D01*
X100500Y35500D02*Y33900D01*
Y35500D02*X101887Y36300D01*
X100500Y35500D02*X99113Y36300D01*
X170500Y37000D02*Y35400D01*
Y37000D02*X171887Y37800D01*
X170500Y37000D02*X169113Y37800D01*
X165000Y9500D02*Y7900D01*
Y9500D02*X166387Y10300D01*
X165000Y9500D02*X163613Y10300D01*
X170500Y9500D02*Y7900D01*
Y9500D02*X171887Y10300D01*
X170500Y9500D02*X169113Y10300D01*
X99500Y41500D02*Y39900D01*
Y41500D02*X100887Y42300D01*
X99500Y41500D02*X98113Y42300D01*
X93000Y40500D02*Y38900D01*
Y40500D02*X94387Y41300D01*
X93000Y40500D02*X91613Y41300D01*
X93000Y45500D02*Y43900D01*
Y45500D02*X94387Y46300D01*
X93000Y45500D02*X91613Y46300D01*
X79000Y59500D02*Y57900D01*
Y59500D02*X80387Y60300D01*
X79000Y59500D02*X77613Y60300D01*
X15000Y205250D02*Y203650D01*
Y205250D02*X16387Y206050D01*
X15000Y205250D02*X13613Y206050D01*
X135000Y207500D02*X136500Y204500D01*
X138000Y207500D01*
X136500Y204500D02*Y201500D01*
X139800Y204800D02*X142050D01*
X139800Y201500D02*X142800D01*
X139800Y207500D02*Y201500D01*
Y207500D02*X142800D01*
X147600D02*X148350Y206750D01*
X145350Y207500D02*X147600D01*
X144600Y206750D02*X145350Y207500D01*
X144600Y206750D02*Y205250D01*
X145350Y204500D01*
X147600D01*
X148350Y203750D01*
Y202250D01*
X147600Y201500D02*X148350Y202250D01*
X145350Y201500D02*X147600D01*
X144600Y202250D02*X145350Y201500D01*
X98000Y206300D02*X99200Y207500D01*
Y201500D01*
X98000D02*X100250D01*
X102050Y206750D02*X102800Y207500D01*
X104300D01*
X105050Y206750D01*
X104300Y201500D02*X105050Y202250D01*
X102800Y201500D02*X104300D01*
X102050Y202250D02*X102800Y201500D01*
Y204800D02*X104300D01*
X105050Y206750D02*Y205550D01*
Y204050D02*Y202250D01*
Y204050D02*X104300Y204800D01*
X105050Y205550D02*X104300Y204800D01*
X45000Y202250D02*X45750Y201500D01*
X45000Y206750D02*Y202250D01*
Y206750D02*X45750Y207500D01*
X47250D01*
X48000Y206750D01*
Y202250D01*
X47250Y201500D02*X48000Y202250D01*
X45750Y201500D02*X47250D01*
X45000Y203000D02*X48000Y206000D01*
X49800Y201500D02*X50550D01*
X52350Y202250D02*X53100Y201500D01*
X52350Y206750D02*Y202250D01*
Y206750D02*X53100Y207500D01*
X54600D01*
X55350Y206750D01*
Y202250D01*
X54600Y201500D02*X55350Y202250D01*
X53100Y201500D02*X54600D01*
X52350Y203000D02*X55350Y206000D01*
X57150Y206750D02*X57900Y207500D01*
X60150D01*
X60900Y206750D01*
Y205250D01*
X57150Y201500D02*X60900Y205250D01*
X57150Y201500D02*X60900D01*
X62700Y202250D02*X63450Y201500D01*
X62700Y206750D02*Y202250D01*
Y206750D02*X63450Y207500D01*
X64950D01*
X65700Y206750D01*
Y202250D01*
X64950Y201500D02*X65700Y202250D01*
X63450Y201500D02*X64950D01*
X62700Y203000D02*X65700Y206000D01*
X3000Y222500D02*X3750Y221750D01*
X750Y222500D02*X3000D01*
X0Y221750D02*X750Y222500D01*
X0Y221750D02*Y220250D01*
X750Y219500D01*
X3000D01*
X3750Y218750D01*
Y217250D01*
X3000Y216500D02*X3750Y217250D01*
X750Y216500D02*X3000D01*
X0Y217250D02*X750Y216500D01*
X5550Y219500D02*Y217250D01*
X6300Y216500D01*
X8550Y219500D02*Y215000D01*
X7800Y214250D02*X8550Y215000D01*
X6300Y214250D02*X7800D01*
X5550Y215000D02*X6300Y214250D01*
Y216500D02*X7800D01*
X8550Y217250D01*
X11100Y218750D02*Y216500D01*
Y218750D02*X11850Y219500D01*
X12600D01*
X13350Y218750D01*
Y216500D01*
Y218750D02*X14100Y219500D01*
X14850D01*
X15600Y218750D01*
Y216500D01*
X10350Y219500D02*X11100Y218750D01*
X17400Y222500D02*Y216500D01*
Y217250D02*X18150Y216500D01*
X19650D01*
X20400Y217250D01*
Y218750D02*Y217250D01*
X19650Y219500D02*X20400Y218750D01*
X18150Y219500D02*X19650D01*
X17400Y218750D02*X18150Y219500D01*
X22200Y218750D02*Y217250D01*
Y218750D02*X22950Y219500D01*
X24450D01*
X25200Y218750D01*
Y217250D01*
X24450Y216500D02*X25200Y217250D01*
X22950Y216500D02*X24450D01*
X22200Y217250D02*X22950Y216500D01*
X27000Y222500D02*Y217250D01*
X27750Y216500D01*
X0Y213250D02*X29250D01*
X41750Y222500D02*Y216500D01*
X43700Y222500D02*X44750Y221450D01*
Y217550D01*
X43700Y216500D02*X44750Y217550D01*
X41000Y216500D02*X43700D01*
X41000Y222500D02*X43700D01*
G54D87*X46550Y221000D02*Y220850D01*
G54D86*Y218750D02*Y216500D01*
X50300Y219500D02*X51050Y218750D01*
X48800Y219500D02*X50300D01*
X48050Y218750D02*X48800Y219500D01*
X48050Y218750D02*Y217250D01*
X48800Y216500D01*
X51050Y219500D02*Y217250D01*
X51800Y216500D01*
X48800D02*X50300D01*
X51050Y217250D01*
X54350Y218750D02*Y216500D01*
Y218750D02*X55100Y219500D01*
X55850D01*
X56600Y218750D01*
Y216500D01*
Y218750D02*X57350Y219500D01*
X58100D01*
X58850Y218750D01*
Y216500D01*
X53600Y219500D02*X54350Y218750D01*
X60650Y216500D02*X61400D01*
X65900Y217250D02*X66650Y216500D01*
X65900Y221750D02*X66650Y222500D01*
X65900Y221750D02*Y217250D01*
X68450Y222500D02*X69950D01*
X69200D02*Y216500D01*
X68450D02*X69950D01*
X72500Y218750D02*Y216500D01*
Y218750D02*X73250Y219500D01*
X74000D01*
X74750Y218750D01*
Y216500D01*
X71750Y219500D02*X72500Y218750D01*
X77300Y219500D02*X79550D01*
X76550Y218750D02*X77300Y219500D01*
X76550Y218750D02*Y217250D01*
X77300Y216500D01*
X79550D01*
X81350Y222500D02*Y216500D01*
Y218750D02*X82100Y219500D01*
X83600D01*
X84350Y218750D01*
Y216500D01*
X86150Y222500D02*X86900Y221750D01*
Y217250D01*
X86150Y216500D02*X86900Y217250D01*
X41000Y213250D02*X88700D01*
X96050Y216500D02*X98000D01*
X95000Y217550D02*X96050Y216500D01*
X95000Y221450D02*Y217550D01*
Y221450D02*X96050Y222500D01*
X98000D01*
X99800Y218750D02*Y217250D01*
Y218750D02*X100550Y219500D01*
X102050D01*
X102800Y218750D01*
Y217250D01*
X102050Y216500D02*X102800Y217250D01*
X100550Y216500D02*X102050D01*
X99800Y217250D02*X100550Y216500D01*
X104600Y219500D02*Y217250D01*
X105350Y216500D01*
X106850D01*
X107600Y217250D01*
Y219500D02*Y217250D01*
X110150Y218750D02*Y216500D01*
Y218750D02*X110900Y219500D01*
X111650D01*
X112400Y218750D01*
Y216500D01*
X109400Y219500D02*X110150Y218750D01*
X114950Y222500D02*Y217250D01*
X115700Y216500D01*
X114200Y220250D02*X115700D01*
X95000Y213250D02*X117200D01*
X130750Y222500D02*Y216500D01*
X130000Y222500D02*X133000D01*
X133750Y221750D01*
Y220250D01*
X133000Y219500D02*X133750Y220250D01*
X130750Y219500D02*X133000D01*
X135550Y222500D02*Y217250D01*
X136300Y216500D01*
X140050Y219500D02*X140800Y218750D01*
X138550Y219500D02*X140050D01*
X137800Y218750D02*X138550Y219500D01*
X137800Y218750D02*Y217250D01*
X138550Y216500D01*
X140800Y219500D02*Y217250D01*
X141550Y216500D01*
X138550D02*X140050D01*
X140800Y217250D01*
X144100Y222500D02*Y217250D01*
X144850Y216500D01*
X143350Y220250D02*X144850D01*
X147100Y216500D02*X149350D01*
X146350Y217250D02*X147100Y216500D01*
X146350Y218750D02*Y217250D01*
Y218750D02*X147100Y219500D01*
X148600D01*
X149350Y218750D01*
X146350Y218000D02*X149350D01*
Y218750D02*Y218000D01*
X154150Y222500D02*Y216500D01*
X153400D02*X154150Y217250D01*
X151900Y216500D02*X153400D01*
X151150Y217250D02*X151900Y216500D01*
X151150Y218750D02*Y217250D01*
Y218750D02*X151900Y219500D01*
X153400D01*
X154150Y218750D01*
X157450Y219500D02*Y218750D01*
Y217250D02*Y216500D01*
X155950Y221750D02*Y221000D01*
Y221750D02*X156700Y222500D01*
X158200D01*
X158950Y221750D01*
Y221000D01*
X157450Y219500D02*X158950Y221000D01*
X130000Y213250D02*X160750D01*
X0Y237500D02*X3000D01*
X1500D02*Y231500D01*
X4800Y237500D02*Y231500D01*
Y233750D02*X5550Y234500D01*
X7050D01*
X7800Y233750D01*
Y231500D01*
X10350D02*X12600D01*
X9600Y232250D02*X10350Y231500D01*
X9600Y233750D02*Y232250D01*
Y233750D02*X10350Y234500D01*
X11850D01*
X12600Y233750D01*
X9600Y233000D02*X12600D01*
Y233750D02*Y233000D01*
X15150Y233750D02*Y231500D01*
Y233750D02*X15900Y234500D01*
X17400D01*
X14400D02*X15150Y233750D01*
X19950Y231500D02*X22200D01*
X19200Y232250D02*X19950Y231500D01*
X19200Y233750D02*Y232250D01*
Y233750D02*X19950Y234500D01*
X21450D01*
X22200Y233750D01*
X19200Y233000D02*X22200D01*
Y233750D02*Y233000D01*
X28950Y234500D02*X29700Y233750D01*
X27450Y234500D02*X28950D01*
X26700Y233750D02*X27450Y234500D01*
X26700Y233750D02*Y232250D01*
X27450Y231500D01*
X29700Y234500D02*Y232250D01*
X30450Y231500D01*
X27450D02*X28950D01*
X29700Y232250D01*
X33000Y233750D02*Y231500D01*
Y233750D02*X33750Y234500D01*
X35250D01*
X32250D02*X33000Y233750D01*
X37800Y231500D02*X40050D01*
X37050Y232250D02*X37800Y231500D01*
X37050Y233750D02*Y232250D01*
Y233750D02*X37800Y234500D01*
X39300D01*
X40050Y233750D01*
X37050Y233000D02*X40050D01*
Y233750D02*Y233000D01*
X45300Y231500D02*X48300Y237500D01*
X44550D02*X48300D01*
X55800D02*Y231500D01*
X55050D02*X55800Y232250D01*
X53550Y231500D02*X55050D01*
X52800Y232250D02*X53550Y231500D01*
X52800Y233750D02*Y232250D01*
Y233750D02*X53550Y234500D01*
X55050D01*
X55800Y233750D01*
G54D87*X57600Y236000D02*Y235850D01*
G54D86*Y233750D02*Y231500D01*
X59850Y236750D02*Y231500D01*
Y236750D02*X60600Y237500D01*
X61350D01*
X59100Y234500D02*X60600D01*
X63600Y236750D02*Y231500D01*
Y236750D02*X64350Y237500D01*
X65100D01*
X62850Y234500D02*X64350D01*
X67350Y231500D02*X69600D01*
X66600Y232250D02*X67350Y231500D01*
X66600Y233750D02*Y232250D01*
Y233750D02*X67350Y234500D01*
X68850D01*
X69600Y233750D01*
X66600Y233000D02*X69600D01*
Y233750D02*Y233000D01*
X72150Y233750D02*Y231500D01*
Y233750D02*X72900Y234500D01*
X74400D01*
X71400D02*X72150Y233750D01*
X76950Y231500D02*X79200D01*
X76200Y232250D02*X76950Y231500D01*
X76200Y233750D02*Y232250D01*
Y233750D02*X76950Y234500D01*
X78450D01*
X79200Y233750D01*
X76200Y233000D02*X79200D01*
Y233750D02*Y233000D01*
X81750Y233750D02*Y231500D01*
Y233750D02*X82500Y234500D01*
X83250D01*
X84000Y233750D01*
Y231500D01*
X81000Y234500D02*X81750Y233750D01*
X86550Y237500D02*Y232250D01*
X87300Y231500D01*
X85800Y235250D02*X87300D01*
X94500Y237500D02*Y231500D01*
X93750D02*X94500Y232250D01*
X92250Y231500D02*X93750D01*
X91500Y232250D02*X92250Y231500D01*
X91500Y233750D02*Y232250D01*
Y233750D02*X92250Y234500D01*
X93750D01*
X94500Y233750D01*
X97050D02*Y231500D01*
Y233750D02*X97800Y234500D01*
X99300D01*
X96300D02*X97050Y233750D01*
G54D87*X101100Y236000D02*Y235850D01*
G54D86*Y233750D02*Y231500D01*
X102600Y237500D02*Y232250D01*
X103350Y231500D01*
X104850Y237500D02*Y232250D01*
X105600Y231500D01*
X110550D02*X112800D01*
X113550Y232250D01*
X112800Y233000D02*X113550Y232250D01*
X110550Y233000D02*X112800D01*
X109800Y233750D02*X110550Y233000D01*
X109800Y233750D02*X110550Y234500D01*
X112800D01*
X113550Y233750D01*
X109800Y232250D02*X110550Y231500D01*
G54D87*X115350Y236000D02*Y235850D01*
G54D86*Y233750D02*Y231500D01*
X116850Y234500D02*X119850D01*
X116850Y231500D02*X119850Y234500D01*
X116850Y231500D02*X119850D01*
X122400D02*X124650D01*
X121650Y232250D02*X122400Y231500D01*
X121650Y233750D02*Y232250D01*
Y233750D02*X122400Y234500D01*
X123900D01*
X124650Y233750D01*
X121650Y233000D02*X124650D01*
Y233750D02*Y233000D01*
X127200Y231500D02*X129450D01*
X130200Y232250D01*
X129450Y233000D02*X130200Y232250D01*
X127200Y233000D02*X129450D01*
X126450Y233750D02*X127200Y233000D01*
X126450Y233750D02*X127200Y234500D01*
X129450D01*
X130200Y233750D01*
X126450Y232250D02*X127200Y231500D01*
X134700Y234500D02*Y232250D01*
X135450Y231500D01*
X136950D01*
X137700Y232250D01*
Y234500D02*Y232250D01*
X140250Y231500D02*X142500D01*
X143250Y232250D01*
X142500Y233000D02*X143250Y232250D01*
X140250Y233000D02*X142500D01*
X139500Y233750D02*X140250Y233000D01*
X139500Y233750D02*X140250Y234500D01*
X142500D01*
X143250Y233750D01*
X139500Y232250D02*X140250Y231500D01*
X145800D02*X148050D01*
X145050Y232250D02*X145800Y231500D01*
X145050Y233750D02*Y232250D01*
Y233750D02*X145800Y234500D01*
X147300D01*
X148050Y233750D01*
X145050Y233000D02*X148050D01*
Y233750D02*Y233000D01*
X152850Y237500D02*Y231500D01*
X152100D02*X152850Y232250D01*
X150600Y231500D02*X152100D01*
X149850Y232250D02*X150600Y231500D01*
X149850Y233750D02*Y232250D01*
Y233750D02*X150600Y234500D01*
X152100D01*
X152850Y233750D01*
G54D87*X157350Y236000D02*Y235850D01*
G54D86*Y233750D02*Y231500D01*
X159600Y233750D02*Y231500D01*
Y233750D02*X160350Y234500D01*
X161100D01*
X161850Y233750D01*
Y231500D01*
X158850Y234500D02*X159600Y233750D01*
X167100Y237500D02*Y232250D01*
X167850Y231500D01*
X166350Y235250D02*X167850D01*
X169350Y237500D02*Y231500D01*
Y233750D02*X170100Y234500D01*
X171600D01*
X172350Y233750D01*
Y231500D01*
G54D87*X174150Y236000D02*Y235850D01*
G54D86*Y233750D02*Y231500D01*
X176400D02*X178650D01*
X179400Y232250D01*
X178650Y233000D02*X179400Y232250D01*
X176400Y233000D02*X178650D01*
X175650Y233750D02*X176400Y233000D01*
X175650Y233750D02*X176400Y234500D01*
X178650D01*
X179400Y233750D01*
X175650Y232250D02*X176400Y231500D01*
X183900Y237500D02*Y232250D01*
X184650Y231500D01*
X188400Y234500D02*X189150Y233750D01*
X186900Y234500D02*X188400D01*
X186150Y233750D02*X186900Y234500D01*
X186150Y233750D02*Y232250D01*
X186900Y231500D01*
X189150Y234500D02*Y232250D01*
X189900Y231500D01*
X186900D02*X188400D01*
X189150Y232250D01*
X191700Y234500D02*Y232250D01*
X192450Y231500D01*
X194700Y234500D02*Y230000D01*
X193950Y229250D02*X194700Y230000D01*
X192450Y229250D02*X193950D01*
X191700Y230000D02*X192450Y229250D01*
Y231500D02*X193950D01*
X194700Y232250D01*
X196500Y233750D02*Y232250D01*
Y233750D02*X197250Y234500D01*
X198750D01*
X199500Y233750D01*
Y232250D01*
X198750Y231500D02*X199500Y232250D01*
X197250Y231500D02*X198750D01*
X196500Y232250D02*X197250Y231500D01*
X201300Y234500D02*Y232250D01*
X202050Y231500D01*
X203550D01*
X204300Y232250D01*
Y234500D02*Y232250D01*
X206850Y237500D02*Y232250D01*
X207600Y231500D01*
X206100Y235250D02*X207600D01*
X209100Y230000D02*X210600Y231500D01*
X217350Y237500D02*X218100Y236750D01*
X215850Y237500D02*X217350D01*
X215100Y236750D02*X215850Y237500D01*
X215100Y236750D02*Y232250D01*
X215850Y231500D01*
X217350Y234800D02*X218100Y234050D01*
X215100Y234800D02*X217350D01*
X215850Y231500D02*X217350D01*
X218100Y232250D01*
Y234050D02*Y232250D01*
X219900Y236750D02*X220650Y237500D01*
X222900D01*
X223650Y236750D01*
Y235250D01*
X219900Y231500D02*X223650Y235250D01*
X219900Y231500D02*X223650D01*
X228150Y237500D02*Y231500D01*
Y233750D02*X228900Y234500D01*
X230400D01*
X231150Y233750D01*
Y231500D01*
X232950Y233750D02*Y232250D01*
Y233750D02*X233700Y234500D01*
X235200D01*
X235950Y233750D01*
Y232250D01*
X235200Y231500D02*X235950Y232250D01*
X233700Y231500D02*X235200D01*
X232950Y232250D02*X233700Y231500D01*
X237750Y237500D02*Y232250D01*
X238500Y231500D01*
X240750D02*X243000D01*
X240000Y232250D02*X240750Y231500D01*
X240000Y233750D02*Y232250D01*
Y233750D02*X240750Y234500D01*
X242250D01*
X243000Y233750D01*
X240000Y233000D02*X243000D01*
Y233750D02*Y233000D01*
X245550Y231500D02*X247800D01*
X248550Y232250D01*
X247800Y233000D02*X248550Y232250D01*
X245550Y233000D02*X247800D01*
X244800Y233750D02*X245550Y233000D01*
X244800Y233750D02*X245550Y234500D01*
X247800D01*
X248550Y233750D01*
X244800Y232250D02*X245550Y231500D01*
X253800Y237500D02*Y232250D01*
X254550Y231500D01*
X253050Y235250D02*X254550D01*
X256050Y233750D02*Y232250D01*
Y233750D02*X256800Y234500D01*
X258300D01*
X259050Y233750D01*
Y232250D01*
X258300Y231500D02*X259050Y232250D01*
X256800Y231500D02*X258300D01*
X256050Y232250D02*X256800Y231500D01*
X261600Y237500D02*Y232250D01*
X262350Y231500D01*
X260850Y235250D02*X262350D01*
X266100Y234500D02*X266850Y233750D01*
X264600Y234500D02*X266100D01*
X263850Y233750D02*X264600Y234500D01*
X263850Y233750D02*Y232250D01*
X264600Y231500D01*
X266850Y234500D02*Y232250D01*
X267600Y231500D01*
X264600D02*X266100D01*
X266850Y232250D01*
X269400Y237500D02*Y232250D01*
X270150Y231500D01*
G54D88*X0Y104000D02*X222000D01*
X0D02*Y0D01*
X222000Y104000D02*Y0D01*
X0D02*X222000D01*
G54D86*X200000Y117500D02*Y111500D01*
Y117500D02*X202250Y114500D01*
X204500Y117500D01*
Y111500D01*
X208550Y114500D02*X209300Y113750D01*
X207050Y114500D02*X208550D01*
X206300Y113750D02*X207050Y114500D01*
X206300Y113750D02*Y112250D01*
X207050Y111500D01*
X209300Y114500D02*Y112250D01*
X210050Y111500D01*
X207050D02*X208550D01*
X209300Y112250D01*
X211850Y114500D02*X214850Y111500D01*
X211850D02*X214850Y114500D01*
G54D87*X216650Y116000D02*Y115850D01*
G54D86*Y113750D02*Y111500D01*
X218900Y113750D02*Y111500D01*
Y113750D02*X219650Y114500D01*
X220400D01*
X221150Y113750D01*
Y111500D01*
Y113750D02*X221900Y114500D01*
X222650D01*
X223400Y113750D01*
Y111500D01*
X218150Y114500D02*X218900Y113750D01*
X225200Y114500D02*Y112250D01*
X225950Y111500D01*
X227450D01*
X228200Y112250D01*
Y114500D02*Y112250D01*
X230750Y113750D02*Y111500D01*
Y113750D02*X231500Y114500D01*
X232250D01*
X233000Y113750D01*
Y111500D01*
Y113750D02*X233750Y114500D01*
X234500D01*
X235250Y113750D01*
Y111500D01*
X230000Y114500D02*X230750Y113750D01*
X240500Y117500D02*Y111500D01*
X242450Y117500D02*X243500Y116450D01*
Y112550D01*
X242450Y111500D02*X243500Y112550D01*
X239750Y111500D02*X242450D01*
X239750Y117500D02*X242450D01*
G54D87*X245300Y116000D02*Y115850D01*
G54D86*Y113750D02*Y111500D01*
X247550Y113750D02*Y111500D01*
Y113750D02*X248300Y114500D01*
X249050D01*
X249800Y113750D01*
Y111500D01*
Y113750D02*X250550Y114500D01*
X251300D01*
X252050Y113750D01*
Y111500D01*
X246800Y114500D02*X247550Y113750D01*
X254600Y111500D02*X256850D01*
X253850Y112250D02*X254600Y111500D01*
X253850Y113750D02*Y112250D01*
Y113750D02*X254600Y114500D01*
X256100D01*
X256850Y113750D01*
X253850Y113000D02*X256850D01*
Y113750D02*Y113000D01*
X259400Y113750D02*Y111500D01*
Y113750D02*X260150Y114500D01*
X260900D01*
X261650Y113750D01*
Y111500D01*
X258650Y114500D02*X259400Y113750D01*
X264200Y111500D02*X266450D01*
X267200Y112250D01*
X266450Y113000D02*X267200Y112250D01*
X264200Y113000D02*X266450D01*
X263450Y113750D02*X264200Y113000D01*
X263450Y113750D02*X264200Y114500D01*
X266450D01*
X267200Y113750D01*
X263450Y112250D02*X264200Y111500D01*
G54D87*X269000Y116000D02*Y115850D01*
G54D86*Y113750D02*Y111500D01*
X270500Y113750D02*Y112250D01*
Y113750D02*X271250Y114500D01*
X272750D01*
X273500Y113750D01*
Y112250D01*
X272750Y111500D02*X273500Y112250D01*
X271250Y111500D02*X272750D01*
X270500Y112250D02*X271250Y111500D01*
X276050Y113750D02*Y111500D01*
Y113750D02*X276800Y114500D01*
X277550D01*
X278300Y113750D01*
Y111500D01*
X275300Y114500D02*X276050Y113750D01*
X280850Y111500D02*X283100D01*
X283850Y112250D01*
X283100Y113000D02*X283850Y112250D01*
X280850Y113000D02*X283100D01*
X280100Y113750D02*X280850Y113000D01*
X280100Y113750D02*X280850Y114500D01*
X283100D01*
X283850Y113750D01*
X280100Y112250D02*X280850Y111500D01*
X285650Y115250D02*X286400D01*
X285650Y113750D02*X286400D01*
X290900Y116750D02*X291650Y117500D01*
X293900D01*
X294650Y116750D01*
Y115250D01*
X290900Y111500D02*X294650Y115250D01*
X290900Y111500D02*X294650D01*
X296450Y116750D02*X297200Y117500D01*
X299450D01*
X300200Y116750D01*
Y115250D01*
X296450Y111500D02*X300200Y115250D01*
X296450Y111500D02*X300200D01*
X302000Y116750D02*X302750Y117500D01*
X305000D01*
X305750Y116750D01*
Y115250D01*
X302000Y111500D02*X305750Y115250D01*
X302000Y111500D02*X305750D01*
X307550Y112250D02*X308300Y111500D01*
X307550Y116750D02*Y112250D01*
Y116750D02*X308300Y117500D01*
X309800D01*
X310550Y116750D01*
Y112250D01*
X309800Y111500D02*X310550Y112250D01*
X308300Y111500D02*X309800D01*
X307550Y113000D02*X310550Y116000D01*
X312350Y111500D02*X313100D01*
X314900Y112250D02*X315650Y111500D01*
X314900Y116750D02*Y112250D01*
Y116750D02*X315650Y117500D01*
X317150D01*
X317900Y116750D01*
Y112250D01*
X317150Y111500D02*X317900Y112250D01*
X315650Y111500D02*X317150D01*
X314900Y113000D02*X317900Y116000D01*
X319700Y112250D02*X320450Y111500D01*
X319700Y116750D02*Y112250D01*
Y116750D02*X320450Y117500D01*
X321950D01*
X322700Y116750D01*
Y112250D01*
X321950Y111500D02*X322700Y112250D01*
X320450Y111500D02*X321950D01*
X319700Y113000D02*X322700Y116000D01*
X324500Y112250D02*X325250Y111500D01*
X324500Y116750D02*Y112250D01*
Y116750D02*X325250Y117500D01*
X326750D01*
X327500Y116750D01*
Y112250D01*
X326750Y111500D02*X327500Y112250D01*
X325250Y111500D02*X326750D01*
X324500Y113000D02*X327500Y116000D01*
X329300Y112250D02*X330050Y111500D01*
X329300Y116750D02*Y112250D01*
Y116750D02*X330050Y117500D01*
X331550D01*
X332300Y116750D01*
Y112250D01*
X331550Y111500D02*X332300Y112250D01*
X330050Y111500D02*X331550D01*
X329300Y113000D02*X332300Y116000D01*
X334100Y112250D02*X334850Y111500D01*
X334100Y116750D02*Y112250D01*
Y116750D02*X334850Y117500D01*
X336350D01*
X337100Y116750D01*
Y112250D01*
X336350Y111500D02*X337100Y112250D01*
X334850Y111500D02*X336350D01*
X334100Y113000D02*X337100Y116000D01*
X338900Y112250D02*X339650Y111500D01*
X338900Y116750D02*Y112250D01*
Y116750D02*X339650Y117500D01*
X341150D01*
X341900Y116750D01*
Y112250D01*
X341150Y111500D02*X341900Y112250D01*
X339650Y111500D02*X341150D01*
X338900Y113000D02*X341900Y116000D01*
X347150Y113750D02*Y111500D01*
Y113750D02*X347900Y114500D01*
X348650D01*
X349400Y113750D01*
Y111500D01*
Y113750D02*X350150Y114500D01*
X350900D01*
X351650Y113750D01*
Y111500D01*
X346400Y114500D02*X347150Y113750D01*
G54D87*X353450Y116000D02*Y115850D01*
G54D86*Y113750D02*Y111500D01*
X354950Y117500D02*Y112250D01*
X355700Y111500D01*
X357950D02*X360200D01*
X360950Y112250D01*
X360200Y113000D02*X360950Y112250D01*
X357950Y113000D02*X360200D01*
X357200Y113750D02*X357950Y113000D01*
X357200Y113750D02*X357950Y114500D01*
X360200D01*
X360950Y113750D01*
X357200Y112250D02*X357950Y111500D01*
X365450Y114500D02*Y112250D01*
X366200Y111500D01*
X366950D01*
X367700Y112250D01*
Y114500D02*Y112250D01*
X368450Y111500D01*
X369200D01*
X369950Y112250D01*
Y114500D02*Y112250D01*
G54D87*X371750Y116000D02*Y115850D01*
G54D86*Y113750D02*Y111500D01*
X376250Y117500D02*Y111500D01*
X375500D02*X376250Y112250D01*
X374000Y111500D02*X375500D01*
X373250Y112250D02*X374000Y111500D01*
X373250Y113750D02*Y112250D01*
Y113750D02*X374000Y114500D01*
X375500D01*
X376250Y113750D01*
X378800Y111500D02*X381050D01*
X378050Y112250D02*X378800Y111500D01*
X378050Y113750D02*Y112250D01*
Y113750D02*X378800Y114500D01*
X380300D01*
X381050Y113750D01*
X378050Y113000D02*X381050D01*
Y113750D02*Y113000D01*
X382850Y110000D02*X384350Y111500D01*
X388850Y116300D02*X390050Y117500D01*
Y111500D01*
X388850D02*X391100D01*
X392900Y112250D02*X393650Y111500D01*
X392900Y116750D02*Y112250D01*
Y116750D02*X393650Y117500D01*
X395150D01*
X395900Y116750D01*
Y112250D01*
X395150Y111500D02*X395900Y112250D01*
X393650Y111500D02*X395150D01*
X392900Y113000D02*X395900Y116000D01*
X397700Y113750D02*X400700Y117500D01*
X397700Y113750D02*X401450D01*
X400700Y117500D02*Y111500D01*
X403250Y112250D02*X404000Y111500D01*
X403250Y116750D02*Y112250D01*
Y116750D02*X404000Y117500D01*
X405500D01*
X406250Y116750D01*
Y112250D01*
X405500Y111500D02*X406250Y112250D01*
X404000Y111500D02*X405500D01*
X403250Y113000D02*X406250Y116000D01*
X408050Y111500D02*X408800D01*
X410600Y112250D02*X411350Y111500D01*
X410600Y116750D02*Y112250D01*
Y116750D02*X411350Y117500D01*
X412850D01*
X413600Y116750D01*
Y112250D01*
X412850Y111500D02*X413600Y112250D01*
X411350Y111500D02*X412850D01*
X410600Y113000D02*X413600Y116000D01*
X415400Y112250D02*X416150Y111500D01*
X415400Y116750D02*Y112250D01*
Y116750D02*X416150Y117500D01*
X417650D01*
X418400Y116750D01*
Y112250D01*
X417650Y111500D02*X418400Y112250D01*
X416150Y111500D02*X417650D01*
X415400Y113000D02*X418400Y116000D01*
X420200Y112250D02*X420950Y111500D01*
X420200Y116750D02*Y112250D01*
Y116750D02*X420950Y117500D01*
X422450D01*
X423200Y116750D01*
Y112250D01*
X422450Y111500D02*X423200Y112250D01*
X420950Y111500D02*X422450D01*
X420200Y113000D02*X423200Y116000D01*
X425000Y112250D02*X425750Y111500D01*
X425000Y116750D02*Y112250D01*
Y116750D02*X425750Y117500D01*
X427250D01*
X428000Y116750D01*
Y112250D01*
X427250Y111500D02*X428000Y112250D01*
X425750Y111500D02*X427250D01*
X425000Y113000D02*X428000Y116000D01*
X429800Y112250D02*X430550Y111500D01*
X429800Y116750D02*Y112250D01*
Y116750D02*X430550Y117500D01*
X432050D01*
X432800Y116750D01*
Y112250D01*
X432050Y111500D02*X432800Y112250D01*
X430550Y111500D02*X432050D01*
X429800Y113000D02*X432800Y116000D01*
X434600Y112250D02*X435350Y111500D01*
X434600Y116750D02*Y112250D01*
Y116750D02*X435350Y117500D01*
X436850D01*
X437600Y116750D01*
Y112250D01*
X436850Y111500D02*X437600Y112250D01*
X435350Y111500D02*X436850D01*
X434600Y113000D02*X437600Y116000D01*
X442850Y113750D02*Y111500D01*
Y113750D02*X443600Y114500D01*
X444350D01*
X445100Y113750D01*
Y111500D01*
Y113750D02*X445850Y114500D01*
X446600D01*
X447350Y113750D01*
Y111500D01*
X442100Y114500D02*X442850Y113750D01*
G54D87*X449150Y116000D02*Y115850D01*
G54D86*Y113750D02*Y111500D01*
X450650Y117500D02*Y112250D01*
X451400Y111500D01*
X453650D02*X455900D01*
X456650Y112250D01*
X455900Y113000D02*X456650Y112250D01*
X453650Y113000D02*X455900D01*
X452900Y113750D02*X453650Y113000D01*
X452900Y113750D02*X453650Y114500D01*
X455900D01*
X456650Y113750D01*
X452900Y112250D02*X453650Y111500D01*
X461150Y117500D02*Y111500D01*
Y113750D02*X461900Y114500D01*
X463400D01*
X464150Y113750D01*
Y111500D01*
G54D87*X465950Y116000D02*Y115850D01*
G54D86*Y113750D02*Y111500D01*
X469700Y114500D02*X470450Y113750D01*
X468200Y114500D02*X469700D01*
X467450Y113750D02*X468200Y114500D01*
X467450Y113750D02*Y112250D01*
X468200Y111500D01*
X469700D01*
X470450Y112250D01*
X467450Y110000D02*X468200Y109250D01*
X469700D01*
X470450Y110000D01*
Y114500D02*Y110000D01*
X472250Y117500D02*Y111500D01*
Y113750D02*X473000Y114500D01*
X474500D01*
X475250Y113750D01*
Y111500D01*
X0Y-9500D02*X3000D01*
X3750Y-8750D01*
Y-6950D02*Y-8750D01*
X3000Y-6200D02*X3750Y-6950D01*
X750Y-6200D02*X3000D01*
X750Y-3500D02*Y-9500D01*
X0Y-3500D02*X3000D01*
X3750Y-4250D01*
Y-5450D01*
X3000Y-6200D02*X3750Y-5450D01*
X5550Y-7250D02*Y-8750D01*
Y-7250D02*X6300Y-6500D01*
X7800D01*
X8550Y-7250D01*
Y-8750D01*
X7800Y-9500D02*X8550Y-8750D01*
X6300Y-9500D02*X7800D01*
X5550Y-8750D02*X6300Y-9500D01*
X12600Y-6500D02*X13350Y-7250D01*
X11100Y-6500D02*X12600D01*
X10350Y-7250D02*X11100Y-6500D01*
X10350Y-7250D02*Y-8750D01*
X11100Y-9500D01*
X13350Y-6500D02*Y-8750D01*
X14100Y-9500D01*
X11100D02*X12600D01*
X13350Y-8750D01*
X16650Y-7250D02*Y-9500D01*
Y-7250D02*X17400Y-6500D01*
X18900D01*
X15900D02*X16650Y-7250D01*
X23700Y-3500D02*Y-9500D01*
X22950D02*X23700Y-8750D01*
X21450Y-9500D02*X22950D01*
X20700Y-8750D02*X21450Y-9500D01*
X20700Y-7250D02*Y-8750D01*
Y-7250D02*X21450Y-6500D01*
X22950D01*
X23700Y-7250D01*
X28200D02*Y-8750D01*
Y-7250D02*X28950Y-6500D01*
X30450D01*
X31200Y-7250D01*
Y-8750D01*
X30450Y-9500D02*X31200Y-8750D01*
X28950Y-9500D02*X30450D01*
X28200Y-8750D02*X28950Y-9500D01*
X33000Y-6500D02*Y-8750D01*
X33750Y-9500D01*
X35250D01*
X36000Y-8750D01*
Y-6500D02*Y-8750D01*
X38550Y-3500D02*Y-8750D01*
X39300Y-9500D01*
X37800Y-5750D02*X39300D01*
X40800Y-3500D02*Y-8750D01*
X41550Y-9500D01*
G54D87*X43050Y-5000D02*Y-5150D01*
G54D86*Y-7250D02*Y-9500D01*
X45300Y-7250D02*Y-9500D01*
Y-7250D02*X46050Y-6500D01*
X46800D01*
X47550Y-7250D01*
Y-9500D01*
X44550Y-6500D02*X45300Y-7250D01*
X50100Y-9500D02*X52350D01*
X49350Y-8750D02*X50100Y-9500D01*
X49350Y-7250D02*Y-8750D01*
Y-7250D02*X50100Y-6500D01*
X51600D01*
X52350Y-7250D01*
X49350Y-8000D02*X52350D01*
Y-7250D02*Y-8000D01*
G54D87*X56850Y-5000D02*Y-5150D01*
G54D86*Y-7250D02*Y-9500D01*
X59100D02*X61350D01*
X62100Y-8750D01*
X61350Y-8000D02*X62100Y-8750D01*
X59100Y-8000D02*X61350D01*
X58350Y-7250D02*X59100Y-8000D01*
X58350Y-7250D02*X59100Y-6500D01*
X61350D01*
X62100Y-7250D01*
X58350Y-8750D02*X59100Y-9500D01*
X67350Y-3500D02*Y-8750D01*
X68100Y-9500D01*
X66600Y-5750D02*X68100D01*
X69600Y-3500D02*Y-9500D01*
Y-7250D02*X70350Y-6500D01*
X71850D01*
X72600Y-7250D01*
Y-9500D01*
X75150D02*X77400D01*
X74400Y-8750D02*X75150Y-9500D01*
X74400Y-7250D02*Y-8750D01*
Y-7250D02*X75150Y-6500D01*
X76650D01*
X77400Y-7250D01*
X74400Y-8000D02*X77400D01*
Y-7250D02*Y-8000D01*
X82650Y-6500D02*X84900D01*
X81900Y-7250D02*X82650Y-6500D01*
X81900Y-7250D02*Y-8750D01*
X82650Y-9500D01*
X84900D01*
X87450D02*X89700D01*
X86700Y-8750D02*X87450Y-9500D01*
X86700Y-7250D02*Y-8750D01*
Y-7250D02*X87450Y-6500D01*
X88950D01*
X89700Y-7250D01*
X86700Y-8000D02*X89700D01*
Y-7250D02*Y-8000D01*
X92250Y-7250D02*Y-9500D01*
Y-7250D02*X93000Y-6500D01*
X93750D01*
X94500Y-7250D01*
Y-9500D01*
X91500Y-6500D02*X92250Y-7250D01*
X97050Y-3500D02*Y-8750D01*
X97800Y-9500D01*
X96300Y-5750D02*X97800D01*
X100050Y-9500D02*X102300D01*
X99300Y-8750D02*X100050Y-9500D01*
X99300Y-7250D02*Y-8750D01*
Y-7250D02*X100050Y-6500D01*
X101550D01*
X102300Y-7250D01*
X99300Y-8000D02*X102300D01*
Y-7250D02*Y-8000D01*
X104850Y-7250D02*Y-9500D01*
Y-7250D02*X105600Y-6500D01*
X107100D01*
X104100D02*X104850Y-7250D01*
X108900Y-3500D02*Y-8750D01*
X109650Y-9500D01*
G54D87*X111150Y-5000D02*Y-5150D01*
G54D86*Y-7250D02*Y-9500D01*
X113400Y-7250D02*Y-9500D01*
Y-7250D02*X114150Y-6500D01*
X114900D01*
X115650Y-7250D01*
Y-9500D01*
X112650Y-6500D02*X113400Y-7250D01*
X118200Y-9500D02*X120450D01*
X117450Y-8750D02*X118200Y-9500D01*
X117450Y-7250D02*Y-8750D01*
Y-7250D02*X118200Y-6500D01*
X119700D01*
X120450Y-7250D01*
X117450Y-8000D02*X120450D01*
Y-7250D02*Y-8000D01*
X124950Y-7250D02*Y-8750D01*
Y-7250D02*X125700Y-6500D01*
X127200D01*
X127950Y-7250D01*
Y-8750D01*
X127200Y-9500D02*X127950Y-8750D01*
X125700Y-9500D02*X127200D01*
X124950Y-8750D02*X125700Y-9500D01*
X130500Y-4250D02*Y-9500D01*
Y-4250D02*X131250Y-3500D01*
X132000D01*
X129750Y-6500D02*X131250D01*
X136950Y-3500D02*Y-8750D01*
X137700Y-9500D01*
X136200Y-5750D02*X137700D01*
X139200Y-3500D02*Y-9500D01*
Y-7250D02*X139950Y-6500D01*
X141450D01*
X142200Y-7250D01*
Y-9500D01*
G54D87*X144000Y-5000D02*Y-5150D01*
G54D86*Y-7250D02*Y-9500D01*
X146250D02*X148500D01*
X149250Y-8750D01*
X148500Y-8000D02*X149250Y-8750D01*
X146250Y-8000D02*X148500D01*
X145500Y-7250D02*X146250Y-8000D01*
X145500Y-7250D02*X146250Y-6500D01*
X148500D01*
X149250Y-7250D01*
X145500Y-8750D02*X146250Y-9500D01*
X153750Y-8750D02*X154500Y-9500D01*
X153750Y-7550D02*Y-8750D01*
Y-7550D02*X154800Y-6500D01*
X155700D01*
X156750Y-7550D01*
Y-8750D01*
X156000Y-9500D02*X156750Y-8750D01*
X154500Y-9500D02*X156000D01*
X153750Y-5450D02*X154800Y-6500D01*
X153750Y-4250D02*Y-5450D01*
Y-4250D02*X154500Y-3500D01*
X156000D01*
X156750Y-4250D01*
Y-5450D01*
X155700Y-6500D02*X156750Y-5450D01*
X158550Y-9500D02*X159300D01*
X161100Y-8750D02*X161850Y-9500D01*
X161100Y-4250D02*Y-8750D01*
Y-4250D02*X161850Y-3500D01*
X163350D01*
X164100Y-4250D01*
Y-8750D01*
X163350Y-9500D02*X164100Y-8750D01*
X161850Y-9500D02*X163350D01*
X161100Y-8000D02*X164100Y-5000D01*
X165900Y-8750D02*X166650Y-9500D01*
X165900Y-4250D02*Y-8750D01*
Y-4250D02*X166650Y-3500D01*
X168150D01*
X168900Y-4250D01*
Y-8750D01*
X168150Y-9500D02*X168900Y-8750D01*
X166650Y-9500D02*X168150D01*
X165900Y-8000D02*X168900Y-5000D01*
X170700Y-8750D02*X171450Y-9500D01*
X170700Y-4250D02*Y-8750D01*
Y-4250D02*X171450Y-3500D01*
X172950D01*
X173700Y-4250D01*
Y-8750D01*
X172950Y-9500D02*X173700Y-8750D01*
X171450Y-9500D02*X172950D01*
X170700Y-8000D02*X173700Y-5000D01*
X175500Y-8750D02*X176250Y-9500D01*
X175500Y-4250D02*Y-8750D01*
Y-4250D02*X176250Y-3500D01*
X177750D01*
X178500Y-4250D01*
Y-8750D01*
X177750Y-9500D02*X178500Y-8750D01*
X176250Y-9500D02*X177750D01*
X175500Y-8000D02*X178500Y-5000D01*
X180300Y-8750D02*X181050Y-9500D01*
X180300Y-4250D02*Y-8750D01*
Y-4250D02*X181050Y-3500D01*
X182550D01*
X183300Y-4250D01*
Y-8750D01*
X182550Y-9500D02*X183300Y-8750D01*
X181050Y-9500D02*X182550D01*
X180300Y-8000D02*X183300Y-5000D01*
X185100Y-8750D02*X185850Y-9500D01*
X185100Y-4250D02*Y-8750D01*
Y-4250D02*X185850Y-3500D01*
X187350D01*
X188100Y-4250D01*
Y-8750D01*
X187350Y-9500D02*X188100Y-8750D01*
X185850Y-9500D02*X187350D01*
X185100Y-8000D02*X188100Y-5000D01*
X193350Y-7250D02*Y-9500D01*
Y-7250D02*X194100Y-6500D01*
X194850D01*
X195600Y-7250D01*
Y-9500D01*
Y-7250D02*X196350Y-6500D01*
X197100D01*
X197850Y-7250D01*
Y-9500D01*
X192600Y-6500D02*X193350Y-7250D01*
G54D87*X199650Y-5000D02*Y-5150D01*
G54D86*Y-7250D02*Y-9500D01*
X201150Y-3500D02*Y-8750D01*
X201900Y-9500D01*
X206850Y-7250D02*Y-9500D01*
Y-7250D02*X207600Y-6500D01*
X209100D01*
X206100D02*X206850Y-7250D01*
X211650Y-9500D02*X213900D01*
X210900Y-8750D02*X211650Y-9500D01*
X210900Y-7250D02*Y-8750D01*
Y-7250D02*X211650Y-6500D01*
X213150D01*
X213900Y-7250D01*
X210900Y-8000D02*X213900D01*
Y-7250D02*Y-8000D01*
X216450Y-6500D02*X218700D01*
X215700Y-7250D02*X216450Y-6500D01*
X215700Y-7250D02*Y-8750D01*
X216450Y-9500D01*
X218700D01*
X221250Y-3500D02*Y-8750D01*
X222000Y-9500D01*
X220500Y-5750D02*X222000D01*
X225750Y-6500D02*X226500Y-7250D01*
X224250Y-6500D02*X225750D01*
X223500Y-7250D02*X224250Y-6500D01*
X223500Y-7250D02*Y-8750D01*
X224250Y-9500D01*
X226500Y-6500D02*Y-8750D01*
X227250Y-9500D01*
X224250D02*X225750D01*
X226500Y-8750D01*
X229800Y-7250D02*Y-9500D01*
Y-7250D02*X230550Y-6500D01*
X231300D01*
X232050Y-7250D01*
Y-9500D01*
X229050Y-6500D02*X229800Y-7250D01*
X236100Y-6500D02*X236850Y-7250D01*
X234600Y-6500D02*X236100D01*
X233850Y-7250D02*X234600Y-6500D01*
X233850Y-7250D02*Y-8750D01*
X234600Y-9500D01*
X236100D01*
X236850Y-8750D01*
X233850Y-11000D02*X234600Y-11750D01*
X236100D01*
X236850Y-11000D01*
Y-6500D02*Y-11000D01*
X238650Y-3500D02*Y-8750D01*
X239400Y-9500D01*
X241650D02*X243900D01*
X240900Y-8750D02*X241650Y-9500D01*
X240900Y-7250D02*Y-8750D01*
Y-7250D02*X241650Y-6500D01*
X243150D01*
X243900Y-7250D01*
X240900Y-8000D02*X243900D01*
Y-7250D02*Y-8000D01*
X248400Y-6500D02*X251400D01*
X255900Y-8750D02*X256650Y-9500D01*
X255900Y-4250D02*Y-8750D01*
Y-4250D02*X256650Y-3500D01*
X258150D01*
X258900Y-4250D01*
Y-8750D01*
X258150Y-9500D02*X258900Y-8750D01*
X256650Y-9500D02*X258150D01*
X255900Y-8000D02*X258900Y-5000D01*
X260700Y-11000D02*X262200Y-9500D01*
X264000Y-8750D02*X264750Y-9500D01*
X264000Y-4250D02*Y-8750D01*
Y-4250D02*X264750Y-3500D01*
X266250D01*
X267000Y-4250D01*
Y-8750D01*
X266250Y-9500D02*X267000Y-8750D01*
X264750Y-9500D02*X266250D01*
X264000Y-8000D02*X267000Y-5000D01*
X272250Y-3500D02*Y-8750D01*
X273000Y-9500D01*
X271500Y-5750D02*X273000D01*
X274500Y-7250D02*Y-8750D01*
Y-7250D02*X275250Y-6500D01*
X276750D01*
X277500Y-7250D01*
Y-8750D01*
X276750Y-9500D02*X277500Y-8750D01*
X275250Y-9500D02*X276750D01*
X274500Y-8750D02*X275250Y-9500D01*
X282000Y-4250D02*X282750Y-3500D01*
X285000D01*
X285750Y-4250D01*
Y-5750D01*
X282000Y-9500D02*X285750Y-5750D01*
X282000Y-9500D02*X285750D01*
X287550Y-4250D02*X288300Y-3500D01*
X290550D01*
X291300Y-4250D01*
Y-5750D01*
X287550Y-9500D02*X291300Y-5750D01*
X287550Y-9500D02*X291300D01*
X293100Y-4250D02*X293850Y-3500D01*
X296100D01*
X296850Y-4250D01*
Y-5750D01*
X293100Y-9500D02*X296850Y-5750D01*
X293100Y-9500D02*X296850D01*
X298650Y-8750D02*X299400Y-9500D01*
X298650Y-4250D02*Y-8750D01*
Y-4250D02*X299400Y-3500D01*
X300900D01*
X301650Y-4250D01*
Y-8750D01*
X300900Y-9500D02*X301650Y-8750D01*
X299400Y-9500D02*X300900D01*
X298650Y-8000D02*X301650Y-5000D01*
X303450Y-9500D02*X304200D01*
X306000Y-8750D02*X306750Y-9500D01*
X306000Y-4250D02*Y-8750D01*
Y-4250D02*X306750Y-3500D01*
X308250D01*
X309000Y-4250D01*
Y-8750D01*
X308250Y-9500D02*X309000Y-8750D01*
X306750Y-9500D02*X308250D01*
X306000Y-8000D02*X309000Y-5000D01*
X310800Y-8750D02*X311550Y-9500D01*
X310800Y-4250D02*Y-8750D01*
Y-4250D02*X311550Y-3500D01*
X313050D01*
X313800Y-4250D01*
Y-8750D01*
X313050Y-9500D02*X313800Y-8750D01*
X311550Y-9500D02*X313050D01*
X310800Y-8000D02*X313800Y-5000D01*
X315600Y-8750D02*X316350Y-9500D01*
X315600Y-4250D02*Y-8750D01*
Y-4250D02*X316350Y-3500D01*
X317850D01*
X318600Y-4250D01*
Y-8750D01*
X317850Y-9500D02*X318600Y-8750D01*
X316350Y-9500D02*X317850D01*
X315600Y-8000D02*X318600Y-5000D01*
X320400Y-8750D02*X321150Y-9500D01*
X320400Y-4250D02*Y-8750D01*
Y-4250D02*X321150Y-3500D01*
X322650D01*
X323400Y-4250D01*
Y-8750D01*
X322650Y-9500D02*X323400Y-8750D01*
X321150Y-9500D02*X322650D01*
X320400Y-8000D02*X323400Y-5000D01*
X325200Y-8750D02*X325950Y-9500D01*
X325200Y-4250D02*Y-8750D01*
Y-4250D02*X325950Y-3500D01*
X327450D01*
X328200Y-4250D01*
Y-8750D01*
X327450Y-9500D02*X328200Y-8750D01*
X325950Y-9500D02*X327450D01*
X325200Y-8000D02*X328200Y-5000D01*
X330000Y-8750D02*X330750Y-9500D01*
X330000Y-4250D02*Y-8750D01*
Y-4250D02*X330750Y-3500D01*
X332250D01*
X333000Y-4250D01*
Y-8750D01*
X332250Y-9500D02*X333000Y-8750D01*
X330750Y-9500D02*X332250D01*
X330000Y-8000D02*X333000Y-5000D01*
X334800Y-11000D02*X336300Y-9500D01*
X338100Y-4700D02*X339300Y-3500D01*
Y-9500D01*
X338100D02*X340350D01*
X342150Y-8750D02*X342900Y-9500D01*
X342150Y-4250D02*Y-8750D01*
Y-4250D02*X342900Y-3500D01*
X344400D01*
X345150Y-4250D01*
Y-8750D01*
X344400Y-9500D02*X345150Y-8750D01*
X342900Y-9500D02*X344400D01*
X342150Y-8000D02*X345150Y-5000D01*
X346950Y-7250D02*X349950Y-3500D01*
X346950Y-7250D02*X350700D01*
X349950Y-3500D02*Y-9500D01*
X352500Y-8750D02*X353250Y-9500D01*
X352500Y-4250D02*Y-8750D01*
Y-4250D02*X353250Y-3500D01*
X354750D01*
X355500Y-4250D01*
Y-8750D01*
X354750Y-9500D02*X355500Y-8750D01*
X353250Y-9500D02*X354750D01*
X352500Y-8000D02*X355500Y-5000D01*
X357300Y-9500D02*X358050D01*
X359850Y-8750D02*X360600Y-9500D01*
X359850Y-4250D02*Y-8750D01*
Y-4250D02*X360600Y-3500D01*
X362100D01*
X362850Y-4250D01*
Y-8750D01*
X362100Y-9500D02*X362850Y-8750D01*
X360600Y-9500D02*X362100D01*
X359850Y-8000D02*X362850Y-5000D01*
X364650Y-8750D02*X365400Y-9500D01*
X364650Y-4250D02*Y-8750D01*
Y-4250D02*X365400Y-3500D01*
X366900D01*
X367650Y-4250D01*
Y-8750D01*
X366900Y-9500D02*X367650Y-8750D01*
X365400Y-9500D02*X366900D01*
X364650Y-8000D02*X367650Y-5000D01*
X369450Y-8750D02*X370200Y-9500D01*
X369450Y-4250D02*Y-8750D01*
Y-4250D02*X370200Y-3500D01*
X371700D01*
X372450Y-4250D01*
Y-8750D01*
X371700Y-9500D02*X372450Y-8750D01*
X370200Y-9500D02*X371700D01*
X369450Y-8000D02*X372450Y-5000D01*
X374250Y-8750D02*X375000Y-9500D01*
X374250Y-4250D02*Y-8750D01*
Y-4250D02*X375000Y-3500D01*
X376500D01*
X377250Y-4250D01*
Y-8750D01*
X376500Y-9500D02*X377250Y-8750D01*
X375000Y-9500D02*X376500D01*
X374250Y-8000D02*X377250Y-5000D01*
X379050Y-8750D02*X379800Y-9500D01*
X379050Y-4250D02*Y-8750D01*
Y-4250D02*X379800Y-3500D01*
X381300D01*
X382050Y-4250D01*
Y-8750D01*
X381300Y-9500D02*X382050Y-8750D01*
X379800Y-9500D02*X381300D01*
X379050Y-8000D02*X382050Y-5000D01*
X383850Y-8750D02*X384600Y-9500D01*
X383850Y-4250D02*Y-8750D01*
Y-4250D02*X384600Y-3500D01*
X386100D01*
X386850Y-4250D01*
Y-8750D01*
X386100Y-9500D02*X386850Y-8750D01*
X384600Y-9500D02*X386100D01*
X383850Y-8000D02*X386850Y-5000D01*
X392100Y-7250D02*Y-9500D01*
Y-7250D02*X392850Y-6500D01*
X393600D01*
X394350Y-7250D01*
Y-9500D01*
Y-7250D02*X395100Y-6500D01*
X395850D01*
X396600Y-7250D01*
Y-9500D01*
X391350Y-6500D02*X392100Y-7250D01*
G54D87*X398400Y-5000D02*Y-5150D01*
G54D86*Y-7250D02*Y-9500D01*
X399900Y-3500D02*Y-8750D01*
X400650Y-9500D01*
X402900D02*X405150D01*
X405900Y-8750D01*
X405150Y-8000D02*X405900Y-8750D01*
X402900Y-8000D02*X405150D01*
X402150Y-7250D02*X402900Y-8000D01*
X402150Y-7250D02*X402900Y-6500D01*
X405150D01*
X405900Y-7250D01*
X402150Y-8750D02*X402900Y-9500D01*
X200750Y132500D02*Y126500D01*
X202700Y132500D02*X203750Y131450D01*
Y127550D01*
X202700Y126500D02*X203750Y127550D01*
X200000Y126500D02*X202700D01*
X200000Y132500D02*X202700D01*
X207800Y129500D02*X208550Y128750D01*
X206300Y129500D02*X207800D01*
X205550Y128750D02*X206300Y129500D01*
X205550Y128750D02*Y127250D01*
X206300Y126500D01*
X208550Y129500D02*Y127250D01*
X209300Y126500D01*
X206300D02*X207800D01*
X208550Y127250D01*
X211850Y132500D02*Y127250D01*
X212600Y126500D01*
X211100Y130250D02*X212600D01*
X214850Y126500D02*X217100D01*
X214100Y127250D02*X214850Y126500D01*
X214100Y128750D02*Y127250D01*
Y128750D02*X214850Y129500D01*
X216350D01*
X217100Y128750D01*
X214100Y128000D02*X217100D01*
Y128750D02*Y128000D01*
X218900Y130250D02*X219650D01*
X218900Y128750D02*X219650D01*
X227150Y132500D02*X227900Y131750D01*
X224900Y132500D02*X227150D01*
X224150Y131750D02*X224900Y132500D01*
X224150Y131750D02*Y130250D01*
X224900Y129500D01*
X227150D01*
X227900Y128750D01*
Y127250D01*
X227150Y126500D02*X227900Y127250D01*
X224900Y126500D02*X227150D01*
X224150Y127250D02*X224900Y126500D01*
X229700Y129500D02*Y127250D01*
X230450Y126500D01*
X231950D01*
X232700Y127250D01*
Y129500D02*Y127250D01*
X235250Y128750D02*Y126500D01*
Y128750D02*X236000Y129500D01*
X236750D01*
X237500Y128750D01*
Y126500D01*
X234500Y129500D02*X235250Y128750D01*
X242000Y127250D02*X242750Y126500D01*
X242000Y131750D02*Y127250D01*
Y131750D02*X242750Y132500D01*
X244250D01*
X245000Y131750D01*
Y127250D01*
X244250Y126500D02*X245000Y127250D01*
X242750Y126500D02*X244250D01*
X242000Y128000D02*X245000Y131000D01*
X246800Y131750D02*X247550Y132500D01*
X249050D01*
X249800Y131750D01*
X249050Y126500D02*X249800Y127250D01*
X247550Y126500D02*X249050D01*
X246800Y127250D02*X247550Y126500D01*
Y129800D02*X249050D01*
X249800Y131750D02*Y130550D01*
Y129050D02*Y127250D01*
Y129050D02*X249050Y129800D01*
X249800Y130550D02*X249050Y129800D01*
X254300Y132500D02*Y126500D01*
Y132500D02*X257300D01*
X254300Y129800D02*X256550D01*
X259850Y126500D02*X262100D01*
X259100Y127250D02*X259850Y126500D01*
X259100Y128750D02*Y127250D01*
Y128750D02*X259850Y129500D01*
X261350D01*
X262100Y128750D01*
X259100Y128000D02*X262100D01*
Y128750D02*Y128000D01*
X263900Y132500D02*Y126500D01*
Y127250D02*X264650Y126500D01*
X266150D01*
X266900Y127250D01*
Y128750D02*Y127250D01*
X266150Y129500D02*X266900Y128750D01*
X264650Y129500D02*X266150D01*
X263900Y128750D02*X264650Y129500D01*
X271400Y131750D02*X272150Y132500D01*
X274400D01*
X275150Y131750D01*
Y130250D01*
X271400Y126500D02*X275150Y130250D01*
X271400Y126500D02*X275150D01*
X276950Y127250D02*X277700Y126500D01*
X276950Y131750D02*Y127250D01*
Y131750D02*X277700Y132500D01*
X279200D01*
X279950Y131750D01*
Y127250D01*
X279200Y126500D02*X279950Y127250D01*
X277700Y126500D02*X279200D01*
X276950Y128000D02*X279950Y131000D01*
X281750Y131300D02*X282950Y132500D01*
Y126500D01*
X281750D02*X284000D01*
X285800Y131750D02*X286550Y132500D01*
X288050D01*
X288800Y131750D01*
X288050Y126500D02*X288800Y127250D01*
X286550Y126500D02*X288050D01*
X285800Y127250D02*X286550Y126500D01*
Y129800D02*X288050D01*
X288800Y131750D02*Y130550D01*
Y129050D02*Y127250D01*
Y129050D02*X288050Y129800D01*
X288800Y130550D02*X288050Y129800D01*
X293300Y131300D02*X294500Y132500D01*
Y126500D01*
X293300D02*X295550D01*
X297350Y131750D02*X298100Y132500D01*
X300350D01*
X301100Y131750D01*
Y130250D01*
X297350Y126500D02*X301100Y130250D01*
X297350Y126500D02*X301100D01*
X302900Y130250D02*X303650D01*
X302900Y128750D02*X303650D01*
X305450Y131750D02*X306200Y132500D01*
X308450D01*
X309200Y131750D01*
Y130250D01*
X305450Y126500D02*X309200Y130250D01*
X305450Y126500D02*X309200D01*
X313250Y132500D02*X314000Y131750D01*
X311750Y132500D02*X313250D01*
X311000Y131750D02*X311750Y132500D01*
X311000Y131750D02*Y127250D01*
X311750Y126500D01*
X313250Y129800D02*X314000Y129050D01*
X311000Y129800D02*X313250D01*
X311750Y126500D02*X313250D01*
X314000Y127250D01*
Y129050D02*Y127250D01*
X315800Y130250D02*X316550D01*
X315800Y128750D02*X316550D01*
X318350Y132500D02*X321350D01*
X318350D02*Y129500D01*
X319100Y130250D01*
X320600D01*
X321350Y129500D01*
Y127250D01*
X320600Y126500D02*X321350Y127250D01*
X319100Y126500D02*X320600D01*
X318350Y127250D02*X319100Y126500D01*
X323150Y127250D02*X323900Y126500D01*
X323150Y131750D02*Y127250D01*
Y131750D02*X323900Y132500D01*
X325400D01*
X326150Y131750D01*
Y127250D01*
X325400Y126500D02*X326150Y127250D01*
X323900Y126500D02*X325400D01*
X323150Y128000D02*X326150Y131000D01*
X330650D02*Y126500D01*
Y131000D02*X331700Y132500D01*
X333350D01*
X334400Y131000D01*
Y126500D01*
X330650Y129500D02*X334400D01*
X336200Y132500D02*Y126500D01*
Y132500D02*X338450Y129500D01*
X340700Y132500D01*
Y126500D01*
X348200Y132500D02*X348950Y131750D01*
X345950Y132500D02*X348200D01*
X345200Y131750D02*X345950Y132500D01*
X345200Y131750D02*Y127250D01*
X345950Y126500D01*
X348200D01*
X348950Y127250D01*
Y128750D02*Y127250D01*
X348200Y129500D02*X348950Y128750D01*
X346700Y129500D02*X348200D01*
X350750Y132500D02*Y126500D01*
Y132500D02*X353000Y129500D01*
X355250Y132500D01*
Y126500D01*
X357050Y132500D02*X360050D01*
X358550D02*Y126500D01*
X364550Y132500D02*Y127250D01*
X365300Y126500D01*
X366800D01*
X367550Y127250D01*
Y132500D02*Y127250D01*
X369350Y132500D02*X372350D01*
X370850D02*Y126500D01*
X375200D02*X377150D01*
X374150Y127550D02*X375200Y126500D01*
X374150Y131450D02*Y127550D01*
Y131450D02*X375200Y132500D01*
X377150D01*
X200000Y146000D02*Y141500D01*
Y146000D02*X201050Y147500D01*
X202700D01*
X203750Y146000D01*
Y141500D01*
X200000Y144500D02*X203750D01*
X205550D02*Y142250D01*
X206300Y141500D01*
X207800D01*
X208550Y142250D01*
Y144500D02*Y142250D01*
X211100Y147500D02*Y142250D01*
X211850Y141500D01*
X210350Y145250D02*X211850D01*
X213350Y147500D02*Y141500D01*
Y143750D02*X214100Y144500D01*
X215600D01*
X216350Y143750D01*
Y141500D01*
X218150Y143750D02*Y142250D01*
Y143750D02*X218900Y144500D01*
X220400D01*
X221150Y143750D01*
Y142250D01*
X220400Y141500D02*X221150Y142250D01*
X218900Y141500D02*X220400D01*
X218150Y142250D02*X218900Y141500D01*
X223700Y143750D02*Y141500D01*
Y143750D02*X224450Y144500D01*
X225950D01*
X222950D02*X223700Y143750D01*
X227750Y145250D02*X228500D01*
X227750Y143750D02*X228500D01*
X233000Y147500D02*Y141500D01*
Y147500D02*X235250Y144500D01*
X237500Y147500D01*
Y141500D01*
G54D87*X239300Y146000D02*Y145850D01*
G54D86*Y143750D02*Y141500D01*
X241550Y144500D02*X243800D01*
X240800Y143750D02*X241550Y144500D01*
X240800Y143750D02*Y142250D01*
X241550Y141500D01*
X243800D01*
X245600Y147500D02*Y141500D01*
Y143750D02*X246350Y144500D01*
X247850D01*
X248600Y143750D01*
Y141500D01*
X252650Y144500D02*X253400Y143750D01*
X251150Y144500D02*X252650D01*
X250400Y143750D02*X251150Y144500D01*
X250400Y143750D02*Y142250D01*
X251150Y141500D01*
X253400Y144500D02*Y142250D01*
X254150Y141500D01*
X251150D02*X252650D01*
X253400Y142250D01*
X256700Y141500D02*X258950D01*
X255950Y142250D02*X256700Y141500D01*
X255950Y143750D02*Y142250D01*
Y143750D02*X256700Y144500D01*
X258200D01*
X258950Y143750D01*
X255950Y143000D02*X258950D01*
Y143750D02*Y143000D01*
X260750Y147500D02*Y142250D01*
X261500Y141500D01*
X266450Y147500D02*Y141500D01*
X265700Y147500D02*X268700D01*
X269450Y146750D01*
Y145250D01*
X268700Y144500D02*X269450Y145250D01*
X266450Y144500D02*X268700D01*
X272000Y141500D02*X274250D01*
X271250Y142250D02*X272000Y141500D01*
X271250Y143750D02*Y142250D01*
Y143750D02*X272000Y144500D01*
X273500D01*
X274250Y143750D01*
X271250Y143000D02*X274250D01*
Y143750D02*Y143000D01*
X276800Y147500D02*Y142250D01*
X277550Y141500D01*
X276050Y145250D02*X277550D01*
X279800Y141500D02*X282050D01*
X279050Y142250D02*X279800Y141500D01*
X279050Y143750D02*Y142250D01*
Y143750D02*X279800Y144500D01*
X281300D01*
X282050Y143750D01*
X279050Y143000D02*X282050D01*
Y143750D02*Y143000D01*
X284600Y143750D02*Y141500D01*
Y143750D02*X285350Y144500D01*
X286850D01*
X283850D02*X284600Y143750D01*
X289400Y141500D02*X291650D01*
X292400Y142250D01*
X291650Y143000D02*X292400Y142250D01*
X289400Y143000D02*X291650D01*
X288650Y143750D02*X289400Y143000D01*
X288650Y143750D02*X289400Y144500D01*
X291650D01*
X292400Y143750D01*
X288650Y142250D02*X289400Y141500D01*
X294950D02*X297200D01*
X294200Y142250D02*X294950Y141500D01*
X294200Y143750D02*Y142250D01*
Y143750D02*X294950Y144500D01*
X296450D01*
X297200Y143750D01*
X294200Y143000D02*X297200D01*
Y143750D02*Y143000D01*
X299750Y143750D02*Y141500D01*
Y143750D02*X300500Y144500D01*
X301250D01*
X302000Y143750D01*
Y141500D01*
X299000Y144500D02*X299750Y143750D01*
X200000Y162500D02*X203000D01*
X201500D02*Y156500D01*
G54D87*X204800Y161000D02*Y160850D01*
G54D86*Y158750D02*Y156500D01*
X207050Y162500D02*Y157250D01*
X207800Y156500D01*
X206300Y160250D02*X207800D01*
X209300Y162500D02*Y157250D01*
X210050Y156500D01*
X212300D02*X214550D01*
X211550Y157250D02*X212300Y156500D01*
X211550Y158750D02*Y157250D01*
Y158750D02*X212300Y159500D01*
X213800D01*
X214550Y158750D01*
X211550Y158000D02*X214550D01*
Y158750D02*Y158000D01*
X216350Y160250D02*X217100D01*
X216350Y158750D02*X217100D01*
X221600Y157250D02*X222350Y156500D01*
X221600Y161750D02*X222350Y162500D01*
X221600Y161750D02*Y157250D01*
X224150Y159500D02*Y157250D01*
X224900Y156500D01*
X226400D01*
X227150Y157250D01*
Y159500D02*Y157250D01*
X229700Y158750D02*Y156500D01*
Y158750D02*X230450Y159500D01*
X231200D01*
X231950Y158750D01*
Y156500D01*
X228950Y159500D02*X229700Y158750D01*
X233750Y162500D02*Y156500D01*
Y158750D02*X236000Y156500D01*
X233750Y158750D02*X235250Y160250D01*
X238550Y158750D02*Y156500D01*
Y158750D02*X239300Y159500D01*
X240050D01*
X240800Y158750D01*
Y156500D01*
X237800Y159500D02*X238550Y158750D01*
X242600D02*Y157250D01*
Y158750D02*X243350Y159500D01*
X244850D01*
X245600Y158750D01*
Y157250D01*
X244850Y156500D02*X245600Y157250D01*
X243350Y156500D02*X244850D01*
X242600Y157250D02*X243350Y156500D01*
X247400Y159500D02*Y157250D01*
X248150Y156500D01*
X248900D01*
X249650Y157250D01*
Y159500D02*Y157250D01*
X250400Y156500D01*
X251150D01*
X251900Y157250D01*
Y159500D02*Y157250D01*
X254450Y158750D02*Y156500D01*
Y158750D02*X255200Y159500D01*
X255950D01*
X256700Y158750D01*
Y156500D01*
X253700Y159500D02*X254450Y158750D01*
X258500Y162500D02*X259250Y161750D01*
Y157250D01*
X258500Y156500D02*X259250Y157250D01*
X263750Y159500D02*X266750D01*
X271250Y162500D02*Y156500D01*
Y162500D02*X274250D01*
X271250Y159800D02*X273500D01*
X278300Y159500D02*X279050Y158750D01*
X276800Y159500D02*X278300D01*
X276050Y158750D02*X276800Y159500D01*
X276050Y158750D02*Y157250D01*
X276800Y156500D01*
X279050Y159500D02*Y157250D01*
X279800Y156500D01*
X276800D02*X278300D01*
X279050Y157250D01*
X281600Y162500D02*Y156500D01*
Y157250D02*X282350Y156500D01*
X283850D01*
X284600Y157250D01*
Y158750D02*Y157250D01*
X283850Y159500D02*X284600Y158750D01*
X282350Y159500D02*X283850D01*
X281600Y158750D02*X282350Y159500D01*
X287150Y158750D02*Y156500D01*
Y158750D02*X287900Y159500D01*
X289400D01*
X286400D02*X287150Y158750D01*
G54D87*X291200Y161000D02*Y160850D01*
G54D86*Y158750D02*Y156500D01*
X293450Y159500D02*X295700D01*
X292700Y158750D02*X293450Y159500D01*
X292700Y158750D02*Y157250D01*
X293450Y156500D01*
X295700D01*
X299750Y159500D02*X300500Y158750D01*
X298250Y159500D02*X299750D01*
X297500Y158750D02*X298250Y159500D01*
X297500Y158750D02*Y157250D01*
X298250Y156500D01*
X300500Y159500D02*Y157250D01*
X301250Y156500D01*
X298250D02*X299750D01*
X300500Y157250D01*
X303800Y162500D02*Y157250D01*
X304550Y156500D01*
X303050Y160250D02*X304550D01*
G54D87*X306050Y161000D02*Y160850D01*
G54D86*Y158750D02*Y156500D01*
X307550Y158750D02*Y157250D01*
Y158750D02*X308300Y159500D01*
X309800D01*
X310550Y158750D01*
Y157250D01*
X309800Y156500D02*X310550Y157250D01*
X308300Y156500D02*X309800D01*
X307550Y157250D02*X308300Y156500D01*
X313100Y158750D02*Y156500D01*
Y158750D02*X313850Y159500D01*
X314600D01*
X315350Y158750D01*
Y156500D01*
X312350Y159500D02*X313100Y158750D01*
X320600Y162500D02*Y156500D01*
X322550Y162500D02*X323600Y161450D01*
Y157550D01*
X322550Y156500D02*X323600Y157550D01*
X319850Y156500D02*X322550D01*
X319850Y162500D02*X322550D01*
X326150Y158750D02*Y156500D01*
Y158750D02*X326900Y159500D01*
X328400D01*
X325400D02*X326150Y158750D01*
X332450Y159500D02*X333200Y158750D01*
X330950Y159500D02*X332450D01*
X330200Y158750D02*X330950Y159500D01*
X330200Y158750D02*Y157250D01*
X330950Y156500D01*
X333200Y159500D02*Y157250D01*
X333950Y156500D01*
X330950D02*X332450D01*
X333200Y157250D01*
X335750Y159500D02*Y157250D01*
X336500Y156500D01*
X337250D01*
X338000Y157250D01*
Y159500D02*Y157250D01*
X338750Y156500D01*
X339500D01*
X340250Y157250D01*
Y159500D02*Y157250D01*
G54D87*X342050Y161000D02*Y160850D01*
G54D86*Y158750D02*Y156500D01*
X344300Y158750D02*Y156500D01*
Y158750D02*X345050Y159500D01*
X345800D01*
X346550Y158750D01*
Y156500D01*
X343550Y159500D02*X344300Y158750D01*
X350600Y159500D02*X351350Y158750D01*
X349100Y159500D02*X350600D01*
X348350Y158750D02*X349100Y159500D01*
X348350Y158750D02*Y157250D01*
X349100Y156500D01*
X350600D01*
X351350Y157250D01*
X348350Y155000D02*X349100Y154250D01*
X350600D01*
X351350Y155000D01*
Y159500D02*Y155000D01*
M02*
