G04 start of page 7 for group -4079 idx -4079 *
G04 Title: (unknown), topsilk *
G04 Creator: pcb 20110918 *
G04 CreationDate: Sun 03 Feb 2013 12:26:50 AM GMT UTC *
G04 For: petersen *
G04 Format: Gerber/RS-274X *
G04 PCB-Dimensions: 222000 104000 *
G04 PCB-Coordinate-Origin: lower left *
%MOIN*%
%FSLAX25Y25*%
%LNTOPSILK*%
%ADD77C,0.0200*%
%ADD76C,0.0100*%
G54D76*X221500Y103500D02*X500D01*
Y500D02*X221500D01*
Y103500D02*Y500D01*
X500D02*Y103500D01*
X166000Y100500D02*X168000D01*
X167000Y101500D02*Y99500D01*
X164800Y98500D02*X163800Y102500D01*
X162800Y98500D01*
X148500D02*X148000Y99000D01*
X148500Y98500D02*X150000D01*
X150500Y99000D02*X150000Y98500D01*
X150500Y102000D02*Y99000D01*
Y102000D02*X150000Y102500D01*
X148500D02*X150000D01*
X148500D02*X148000Y102000D01*
Y101000D01*
X148500Y100500D02*X148000Y101000D01*
X148500Y100500D02*X149500D01*
X146800Y102500D02*Y98500D01*
X144300Y102500D01*
Y98500D01*
X142600Y102500D02*Y98500D01*
X141300D02*X140600Y99200D01*
Y101800D02*Y99200D01*
X141300Y102500D02*X140600Y101800D01*
X141300Y102500D02*X143100D01*
X141300Y98500D02*X143100D01*
X171500Y7500D02*X172500D01*
X172000D02*Y3500D01*
X171500D02*X172500D01*
X173700Y7000D02*X174200Y7500D01*
X175700D01*
X176200Y7000D01*
Y6000D01*
X173700Y3500D02*X176200Y6000D01*
X173700Y3500D02*X176200D01*
X178100D02*X179400D01*
X177400Y4200D02*X178100Y3500D01*
X177400Y6800D02*Y4200D01*
Y6800D02*X178100Y7500D01*
X179400D01*
X180600Y5500D02*X182600D01*
X183800Y7500D02*X185800D01*
X186300Y7000D01*
Y6000D01*
X185800Y5500D02*X186300Y6000D01*
X184300Y5500D02*X185800D01*
X184300Y7500D02*Y3500D01*
X185100Y5500D02*X186300Y3500D01*
X187500Y5700D02*X189000D01*
X187500Y3500D02*X189500D01*
X187500Y7500D02*Y3500D01*
Y7500D02*X189500D01*
X190700D02*Y3500D01*
X192700D01*
X193900Y6500D02*Y3500D01*
Y6500D02*X194600Y7500D01*
X195700D01*
X196400Y6500D01*
Y3500D01*
X193900Y5500D02*X196400D01*
X197600Y7500D02*X198600Y5500D01*
X199600Y7500D01*
X198600Y5500D02*Y3500D01*
X200800Y6700D02*X201600Y7500D01*
Y3500D01*
X200800D02*X202300D01*
X205000Y7500D02*X205500Y7000D01*
X204000Y7500D02*X205000D01*
X203500Y7000D02*X204000Y7500D01*
X203500Y7000D02*Y4000D01*
X204000Y3500D01*
X205000Y5700D02*X205500Y5200D01*
X203500Y5700D02*X205000D01*
X204000Y3500D02*X205000D01*
X205500Y4000D01*
Y5200D02*Y4000D01*
X208500Y5500D02*X209500Y3500D01*
X210500Y5500D02*X209500Y3500D01*
X211700Y6700D02*X212500Y7500D01*
Y3500D01*
X211700D02*X213200D01*
X214400D02*X214900D01*
X216100Y4000D02*X216600Y3500D01*
X216100Y7000D02*Y4000D01*
Y7000D02*X216600Y7500D01*
X217600D01*
X218100Y7000D01*
Y4000D01*
X217600Y3500D02*X218100Y4000D01*
X216600Y3500D02*X217600D01*
X216100Y4500D02*X218100Y6500D01*
X48000Y99500D02*X50000D01*
X49000Y100500D02*Y98500D01*
X15000Y76500D02*X17000D01*
X16000Y77500D02*Y75500D01*
X2500Y7500D02*X4500D01*
X3500Y8500D02*Y6500D01*
X53000Y10000D02*X54000D01*
X53500D02*Y6000D01*
X53000D02*X54000D01*
X55200Y7500D02*Y6500D01*
Y7500D02*X55700Y8000D01*
X56700D01*
X57200Y7500D01*
Y6500D01*
X56700Y6000D02*X57200Y6500D01*
X55700Y6000D02*X56700D01*
X55200Y6500D02*X55700Y6000D01*
X58400Y8000D02*Y6500D01*
X58900Y6000D01*
X59400D01*
X59900Y6500D01*
Y8000D02*Y6500D01*
X60400Y6000D01*
X60900D01*
X61400Y6500D01*
Y8000D02*Y6500D01*
X64100Y8000D02*X64600Y7500D01*
X63100Y8000D02*X64100D01*
X62600Y7500D02*X63100Y8000D01*
X62600Y7500D02*Y6500D01*
X63100Y6000D01*
X64600Y8000D02*Y6500D01*
X65100Y6000D01*
X63100D02*X64100D01*
X64600Y6500D01*
X70100Y10000D02*X70600Y9500D01*
X68600Y10000D02*X70100D01*
X68100Y9500D02*X68600Y10000D01*
X68100Y9500D02*Y8500D01*
X68600Y8000D01*
X70100D01*
X70600Y7500D01*
Y6500D01*
X70100Y6000D02*X70600Y6500D01*
X68600Y6000D02*X70100D01*
X68100Y6500D02*X68600Y6000D01*
X72300Y8000D02*X73800D01*
X71800Y7500D02*X72300Y8000D01*
X71800Y7500D02*Y6500D01*
X72300Y6000D01*
X73800D01*
X76500Y8000D02*X77000Y7500D01*
X75500Y8000D02*X76500D01*
X75000Y7500D02*X75500Y8000D01*
X75000Y7500D02*Y6500D01*
X75500Y6000D01*
X77000Y8000D02*Y6500D01*
X77500Y6000D01*
X75500D02*X76500D01*
X77000Y6500D01*
X78700Y10000D02*Y6500D01*
X79200Y6000D01*
X80700D02*X82200D01*
X80200Y6500D02*X80700Y6000D01*
X80200Y7500D02*Y6500D01*
Y7500D02*X80700Y8000D01*
X81700D01*
X82200Y7500D01*
X80200Y7000D02*X82200D01*
Y7500D02*Y7000D01*
X85400Y10000D02*Y6000D01*
X84900D02*X85400Y6500D01*
X83900Y6000D02*X84900D01*
X83400Y6500D02*X83900Y6000D01*
X83400Y7500D02*Y6500D01*
Y7500D02*X83900Y8000D01*
X84900D01*
X85400Y7500D01*
X88400Y8200D02*X89900D01*
X88400Y6000D02*X90400D01*
X88400Y10000D02*Y6000D01*
Y10000D02*X90400D01*
X92100Y7500D02*Y6000D01*
Y7500D02*X92600Y8000D01*
X93100D01*
X93600Y7500D01*
Y6000D01*
X91600Y8000D02*X92100Y7500D01*
X96300Y8000D02*X96800Y7500D01*
X95300Y8000D02*X96300D01*
X94800Y7500D02*X95300Y8000D01*
X94800Y7500D02*Y6500D01*
X95300Y6000D01*
X96300D01*
X96800Y6500D01*
X94800Y5000D02*X95300Y4500D01*
X96300D01*
X96800Y5000D01*
Y8000D02*Y5000D01*
X76200Y63500D02*X77500D01*
X75500Y64200D02*X76200Y63500D01*
X75500Y66800D02*Y64200D01*
Y66800D02*X76200Y67500D01*
X77500D01*
X79400Y63500D02*X80700D01*
X78700Y64200D02*X79400Y63500D01*
X78700Y66800D02*Y64200D01*
Y66800D02*X79400Y67500D01*
X80700D01*
X83700Y63500D02*X85700D01*
X86200Y64000D01*
Y65200D02*Y64000D01*
X85700Y65700D02*X86200Y65200D01*
X84200Y65700D02*X85700D01*
X84200Y67500D02*Y63500D01*
X83700Y67500D02*X85700D01*
X86200Y67000D01*
Y66200D01*
X85700Y65700D02*X86200Y66200D01*
X87400Y67500D02*X88400Y65500D01*
X89400Y67500D01*
X88400Y65500D02*Y63500D01*
X90600Y65500D02*X92600D01*
X95800Y67500D02*X96300Y67000D01*
X94300Y67500D02*X95800D01*
X93800Y67000D02*X94300Y67500D01*
X93800Y67000D02*Y66000D01*
X94300Y65500D01*
X95800D01*
X96300Y65000D01*
Y64000D01*
X95800Y63500D02*X96300Y64000D01*
X94300Y63500D02*X95800D01*
X93800Y64000D02*X94300Y63500D01*
X97500Y66500D02*Y63500D01*
Y66500D02*X98200Y67500D01*
X99300D01*
X100000Y66500D01*
Y63500D01*
X97500Y65500D02*X100000D01*
X103000Y64000D02*X103500Y63500D01*
X103000Y67000D02*X103500Y67500D01*
X103000Y67000D02*Y64000D01*
X105400Y63500D02*X106700D01*
X104700Y64200D02*X105400Y63500D01*
X104700Y66800D02*Y64200D01*
Y66800D02*X105400Y67500D01*
X106700D01*
X107900D02*X108400Y67000D01*
Y64000D01*
X107900Y63500D02*X108400Y64000D01*
X109600Y67000D02*X110100Y67500D01*
X111600D01*
X112100Y67000D01*
Y66000D01*
X109600Y63500D02*X112100Y66000D01*
X109600Y63500D02*X112100D01*
X113300Y64000D02*X113800Y63500D01*
X113300Y67000D02*Y64000D01*
Y67000D02*X113800Y67500D01*
X114800D01*
X115300Y67000D01*
Y64000D01*
X114800Y63500D02*X115300Y64000D01*
X113800Y63500D02*X114800D01*
X113300Y64500D02*X115300Y66500D01*
X116500Y66700D02*X117300Y67500D01*
Y63500D01*
X116500D02*X118000D01*
X119200Y67000D02*X119700Y67500D01*
X120700D01*
X121200Y67000D01*
X120700Y63500D02*X121200Y64000D01*
X119700Y63500D02*X120700D01*
X119200Y64000D02*X119700Y63500D01*
Y65700D02*X120700D01*
X121200Y67000D02*Y66200D01*
Y65200D02*Y64000D01*
Y65200D02*X120700Y65700D01*
X121200Y66200D02*X120700Y65700D01*
X15000Y102000D02*X45000D01*
X15000D02*Y92000D01*
X45000D01*
Y102000D02*Y92000D01*
X35000Y102000D02*Y92000D01*
X45000D01*
X12500Y102000D02*Y72000D01*
X2500Y102000D02*X12500D01*
X2500D02*Y72000D01*
X12500D01*
X2500Y82000D02*X12500D01*
X2500D02*Y72000D01*
X21500Y71000D02*X121500D01*
Y91000D02*Y71000D01*
X21500Y91000D02*X121500D01*
X21500D02*Y71000D01*
X31500Y81000D02*Y71000D01*
X21500Y81000D02*X31500D01*
X116138Y93260D02*X120862D01*
X116138Y100740D02*X120862D01*
X135500Y97300D02*X175500D01*
X135500Y67300D02*X175500D01*
X135500Y71700D02*X175500D01*
Y97300D02*Y67300D01*
X135500Y97300D02*Y67300D01*
X144492Y38508D02*Y45004D01*
Y64492D02*Y57996D01*
X125004Y64492D02*X144492D01*
X125004Y38508D02*X144492D01*
X125004Y64492D02*X118508Y57996D01*
X125004Y38508D02*X118508Y45004D01*
X125500Y45500D02*Y41500D01*
X127500Y43500D02*X123500D01*
X96607Y100255D02*X97393D01*
X96607Y94745D02*X97393D01*
G54D77*X149625Y65500D02*X220925D01*
X149625Y13500D02*X220925D01*
X149625Y65500D02*Y13500D01*
X220925D02*X220945Y65500D01*
G54D76*X186500Y87900D02*Y68200D01*
X178500Y87900D02*Y68200D01*
X186500D01*
X178500Y87900D02*X186500D01*
X178500Y75000D02*X186500D01*
X125355Y17750D02*X135985D01*
X125355Y36250D02*X135985D01*
X125355Y21000D02*Y17750D01*
Y36250D02*Y33000D01*
X135985Y17929D02*Y17750D01*
Y36250D02*Y36071D01*
X78276Y56066D02*X109724D01*
X78276D02*Y24934D01*
X109724D01*
Y56066D02*Y43000D01*
Y38000D02*Y24934D01*
Y43000D02*G75*G03X109724Y38000I0J-2500D01*G01*
G54D77*X1000Y14500D02*X72300D01*
X1000Y66500D02*X72300D01*
Y14500D01*
X1000Y66500D02*X980Y14500D01*
G54D76*X110107Y20255D02*X110893D01*
X110107Y14745D02*X110893D01*
X123107Y6745D02*X123893D01*
X123107Y12255D02*X123893D01*
X139607Y6745D02*X140393D01*
X139607Y12255D02*X140393D01*
X6500Y2500D02*X36500D01*
Y12500D02*Y2500D01*
X6500Y12500D02*X36500D01*
X6500D02*Y2500D01*
X16500Y12500D02*Y2500D01*
X6500Y12500D02*X16500D01*
X125200Y83500D02*X126000D01*
Y80000D01*
X125500Y79500D02*X126000Y80000D01*
X125000Y79500D02*X125500D01*
X124500Y80000D02*X125000Y79500D01*
X124500Y80500D02*Y80000D01*
X127200Y81000D02*X129200Y83500D01*
X127200Y81000D02*X129700D01*
X129200Y83500D02*Y79500D01*
X126500Y91500D02*Y87500D01*
X127800Y91500D02*X128500Y90800D01*
Y88200D01*
X127800Y87500D02*X128500Y88200D01*
X126000Y87500D02*X127800D01*
X126000Y91500D02*X127800D01*
X129700Y90700D02*X130500Y91500D01*
Y87500D01*
X129700D02*X131200D01*
X154000Y85500D02*X154800D01*
X154000Y89000D02*Y85500D01*
X154500Y89500D02*X154000Y89000D01*
X154500Y89500D02*X155000D01*
X155500Y89000D02*X155000Y89500D01*
X155500Y89000D02*Y88500D01*
X152800Y86000D02*X152300Y85500D01*
X151300D02*X152300D01*
X151300D02*X150800Y86000D01*
X151300Y89500D02*X150800Y89000D01*
X151300Y89500D02*X152300D01*
X152800Y89000D02*X152300Y89500D01*
X151300Y87300D02*X152300D01*
X150800Y86800D02*Y86000D01*
Y89000D02*Y87800D01*
X151300Y87300D01*
X150800Y86800D02*X151300Y87300D01*
X127700Y66500D02*X129000D01*
X127000Y67200D02*X127700Y66500D01*
X127000Y69800D02*Y67200D01*
Y69800D02*X127700Y70500D01*
X129000D01*
X130200Y69700D02*X131000Y70500D01*
Y66500D01*
X130200D02*X131700D01*
X196000Y70000D02*X196800D01*
X196000Y73500D02*Y70000D01*
X196500Y74000D02*X196000Y73500D01*
X196500Y74000D02*X197000D01*
X197500Y73500D02*X197000Y74000D01*
X197500Y73500D02*Y73000D01*
X194800Y70500D02*X194300Y70000D01*
X192800D02*X194300D01*
X192800D02*X192300Y70500D01*
Y71500D02*Y70500D01*
X194800Y74000D02*X192300Y71500D01*
Y74000D02*X194800D01*
X180500Y97000D02*X184500D01*
Y95700D02*X183800Y95000D01*
X181200D02*X183800D01*
X180500Y95700D02*X181200Y95000D01*
X180500Y97500D02*Y95700D01*
X184500Y97500D02*Y95700D01*
X184000Y93800D02*X184500Y93300D01*
Y91800D01*
X184000Y91300D01*
X183000D02*X184000D01*
X180500Y93800D02*X183000Y91300D01*
X180500Y93800D02*Y91300D01*
X112000Y28500D02*Y25000D01*
X112500Y24500D01*
X113500D01*
X114000Y25000D01*
Y28500D02*Y25000D01*
X115200Y28000D02*X115700Y28500D01*
X117200D01*
X117700Y28000D01*
Y27000D01*
X115200Y24500D02*X117700Y27000D01*
X115200Y24500D02*X117700D01*
X83000Y99500D02*X85000D01*
X85500Y99000D01*
Y98000D01*
X85000Y97500D02*X85500Y98000D01*
X83500Y97500D02*X85000D01*
X83500Y99500D02*Y95500D01*
X84300Y97500D02*X85500Y95500D01*
X86700Y98700D02*X87500Y99500D01*
Y95500D01*
X86700D02*X88200D01*
X58200Y99000D02*X59000D01*
Y95500D01*
X58500Y95000D02*X59000Y95500D01*
X58000Y95000D02*X58500D01*
X57500Y95500D02*X58000Y95000D01*
X57500Y96000D02*Y95500D01*
X61700Y99000D02*X62200Y98500D01*
X60700Y99000D02*X61700D01*
X60200Y98500D02*X60700Y99000D01*
X60200Y98500D02*Y95500D01*
X60700Y95000D01*
X61700Y97200D02*X62200Y96700D01*
X60200Y97200D02*X61700D01*
X60700Y95000D02*X61700D01*
X62200Y95500D01*
Y96700D02*Y95500D01*
X14500Y82500D02*Y81700D01*
Y82500D02*X18000D01*
X18500Y82000D02*X18000Y82500D01*
X18500Y82000D02*Y81500D01*
X18000Y81000D02*X18500Y81500D01*
X17500Y81000D02*X18000D01*
X18500Y84200D02*X14500Y86200D01*
Y83700D01*
X115000Y39500D02*X118500D01*
X115000D02*X114500Y39000D01*
Y38000D01*
X115000Y37500D01*
X118500D01*
X117700Y36300D02*X118500Y35500D01*
X114500D02*X118500D01*
X114500Y36300D02*Y34800D01*
X119200Y15000D02*X120500D01*
X118500Y15700D02*X119200Y15000D01*
X118500Y18300D02*Y15700D01*
Y18300D02*X119200Y19000D01*
X120500D01*
X121700Y18500D02*X122200Y19000D01*
X123200D01*
X123700Y18500D01*
X123200Y15000D02*X123700Y15500D01*
X122200Y15000D02*X123200D01*
X121700Y15500D02*X122200Y15000D01*
Y17200D02*X123200D01*
X123700Y18500D02*Y17700D01*
Y16700D02*Y15500D01*
Y16700D02*X123200Y17200D01*
X123700Y17700D02*X123200Y17200D01*
X110700Y7500D02*X112000D01*
X110000Y8200D02*X110700Y7500D01*
X110000Y10800D02*Y8200D01*
Y10800D02*X110700Y11500D01*
X112000D01*
X113200Y11000D02*X113700Y11500D01*
X115200D01*
X115700Y11000D01*
Y10000D01*
X113200Y7500D02*X115700Y10000D01*
X113200Y7500D02*X115700D01*
X153500Y10500D02*X155500D01*
X156000Y10000D01*
Y9000D01*
X155500Y8500D02*X156000Y9000D01*
X154000Y8500D02*X155500D01*
X154000Y10500D02*Y6500D01*
X154800Y8500D02*X156000Y6500D01*
X157200Y10000D02*X157700Y10500D01*
X159200D01*
X159700Y10000D01*
Y9000D01*
X157200Y6500D02*X159700Y9000D01*
X157200Y6500D02*X159700D01*
X40700Y9500D02*X41500D01*
Y6000D01*
X41000Y5500D02*X41500Y6000D01*
X40500Y5500D02*X41000D01*
X40000Y6000D02*X40500Y5500D01*
X40000Y6500D02*Y6000D01*
X42700Y9500D02*X44700D01*
X42700D02*Y7500D01*
X43200Y8000D01*
X44200D01*
X44700Y7500D01*
Y6000D01*
X44200Y5500D02*X44700Y6000D01*
X43200Y5500D02*X44200D01*
X42700Y6000D02*X43200Y5500D01*
X76700Y21000D02*X77500D01*
Y17500D01*
X77000Y17000D02*X77500Y17500D01*
X76500Y17000D02*X77000D01*
X76000Y17500D02*X76500Y17000D01*
X76000Y18000D02*Y17500D01*
X78700Y20200D02*X79500Y21000D01*
Y17000D01*
X78700D02*X80200D01*
M02*
