G04 start of page 3 for group 1 idx 1 *
G04 Title: (unknown), solder *
G04 Creator: pcb 20110918 *
G04 CreationDate: Sun 03 Feb 2013 12:26:50 AM GMT UTC *
G04 For: petersen *
G04 Format: Gerber/RS-274X *
G04 PCB-Dimensions: 222000 104000 *
G04 PCB-Coordinate-Origin: lower left *
%MOIN*%
%FSLAX25Y25*%
%LNBOTTOM*%
%ADD50C,0.0300*%
%ADD49C,0.0480*%
%ADD48C,0.0380*%
%ADD47C,0.1280*%
%ADD46C,0.1285*%
%ADD45C,0.0350*%
%ADD44C,0.0200*%
%ADD43C,0.0360*%
%ADD42C,0.0700*%
%ADD41C,0.0800*%
%ADD40C,0.0600*%
%ADD39C,0.1440*%
%ADD38C,0.2937*%
%ADD37C,0.0250*%
%ADD36C,0.0400*%
%ADD35C,0.0100*%
%ADD34C,0.0001*%
G54D34*G36*
X96493Y41872D02*X96778Y42157D01*
X96726Y41939D01*
X96691Y41500D01*
X96726Y41061D01*
X96829Y40632D01*
X96997Y40225D01*
X97228Y39849D01*
X97514Y39514D01*
X97849Y39228D01*
X98225Y38997D01*
X98632Y38829D01*
X99061Y38726D01*
X99500Y38691D01*
X99576Y38697D01*
X99481Y38602D01*
X99436Y38564D01*
X99283Y38384D01*
X99159Y38183D01*
X99069Y37965D01*
X99053Y37897D01*
X98849Y37772D01*
X98514Y37486D01*
X98228Y37151D01*
X97997Y36775D01*
X97829Y36368D01*
X97726Y35939D01*
X97691Y35500D01*
X97726Y35061D01*
X97829Y34632D01*
X97997Y34225D01*
X98228Y33849D01*
X98514Y33514D01*
X98849Y33228D01*
X99225Y32997D01*
X99632Y32829D01*
X100061Y32726D01*
X100500Y32691D01*
X100939Y32726D01*
X101368Y32829D01*
X101775Y32997D01*
X102151Y33228D01*
X102486Y33514D01*
X102772Y33849D01*
X103000Y34221D01*
X103228Y33849D01*
X103514Y33514D01*
X103849Y33228D01*
X104000Y33135D01*
Y24559D01*
X103995Y24500D01*
X104014Y24265D01*
X104069Y24035D01*
X104159Y23817D01*
X104200Y23750D01*
X96493D01*
Y41872D01*
G37*
G36*
X116493Y81487D02*X116500Y81486D01*
X117206Y81542D01*
X117895Y81707D01*
X118549Y81978D01*
X119153Y82348D01*
X119692Y82808D01*
X120152Y83347D01*
X120522Y83951D01*
X120793Y84605D01*
X120958Y85294D01*
X121000Y86000D01*
X120958Y86706D01*
X120793Y87395D01*
X120522Y88049D01*
X120152Y88653D01*
X119856Y89000D01*
X142317D01*
X142257Y88963D01*
X141599Y88401D01*
X141037Y87743D01*
X140584Y87005D01*
X140253Y86205D01*
X140051Y85363D01*
X139983Y84500D01*
X140051Y83637D01*
X140253Y82795D01*
X140584Y81995D01*
X141037Y81257D01*
X141599Y80599D01*
X142257Y80037D01*
X142995Y79584D01*
X143795Y79253D01*
X144637Y79051D01*
X145500Y78983D01*
X146363Y79051D01*
X147205Y79253D01*
X148005Y79584D01*
X148743Y80037D01*
X149401Y80599D01*
X149963Y81257D01*
X150416Y81995D01*
X150747Y82795D01*
X150812Y83067D01*
X157500Y76379D01*
Y59121D01*
X156379Y58000D01*
X116493D01*
Y71487D01*
X116500Y71486D01*
X117206Y71542D01*
X117895Y71707D01*
X118549Y71978D01*
X119153Y72348D01*
X119692Y72808D01*
X120152Y73347D01*
X120522Y73951D01*
X120793Y74605D01*
X120958Y75294D01*
X121000Y76000D01*
X120958Y76706D01*
X120793Y77395D01*
X120522Y78049D01*
X120152Y78653D01*
X119692Y79192D01*
X119153Y79652D01*
X118549Y80022D01*
X117895Y80293D01*
X117206Y80458D01*
X116500Y80514D01*
X116493Y80513D01*
Y81487D01*
G37*
G36*
X106493D02*X106500Y81486D01*
X107206Y81542D01*
X107895Y81707D01*
X108549Y81978D01*
X109153Y82348D01*
X109692Y82808D01*
X110152Y83347D01*
X110522Y83951D01*
X110793Y84605D01*
X110958Y85294D01*
X111000Y86000D01*
X110958Y86706D01*
X110793Y87395D01*
X110522Y88049D01*
X110152Y88653D01*
X109856Y89000D01*
X113144D01*
X112848Y88653D01*
X112478Y88049D01*
X112207Y87395D01*
X112042Y86706D01*
X111986Y86000D01*
X112042Y85294D01*
X112207Y84605D01*
X112478Y83951D01*
X112848Y83347D01*
X113308Y82808D01*
X113847Y82348D01*
X114451Y81978D01*
X115105Y81707D01*
X115794Y81542D01*
X116493Y81487D01*
Y80513D01*
X115794Y80458D01*
X115105Y80293D01*
X114451Y80022D01*
X113847Y79652D01*
X113308Y79192D01*
X112848Y78653D01*
X112478Y78049D01*
X112207Y77395D01*
X112042Y76706D01*
X111986Y76000D01*
X112042Y75294D01*
X112207Y74605D01*
X112478Y73951D01*
X112848Y73347D01*
X113308Y72808D01*
X113847Y72348D01*
X114451Y71978D01*
X115105Y71707D01*
X115794Y71542D01*
X116493Y71487D01*
Y58000D01*
X106493D01*
Y71487D01*
X106500Y71486D01*
X107206Y71542D01*
X107895Y71707D01*
X108549Y71978D01*
X109153Y72348D01*
X109692Y72808D01*
X110152Y73347D01*
X110522Y73951D01*
X110793Y74605D01*
X110958Y75294D01*
X111000Y76000D01*
X110958Y76706D01*
X110793Y77395D01*
X110522Y78049D01*
X110152Y78653D01*
X109692Y79192D01*
X109153Y79652D01*
X108549Y80022D01*
X107895Y80293D01*
X107206Y80458D01*
X106500Y80514D01*
X106493Y80513D01*
Y81487D01*
G37*
G36*
X96493D02*X96500Y81486D01*
X97206Y81542D01*
X97895Y81707D01*
X98549Y81978D01*
X99153Y82348D01*
X99692Y82808D01*
X100152Y83347D01*
X100522Y83951D01*
X100793Y84605D01*
X100958Y85294D01*
X101000Y86000D01*
X100958Y86706D01*
X100793Y87395D01*
X100522Y88049D01*
X100152Y88653D01*
X99856Y89000D01*
X103144D01*
X102848Y88653D01*
X102478Y88049D01*
X102207Y87395D01*
X102042Y86706D01*
X101986Y86000D01*
X102042Y85294D01*
X102207Y84605D01*
X102478Y83951D01*
X102848Y83347D01*
X103308Y82808D01*
X103847Y82348D01*
X104451Y81978D01*
X105105Y81707D01*
X105794Y81542D01*
X106493Y81487D01*
Y80513D01*
X105794Y80458D01*
X105105Y80293D01*
X104451Y80022D01*
X103847Y79652D01*
X103308Y79192D01*
X102848Y78653D01*
X102478Y78049D01*
X102207Y77395D01*
X102042Y76706D01*
X101986Y76000D01*
X102042Y75294D01*
X102207Y74605D01*
X102478Y73951D01*
X102848Y73347D01*
X103308Y72808D01*
X103847Y72348D01*
X104451Y71978D01*
X105105Y71707D01*
X105794Y71542D01*
X106493Y71487D01*
Y58000D01*
X104059D01*
X104000Y58005D01*
X103765Y57986D01*
X103535Y57931D01*
X103317Y57841D01*
X103116Y57717D01*
X103115Y57717D01*
X102936Y57564D01*
X102898Y57519D01*
X96493Y51114D01*
Y71487D01*
X96500Y71486D01*
X97206Y71542D01*
X97895Y71707D01*
X98549Y71978D01*
X99153Y72348D01*
X99692Y72808D01*
X100152Y73347D01*
X100522Y73951D01*
X100793Y74605D01*
X100958Y75294D01*
X101000Y76000D01*
X100958Y76706D01*
X100793Y77395D01*
X100522Y78049D01*
X100152Y78653D01*
X99692Y79192D01*
X99153Y79652D01*
X98549Y80022D01*
X97895Y80293D01*
X97206Y80458D01*
X96500Y80514D01*
X96493Y80513D01*
Y81487D01*
G37*
G36*
X86493D02*X86500Y81486D01*
X87206Y81542D01*
X87895Y81707D01*
X88549Y81978D01*
X89153Y82348D01*
X89692Y82808D01*
X90152Y83347D01*
X90522Y83951D01*
X90793Y84605D01*
X90958Y85294D01*
X91000Y86000D01*
X90958Y86706D01*
X90793Y87395D01*
X90522Y88049D01*
X90152Y88653D01*
X89856Y89000D01*
X93144D01*
X92848Y88653D01*
X92478Y88049D01*
X92207Y87395D01*
X92042Y86706D01*
X91986Y86000D01*
X92042Y85294D01*
X92207Y84605D01*
X92478Y83951D01*
X92848Y83347D01*
X93308Y82808D01*
X93847Y82348D01*
X94451Y81978D01*
X95105Y81707D01*
X95794Y81542D01*
X96493Y81487D01*
Y80513D01*
X95794Y80458D01*
X95105Y80293D01*
X94451Y80022D01*
X93847Y79652D01*
X93308Y79192D01*
X92848Y78653D01*
X92478Y78049D01*
X92207Y77395D01*
X92042Y76706D01*
X91986Y76000D01*
X92042Y75294D01*
X92207Y74605D01*
X92478Y73951D01*
X92848Y73347D01*
X93308Y72808D01*
X93847Y72348D01*
X94451Y71978D01*
X95105Y71707D01*
X95794Y71542D01*
X96493Y71487D01*
Y51114D01*
X93611Y48233D01*
X93439Y48274D01*
X93000Y48309D01*
X92561Y48274D01*
X92132Y48171D01*
X91725Y48003D01*
X91349Y47772D01*
X91014Y47486D01*
X90728Y47151D01*
X90497Y46775D01*
X90329Y46368D01*
X90226Y45939D01*
X90191Y45500D01*
X90226Y45061D01*
X90329Y44632D01*
X90497Y44225D01*
X90728Y43849D01*
X91014Y43514D01*
X91349Y43228D01*
X91721Y43000D01*
X91349Y42772D01*
X91014Y42486D01*
X90728Y42151D01*
X90497Y41775D01*
X90329Y41368D01*
X90226Y40939D01*
X90191Y40500D01*
X90226Y40061D01*
X90329Y39632D01*
X90497Y39225D01*
X90728Y38849D01*
X91014Y38514D01*
X91349Y38228D01*
X91725Y37997D01*
X92132Y37829D01*
X92561Y37726D01*
X93000Y37691D01*
X93439Y37726D01*
X93868Y37829D01*
X94275Y37997D01*
X94651Y38228D01*
X94986Y38514D01*
X95272Y38849D01*
X95503Y39225D01*
X95671Y39632D01*
X95774Y40061D01*
X95800Y40500D01*
X95774Y40939D01*
X95733Y41111D01*
X96493Y41872D01*
Y23750D01*
X86493D01*
Y71487D01*
X86500Y71486D01*
X87206Y71542D01*
X87895Y71707D01*
X88549Y71978D01*
X89153Y72348D01*
X89692Y72808D01*
X90152Y73347D01*
X90522Y73951D01*
X90793Y74605D01*
X90958Y75294D01*
X91000Y76000D01*
X90958Y76706D01*
X90793Y77395D01*
X90522Y78049D01*
X90152Y78653D01*
X89692Y79192D01*
X89153Y79652D01*
X88549Y80022D01*
X87895Y80293D01*
X87206Y80458D01*
X86500Y80514D01*
X86493Y80513D01*
Y81487D01*
G37*
G36*
X76493D02*X76500Y81486D01*
X77206Y81542D01*
X77895Y81707D01*
X78549Y81978D01*
X79153Y82348D01*
X79692Y82808D01*
X80152Y83347D01*
X80522Y83951D01*
X80793Y84605D01*
X80958Y85294D01*
X81000Y86000D01*
X80958Y86706D01*
X80793Y87395D01*
X80522Y88049D01*
X80152Y88653D01*
X79856Y89000D01*
X83144D01*
X82848Y88653D01*
X82478Y88049D01*
X82207Y87395D01*
X82042Y86706D01*
X81986Y86000D01*
X82042Y85294D01*
X82207Y84605D01*
X82478Y83951D01*
X82848Y83347D01*
X83308Y82808D01*
X83847Y82348D01*
X84451Y81978D01*
X85105Y81707D01*
X85794Y81542D01*
X86493Y81487D01*
Y80513D01*
X85794Y80458D01*
X85105Y80293D01*
X84451Y80022D01*
X83847Y79652D01*
X83308Y79192D01*
X82848Y78653D01*
X82478Y78049D01*
X82207Y77395D01*
X82042Y76706D01*
X81986Y76000D01*
X82042Y75294D01*
X82207Y74605D01*
X82478Y73951D01*
X82848Y73347D01*
X83308Y72808D01*
X83847Y72348D01*
X84451Y71978D01*
X85105Y71707D01*
X85794Y71542D01*
X86493Y71487D01*
Y23750D01*
X77932D01*
X76493Y25189D01*
Y71487D01*
X76500Y71486D01*
X77206Y71542D01*
X77895Y71707D01*
X78549Y71978D01*
X79153Y72348D01*
X79692Y72808D01*
X80152Y73347D01*
X80522Y73951D01*
X80793Y74605D01*
X80958Y75294D01*
X81000Y76000D01*
X80958Y76706D01*
X80793Y77395D01*
X80522Y78049D01*
X80152Y78653D01*
X79692Y79192D01*
X79153Y79652D01*
X78549Y80022D01*
X77895Y80293D01*
X77206Y80458D01*
X76500Y80514D01*
X76493Y80513D01*
Y81487D01*
G37*
G36*
X69431Y82585D02*X69692Y82808D01*
X70152Y83347D01*
X70522Y83951D01*
X70793Y84605D01*
X70958Y85294D01*
X71000Y86000D01*
X70958Y86706D01*
X70793Y87395D01*
X70522Y88049D01*
X70152Y88653D01*
X69856Y89000D01*
X73144D01*
X72848Y88653D01*
X72478Y88049D01*
X72207Y87395D01*
X72042Y86706D01*
X71986Y86000D01*
X72042Y85294D01*
X72207Y84605D01*
X72478Y83951D01*
X72848Y83347D01*
X73308Y82808D01*
X73847Y82348D01*
X74451Y81978D01*
X75105Y81707D01*
X75794Y81542D01*
X76493Y81487D01*
Y80513D01*
X75794Y80458D01*
X75105Y80293D01*
X74451Y80022D01*
X73847Y79652D01*
X73308Y79192D01*
X72848Y78653D01*
X72478Y78049D01*
X72207Y77395D01*
X72042Y76706D01*
X71986Y76000D01*
X72042Y75294D01*
X72207Y74605D01*
X72478Y73951D01*
X72848Y73347D01*
X73308Y72808D01*
X73847Y72348D01*
X74451Y71978D01*
X75105Y71707D01*
X75794Y71542D01*
X76493Y71487D01*
Y25189D01*
X76250Y25432D01*
Y33500D01*
X76229Y33853D01*
X76146Y34197D01*
X76011Y34525D01*
X75826Y34827D01*
X75596Y35096D01*
X75500Y35178D01*
Y36441D01*
X75505Y36500D01*
X75486Y36735D01*
X75486Y36735D01*
X75431Y36965D01*
X75341Y37183D01*
X75217Y37384D01*
X75064Y37564D01*
X75019Y37602D01*
X73602Y39019D01*
X73564Y39064D01*
X73384Y39217D01*
X73183Y39341D01*
X72965Y39431D01*
X72735Y39486D01*
X72500Y39505D01*
X72441Y39500D01*
X69831D01*
X69889Y39544D01*
X70185Y39815D01*
X70456Y40111D01*
X70700Y40431D01*
X70914Y40771D01*
X71097Y41128D01*
X71248Y41501D01*
X71364Y41886D01*
X71379Y41964D01*
X71380Y42043D01*
X71368Y42121D01*
X71345Y42197D01*
X71310Y42268D01*
X71264Y42333D01*
X71209Y42390D01*
X71146Y42437D01*
X71076Y42474D01*
X71001Y42500D01*
X70923Y42513D01*
X70843Y42514D01*
X70765Y42503D01*
X70689Y42480D01*
X70618Y42445D01*
X70553Y42399D01*
X70496Y42344D01*
X70449Y42280D01*
X70412Y42210D01*
X70388Y42135D01*
X70301Y41835D01*
X70184Y41546D01*
X70041Y41268D01*
X69875Y41004D01*
X69686Y40756D01*
X69475Y40525D01*
X69431Y40485D01*
Y45515D01*
X69475Y45475D01*
X69686Y45244D01*
X69875Y44996D01*
X70041Y44732D01*
X70184Y44454D01*
X70301Y44165D01*
X70391Y43866D01*
X70415Y43791D01*
X70452Y43721D01*
X70499Y43658D01*
X70555Y43604D01*
X70620Y43558D01*
X70690Y43524D01*
X70766Y43500D01*
X70843Y43489D01*
X70922Y43490D01*
X71000Y43504D01*
X71074Y43529D01*
X71144Y43566D01*
X71207Y43613D01*
X71262Y43669D01*
X71307Y43734D01*
X71342Y43804D01*
X71365Y43880D01*
X71376Y43957D01*
X71375Y44036D01*
X71360Y44113D01*
X71248Y44499D01*
X71097Y44872D01*
X70914Y45229D01*
X70700Y45569D01*
X70456Y45889D01*
X70185Y46185D01*
X69889Y46456D01*
X69569Y46700D01*
X69431Y46787D01*
Y49212D01*
X69653Y49348D01*
X70192Y49808D01*
X70652Y50347D01*
X71022Y50951D01*
X71293Y51605D01*
X71458Y52294D01*
X71500Y53000D01*
X71458Y53706D01*
X71293Y54395D01*
X71022Y55049D01*
X70652Y55653D01*
X70192Y56192D01*
X69653Y56652D01*
X69431Y56788D01*
Y72585D01*
X69692Y72808D01*
X70152Y73347D01*
X70522Y73951D01*
X70793Y74605D01*
X70958Y75294D01*
X71000Y76000D01*
X70958Y76706D01*
X70793Y77395D01*
X70522Y78049D01*
X70152Y78653D01*
X69692Y79192D01*
X69431Y79415D01*
Y82585D01*
G37*
G36*
Y56788D02*X69049Y57022D01*
X68395Y57293D01*
X67706Y57458D01*
X67000Y57514D01*
X66493Y57474D01*
Y71487D01*
X66500Y71486D01*
X67206Y71542D01*
X67895Y71707D01*
X68549Y71978D01*
X69153Y72348D01*
X69431Y72585D01*
Y56788D01*
G37*
G36*
Y40485D02*X69244Y40314D01*
X68996Y40125D01*
X68732Y39959D01*
X68454Y39816D01*
X68165Y39699D01*
X67866Y39609D01*
X67791Y39585D01*
X67721Y39548D01*
X67658Y39501D01*
X67657Y39500D01*
X66493D01*
Y46744D01*
X66500Y46766D01*
X66511Y46844D01*
X66510Y46922D01*
X66496Y47000D01*
X66493Y47009D01*
Y48526D01*
X67000Y48486D01*
X67706Y48542D01*
X68395Y48707D01*
X69049Y48978D01*
X69431Y49212D01*
Y46787D01*
X69229Y46914D01*
X68872Y47097D01*
X68499Y47248D01*
X68114Y47364D01*
X68036Y47379D01*
X67957Y47380D01*
X67879Y47368D01*
X67803Y47345D01*
X67732Y47310D01*
X67667Y47264D01*
X67610Y47209D01*
X67563Y47146D01*
X67526Y47076D01*
X67500Y47001D01*
X67487Y46923D01*
X67486Y46843D01*
X67497Y46765D01*
X67520Y46689D01*
X67555Y46618D01*
X67601Y46553D01*
X67656Y46496D01*
X67720Y46449D01*
X67790Y46412D01*
X67865Y46388D01*
X68165Y46301D01*
X68454Y46184D01*
X68732Y46041D01*
X68996Y45875D01*
X69244Y45686D01*
X69431Y45515D01*
Y40485D01*
G37*
G36*
X66493Y81487D02*X66500Y81486D01*
X67206Y81542D01*
X67895Y81707D01*
X68549Y81978D01*
X69153Y82348D01*
X69431Y82585D01*
Y79415D01*
X69153Y79652D01*
X68549Y80022D01*
X67895Y80293D01*
X67206Y80458D01*
X66500Y80514D01*
X66493Y80513D01*
Y81487D01*
G37*
G36*
Y47009D02*X66471Y47074D01*
X66434Y47144D01*
X66387Y47207D01*
X66331Y47262D01*
X66266Y47307D01*
X66196Y47342D01*
X66120Y47365D01*
X66043Y47376D01*
X65964Y47375D01*
X65887Y47360D01*
X65501Y47248D01*
X65128Y47097D01*
X64771Y46914D01*
X64431Y46700D01*
X64111Y46456D01*
X63815Y46185D01*
X63544Y45889D01*
X63300Y45569D01*
X63086Y45229D01*
X62903Y44872D01*
X62752Y44499D01*
X62722Y44399D01*
X61065Y46056D01*
X61293Y46605D01*
X61458Y47294D01*
X61500Y48000D01*
X61458Y48706D01*
X61293Y49395D01*
X61022Y50049D01*
X60652Y50653D01*
X60192Y51192D01*
X59653Y51652D01*
X59049Y52022D01*
X58395Y52293D01*
X57706Y52458D01*
X57000Y52514D01*
X56294Y52458D01*
X55605Y52293D01*
X54951Y52022D01*
X54347Y51652D01*
X53808Y51192D01*
X53348Y50653D01*
X52978Y50049D01*
X52707Y49395D01*
X52542Y48706D01*
X52486Y48000D01*
X52542Y47294D01*
X52707Y46605D01*
X52978Y45951D01*
X53348Y45347D01*
X53808Y44808D01*
X54347Y44348D01*
X54951Y43978D01*
X55605Y43707D01*
X56294Y43542D01*
X57000Y43486D01*
X57706Y43542D01*
X58395Y43707D01*
X58944Y43935D01*
X60500Y42379D01*
Y40831D01*
X60192Y41192D01*
X59653Y41652D01*
X59049Y42022D01*
X58395Y42293D01*
X57706Y42458D01*
X57000Y42514D01*
X56294Y42458D01*
X55605Y42293D01*
X54951Y42022D01*
X54347Y41652D01*
X53808Y41192D01*
X53348Y40653D01*
X53101Y40250D01*
X52588D01*
X52500Y40257D01*
X52147Y40229D01*
X51803Y40146D01*
X51475Y40011D01*
X51173Y39826D01*
X51173Y39826D01*
X50904Y39596D01*
X50847Y39529D01*
X48471Y37153D01*
X48404Y37096D01*
X48174Y36827D01*
X47989Y36525D01*
X47854Y36197D01*
X47771Y35853D01*
X47771Y35853D01*
X47743Y35500D01*
X47750Y35412D01*
Y14932D01*
X46750Y15932D01*
Y46068D01*
X53932Y53250D01*
X60068D01*
X62347Y50971D01*
X62404Y50904D01*
X62673Y50674D01*
X62673Y50674D01*
X62861Y50559D01*
X62975Y50489D01*
X63303Y50354D01*
X63353Y50341D01*
X63808Y49808D01*
X64347Y49348D01*
X64951Y48978D01*
X65605Y48707D01*
X66294Y48542D01*
X66493Y48526D01*
Y47009D01*
G37*
G36*
Y39500D02*X66347D01*
X66344Y39504D01*
X66280Y39551D01*
X66210Y39588D01*
X66135Y39612D01*
X65835Y39699D01*
X65546Y39816D01*
X65268Y39959D01*
X65004Y40125D01*
X64756Y40314D01*
X64525Y40525D01*
X64314Y40756D01*
X64125Y41004D01*
X63959Y41268D01*
X63816Y41546D01*
X63699Y41835D01*
X63609Y42134D01*
X63585Y42209D01*
X63548Y42279D01*
X63501Y42342D01*
X63500Y42343D01*
Y42941D01*
X63505Y43000D01*
X63486Y43235D01*
X63486Y43235D01*
X63431Y43465D01*
X63391Y43562D01*
X63447Y43601D01*
X63504Y43656D01*
X63551Y43720D01*
X63588Y43790D01*
X63612Y43865D01*
X63699Y44165D01*
X63816Y44454D01*
X63959Y44732D01*
X64125Y44996D01*
X64314Y45244D01*
X64525Y45475D01*
X64756Y45686D01*
X65004Y45875D01*
X65268Y46041D01*
X65546Y46184D01*
X65835Y46301D01*
X66134Y46391D01*
X66209Y46415D01*
X66279Y46452D01*
X66342Y46499D01*
X66396Y46555D01*
X66442Y46620D01*
X66476Y46690D01*
X66493Y46744D01*
Y39500D01*
G37*
G36*
X42000Y75824D02*X42042Y75294D01*
X42207Y74605D01*
X42478Y73951D01*
X42848Y73347D01*
X43308Y72808D01*
X43847Y72348D01*
X44451Y71978D01*
X45105Y71707D01*
X45794Y71542D01*
X46500Y71486D01*
X47206Y71542D01*
X47895Y71707D01*
X48549Y71978D01*
X49153Y72348D01*
X49692Y72808D01*
X50000Y73169D01*
Y71559D01*
X49995Y71500D01*
X50014Y71265D01*
X50069Y71035D01*
X50159Y70817D01*
X50283Y70616D01*
X50436Y70436D01*
X50481Y70398D01*
X53767Y67111D01*
X53726Y66939D01*
X53691Y66500D01*
X53726Y66061D01*
X53829Y65632D01*
X53997Y65225D01*
X54228Y64849D01*
X54514Y64514D01*
X54849Y64228D01*
X55225Y63997D01*
X55632Y63829D01*
X56061Y63726D01*
X56500Y63691D01*
X56939Y63726D01*
X57368Y63829D01*
X57775Y63997D01*
X58151Y64228D01*
X58486Y64514D01*
X58772Y64849D01*
X59003Y65225D01*
X59171Y65632D01*
X59274Y66061D01*
X59300Y66500D01*
X59274Y66939D01*
X59171Y67368D01*
X59003Y67775D01*
X58772Y68151D01*
X58486Y68486D01*
X58151Y68772D01*
X57775Y69003D01*
X57368Y69171D01*
X56939Y69274D01*
X56500Y69309D01*
X56061Y69274D01*
X55889Y69233D01*
X53000Y72121D01*
Y73169D01*
X53308Y72808D01*
X53847Y72348D01*
X54451Y71978D01*
X55105Y71707D01*
X55794Y71542D01*
X56500Y71486D01*
X57206Y71542D01*
X57895Y71707D01*
X58549Y71978D01*
X59153Y72348D01*
X59692Y72808D01*
X60152Y73347D01*
X60522Y73951D01*
X60793Y74605D01*
X60958Y75294D01*
X61000Y76000D01*
X60958Y76706D01*
X60793Y77395D01*
X60522Y78049D01*
X60152Y78653D01*
X59692Y79192D01*
X59153Y79652D01*
X58549Y80022D01*
X57895Y80293D01*
X57206Y80458D01*
X56500Y80514D01*
X55794Y80458D01*
X55105Y80293D01*
X54451Y80022D01*
X53847Y79652D01*
X53308Y79192D01*
X53000Y78831D01*
Y80379D01*
X54556Y81935D01*
X55105Y81707D01*
X55794Y81542D01*
X56500Y81486D01*
X57206Y81542D01*
X57895Y81707D01*
X58549Y81978D01*
X59153Y82348D01*
X59692Y82808D01*
X60152Y83347D01*
X60522Y83951D01*
X60793Y84605D01*
X60958Y85294D01*
X61000Y86000D01*
X60958Y86706D01*
X60793Y87395D01*
X60522Y88049D01*
X60152Y88653D01*
X59856Y89000D01*
X63144D01*
X62848Y88653D01*
X62478Y88049D01*
X62207Y87395D01*
X62042Y86706D01*
X61986Y86000D01*
X62042Y85294D01*
X62207Y84605D01*
X62478Y83951D01*
X62848Y83347D01*
X63308Y82808D01*
X63847Y82348D01*
X64451Y81978D01*
X65105Y81707D01*
X65794Y81542D01*
X66493Y81487D01*
Y80513D01*
X65794Y80458D01*
X65105Y80293D01*
X64451Y80022D01*
X63847Y79652D01*
X63308Y79192D01*
X62848Y78653D01*
X62478Y78049D01*
X62207Y77395D01*
X62042Y76706D01*
X61986Y76000D01*
X62042Y75294D01*
X62207Y74605D01*
X62478Y73951D01*
X62848Y73347D01*
X63308Y72808D01*
X63847Y72348D01*
X64451Y71978D01*
X65105Y71707D01*
X65794Y71542D01*
X66493Y71487D01*
Y57474D01*
X66294Y57458D01*
X65605Y57293D01*
X64951Y57022D01*
X64347Y56652D01*
X63808Y56192D01*
X63662Y56020D01*
X62653Y57029D01*
X62596Y57096D01*
X62327Y57326D01*
X62327Y57326D01*
X62212Y57396D01*
X62025Y57511D01*
X61793Y57607D01*
X61697Y57646D01*
X61353Y57729D01*
X61000Y57757D01*
X60912Y57750D01*
X53088D01*
X53000Y57757D01*
X52647Y57729D01*
X52303Y57646D01*
X51975Y57511D01*
X51673Y57326D01*
X51673Y57326D01*
X51404Y57096D01*
X51347Y57029D01*
X42971Y48653D01*
X42904Y48596D01*
X42674Y48327D01*
X42489Y48025D01*
X42354Y47697D01*
X42271Y47353D01*
X42271Y47353D01*
X42243Y47000D01*
X42250Y46912D01*
Y15088D01*
X42243Y15000D01*
X42271Y14647D01*
X42354Y14303D01*
X42489Y13975D01*
X42674Y13673D01*
X42674Y13673D01*
X42904Y13404D01*
X42971Y13347D01*
X52318Y4000D01*
X42000D01*
Y52385D01*
X42061Y52439D01*
X44061Y54439D01*
X44217Y54616D01*
X44341Y54817D01*
X44431Y55035D01*
X44486Y55265D01*
X44505Y55500D01*
X44486Y55735D01*
X44431Y55965D01*
X44341Y56183D01*
X44217Y56384D01*
X44064Y56564D01*
X43884Y56717D01*
X43683Y56841D01*
X43465Y56931D01*
X43235Y56986D01*
X43000Y57005D01*
X42765Y56986D01*
X42535Y56931D01*
X42317Y56841D01*
X42116Y56717D01*
X42000Y56615D01*
Y75824D01*
G37*
G36*
Y85824D02*X42042Y85294D01*
X42207Y84605D01*
X42478Y83951D01*
X42848Y83347D01*
X43308Y82808D01*
X43847Y82348D01*
X44451Y81978D01*
X45105Y81707D01*
X45794Y81542D01*
X46500Y81486D01*
X47206Y81542D01*
X47895Y81707D01*
X48549Y81978D01*
X49153Y82348D01*
X49692Y82808D01*
X50152Y83347D01*
X50522Y83951D01*
X50793Y84605D01*
X50958Y85294D01*
X51000Y86000D01*
X50958Y86706D01*
X50793Y87395D01*
X50522Y88049D01*
X50152Y88653D01*
X49856Y89000D01*
X53144D01*
X52848Y88653D01*
X52478Y88049D01*
X52207Y87395D01*
X52042Y86706D01*
X51986Y86000D01*
X52042Y85294D01*
X52207Y84605D01*
X52435Y84056D01*
X50481Y82102D01*
X50436Y82064D01*
X50283Y81884D01*
X50159Y81683D01*
X50069Y81465D01*
X50014Y81235D01*
X50014Y81235D01*
X49995Y81000D01*
X50000Y80941D01*
Y78831D01*
X49692Y79192D01*
X49153Y79652D01*
X48549Y80022D01*
X47895Y80293D01*
X47206Y80458D01*
X46500Y80514D01*
X45794Y80458D01*
X45105Y80293D01*
X44451Y80022D01*
X43847Y79652D01*
X43308Y79192D01*
X42848Y78653D01*
X42478Y78049D01*
X42207Y77395D01*
X42042Y76706D01*
X42000Y76176D01*
Y85824D01*
G37*
G36*
Y89000D02*X43144D01*
X42848Y88653D01*
X42478Y88049D01*
X42207Y87395D01*
X42042Y86706D01*
X42000Y86176D01*
Y89000D01*
G37*
G36*
X189912Y102500D02*X198372D01*
X196958Y101634D01*
X195021Y99979D01*
X193366Y98042D01*
X192035Y95870D01*
X191061Y93517D01*
X190466Y91040D01*
X190266Y88500D01*
X190466Y85960D01*
X191061Y83483D01*
X192035Y81130D01*
X193366Y78958D01*
X195021Y77021D01*
X196958Y75366D01*
X199130Y74035D01*
X201483Y73061D01*
X203960Y72466D01*
X206500Y72266D01*
X209040Y72466D01*
X211517Y73061D01*
X213870Y74035D01*
X216042Y75366D01*
X217979Y77021D01*
X219634Y78958D01*
X220500Y80372D01*
Y1500D01*
X189912D01*
Y11276D01*
X189925Y11275D01*
X191212Y11376D01*
X192467Y11677D01*
X193659Y12171D01*
X194760Y12846D01*
X195741Y13684D01*
X196579Y14665D01*
X197254Y15766D01*
X197748Y16958D01*
X198049Y18213D01*
X198125Y19500D01*
X198049Y20787D01*
X197748Y22042D01*
X197254Y23234D01*
X196579Y24335D01*
X195741Y25316D01*
X194760Y26154D01*
X193659Y26829D01*
X192467Y27323D01*
X191212Y27624D01*
X189925Y27725D01*
X189912Y27724D01*
Y51276D01*
X189925Y51275D01*
X191212Y51376D01*
X192467Y51677D01*
X193659Y52171D01*
X194760Y52846D01*
X195741Y53684D01*
X196579Y54665D01*
X197254Y55766D01*
X197748Y56958D01*
X198049Y58213D01*
X198125Y59500D01*
X198049Y60787D01*
X197748Y62042D01*
X197254Y63234D01*
X196579Y64335D01*
X195741Y65316D01*
X194760Y66154D01*
X193659Y66829D01*
X192467Y67323D01*
X191212Y67624D01*
X189925Y67725D01*
X189912Y67724D01*
Y102500D01*
G37*
G36*
Y1500D02*X165121D01*
X170326Y6705D01*
X170500Y6691D01*
X170939Y6726D01*
X171368Y6829D01*
X171775Y6997D01*
X172151Y7228D01*
X172486Y7514D01*
X172772Y7849D01*
X173003Y8225D01*
X173171Y8632D01*
X173274Y9061D01*
X173300Y9500D01*
X173274Y9939D01*
X173171Y10368D01*
X173003Y10775D01*
X172772Y11151D01*
X172688Y11250D01*
X174912D01*
X175000Y11243D01*
X175088Y11250D01*
X175500D01*
X175853Y11271D01*
X176197Y11354D01*
X176525Y11489D01*
X176827Y11674D01*
X177096Y11904D01*
X177326Y12173D01*
X177511Y12475D01*
X177646Y12803D01*
X177698Y13016D01*
X181029Y16347D01*
X181096Y16404D01*
X181326Y16673D01*
X181326Y16673D01*
X181511Y16975D01*
X181646Y17303D01*
X181729Y17647D01*
X181757Y18000D01*
X181750Y18088D01*
Y18861D01*
X181801Y18213D01*
X182102Y16958D01*
X182596Y15766D01*
X183271Y14665D01*
X184109Y13684D01*
X185090Y12846D01*
X186191Y12171D01*
X187383Y11677D01*
X188638Y11376D01*
X189912Y11276D01*
Y1500D01*
G37*
G36*
X152094Y43500D02*X101470D01*
X101151Y43772D01*
X100775Y44003D01*
X100368Y44171D01*
X99939Y44274D01*
X99500Y44309D01*
X99061Y44274D01*
X98843Y44222D01*
X107621Y53000D01*
X157941D01*
X158000Y52995D01*
X158235Y53014D01*
X158235Y53014D01*
X158465Y53069D01*
X158683Y53159D01*
X158884Y53283D01*
X159064Y53436D01*
X159102Y53481D01*
X162019Y56398D01*
X162064Y56436D01*
X162217Y56615D01*
X162217Y56616D01*
X162341Y56817D01*
X162431Y57035D01*
X162486Y57265D01*
X162505Y57500D01*
X162500Y57559D01*
Y77941D01*
X162505Y78000D01*
X162486Y78235D01*
X162431Y78465D01*
X162341Y78683D01*
X162217Y78884D01*
X162118Y79001D01*
X169735Y79014D01*
X169965Y79069D01*
X170183Y79159D01*
X170384Y79283D01*
X170564Y79436D01*
X170717Y79616D01*
X170841Y79817D01*
X170931Y80035D01*
X170986Y80265D01*
X171000Y80500D01*
X170986Y88735D01*
X170931Y88965D01*
X170841Y89183D01*
X170717Y89384D01*
X170564Y89564D01*
X170384Y89717D01*
X170183Y89841D01*
X169965Y89931D01*
X169735Y89986D01*
X169500Y90000D01*
X161265Y89986D01*
X161035Y89931D01*
X160817Y89841D01*
X160616Y89717D01*
X160436Y89564D01*
X160283Y89384D01*
X160159Y89183D01*
X160069Y88965D01*
X160014Y88735D01*
X160000Y88500D01*
X160012Y81109D01*
X155000Y86121D01*
Y89441D01*
X155005Y89500D01*
X154986Y89735D01*
X154931Y89965D01*
X154841Y90183D01*
X154717Y90384D01*
X154564Y90564D01*
X154519Y90602D01*
X151102Y94019D01*
X151064Y94064D01*
X150884Y94217D01*
X150683Y94341D01*
X150465Y94431D01*
X150235Y94486D01*
X150000Y94505D01*
X149941Y94500D01*
X55621D01*
X55233Y94889D01*
X55274Y95061D01*
X55300Y95500D01*
X55274Y95939D01*
X55171Y96368D01*
X55003Y96775D01*
X54772Y97151D01*
X54486Y97486D01*
X54151Y97772D01*
X53775Y98003D01*
X53368Y98171D01*
X52939Y98274D01*
X52500Y98309D01*
X52061Y98274D01*
X51632Y98171D01*
X51225Y98003D01*
X50849Y97772D01*
X50514Y97486D01*
X50228Y97151D01*
X49997Y96775D01*
X49829Y96368D01*
X49726Y95939D01*
X49691Y95500D01*
X49726Y95061D01*
X49829Y94632D01*
X49997Y94225D01*
X50228Y93849D01*
X50514Y93514D01*
X50849Y93228D01*
X51225Y92997D01*
X51632Y92829D01*
X52061Y92726D01*
X52500Y92691D01*
X52939Y92726D01*
X53111Y92767D01*
X53879Y92000D01*
X42000D01*
Y92511D01*
X43235Y92514D01*
X43465Y92569D01*
X43683Y92659D01*
X43884Y92783D01*
X44064Y92936D01*
X44217Y93116D01*
X44341Y93317D01*
X44431Y93535D01*
X44486Y93765D01*
X44500Y94000D01*
X44486Y100235D01*
X44431Y100465D01*
X44341Y100683D01*
X44217Y100884D01*
X44064Y101064D01*
X43884Y101217D01*
X43683Y101341D01*
X43465Y101431D01*
X43235Y101486D01*
X43000Y101500D01*
X42000Y101498D01*
Y102500D01*
X189912D01*
Y67724D01*
X188638Y67624D01*
X187383Y67323D01*
X186191Y66829D01*
X185090Y66154D01*
X184109Y65316D01*
X183271Y64335D01*
X182596Y63234D01*
X182102Y62042D01*
X181801Y60787D01*
X181700Y59500D01*
X181801Y58213D01*
X182102Y56958D01*
X182596Y55766D01*
X183271Y54665D01*
X184109Y53684D01*
X185090Y52846D01*
X186191Y52171D01*
X187383Y51677D01*
X188638Y51376D01*
X189912Y51276D01*
Y27724D01*
X188638Y27624D01*
X187383Y27323D01*
X186191Y26829D01*
X185090Y26154D01*
X184109Y25316D01*
X183271Y24335D01*
X182596Y23234D01*
X182102Y22042D01*
X181801Y20787D01*
X181750Y20139D01*
Y48912D01*
X181757Y49000D01*
X181729Y49353D01*
X181729Y49353D01*
X181646Y49697D01*
X181511Y50025D01*
X181326Y50327D01*
X181096Y50596D01*
X181029Y50653D01*
X178153Y53529D01*
X178096Y53596D01*
X177827Y53826D01*
X177525Y54011D01*
X177197Y54146D01*
X176853Y54229D01*
X176853Y54229D01*
X176500Y54257D01*
X176412Y54250D01*
X168824D01*
X168577Y54653D01*
X168117Y55192D01*
X167578Y55652D01*
X166974Y56022D01*
X166320Y56293D01*
X165631Y56458D01*
X164925Y56514D01*
X164219Y56458D01*
X163530Y56293D01*
X162876Y56022D01*
X162272Y55652D01*
X161733Y55192D01*
X161273Y54653D01*
X160903Y54049D01*
X160632Y53395D01*
X160467Y52706D01*
X160411Y52000D01*
X160467Y51294D01*
X160632Y50605D01*
X160903Y49951D01*
X161273Y49347D01*
X161379Y49223D01*
X161353Y49229D01*
X161000Y49250D01*
X158824D01*
X158577Y49653D01*
X158117Y50192D01*
X157578Y50652D01*
X156974Y51022D01*
X156320Y51293D01*
X155631Y51458D01*
X154925Y51514D01*
X154219Y51458D01*
X153530Y51293D01*
X152876Y51022D01*
X152272Y50652D01*
X151733Y50192D01*
X151273Y49653D01*
X150903Y49049D01*
X150632Y48395D01*
X150467Y47706D01*
X150411Y47000D01*
X150467Y46294D01*
X150632Y45605D01*
X150903Y44951D01*
X151273Y44347D01*
X151733Y43808D01*
X152094Y43500D01*
G37*
G36*
X36493Y81487D02*X36500Y81486D01*
X37206Y81542D01*
X37895Y81707D01*
X38549Y81978D01*
X39153Y82348D01*
X39692Y82808D01*
X40152Y83347D01*
X40522Y83951D01*
X40793Y84605D01*
X40958Y85294D01*
X41000Y86000D01*
X40958Y86706D01*
X40793Y87395D01*
X40522Y88049D01*
X40152Y88653D01*
X39856Y89000D01*
X42000D01*
Y86176D01*
X41986Y86000D01*
X42000Y85824D01*
Y76176D01*
X41986Y76000D01*
X42000Y75824D01*
Y56615D01*
X41939Y56561D01*
X39939Y54561D01*
X39783Y54384D01*
X39659Y54183D01*
X39569Y53965D01*
X39514Y53735D01*
X39495Y53500D01*
X39514Y53265D01*
X39569Y53035D01*
X39659Y52817D01*
X39783Y52616D01*
X39936Y52436D01*
X40116Y52283D01*
X40317Y52159D01*
X40535Y52069D01*
X40765Y52014D01*
X41000Y51995D01*
X41235Y52014D01*
X41465Y52069D01*
X41683Y52159D01*
X41884Y52283D01*
X42000Y52385D01*
Y4000D01*
X36493D01*
Y13636D01*
X36835Y13846D01*
X37816Y14684D01*
X38654Y15665D01*
X39329Y16766D01*
X39823Y17958D01*
X40124Y19213D01*
X40200Y20500D01*
X40124Y21787D01*
X39823Y23042D01*
X39329Y24234D01*
X38654Y25335D01*
X37816Y26316D01*
X36835Y27154D01*
X36493Y27364D01*
Y53636D01*
X36835Y53846D01*
X37816Y54684D01*
X38654Y55665D01*
X39329Y56766D01*
X39823Y57958D01*
X40124Y59213D01*
X40200Y60500D01*
X40124Y61787D01*
X39823Y63042D01*
X39329Y64234D01*
X38654Y65335D01*
X37816Y66316D01*
X36835Y67154D01*
X36493Y67364D01*
Y71487D01*
X36500Y71486D01*
X37206Y71542D01*
X37895Y71707D01*
X38549Y71978D01*
X39153Y72348D01*
X39692Y72808D01*
X40152Y73347D01*
X40522Y73951D01*
X40793Y74605D01*
X40958Y75294D01*
X41000Y76000D01*
X40958Y76706D01*
X40793Y77395D01*
X40522Y78049D01*
X40152Y78653D01*
X39692Y79192D01*
X39153Y79652D01*
X38549Y80022D01*
X37895Y80293D01*
X37206Y80458D01*
X36500Y80514D01*
X36493Y80513D01*
Y81487D01*
G37*
G36*
Y27364D02*X35734Y27829D01*
X34542Y28323D01*
X33287Y28624D01*
X32000Y28725D01*
X30713Y28624D01*
X30250Y28513D01*
Y52487D01*
X30713Y52376D01*
X32000Y52275D01*
X33287Y52376D01*
X34542Y52677D01*
X35734Y53171D01*
X36493Y53636D01*
Y27364D01*
G37*
G36*
Y4000D02*X35113D01*
Y5353D01*
X35156Y5360D01*
X35268Y5397D01*
X35373Y5452D01*
X35468Y5522D01*
X35551Y5606D01*
X35619Y5702D01*
X35670Y5808D01*
X35818Y6216D01*
X35922Y6637D01*
X35984Y7067D01*
X36005Y7500D01*
X35984Y7933D01*
X35922Y8363D01*
X35818Y8784D01*
X35675Y9194D01*
X35622Y9300D01*
X35553Y9396D01*
X35470Y9481D01*
X35375Y9551D01*
X35269Y9606D01*
X35157Y9643D01*
X35113Y9651D01*
Y12914D01*
X35734Y13171D01*
X36493Y13636D01*
Y4000D01*
G37*
G36*
X35113D02*X33663D01*
X33664Y4079D01*
X33646Y4196D01*
X33610Y4309D01*
X33557Y4415D01*
X33488Y4512D01*
X33405Y4596D01*
X33309Y4667D01*
X33204Y4721D01*
X33092Y4759D01*
X32975Y4778D01*
X32856Y4779D01*
X32739Y4761D01*
X32626Y4723D01*
X32355Y4624D01*
X32075Y4556D01*
X31789Y4514D01*
X31500Y4500D01*
X31211Y4514D01*
X30925Y4556D01*
X30645Y4624D01*
X30372Y4720D01*
X30261Y4758D01*
X30250Y4759D01*
Y10237D01*
X30261Y10239D01*
X30374Y10277D01*
X30645Y10376D01*
X30925Y10444D01*
X31211Y10486D01*
X31500Y10500D01*
X31789Y10486D01*
X32075Y10444D01*
X32355Y10376D01*
X32628Y10280D01*
X32739Y10242D01*
X32856Y10225D01*
X32974Y10225D01*
X33091Y10245D01*
X33203Y10282D01*
X33307Y10336D01*
X33402Y10406D01*
X33485Y10491D01*
X33554Y10587D01*
X33607Y10692D01*
X33643Y10805D01*
X33660Y10921D01*
X33659Y11039D01*
X33640Y11156D01*
X33603Y11268D01*
X33548Y11373D01*
X33478Y11468D01*
X33394Y11551D01*
X33298Y11619D01*
X33192Y11670D01*
X32784Y11818D01*
X32363Y11922D01*
X31933Y11984D01*
X31500Y12005D01*
X31067Y11984D01*
X30637Y11922D01*
X30250Y11827D01*
Y12487D01*
X30713Y12376D01*
X32000Y12275D01*
X33287Y12376D01*
X34542Y12677D01*
X35113Y12914D01*
Y9651D01*
X35040Y9663D01*
X34921Y9664D01*
X34804Y9646D01*
X34691Y9610D01*
X34585Y9557D01*
X34488Y9488D01*
X34404Y9405D01*
X34333Y9309D01*
X34279Y9204D01*
X34241Y9092D01*
X34222Y8975D01*
X34221Y8856D01*
X34239Y8739D01*
X34277Y8626D01*
X34376Y8355D01*
X34444Y8075D01*
X34486Y7789D01*
X34500Y7500D01*
X34486Y7211D01*
X34444Y6925D01*
X34376Y6645D01*
X34280Y6372D01*
X34242Y6261D01*
X34225Y6144D01*
X34225Y6026D01*
X34245Y5909D01*
X34282Y5797D01*
X34336Y5693D01*
X34406Y5598D01*
X34491Y5515D01*
X34587Y5446D01*
X34692Y5393D01*
X34805Y5357D01*
X34921Y5340D01*
X35039Y5341D01*
X35113Y5353D01*
Y4000D01*
G37*
G36*
X30250Y89000D02*X33144D01*
X32848Y88653D01*
X32478Y88049D01*
X32207Y87395D01*
X32042Y86706D01*
X31986Y86000D01*
X32042Y85294D01*
X32207Y84605D01*
X32478Y83951D01*
X32848Y83347D01*
X33308Y82808D01*
X33847Y82348D01*
X34451Y81978D01*
X35105Y81707D01*
X35794Y81542D01*
X36493Y81487D01*
Y80513D01*
X35794Y80458D01*
X35105Y80293D01*
X34451Y80022D01*
X33847Y79652D01*
X33308Y79192D01*
X32848Y78653D01*
X32478Y78049D01*
X32207Y77395D01*
X32042Y76706D01*
X31986Y76000D01*
X32042Y75294D01*
X32207Y74605D01*
X32478Y73951D01*
X32848Y73347D01*
X33308Y72808D01*
X33847Y72348D01*
X34451Y71978D01*
X35105Y71707D01*
X35794Y71542D01*
X36493Y71487D01*
Y67364D01*
X35734Y67829D01*
X34542Y68323D01*
X33287Y68624D01*
X32000Y68725D01*
X30713Y68624D01*
X30250Y68513D01*
Y73748D01*
X30368Y73757D01*
X30482Y73785D01*
X30592Y73830D01*
X30692Y73891D01*
X30782Y73968D01*
X30859Y74058D01*
X30920Y74158D01*
X30965Y74268D01*
X30993Y74382D01*
X31000Y74500D01*
Y77500D01*
X30993Y77618D01*
X30965Y77732D01*
X30920Y77842D01*
X30859Y77942D01*
X30782Y78032D01*
X30692Y78109D01*
X30592Y78170D01*
X30482Y78215D01*
X30368Y78243D01*
X30250Y78252D01*
Y83891D01*
X30268Y83897D01*
X30373Y83952D01*
X30468Y84022D01*
X30551Y84106D01*
X30619Y84202D01*
X30670Y84308D01*
X30818Y84716D01*
X30922Y85137D01*
X30984Y85567D01*
X31005Y86000D01*
X30984Y86433D01*
X30922Y86863D01*
X30818Y87284D01*
X30675Y87694D01*
X30622Y87800D01*
X30553Y87896D01*
X30470Y87981D01*
X30375Y88051D01*
X30269Y88106D01*
X30250Y88112D01*
Y89000D01*
G37*
G36*
Y28513D02*X29458Y28323D01*
X28266Y27829D01*
X27165Y27154D01*
X26500Y26586D01*
Y54414D01*
X27165Y53846D01*
X28266Y53171D01*
X29458Y52677D01*
X30250Y52487D01*
Y28513D01*
G37*
G36*
Y4759D02*X30144Y4775D01*
X30026Y4775D01*
X29909Y4755D01*
X29797Y4718D01*
X29693Y4664D01*
X29598Y4594D01*
X29515Y4509D01*
X29446Y4413D01*
X29393Y4308D01*
X29357Y4195D01*
X29340Y4079D01*
X29340Y4000D01*
X27887D01*
Y5349D01*
X27960Y5337D01*
X28079Y5336D01*
X28196Y5354D01*
X28309Y5390D01*
X28415Y5443D01*
X28512Y5512D01*
X28596Y5595D01*
X28667Y5691D01*
X28721Y5796D01*
X28759Y5908D01*
X28778Y6025D01*
X28779Y6144D01*
X28761Y6261D01*
X28723Y6374D01*
X28624Y6645D01*
X28556Y6925D01*
X28514Y7211D01*
X28500Y7500D01*
X28514Y7789D01*
X28556Y8075D01*
X28624Y8355D01*
X28720Y8628D01*
X28758Y8739D01*
X28775Y8856D01*
X28775Y8974D01*
X28755Y9091D01*
X28718Y9203D01*
X28664Y9307D01*
X28594Y9402D01*
X28509Y9485D01*
X28413Y9554D01*
X28308Y9607D01*
X28195Y9643D01*
X28079Y9660D01*
X27961Y9659D01*
X27887Y9647D01*
Y13403D01*
X28266Y13171D01*
X29458Y12677D01*
X30250Y12487D01*
Y11827D01*
X30216Y11818D01*
X29806Y11675D01*
X29700Y11622D01*
X29604Y11553D01*
X29519Y11470D01*
X29449Y11375D01*
X29394Y11269D01*
X29357Y11157D01*
X29337Y11040D01*
X29336Y10921D01*
X29354Y10804D01*
X29390Y10691D01*
X29443Y10585D01*
X29512Y10488D01*
X29595Y10404D01*
X29691Y10333D01*
X29796Y10279D01*
X29908Y10241D01*
X30025Y10222D01*
X30144Y10221D01*
X30250Y10237D01*
Y4759D01*
G37*
G36*
X27887Y4000D02*X26500D01*
Y14414D01*
X27165Y13846D01*
X27887Y13403D01*
Y9647D01*
X27844Y9640D01*
X27732Y9603D01*
X27627Y9548D01*
X27532Y9478D01*
X27449Y9394D01*
X27381Y9298D01*
X27330Y9192D01*
X27182Y8784D01*
X27078Y8363D01*
X27016Y7933D01*
X26995Y7500D01*
X27016Y7067D01*
X27078Y6637D01*
X27182Y6216D01*
X27325Y5806D01*
X27378Y5700D01*
X27447Y5604D01*
X27530Y5519D01*
X27625Y5449D01*
X27731Y5394D01*
X27843Y5357D01*
X27887Y5349D01*
Y4000D01*
G37*
G36*
X26500Y89000D02*X26789Y88986D01*
X27075Y88944D01*
X27355Y88876D01*
X27628Y88780D01*
X27739Y88742D01*
X27856Y88725D01*
X27974Y88725D01*
X28091Y88745D01*
X28203Y88782D01*
X28307Y88836D01*
X28402Y88906D01*
X28485Y88991D01*
X28492Y89000D01*
X30250D01*
Y88112D01*
X30157Y88143D01*
X30040Y88163D01*
X29921Y88164D01*
X29804Y88146D01*
X29691Y88110D01*
X29585Y88057D01*
X29488Y87988D01*
X29404Y87905D01*
X29333Y87809D01*
X29279Y87704D01*
X29241Y87592D01*
X29222Y87475D01*
X29221Y87356D01*
X29239Y87239D01*
X29277Y87126D01*
X29376Y86855D01*
X29444Y86575D01*
X29486Y86289D01*
X29500Y86000D01*
X29486Y85711D01*
X29444Y85425D01*
X29376Y85145D01*
X29280Y84872D01*
X29242Y84761D01*
X29225Y84644D01*
X29225Y84526D01*
X29245Y84409D01*
X29282Y84297D01*
X29336Y84193D01*
X29406Y84098D01*
X29491Y84015D01*
X29587Y83946D01*
X29692Y83893D01*
X29805Y83857D01*
X29921Y83840D01*
X30039Y83841D01*
X30156Y83860D01*
X30250Y83891D01*
Y78252D01*
X30132Y78243D01*
X30018Y78215D01*
X29908Y78170D01*
X29808Y78109D01*
X29718Y78032D01*
X29641Y77942D01*
X29580Y77842D01*
X29535Y77732D01*
X29507Y77618D01*
X29500Y77500D01*
Y74500D01*
X29507Y74382D01*
X29535Y74268D01*
X29580Y74158D01*
X29641Y74058D01*
X29718Y73968D01*
X29808Y73891D01*
X29908Y73830D01*
X30018Y73785D01*
X30132Y73757D01*
X30250Y73748D01*
Y68513D01*
X29458Y68323D01*
X28266Y67829D01*
X27165Y67154D01*
X26500Y66586D01*
Y71500D01*
X28000D01*
X28118Y71507D01*
X28232Y71535D01*
X28342Y71580D01*
X28442Y71641D01*
X28532Y71718D01*
X28609Y71808D01*
X28670Y71908D01*
X28715Y72018D01*
X28743Y72132D01*
X28752Y72250D01*
X28743Y72368D01*
X28715Y72482D01*
X28670Y72592D01*
X28609Y72692D01*
X28532Y72782D01*
X28442Y72859D01*
X28342Y72920D01*
X28232Y72965D01*
X28118Y72993D01*
X28000Y73000D01*
X26500D01*
Y79000D01*
X28000D01*
X28118Y79007D01*
X28232Y79035D01*
X28342Y79080D01*
X28442Y79141D01*
X28532Y79218D01*
X28609Y79308D01*
X28670Y79408D01*
X28715Y79518D01*
X28743Y79632D01*
X28752Y79750D01*
X28743Y79868D01*
X28715Y79982D01*
X28670Y80092D01*
X28609Y80192D01*
X28532Y80282D01*
X28442Y80359D01*
X28342Y80420D01*
X28232Y80465D01*
X28118Y80493D01*
X28000Y80500D01*
X26500D01*
Y81495D01*
X26933Y81516D01*
X27363Y81578D01*
X27784Y81682D01*
X28194Y81825D01*
X28300Y81878D01*
X28396Y81947D01*
X28481Y82030D01*
X28551Y82125D01*
X28606Y82231D01*
X28643Y82343D01*
X28663Y82460D01*
X28664Y82579D01*
X28646Y82696D01*
X28610Y82809D01*
X28557Y82915D01*
X28488Y83012D01*
X28405Y83096D01*
X28309Y83167D01*
X28204Y83221D01*
X28092Y83259D01*
X27975Y83278D01*
X27856Y83279D01*
X27739Y83261D01*
X27626Y83223D01*
X27355Y83124D01*
X27075Y83056D01*
X26789Y83014D01*
X26500Y83000D01*
Y89000D01*
G37*
G36*
X42000Y92000D02*X26500D01*
Y94169D01*
X26808Y93808D01*
X27347Y93348D01*
X27951Y92978D01*
X28605Y92707D01*
X29294Y92542D01*
X30000Y92486D01*
X30706Y92542D01*
X31395Y92707D01*
X32049Y92978D01*
X32653Y93348D01*
X33192Y93808D01*
X33652Y94347D01*
X34022Y94951D01*
X34293Y95605D01*
X34458Y96294D01*
X34500Y97000D01*
X34458Y97706D01*
X34293Y98395D01*
X34022Y99049D01*
X33652Y99653D01*
X33192Y100192D01*
X32653Y100652D01*
X32049Y101022D01*
X31395Y101293D01*
X30706Y101458D01*
X30000Y101514D01*
X29294Y101458D01*
X28605Y101293D01*
X27951Y101022D01*
X27347Y100652D01*
X26808Y100192D01*
X26500Y99831D01*
Y102500D01*
X42000D01*
Y101498D01*
X36765Y101486D01*
X36535Y101431D01*
X36317Y101341D01*
X36116Y101217D01*
X35936Y101064D01*
X35783Y100884D01*
X35659Y100683D01*
X35569Y100465D01*
X35514Y100235D01*
X35500Y100000D01*
X35514Y93765D01*
X35569Y93535D01*
X35659Y93317D01*
X35783Y93116D01*
X35936Y92936D01*
X36116Y92783D01*
X36317Y92659D01*
X36535Y92569D01*
X36765Y92514D01*
X37000Y92500D01*
X42000Y92511D01*
Y92000D01*
G37*
G36*
X22780Y95872D02*X22750Y95784D01*
Y98205D01*
X22777Y98126D01*
X22876Y97855D01*
X22944Y97575D01*
X22986Y97289D01*
X23000Y97000D01*
X22986Y96711D01*
X22944Y96425D01*
X22876Y96145D01*
X22780Y95872D01*
G37*
G36*
X22750Y89000D02*X24504D01*
X24512Y88988D01*
X24595Y88904D01*
X24691Y88833D01*
X24796Y88779D01*
X24908Y88741D01*
X25025Y88722D01*
X25144Y88721D01*
X25261Y88739D01*
X25374Y88777D01*
X25645Y88876D01*
X25925Y88944D01*
X26211Y88986D01*
X26500Y89000D01*
X26500D01*
Y83000D01*
X26500D01*
X26211Y83014D01*
X25925Y83056D01*
X25645Y83124D01*
X25372Y83220D01*
X25261Y83258D01*
X25144Y83275D01*
X25026Y83275D01*
X24909Y83255D01*
X24797Y83218D01*
X24693Y83164D01*
X24598Y83094D01*
X24515Y83009D01*
X24446Y82913D01*
X24393Y82808D01*
X24357Y82695D01*
X24340Y82579D01*
X24341Y82461D01*
X24360Y82344D01*
X24397Y82232D01*
X24452Y82127D01*
X24522Y82032D01*
X24606Y81949D01*
X24702Y81881D01*
X24808Y81830D01*
X25216Y81682D01*
X25637Y81578D01*
X26067Y81516D01*
X26500Y81495D01*
X26500D01*
Y80500D01*
X25000D01*
X24882Y80493D01*
X24768Y80465D01*
X24658Y80420D01*
X24558Y80359D01*
X24468Y80282D01*
X24391Y80192D01*
X24330Y80092D01*
X24285Y79982D01*
X24257Y79868D01*
X24248Y79750D01*
X24257Y79632D01*
X24285Y79518D01*
X24330Y79408D01*
X24391Y79308D01*
X24468Y79218D01*
X24558Y79141D01*
X24658Y79080D01*
X24768Y79035D01*
X24882Y79007D01*
X25000Y79000D01*
X26500D01*
Y73000D01*
X25000D01*
X24882Y72993D01*
X24768Y72965D01*
X24658Y72920D01*
X24558Y72859D01*
X24468Y72782D01*
X24391Y72692D01*
X24330Y72592D01*
X24285Y72482D01*
X24257Y72368D01*
X24248Y72250D01*
X24257Y72132D01*
X24285Y72018D01*
X24330Y71908D01*
X24391Y71808D01*
X24468Y71718D01*
X24558Y71641D01*
X24658Y71580D01*
X24768Y71535D01*
X24882Y71507D01*
X25000Y71500D01*
X26500D01*
Y66586D01*
X26184Y66316D01*
X25346Y65335D01*
X24671Y64234D01*
X24177Y63042D01*
X23876Y61787D01*
X23775Y60500D01*
X23876Y59213D01*
X24177Y57958D01*
X24671Y56766D01*
X25346Y55665D01*
X26184Y54684D01*
X26500Y54414D01*
Y26586D01*
X26184Y26316D01*
X25346Y25335D01*
X24671Y24234D01*
X24177Y23042D01*
X23876Y21787D01*
X23775Y20500D01*
X23876Y19213D01*
X24177Y17958D01*
X24671Y16766D01*
X25346Y15665D01*
X26184Y14684D01*
X26500Y14414D01*
Y4000D01*
X24331D01*
X24692Y4308D01*
X25152Y4847D01*
X25522Y5451D01*
X25793Y6105D01*
X25958Y6794D01*
X26000Y7500D01*
X25958Y8206D01*
X25793Y8895D01*
X25522Y9549D01*
X25152Y10153D01*
X24692Y10692D01*
X24153Y11152D01*
X23549Y11522D01*
X22895Y11793D01*
X22750Y11828D01*
Y73748D01*
X22868Y73757D01*
X22982Y73785D01*
X23092Y73830D01*
X23192Y73891D01*
X23282Y73968D01*
X23359Y74058D01*
X23420Y74158D01*
X23465Y74268D01*
X23493Y74382D01*
X23500Y74500D01*
Y77500D01*
X23493Y77618D01*
X23465Y77732D01*
X23420Y77842D01*
X23359Y77942D01*
X23282Y78032D01*
X23192Y78109D01*
X23092Y78170D01*
X22982Y78215D01*
X22868Y78243D01*
X22750Y78252D01*
Y83888D01*
X22843Y83857D01*
X22960Y83837D01*
X23079Y83836D01*
X23196Y83854D01*
X23309Y83890D01*
X23415Y83943D01*
X23512Y84012D01*
X23596Y84095D01*
X23667Y84191D01*
X23721Y84296D01*
X23759Y84408D01*
X23778Y84525D01*
X23779Y84644D01*
X23761Y84761D01*
X23723Y84874D01*
X23624Y85145D01*
X23556Y85425D01*
X23514Y85711D01*
X23500Y86000D01*
X23514Y86289D01*
X23556Y86575D01*
X23624Y86855D01*
X23720Y87128D01*
X23758Y87239D01*
X23775Y87356D01*
X23775Y87474D01*
X23755Y87591D01*
X23718Y87703D01*
X23664Y87807D01*
X23594Y87902D01*
X23509Y87985D01*
X23413Y88054D01*
X23308Y88107D01*
X23195Y88143D01*
X23079Y88160D01*
X22961Y88159D01*
X22844Y88140D01*
X22750Y88109D01*
Y89000D01*
G37*
G36*
X26500Y92000D02*X22750D01*
Y95393D01*
X22782Y95297D01*
X22836Y95193D01*
X22906Y95098D01*
X22991Y95015D01*
X23087Y94946D01*
X23192Y94893D01*
X23305Y94857D01*
X23421Y94840D01*
X23539Y94841D01*
X23656Y94860D01*
X23768Y94897D01*
X23873Y94952D01*
X23968Y95022D01*
X24051Y95106D01*
X24119Y95202D01*
X24170Y95308D01*
X24318Y95716D01*
X24422Y96137D01*
X24484Y96567D01*
X24505Y97000D01*
X24484Y97433D01*
X24422Y97863D01*
X24318Y98284D01*
X24175Y98694D01*
X24122Y98800D01*
X24053Y98896D01*
X23970Y98981D01*
X23875Y99051D01*
X23769Y99106D01*
X23657Y99143D01*
X23540Y99163D01*
X23421Y99164D01*
X23304Y99146D01*
X23191Y99110D01*
X23085Y99057D01*
X22988Y98988D01*
X22904Y98905D01*
X22833Y98809D01*
X22779Y98704D01*
X22750Y98618D01*
Y102500D01*
X26500D01*
Y99831D01*
X26348Y99653D01*
X25978Y99049D01*
X25707Y98395D01*
X25542Y97706D01*
X25486Y97000D01*
X25542Y96294D01*
X25707Y95605D01*
X25978Y94951D01*
X26348Y94347D01*
X26500Y94169D01*
Y92000D01*
G37*
G36*
X20002Y3250D02*X20019Y3243D01*
X20069Y3035D01*
X20159Y2817D01*
X20283Y2616D01*
X20283Y2615D01*
X20436Y2436D01*
X20481Y2398D01*
X21379Y1500D01*
X20002D01*
Y3250D01*
G37*
G36*
Y89000D02*X22750D01*
Y88109D01*
X22732Y88103D01*
X22627Y88048D01*
X22532Y87978D01*
X22449Y87894D01*
X22381Y87798D01*
X22330Y87692D01*
X22182Y87284D01*
X22078Y86863D01*
X22016Y86433D01*
X21995Y86000D01*
X22016Y85567D01*
X22078Y85137D01*
X22182Y84716D01*
X22325Y84306D01*
X22378Y84200D01*
X22447Y84104D01*
X22530Y84019D01*
X22625Y83949D01*
X22731Y83894D01*
X22750Y83888D01*
Y78252D01*
X22632Y78243D01*
X22518Y78215D01*
X22408Y78170D01*
X22308Y78109D01*
X22218Y78032D01*
X22141Y77942D01*
X22080Y77842D01*
X22035Y77732D01*
X22007Y77618D01*
X22000Y77500D01*
Y74500D01*
X22007Y74382D01*
X22035Y74268D01*
X22080Y74158D01*
X22141Y74058D01*
X22218Y73968D01*
X22308Y73891D01*
X22408Y73830D01*
X22518Y73785D01*
X22632Y73757D01*
X22750Y73748D01*
Y11828D01*
X22206Y11958D01*
X21500Y12014D01*
X20794Y11958D01*
X20105Y11793D01*
X20002Y11750D01*
Y89000D01*
G37*
G36*
X22750Y92000D02*X20002D01*
Y92495D01*
X20433Y92516D01*
X20863Y92578D01*
X21284Y92682D01*
X21694Y92825D01*
X21800Y92878D01*
X21896Y92947D01*
X21981Y93030D01*
X22051Y93125D01*
X22106Y93231D01*
X22143Y93343D01*
X22163Y93460D01*
X22164Y93579D01*
X22146Y93696D01*
X22110Y93809D01*
X22057Y93915D01*
X21988Y94012D01*
X21905Y94096D01*
X21809Y94167D01*
X21704Y94221D01*
X21592Y94259D01*
X21475Y94278D01*
X21356Y94279D01*
X21239Y94261D01*
X21126Y94223D01*
X20855Y94124D01*
X20575Y94056D01*
X20289Y94014D01*
X20002Y94000D01*
Y100000D01*
X20289Y99986D01*
X20575Y99944D01*
X20855Y99876D01*
X21128Y99780D01*
X21239Y99742D01*
X21356Y99725D01*
X21474Y99725D01*
X21591Y99745D01*
X21703Y99782D01*
X21807Y99836D01*
X21902Y99906D01*
X21985Y99991D01*
X22054Y100087D01*
X22107Y100192D01*
X22143Y100305D01*
X22160Y100421D01*
X22159Y100539D01*
X22140Y100656D01*
X22103Y100768D01*
X22048Y100873D01*
X21978Y100968D01*
X21894Y101051D01*
X21798Y101119D01*
X21692Y101170D01*
X21284Y101318D01*
X20863Y101422D01*
X20433Y101484D01*
X20002Y101505D01*
Y102500D01*
X22750D01*
Y98618D01*
X22741Y98592D01*
X22722Y98475D01*
X22721Y98356D01*
X22739Y98239D01*
X22750Y98205D01*
Y95784D01*
X22742Y95761D01*
X22725Y95644D01*
X22725Y95526D01*
X22745Y95409D01*
X22750Y95393D01*
Y92000D01*
G37*
G36*
X16387Y89000D02*X20002D01*
Y11750D01*
X19451Y11522D01*
X18847Y11152D01*
X18308Y10692D01*
X17848Y10153D01*
X17478Y9549D01*
X17207Y8895D01*
X17042Y8206D01*
X16986Y7500D01*
X17042Y6794D01*
X17207Y6105D01*
X17478Y5451D01*
X17848Y4847D01*
X18308Y4308D01*
X18847Y3848D01*
X19451Y3478D01*
X20002Y3250D01*
Y1500D01*
X16387D01*
Y89000D01*
G37*
G36*
X20002Y92000D02*X16387D01*
Y94849D01*
X16460Y94837D01*
X16579Y94836D01*
X16696Y94854D01*
X16809Y94890D01*
X16915Y94943D01*
X17012Y95012D01*
X17096Y95095D01*
X17167Y95191D01*
X17221Y95296D01*
X17259Y95408D01*
X17278Y95525D01*
X17279Y95644D01*
X17261Y95761D01*
X17223Y95874D01*
X17124Y96145D01*
X17056Y96425D01*
X17014Y96711D01*
X17000Y97000D01*
X17014Y97289D01*
X17056Y97575D01*
X17124Y97855D01*
X17220Y98128D01*
X17258Y98239D01*
X17275Y98356D01*
X17275Y98474D01*
X17255Y98591D01*
X17218Y98703D01*
X17164Y98807D01*
X17094Y98902D01*
X17009Y98985D01*
X16913Y99054D01*
X16808Y99107D01*
X16695Y99143D01*
X16579Y99160D01*
X16461Y99159D01*
X16387Y99147D01*
Y102500D01*
X20002D01*
Y101505D01*
X20000Y101505D01*
X19567Y101484D01*
X19137Y101422D01*
X18716Y101318D01*
X18306Y101175D01*
X18200Y101122D01*
X18104Y101053D01*
X18019Y100970D01*
X17949Y100875D01*
X17894Y100769D01*
X17857Y100657D01*
X17837Y100540D01*
X17836Y100421D01*
X17854Y100304D01*
X17890Y100191D01*
X17943Y100085D01*
X18012Y99988D01*
X18095Y99904D01*
X18191Y99833D01*
X18296Y99779D01*
X18408Y99741D01*
X18525Y99722D01*
X18644Y99721D01*
X18761Y99739D01*
X18874Y99777D01*
X19145Y99876D01*
X19425Y99944D01*
X19711Y99986D01*
X20000Y100000D01*
X20002Y100000D01*
Y94000D01*
X20000Y94000D01*
X19711Y94014D01*
X19425Y94056D01*
X19145Y94124D01*
X18872Y94220D01*
X18761Y94258D01*
X18644Y94275D01*
X18526Y94275D01*
X18409Y94255D01*
X18297Y94218D01*
X18193Y94164D01*
X18098Y94094D01*
X18015Y94009D01*
X17946Y93913D01*
X17893Y93808D01*
X17857Y93695D01*
X17840Y93579D01*
X17841Y93461D01*
X17860Y93344D01*
X17897Y93232D01*
X17952Y93127D01*
X18022Y93032D01*
X18106Y92949D01*
X18202Y92881D01*
X18308Y92830D01*
X18716Y92682D01*
X19137Y92578D01*
X19567Y92516D01*
X20000Y92495D01*
X20002Y92495D01*
Y92000D01*
G37*
G36*
X7502Y82486D02*X8206Y82542D01*
X8895Y82707D01*
X9549Y82978D01*
X10153Y83348D01*
X10692Y83808D01*
X11152Y84347D01*
X11522Y84951D01*
X11793Y85605D01*
X11958Y86294D01*
X12000Y87000D01*
X11958Y87706D01*
X11793Y88395D01*
X11565Y88944D01*
X11621Y89000D01*
X16387D01*
Y1500D01*
X7502D01*
Y3380D01*
X7616Y3283D01*
X7817Y3159D01*
X8035Y3069D01*
X8265Y3014D01*
X8500Y3000D01*
X14735Y3014D01*
X14965Y3069D01*
X15183Y3159D01*
X15384Y3283D01*
X15564Y3436D01*
X15717Y3616D01*
X15841Y3817D01*
X15931Y4035D01*
X15986Y4265D01*
X16000Y4500D01*
X15986Y10735D01*
X15931Y10965D01*
X15841Y11183D01*
X15717Y11384D01*
X15564Y11564D01*
X15384Y11717D01*
X15183Y11841D01*
X14965Y11931D01*
X14735Y11986D01*
X14500Y12000D01*
X8265Y11986D01*
X8035Y11931D01*
X7817Y11841D01*
X7616Y11717D01*
X7502Y11620D01*
Y72507D01*
X10735Y72514D01*
X10965Y72569D01*
X11183Y72659D01*
X11384Y72783D01*
X11564Y72936D01*
X11717Y73116D01*
X11841Y73317D01*
X11931Y73535D01*
X11986Y73765D01*
X12000Y74000D01*
X11986Y80235D01*
X11931Y80465D01*
X11841Y80683D01*
X11717Y80884D01*
X11564Y81064D01*
X11384Y81217D01*
X11183Y81341D01*
X10965Y81431D01*
X10735Y81486D01*
X10500Y81500D01*
X7502Y81493D01*
Y82486D01*
G37*
G36*
X16387Y92000D02*X11113D01*
Y94853D01*
X11156Y94860D01*
X11268Y94897D01*
X11373Y94952D01*
X11468Y95022D01*
X11551Y95106D01*
X11619Y95202D01*
X11670Y95308D01*
X11818Y95716D01*
X11922Y96137D01*
X11984Y96567D01*
X12005Y97000D01*
X11984Y97433D01*
X11922Y97863D01*
X11818Y98284D01*
X11675Y98694D01*
X11622Y98800D01*
X11553Y98896D01*
X11470Y98981D01*
X11375Y99051D01*
X11269Y99106D01*
X11157Y99143D01*
X11113Y99151D01*
Y102500D01*
X16387D01*
Y99147D01*
X16344Y99140D01*
X16232Y99103D01*
X16127Y99048D01*
X16032Y98978D01*
X15949Y98894D01*
X15881Y98798D01*
X15830Y98692D01*
X15682Y98284D01*
X15578Y97863D01*
X15516Y97433D01*
X15495Y97000D01*
X15516Y96567D01*
X15578Y96137D01*
X15682Y95716D01*
X15825Y95306D01*
X15878Y95200D01*
X15947Y95104D01*
X16030Y95019D01*
X16125Y94949D01*
X16231Y94894D01*
X16343Y94857D01*
X16387Y94849D01*
Y92000D01*
G37*
G36*
X11113D02*X11059D01*
X11000Y92005D01*
X10765Y91986D01*
X10535Y91931D01*
X10317Y91841D01*
X10116Y91717D01*
X10115Y91717D01*
X9936Y91564D01*
X9898Y91519D01*
X9444Y91065D01*
X8895Y91293D01*
X8206Y91458D01*
X7502Y91514D01*
Y92495D01*
X7933Y92516D01*
X8363Y92578D01*
X8784Y92682D01*
X9194Y92825D01*
X9300Y92878D01*
X9396Y92947D01*
X9481Y93030D01*
X9551Y93125D01*
X9606Y93231D01*
X9643Y93343D01*
X9663Y93460D01*
X9664Y93579D01*
X9646Y93696D01*
X9610Y93809D01*
X9557Y93915D01*
X9488Y94012D01*
X9405Y94096D01*
X9309Y94167D01*
X9204Y94221D01*
X9092Y94259D01*
X8975Y94278D01*
X8856Y94279D01*
X8739Y94261D01*
X8626Y94223D01*
X8355Y94124D01*
X8075Y94056D01*
X7789Y94014D01*
X7502Y94000D01*
Y100000D01*
X7789Y99986D01*
X8075Y99944D01*
X8355Y99876D01*
X8628Y99780D01*
X8739Y99742D01*
X8856Y99725D01*
X8974Y99725D01*
X9091Y99745D01*
X9203Y99782D01*
X9307Y99836D01*
X9402Y99906D01*
X9485Y99991D01*
X9554Y100087D01*
X9607Y100192D01*
X9643Y100305D01*
X9660Y100421D01*
X9659Y100539D01*
X9640Y100656D01*
X9603Y100768D01*
X9548Y100873D01*
X9478Y100968D01*
X9394Y101051D01*
X9298Y101119D01*
X9192Y101170D01*
X8784Y101318D01*
X8363Y101422D01*
X7933Y101484D01*
X7502Y101505D01*
Y102500D01*
X11113D01*
Y99151D01*
X11040Y99163D01*
X10921Y99164D01*
X10804Y99146D01*
X10691Y99110D01*
X10585Y99057D01*
X10488Y98988D01*
X10404Y98905D01*
X10333Y98809D01*
X10279Y98704D01*
X10241Y98592D01*
X10222Y98475D01*
X10221Y98356D01*
X10239Y98239D01*
X10277Y98126D01*
X10376Y97855D01*
X10444Y97575D01*
X10486Y97289D01*
X10500Y97000D01*
X10486Y96711D01*
X10444Y96425D01*
X10376Y96145D01*
X10280Y95872D01*
X10242Y95761D01*
X10225Y95644D01*
X10225Y95526D01*
X10245Y95409D01*
X10282Y95297D01*
X10336Y95193D01*
X10406Y95098D01*
X10491Y95015D01*
X10587Y94946D01*
X10692Y94893D01*
X10805Y94857D01*
X10921Y94840D01*
X11039Y94841D01*
X11113Y94853D01*
Y92000D01*
G37*
G36*
X3887Y72630D02*X4035Y72569D01*
X4265Y72514D01*
X4500Y72500D01*
X7502Y72507D01*
Y11620D01*
X7436Y11564D01*
X7283Y11384D01*
X7159Y11183D01*
X7069Y10965D01*
X7014Y10735D01*
X7000Y10500D01*
X7014Y4265D01*
X7069Y4035D01*
X7159Y3817D01*
X7283Y3616D01*
X7436Y3436D01*
X7502Y3380D01*
Y1500D01*
X3887D01*
Y72630D01*
G37*
G36*
Y84302D02*X4308Y83808D01*
X4847Y83348D01*
X5451Y82978D01*
X6105Y82707D01*
X6794Y82542D01*
X7500Y82486D01*
X7502Y82486D01*
Y81493D01*
X4265Y81486D01*
X4035Y81431D01*
X3887Y81370D01*
Y84302D01*
G37*
G36*
X7502Y91514D02*X7500Y91514D01*
X6794Y91458D01*
X6105Y91293D01*
X5451Y91022D01*
X4847Y90652D01*
X4308Y90192D01*
X3887Y89698D01*
Y94849D01*
X3960Y94837D01*
X4079Y94836D01*
X4196Y94854D01*
X4309Y94890D01*
X4415Y94943D01*
X4512Y95012D01*
X4596Y95095D01*
X4667Y95191D01*
X4721Y95296D01*
X4759Y95408D01*
X4778Y95525D01*
X4779Y95644D01*
X4761Y95761D01*
X4723Y95874D01*
X4624Y96145D01*
X4556Y96425D01*
X4514Y96711D01*
X4500Y97000D01*
X4514Y97289D01*
X4556Y97575D01*
X4624Y97855D01*
X4720Y98128D01*
X4758Y98239D01*
X4775Y98356D01*
X4775Y98474D01*
X4755Y98591D01*
X4718Y98703D01*
X4664Y98807D01*
X4594Y98902D01*
X4509Y98985D01*
X4413Y99054D01*
X4308Y99107D01*
X4195Y99143D01*
X4079Y99160D01*
X3961Y99159D01*
X3887Y99147D01*
Y102500D01*
X7502D01*
Y101505D01*
X7500Y101505D01*
X7067Y101484D01*
X6637Y101422D01*
X6216Y101318D01*
X5806Y101175D01*
X5700Y101122D01*
X5604Y101053D01*
X5519Y100970D01*
X5449Y100875D01*
X5394Y100769D01*
X5357Y100657D01*
X5337Y100540D01*
X5336Y100421D01*
X5354Y100304D01*
X5390Y100191D01*
X5443Y100085D01*
X5512Y99988D01*
X5595Y99904D01*
X5691Y99833D01*
X5796Y99779D01*
X5908Y99741D01*
X6025Y99722D01*
X6144Y99721D01*
X6261Y99739D01*
X6374Y99777D01*
X6645Y99876D01*
X6925Y99944D01*
X7211Y99986D01*
X7500Y100000D01*
X7502Y100000D01*
Y94000D01*
X7500Y94000D01*
X7211Y94014D01*
X6925Y94056D01*
X6645Y94124D01*
X6372Y94220D01*
X6261Y94258D01*
X6144Y94275D01*
X6026Y94275D01*
X5909Y94255D01*
X5797Y94218D01*
X5693Y94164D01*
X5598Y94094D01*
X5515Y94009D01*
X5446Y93913D01*
X5393Y93808D01*
X5357Y93695D01*
X5340Y93579D01*
X5341Y93461D01*
X5360Y93344D01*
X5397Y93232D01*
X5452Y93127D01*
X5522Y93032D01*
X5606Y92949D01*
X5702Y92881D01*
X5808Y92830D01*
X6216Y92682D01*
X6637Y92578D01*
X7067Y92516D01*
X7500Y92495D01*
X7502Y92495D01*
Y91514D01*
G37*
G36*
X3887Y89698D02*X3848Y89653D01*
X3478Y89049D01*
X3207Y88395D01*
X3042Y87706D01*
X2986Y87000D01*
X3042Y86294D01*
X3207Y85605D01*
X3478Y84951D01*
X3848Y84347D01*
X3887Y84302D01*
Y81370D01*
X3817Y81341D01*
X3616Y81217D01*
X3436Y81064D01*
X3283Y80884D01*
X3159Y80683D01*
X3069Y80465D01*
X3014Y80235D01*
X3000Y80000D01*
X3014Y73765D01*
X3069Y73535D01*
X3159Y73317D01*
X3283Y73116D01*
X3436Y72936D01*
X3616Y72783D01*
X3817Y72659D01*
X3887Y72630D01*
Y1500D01*
X1500D01*
Y102500D01*
X3887D01*
Y99147D01*
X3844Y99140D01*
X3732Y99103D01*
X3627Y99048D01*
X3532Y98978D01*
X3449Y98894D01*
X3381Y98798D01*
X3330Y98692D01*
X3182Y98284D01*
X3078Y97863D01*
X3016Y97433D01*
X2995Y97000D01*
X3016Y96567D01*
X3078Y96137D01*
X3182Y95716D01*
X3325Y95306D01*
X3378Y95200D01*
X3447Y95104D01*
X3530Y95019D01*
X3625Y94949D01*
X3731Y94894D01*
X3843Y94857D01*
X3887Y94849D01*
Y89698D01*
G37*
G54D35*X62000Y39500D02*Y43000D01*
G54D36*X36000Y48500D02*X48500Y61000D01*
G54D37*X61000Y55500D02*X53000D01*
X44500Y47000D01*
G54D35*X41000Y53500D02*X43000Y55500D01*
X51500Y71500D02*Y81000D01*
X56500Y86000D01*
X51500Y71500D02*X56500Y66500D01*
G54D36*X48500Y61000D02*X63500D01*
X36000Y48500D02*X25000D01*
X17000Y56500D01*
Y73000D01*
X20000Y76000D01*
G54D37*X67000Y33000D02*Y20000D01*
X69000Y18000D01*
X77000Y21500D02*X74000Y24500D01*
Y33500D01*
G54D35*Y36500D01*
X72500Y38000D01*
X63500D01*
X62000Y39500D01*
G54D37*X56500Y27000D02*Y16000D01*
X59000Y13500D01*
X50000Y14500D02*Y35500D01*
X44500Y47000D02*Y15000D01*
X54000Y5500D01*
X50000Y35500D02*X52500Y38000D01*
X57000D01*
G54D36*X85500Y61000D02*X61500D01*
G54D35*X117000Y54500D02*X158000D01*
X107000D02*X120000D01*
X104000Y56500D02*X153500D01*
G54D36*X85500Y61000D02*X94000Y69500D01*
X120000D01*
X125000Y74500D01*
Y80500D01*
X129000Y84500D01*
X146000D01*
G54D35*X149000Y90500D02*X11000D01*
X7500Y87000D01*
X150000Y93000D02*X55000D01*
X52500Y95500D01*
G54D37*X55000Y9500D02*X50000Y14500D01*
X150000Y9500D02*X55000D01*
X54000Y5500D02*X163000D01*
G54D35*X164000Y2500D02*X22500D01*
X21500Y3500D01*
Y7500D01*
X105500Y35500D02*Y24500D01*
X108500Y21500D01*
X100500Y35500D02*Y37500D01*
X102500Y39500D01*
G54D37*X173000Y13500D02*X175000D01*
X150500Y21500D02*X151500Y20500D01*
X161500D01*
X163500Y22500D01*
X171000Y17000D02*X173500Y19500D01*
X59000Y13500D02*X175500D01*
X77000Y21500D02*X150500D01*
X69000Y18000D02*X148500D01*
X149500Y17000D01*
X171000D01*
G54D36*X76000Y43000D02*X79000Y46000D01*
Y60000D01*
X80000Y61000D01*
G54D35*X93000Y40500D02*X107000Y54500D01*
X93000Y45500D02*X104000Y56500D01*
X62000Y43000D02*X57000Y48000D01*
G54D37*X67000Y52500D02*X64000D01*
X61000Y55500D01*
G54D36*X67000Y43000D02*X76000D01*
G54D37*X179500Y18000D02*Y49000D01*
X175500Y29000D02*Y44000D01*
G54D35*X162500Y37000D02*X170500D01*
G54D37*X179500Y49000D02*X176500Y52000D01*
X175500Y44000D02*X172500Y47000D01*
X169000D01*
G54D35*X161000D01*
G54D37*X155000D01*
X176500Y52000D02*X164500D01*
G54D35*X157500Y32000D02*X162500Y37000D01*
G54D37*X175500Y21500D02*Y29500D01*
X165000Y32000D02*Y24000D01*
X162500Y21500D01*
X172000Y18000D02*X175500Y21500D01*
X175000Y13500D02*X179500Y18000D01*
X163000Y5500D02*X165000Y7500D01*
Y9500D01*
G54D35*X170500D02*Y9000D01*
X164000Y2500D01*
X117500Y42000D02*X165500D01*
X100000D02*X120000D01*
X102500Y39500D02*X141000D01*
X148500Y32000D01*
X157500D01*
G54D36*X154500Y61000D02*Y76500D01*
G54D35*X152500Y56500D02*X157000D01*
X158000Y54500D02*X161000Y57500D01*
X157000Y56500D02*X159000Y58500D01*
Y77000D01*
X161000Y57500D02*Y78000D01*
G54D36*X154500Y76500D02*X146000Y85000D01*
G54D35*X159000Y77000D02*X151500Y84500D01*
Y88000D01*
X149000Y90500D01*
X161000Y78000D02*X153500Y85500D01*
Y89500D01*
X150000Y93000D01*
G54D38*X206500Y88500D03*
G54D39*X189925Y19500D03*
Y59500D03*
G54D34*G36*
X23500Y79000D02*Y73000D01*
X29500D01*
Y79000D01*
X23500D01*
G37*
G54D40*X36500Y76000D03*
Y86000D03*
X46500Y76000D03*
Y86000D03*
X56500D03*
X26500D03*
G54D34*G36*
X37000Y100000D02*Y94000D01*
X43000D01*
Y100000D01*
X37000D01*
G37*
G54D40*X30000Y97000D03*
X20000D03*
X7500Y87000D03*
Y97000D03*
X86500Y76000D03*
X96500D03*
X106500D03*
X116500D03*
G54D41*X145500Y84500D03*
G54D42*X154925Y27000D03*
Y37000D03*
Y47000D03*
X164925Y32000D03*
Y42000D03*
Y52000D03*
G54D34*G36*
X161500Y88500D02*Y80500D01*
X169500D01*
Y88500D01*
X161500D01*
G37*
G54D40*X56500Y76000D03*
X66500D03*
X76500D03*
X66500Y86000D03*
X76500D03*
X86500D03*
X96500D03*
X106500D03*
X116500D03*
G54D34*G36*
X4500Y80000D02*Y74000D01*
X10500D01*
Y80000D01*
X4500D01*
G37*
G36*
X8500Y10500D02*Y4500D01*
X14500D01*
Y10500D01*
X8500D01*
G37*
G54D40*X21500Y7500D03*
X31500D03*
G54D42*X67000Y53000D03*
X57000Y48000D03*
X67000Y43000D03*
X57000Y38000D03*
X67000Y33000D03*
X57000Y28000D03*
G54D39*X32000Y60500D03*
Y20500D03*
G54D43*X52500Y95500D03*
X56500Y66500D03*
X93000Y40500D03*
Y45500D03*
X79000Y59500D03*
X105500Y35500D03*
X101000Y17500D03*
X100500Y35500D03*
X99500Y41500D03*
G54D40*X154500Y61000D03*
G54D43*X150000Y9500D03*
X170500Y37000D03*
X165000Y9500D03*
X170500D03*
G54D44*G54D45*G54D44*G54D46*G54D47*G54D48*G54D49*G54D50*G54D49*G54D48*G54D50*G54D47*M02*
