G04 start of page 12 for group -3984 idx -3984 *
G04 Title: (unknown), fab *
G04 Creator: pcb 20140316 *
G04 CreationDate: Tue 10 May 2016 09:21:36 AM GMT UTC *
G04 For: ndholmes *
G04 Format: Gerber/RS-274X *
G04 PCB-Dimensions (mil): 2220.00 1040.00 *
G04 PCB-Coordinate-Origin: lower left *
%MOIN*%
%FSLAX25Y25*%
%LNFAB*%
%ADD87C,0.0100*%
%ADD86C,0.0075*%
%ADD85C,0.0060*%
%ADD84C,0.0001*%
%ADD83R,0.0080X0.0080*%
G54D83*X206000Y88000D02*Y84800D01*
G54D84*G36*
X205454Y88147D02*X208920Y90146D01*
X209320Y89453D01*
X205853Y87454D01*
X205454Y88147D01*
G37*
G36*
X206147Y87454D02*X202680Y89453D01*
X203080Y90146D01*
X206546Y88147D01*
X206147Y87454D01*
G37*
G54D83*X204400Y88000D02*G75*G03X207600Y88000I1600J0D01*G01*
G75*G03X204400Y88000I-1600J0D01*G01*
X15000Y115250D02*Y112050D01*
G54D84*G36*
X14454Y115397D02*X17920Y117396D01*
X18320Y116703D01*
X14853Y114704D01*
X14454Y115397D01*
G37*
G36*
X15147Y114704D02*X11680Y116703D01*
X12080Y117396D01*
X15546Y115397D01*
X15147Y114704D01*
G37*
G54D83*X13400Y115250D02*G75*G03X16600Y115250I1600J0D01*G01*
G75*G03X13400Y115250I-1600J0D01*G01*
G54D85*X135000Y117500D02*X136500Y114500D01*
X138000Y117500D01*
X136500Y114500D02*Y111500D01*
X139800Y114800D02*X142050D01*
X139800Y111500D02*X142800D01*
X139800Y117500D02*Y111500D01*
Y117500D02*X142800D01*
X147600D02*X148350Y116750D01*
X145350Y117500D02*X147600D01*
X144600Y116750D02*X145350Y117500D01*
X144600Y116750D02*Y115250D01*
X145350Y114500D01*
X147600D01*
X148350Y113750D01*
Y112250D01*
X147600Y111500D02*X148350Y112250D01*
X145350Y111500D02*X147600D01*
X144600Y112250D02*X145350Y111500D01*
X98000Y116300D02*X99200Y117500D01*
Y111500D01*
X98000D02*X100250D01*
X45000Y112250D02*X45750Y111500D01*
X45000Y116750D02*Y112250D01*
Y116750D02*X45750Y117500D01*
X47250D01*
X48000Y116750D01*
Y112250D01*
X47250Y111500D02*X48000Y112250D01*
X45750Y111500D02*X47250D01*
X45000Y113000D02*X48000Y116000D01*
X49800Y111500D02*X50550D01*
X52350Y116300D02*X53550Y117500D01*
Y111500D01*
X52350D02*X54600D01*
X56400Y116750D02*X57150Y117500D01*
X59400D01*
X60150Y116750D01*
Y115250D01*
X56400Y111500D02*X60150Y115250D01*
X56400Y111500D02*X60150D01*
X62700D02*X64950Y114500D01*
Y116750D02*Y114500D01*
X64200Y117500D02*X64950Y116750D01*
X62700Y117500D02*X64200D01*
X61950Y116750D02*X62700Y117500D01*
X61950Y116750D02*Y115250D01*
X62700Y114500D01*
X64950D01*
X188325Y21100D02*X191525D01*
X188325D02*Y17900D01*
X191525D01*
Y21100D02*Y17900D01*
X188325Y61100D02*X191525D01*
X188325D02*Y57900D01*
X191525D01*
Y61100D02*Y57900D01*
X30400Y62100D02*X33600D01*
X30400D02*Y58900D01*
X33600D01*
Y62100D02*Y58900D01*
X30400Y22100D02*X33600D01*
X30400D02*Y18900D01*
X33600D01*
Y22100D02*Y18900D01*
X13400Y131850D02*X16600D01*
X13400D02*Y128650D01*
X16600D01*
Y131850D02*Y128650D01*
X135000Y132500D02*X136500Y129500D01*
X138000Y132500D01*
X136500Y129500D02*Y126500D01*
X139800Y129800D02*X142050D01*
X139800Y126500D02*X142800D01*
X139800Y132500D02*Y126500D01*
Y132500D02*X142800D01*
X147600D02*X148350Y131750D01*
X145350Y132500D02*X147600D01*
X144600Y131750D02*X145350Y132500D01*
X144600Y131750D02*Y130250D01*
X145350Y129500D01*
X147600D01*
X148350Y128750D01*
Y127250D01*
X147600Y126500D02*X148350Y127250D01*
X145350Y126500D02*X147600D01*
X144600Y127250D02*X145350Y126500D01*
X98000Y128750D02*X101000Y132500D01*
X98000Y128750D02*X101750D01*
X101000Y132500D02*Y126500D01*
X45000Y127250D02*X45750Y126500D01*
X45000Y131750D02*Y127250D01*
Y131750D02*X45750Y132500D01*
X47250D01*
X48000Y131750D01*
Y127250D01*
X47250Y126500D02*X48000Y127250D01*
X45750Y126500D02*X47250D01*
X45000Y128000D02*X48000Y131000D01*
X49800Y126500D02*X50550D01*
X52350Y131300D02*X53550Y132500D01*
Y126500D01*
X52350D02*X54600D01*
X56400Y131750D02*X57150Y132500D01*
X59400D01*
X60150Y131750D01*
Y130250D01*
X56400Y126500D02*X60150Y130250D01*
X56400Y126500D02*X60150D01*
X61950Y127250D02*X62700Y126500D01*
X61950Y128450D02*Y127250D01*
Y128450D02*X63000Y129500D01*
X63900D01*
X64950Y128450D01*
Y127250D01*
X64200Y126500D02*X64950Y127250D01*
X62700Y126500D02*X64200D01*
X61950Y130550D02*X63000Y129500D01*
X61950Y131750D02*Y130550D01*
Y131750D02*X62700Y132500D01*
X64200D01*
X64950Y131750D01*
Y130550D01*
X63900Y129500D02*X64950Y130550D01*
X164700Y84500D02*G75*G03X166300Y84500I800J0D01*G01*
G75*G03X164700Y84500I-800J0D01*G01*
X144700D02*G75*G03X146300Y84500I800J0D01*G01*
G75*G03X144700Y84500I-800J0D01*G01*
X14200Y145250D02*G75*G03X15800Y145250I800J0D01*G01*
G75*G03X14200Y145250I-800J0D01*G01*
X135000Y147500D02*X136500Y144500D01*
X138000Y147500D01*
X136500Y144500D02*Y141500D01*
X139800Y144800D02*X142050D01*
X139800Y141500D02*X142800D01*
X139800Y147500D02*Y141500D01*
Y147500D02*X142800D01*
X147600D02*X148350Y146750D01*
X145350Y147500D02*X147600D01*
X144600Y146750D02*X145350Y147500D01*
X144600Y146750D02*Y145250D01*
X145350Y144500D01*
X147600D01*
X148350Y143750D01*
Y142250D01*
X147600Y141500D02*X148350Y142250D01*
X145350Y141500D02*X147600D01*
X144600Y142250D02*X145350Y141500D01*
X98000Y146750D02*X98750Y147500D01*
X101000D01*
X101750Y146750D01*
Y145250D01*
X98000Y141500D02*X101750Y145250D01*
X98000Y141500D02*X101750D01*
X45000Y142250D02*X45750Y141500D01*
X45000Y146750D02*Y142250D01*
Y146750D02*X45750Y147500D01*
X47250D01*
X48000Y146750D01*
Y142250D01*
X47250Y141500D02*X48000Y142250D01*
X45750Y141500D02*X47250D01*
X45000Y143000D02*X48000Y146000D01*
X49800Y141500D02*X50550D01*
X52350Y142250D02*X53100Y141500D01*
X52350Y146750D02*Y142250D01*
Y146750D02*X53100Y147500D01*
X54600D01*
X55350Y146750D01*
Y142250D01*
X54600Y141500D02*X55350Y142250D01*
X53100Y141500D02*X54600D01*
X52350Y143000D02*X55350Y146000D01*
X57150Y143750D02*X60150Y147500D01*
X57150Y143750D02*X60900D01*
X60150Y147500D02*Y141500D01*
X62700Y142250D02*X63450Y141500D01*
X62700Y143450D02*Y142250D01*
Y143450D02*X63750Y144500D01*
X64650D01*
X65700Y143450D01*
Y142250D01*
X64950Y141500D02*X65700Y142250D01*
X63450Y141500D02*X64950D01*
X62700Y145550D02*X63750Y144500D01*
X62700Y146750D02*Y145550D01*
Y146750D02*X63450Y147500D01*
X64950D01*
X65700Y146750D01*
Y145550D01*
X64650Y144500D02*X65700Y145550D01*
X25300Y77200D02*X27700Y74800D01*
X25300D02*X27700Y77200D01*
X35300D02*X37700Y74800D01*
X35300D02*X37700Y77200D01*
X45300D02*X47700Y74800D01*
X45300D02*X47700Y77200D01*
X55300D02*X57700Y74800D01*
X55300D02*X57700Y77200D01*
X65300D02*X67700Y74800D01*
X65300D02*X67700Y77200D01*
X75300D02*X77700Y74800D01*
X75300D02*X77700Y77200D01*
X85300D02*X87700Y74800D01*
X85300D02*X87700Y77200D01*
X95300D02*X97700Y74800D01*
X95300D02*X97700Y77200D01*
X105300D02*X107700Y74800D01*
X105300D02*X107700Y77200D01*
X115300D02*X117700Y74800D01*
X115300D02*X117700Y77200D01*
X25300Y87200D02*X27700Y84800D01*
X25300D02*X27700Y87200D01*
X35300D02*X37700Y84800D01*
X35300D02*X37700Y87200D01*
X45300D02*X47700Y84800D01*
X45300D02*X47700Y87200D01*
X55300D02*X57700Y84800D01*
X55300D02*X57700Y87200D01*
X65300D02*X67700Y84800D01*
X65300D02*X67700Y87200D01*
X75300D02*X77700Y84800D01*
X75300D02*X77700Y87200D01*
X85300D02*X87700Y84800D01*
X85300D02*X87700Y87200D01*
X95300D02*X97700Y84800D01*
X95300D02*X97700Y87200D01*
X105300D02*X107700Y84800D01*
X105300D02*X107700Y87200D01*
X115300D02*X117700Y84800D01*
X115300D02*X117700Y87200D01*
X38800Y98200D02*X41200Y95800D01*
X38800D02*X41200Y98200D01*
X28800Y97200D02*X31200Y94800D01*
X28800D02*X31200Y97200D01*
X18800Y98200D02*X21200Y95800D01*
X18800D02*X21200Y98200D01*
X6300Y78200D02*X8700Y75800D01*
X6300D02*X8700Y78200D01*
X7300Y88200D02*X9700Y85800D01*
X7300D02*X9700Y88200D01*
X6300Y98200D02*X8700Y95800D01*
X6300D02*X8700Y98200D01*
X10300Y8700D02*X12700Y6300D01*
X10300D02*X12700Y8700D01*
X20300Y9700D02*X22700Y7300D01*
X20300D02*X22700Y9700D01*
X30300Y8700D02*X32700Y6300D01*
X30300D02*X32700Y8700D01*
X13800Y161450D02*X16200Y159050D01*
X13800D02*X16200Y161450D01*
X135000Y162500D02*X136500Y159500D01*
X138000Y162500D01*
X136500Y159500D02*Y156500D01*
X139800Y159800D02*X142050D01*
X139800Y156500D02*X142800D01*
X139800Y162500D02*Y156500D01*
Y162500D02*X142800D01*
X147600D02*X148350Y161750D01*
X145350Y162500D02*X147600D01*
X144600Y161750D02*X145350Y162500D01*
X144600Y161750D02*Y160250D01*
X145350Y159500D01*
X147600D01*
X148350Y158750D01*
Y157250D01*
X147600Y156500D02*X148350Y157250D01*
X145350Y156500D02*X147600D01*
X144600Y157250D02*X145350Y156500D01*
X98000Y161750D02*X98750Y162500D01*
X101000D01*
X101750Y161750D01*
Y160250D01*
X98000Y156500D02*X101750Y160250D01*
X98000Y156500D02*X101750D01*
X104300D02*X106550Y159500D01*
Y161750D02*Y159500D01*
X105800Y162500D02*X106550Y161750D01*
X104300Y162500D02*X105800D01*
X103550Y161750D02*X104300Y162500D01*
X103550Y161750D02*Y160250D01*
X104300Y159500D01*
X106550D01*
X45000Y157250D02*X45750Y156500D01*
X45000Y161750D02*Y157250D01*
Y161750D02*X45750Y162500D01*
X47250D01*
X48000Y161750D01*
Y157250D01*
X47250Y156500D02*X48000Y157250D01*
X45750Y156500D02*X47250D01*
X45000Y158000D02*X48000Y161000D01*
X49800Y156500D02*X50550D01*
X52350Y157250D02*X53100Y156500D01*
X52350Y161750D02*Y157250D01*
Y161750D02*X53100Y162500D01*
X54600D01*
X55350Y161750D01*
Y157250D01*
X54600Y156500D02*X55350Y157250D01*
X53100Y156500D02*X54600D01*
X52350Y158000D02*X55350Y161000D01*
X57150Y161750D02*X57900Y162500D01*
X59400D01*
X60150Y161750D01*
X59400Y156500D02*X60150Y157250D01*
X57900Y156500D02*X59400D01*
X57150Y157250D02*X57900Y156500D01*
Y159800D02*X59400D01*
X60150Y161750D02*Y160550D01*
Y159050D02*Y157250D01*
Y159050D02*X59400Y159800D01*
X60150Y160550D02*X59400Y159800D01*
X61950Y157250D02*X62700Y156500D01*
X61950Y158450D02*Y157250D01*
Y158450D02*X63000Y159500D01*
X63900D01*
X64950Y158450D01*
Y157250D01*
X64200Y156500D02*X64950Y157250D01*
X62700Y156500D02*X64200D01*
X61950Y160550D02*X63000Y159500D01*
X61950Y161750D02*Y160550D01*
Y161750D02*X62700Y162500D01*
X64200D01*
X64950Y161750D01*
Y160550D01*
X63900Y159500D02*X64950Y160550D01*
X154925Y28600D02*Y25400D01*
X153325Y27000D02*X156525D01*
X164925Y33600D02*Y30400D01*
X163325Y32000D02*X166525D01*
X154925Y38600D02*Y35400D01*
X153325Y37000D02*X156525D01*
X164925Y43600D02*Y40400D01*
X163325Y42000D02*X166525D01*
X154925Y48600D02*Y45400D01*
X153325Y47000D02*X156525D01*
X164925Y53600D02*Y50400D01*
X163325Y52000D02*X166525D01*
X67000Y54600D02*Y51400D01*
X65400Y53000D02*X68600D01*
X57000Y49600D02*Y46400D01*
X55400Y48000D02*X58600D01*
X67000Y44600D02*Y41400D01*
X65400Y43000D02*X68600D01*
X57000Y39600D02*Y36400D01*
X55400Y38000D02*X58600D01*
X67000Y34600D02*Y31400D01*
X65400Y33000D02*X68600D01*
X57000Y29600D02*Y26400D01*
X55400Y28000D02*X58600D01*
X15000Y176850D02*Y173650D01*
X13400Y175250D02*X16600D01*
X135000Y177500D02*X136500Y174500D01*
X138000Y177500D01*
X136500Y174500D02*Y171500D01*
X139800Y174800D02*X142050D01*
X139800Y171500D02*X142800D01*
X139800Y177500D02*Y171500D01*
Y177500D02*X142800D01*
X147600D02*X148350Y176750D01*
X145350Y177500D02*X147600D01*
X144600Y176750D02*X145350Y177500D01*
X144600Y176750D02*Y175250D01*
X145350Y174500D01*
X147600D01*
X148350Y173750D01*
Y172250D01*
X147600Y171500D02*X148350Y172250D01*
X145350Y171500D02*X147600D01*
X144600Y172250D02*X145350Y171500D01*
X98000Y176300D02*X99200Y177500D01*
Y171500D01*
X98000D02*X100250D01*
X102050Y176750D02*X102800Y177500D01*
X105050D01*
X105800Y176750D01*
Y175250D01*
X102050Y171500D02*X105800Y175250D01*
X102050Y171500D02*X105800D01*
X45000Y172250D02*X45750Y171500D01*
X45000Y176750D02*Y172250D01*
Y176750D02*X45750Y177500D01*
X47250D01*
X48000Y176750D01*
Y172250D01*
X47250Y171500D02*X48000Y172250D01*
X45750Y171500D02*X47250D01*
X45000Y173000D02*X48000Y176000D01*
X49800Y171500D02*X50550D01*
X52350Y172250D02*X53100Y171500D01*
X52350Y176750D02*Y172250D01*
Y176750D02*X53100Y177500D01*
X54600D01*
X55350Y176750D01*
Y172250D01*
X54600Y171500D02*X55350Y172250D01*
X53100Y171500D02*X54600D01*
X52350Y173000D02*X55350Y176000D01*
X57150Y176750D02*X57900Y177500D01*
X59400D01*
X60150Y176750D01*
X59400Y171500D02*X60150Y172250D01*
X57900Y171500D02*X59400D01*
X57150Y172250D02*X57900Y171500D01*
Y174800D02*X59400D01*
X60150Y176750D02*Y175550D01*
Y174050D02*Y172250D01*
Y174050D02*X59400Y174800D01*
X60150Y175550D02*X59400Y174800D01*
X61950Y172250D02*X62700Y171500D01*
X61950Y176750D02*Y172250D01*
Y176750D02*X62700Y177500D01*
X64200D01*
X64950Y176750D01*
Y172250D01*
X64200Y171500D02*X64950Y172250D01*
X62700Y171500D02*X64200D01*
X61950Y173000D02*X64950Y176000D01*
X154500Y61000D02*Y59400D01*
Y61000D02*X155887Y61800D01*
X154500Y61000D02*X153113Y61800D01*
X105500Y35500D02*Y33900D01*
Y35500D02*X106887Y36300D01*
X105500Y35500D02*X104113Y36300D01*
X101000Y17500D02*Y15900D01*
Y17500D02*X102387Y18300D01*
X101000Y17500D02*X99613Y18300D01*
X150000Y9500D02*Y7900D01*
Y9500D02*X151387Y10300D01*
X150000Y9500D02*X148613Y10300D01*
X52500Y95500D02*Y93900D01*
Y95500D02*X53887Y96300D01*
X52500Y95500D02*X51113Y96300D01*
X56500Y66500D02*Y64900D01*
Y66500D02*X57887Y67300D01*
X56500Y66500D02*X55113Y67300D01*
X100500Y35500D02*Y33900D01*
Y35500D02*X101887Y36300D01*
X100500Y35500D02*X99113Y36300D01*
X170500Y37000D02*Y35400D01*
Y37000D02*X171887Y37800D01*
X170500Y37000D02*X169113Y37800D01*
X165000Y9500D02*Y7900D01*
Y9500D02*X166387Y10300D01*
X165000Y9500D02*X163613Y10300D01*
X170500Y9500D02*Y7900D01*
Y9500D02*X171887Y10300D01*
X170500Y9500D02*X169113Y10300D01*
X99500Y41500D02*Y39900D01*
Y41500D02*X100887Y42300D01*
X99500Y41500D02*X98113Y42300D01*
X93000Y40500D02*Y38900D01*
Y40500D02*X94387Y41300D01*
X93000Y40500D02*X91613Y41300D01*
X93000Y45500D02*Y43900D01*
Y45500D02*X94387Y46300D01*
X93000Y45500D02*X91613Y46300D01*
X79000Y59500D02*Y57900D01*
Y59500D02*X80387Y60300D01*
X79000Y59500D02*X77613Y60300D01*
X15000Y190250D02*Y188650D01*
Y190250D02*X16387Y191050D01*
X15000Y190250D02*X13613Y191050D01*
X135000Y192500D02*X136500Y189500D01*
X138000Y192500D01*
X136500Y189500D02*Y186500D01*
X139800Y189800D02*X142050D01*
X139800Y186500D02*X142800D01*
X139800Y192500D02*Y186500D01*
Y192500D02*X142800D01*
X147600D02*X148350Y191750D01*
X145350Y192500D02*X147600D01*
X144600Y191750D02*X145350Y192500D01*
X144600Y191750D02*Y190250D01*
X145350Y189500D01*
X147600D01*
X148350Y188750D01*
Y187250D01*
X147600Y186500D02*X148350Y187250D01*
X145350Y186500D02*X147600D01*
X144600Y187250D02*X145350Y186500D01*
X98000Y191300D02*X99200Y192500D01*
Y186500D01*
X98000D02*X100250D01*
X102050Y188750D02*X105050Y192500D01*
X102050Y188750D02*X105800D01*
X105050Y192500D02*Y186500D01*
X45000Y187250D02*X45750Y186500D01*
X45000Y191750D02*Y187250D01*
Y191750D02*X45750Y192500D01*
X47250D01*
X48000Y191750D01*
Y187250D01*
X47250Y186500D02*X48000Y187250D01*
X45750Y186500D02*X47250D01*
X45000Y188000D02*X48000Y191000D01*
X49800Y186500D02*X50550D01*
X52350Y187250D02*X53100Y186500D01*
X52350Y191750D02*Y187250D01*
Y191750D02*X53100Y192500D01*
X54600D01*
X55350Y191750D01*
Y187250D01*
X54600Y186500D02*X55350Y187250D01*
X53100Y186500D02*X54600D01*
X52350Y188000D02*X55350Y191000D01*
X57150Y191750D02*X57900Y192500D01*
X60150D01*
X60900Y191750D01*
Y190250D01*
X57150Y186500D02*X60900Y190250D01*
X57150Y186500D02*X60900D01*
X62700Y187250D02*X63450Y186500D01*
X62700Y191750D02*Y187250D01*
Y191750D02*X63450Y192500D01*
X64950D01*
X65700Y191750D01*
Y187250D01*
X64950Y186500D02*X65700Y187250D01*
X63450Y186500D02*X64950D01*
X62700Y188000D02*X65700Y191000D01*
X3000Y207500D02*X3750Y206750D01*
X750Y207500D02*X3000D01*
X0Y206750D02*X750Y207500D01*
X0Y206750D02*Y205250D01*
X750Y204500D01*
X3000D01*
X3750Y203750D01*
Y202250D01*
X3000Y201500D02*X3750Y202250D01*
X750Y201500D02*X3000D01*
X0Y202250D02*X750Y201500D01*
X5550Y204500D02*Y202250D01*
X6300Y201500D01*
X8550Y204500D02*Y200000D01*
X7800Y199250D02*X8550Y200000D01*
X6300Y199250D02*X7800D01*
X5550Y200000D02*X6300Y199250D01*
Y201500D02*X7800D01*
X8550Y202250D01*
X11100Y203750D02*Y201500D01*
Y203750D02*X11850Y204500D01*
X12600D01*
X13350Y203750D01*
Y201500D01*
Y203750D02*X14100Y204500D01*
X14850D01*
X15600Y203750D01*
Y201500D01*
X10350Y204500D02*X11100Y203750D01*
X17400Y207500D02*Y201500D01*
Y202250D02*X18150Y201500D01*
X19650D01*
X20400Y202250D01*
Y203750D02*Y202250D01*
X19650Y204500D02*X20400Y203750D01*
X18150Y204500D02*X19650D01*
X17400Y203750D02*X18150Y204500D01*
X22200Y203750D02*Y202250D01*
Y203750D02*X22950Y204500D01*
X24450D01*
X25200Y203750D01*
Y202250D01*
X24450Y201500D02*X25200Y202250D01*
X22950Y201500D02*X24450D01*
X22200Y202250D02*X22950Y201500D01*
X27000Y207500D02*Y202250D01*
X27750Y201500D01*
X0Y198250D02*X29250D01*
X41750Y207500D02*Y201500D01*
X43700Y207500D02*X44750Y206450D01*
Y202550D01*
X43700Y201500D02*X44750Y202550D01*
X41000Y201500D02*X43700D01*
X41000Y207500D02*X43700D01*
G54D86*X46550Y206000D02*Y205850D01*
G54D85*Y203750D02*Y201500D01*
X50300Y204500D02*X51050Y203750D01*
X48800Y204500D02*X50300D01*
X48050Y203750D02*X48800Y204500D01*
X48050Y203750D02*Y202250D01*
X48800Y201500D01*
X51050Y204500D02*Y202250D01*
X51800Y201500D01*
X48800D02*X50300D01*
X51050Y202250D01*
X54350Y203750D02*Y201500D01*
Y203750D02*X55100Y204500D01*
X55850D01*
X56600Y203750D01*
Y201500D01*
Y203750D02*X57350Y204500D01*
X58100D01*
X58850Y203750D01*
Y201500D01*
X53600Y204500D02*X54350Y203750D01*
X60650Y201500D02*X61400D01*
X65900Y202250D02*X66650Y201500D01*
X65900Y206750D02*X66650Y207500D01*
X65900Y206750D02*Y202250D01*
X68450Y207500D02*X69950D01*
X69200D02*Y201500D01*
X68450D02*X69950D01*
X72500Y203750D02*Y201500D01*
Y203750D02*X73250Y204500D01*
X74000D01*
X74750Y203750D01*
Y201500D01*
X71750Y204500D02*X72500Y203750D01*
X77300Y204500D02*X79550D01*
X76550Y203750D02*X77300Y204500D01*
X76550Y203750D02*Y202250D01*
X77300Y201500D01*
X79550D01*
X81350Y207500D02*Y201500D01*
Y203750D02*X82100Y204500D01*
X83600D01*
X84350Y203750D01*
Y201500D01*
X86150Y207500D02*X86900Y206750D01*
Y202250D01*
X86150Y201500D02*X86900Y202250D01*
X41000Y198250D02*X88700D01*
X96050Y201500D02*X98000D01*
X95000Y202550D02*X96050Y201500D01*
X95000Y206450D02*Y202550D01*
Y206450D02*X96050Y207500D01*
X98000D01*
X99800Y203750D02*Y202250D01*
Y203750D02*X100550Y204500D01*
X102050D01*
X102800Y203750D01*
Y202250D01*
X102050Y201500D02*X102800Y202250D01*
X100550Y201500D02*X102050D01*
X99800Y202250D02*X100550Y201500D01*
X104600Y204500D02*Y202250D01*
X105350Y201500D01*
X106850D01*
X107600Y202250D01*
Y204500D02*Y202250D01*
X110150Y203750D02*Y201500D01*
Y203750D02*X110900Y204500D01*
X111650D01*
X112400Y203750D01*
Y201500D01*
X109400Y204500D02*X110150Y203750D01*
X114950Y207500D02*Y202250D01*
X115700Y201500D01*
X114200Y205250D02*X115700D01*
X95000Y198250D02*X117200D01*
X130750Y207500D02*Y201500D01*
X130000Y207500D02*X133000D01*
X133750Y206750D01*
Y205250D01*
X133000Y204500D02*X133750Y205250D01*
X130750Y204500D02*X133000D01*
X135550Y207500D02*Y202250D01*
X136300Y201500D01*
X140050Y204500D02*X140800Y203750D01*
X138550Y204500D02*X140050D01*
X137800Y203750D02*X138550Y204500D01*
X137800Y203750D02*Y202250D01*
X138550Y201500D01*
X140800Y204500D02*Y202250D01*
X141550Y201500D01*
X138550D02*X140050D01*
X140800Y202250D01*
X144100Y207500D02*Y202250D01*
X144850Y201500D01*
X143350Y205250D02*X144850D01*
X147100Y201500D02*X149350D01*
X146350Y202250D02*X147100Y201500D01*
X146350Y203750D02*Y202250D01*
Y203750D02*X147100Y204500D01*
X148600D01*
X149350Y203750D01*
X146350Y203000D02*X149350D01*
Y203750D02*Y203000D01*
X154150Y207500D02*Y201500D01*
X153400D02*X154150Y202250D01*
X151900Y201500D02*X153400D01*
X151150Y202250D02*X151900Y201500D01*
X151150Y203750D02*Y202250D01*
Y203750D02*X151900Y204500D01*
X153400D01*
X154150Y203750D01*
X157450Y204500D02*Y203750D01*
Y202250D02*Y201500D01*
X155950Y206750D02*Y206000D01*
Y206750D02*X156700Y207500D01*
X158200D01*
X158950Y206750D01*
Y206000D01*
X157450Y204500D02*X158950Y206000D01*
X130000Y198250D02*X160750D01*
X0Y222500D02*X3000D01*
X1500D02*Y216500D01*
X4800Y222500D02*Y216500D01*
Y218750D02*X5550Y219500D01*
X7050D01*
X7800Y218750D01*
Y216500D01*
X10350D02*X12600D01*
X9600Y217250D02*X10350Y216500D01*
X9600Y218750D02*Y217250D01*
Y218750D02*X10350Y219500D01*
X11850D01*
X12600Y218750D01*
X9600Y218000D02*X12600D01*
Y218750D02*Y218000D01*
X15150Y218750D02*Y216500D01*
Y218750D02*X15900Y219500D01*
X17400D01*
X14400D02*X15150Y218750D01*
X19950Y216500D02*X22200D01*
X19200Y217250D02*X19950Y216500D01*
X19200Y218750D02*Y217250D01*
Y218750D02*X19950Y219500D01*
X21450D01*
X22200Y218750D01*
X19200Y218000D02*X22200D01*
Y218750D02*Y218000D01*
X28950Y219500D02*X29700Y218750D01*
X27450Y219500D02*X28950D01*
X26700Y218750D02*X27450Y219500D01*
X26700Y218750D02*Y217250D01*
X27450Y216500D01*
X29700Y219500D02*Y217250D01*
X30450Y216500D01*
X27450D02*X28950D01*
X29700Y217250D01*
X33000Y218750D02*Y216500D01*
Y218750D02*X33750Y219500D01*
X35250D01*
X32250D02*X33000Y218750D01*
X37800Y216500D02*X40050D01*
X37050Y217250D02*X37800Y216500D01*
X37050Y218750D02*Y217250D01*
Y218750D02*X37800Y219500D01*
X39300D01*
X40050Y218750D01*
X37050Y218000D02*X40050D01*
Y218750D02*Y218000D01*
X46800Y222500D02*X47550Y221750D01*
X45300Y222500D02*X46800D01*
X44550Y221750D02*X45300Y222500D01*
X44550Y221750D02*Y217250D01*
X45300Y216500D01*
X46800Y219800D02*X47550Y219050D01*
X44550Y219800D02*X46800D01*
X45300Y216500D02*X46800D01*
X47550Y217250D01*
Y219050D02*Y217250D01*
X55050Y222500D02*Y216500D01*
X54300D02*X55050Y217250D01*
X52800Y216500D02*X54300D01*
X52050Y217250D02*X52800Y216500D01*
X52050Y218750D02*Y217250D01*
Y218750D02*X52800Y219500D01*
X54300D01*
X55050Y218750D01*
G54D86*X56850Y221000D02*Y220850D01*
G54D85*Y218750D02*Y216500D01*
X59100Y221750D02*Y216500D01*
Y221750D02*X59850Y222500D01*
X60600D01*
X58350Y219500D02*X59850D01*
X62850Y221750D02*Y216500D01*
Y221750D02*X63600Y222500D01*
X64350D01*
X62100Y219500D02*X63600D01*
X66600Y216500D02*X68850D01*
X65850Y217250D02*X66600Y216500D01*
X65850Y218750D02*Y217250D01*
Y218750D02*X66600Y219500D01*
X68100D01*
X68850Y218750D01*
X65850Y218000D02*X68850D01*
Y218750D02*Y218000D01*
X71400Y218750D02*Y216500D01*
Y218750D02*X72150Y219500D01*
X73650D01*
X70650D02*X71400Y218750D01*
X76200Y216500D02*X78450D01*
X75450Y217250D02*X76200Y216500D01*
X75450Y218750D02*Y217250D01*
Y218750D02*X76200Y219500D01*
X77700D01*
X78450Y218750D01*
X75450Y218000D02*X78450D01*
Y218750D02*Y218000D01*
X81000Y218750D02*Y216500D01*
Y218750D02*X81750Y219500D01*
X82500D01*
X83250Y218750D01*
Y216500D01*
X80250Y219500D02*X81000Y218750D01*
X85800Y222500D02*Y217250D01*
X86550Y216500D01*
X85050Y220250D02*X86550D01*
X93750Y222500D02*Y216500D01*
X93000D02*X93750Y217250D01*
X91500Y216500D02*X93000D01*
X90750Y217250D02*X91500Y216500D01*
X90750Y218750D02*Y217250D01*
Y218750D02*X91500Y219500D01*
X93000D01*
X93750Y218750D01*
X96300D02*Y216500D01*
Y218750D02*X97050Y219500D01*
X98550D01*
X95550D02*X96300Y218750D01*
G54D86*X100350Y221000D02*Y220850D01*
G54D85*Y218750D02*Y216500D01*
X101850Y222500D02*Y217250D01*
X102600Y216500D01*
X104100Y222500D02*Y217250D01*
X104850Y216500D01*
X109800D02*X112050D01*
X112800Y217250D01*
X112050Y218000D02*X112800Y217250D01*
X109800Y218000D02*X112050D01*
X109050Y218750D02*X109800Y218000D01*
X109050Y218750D02*X109800Y219500D01*
X112050D01*
X112800Y218750D01*
X109050Y217250D02*X109800Y216500D01*
G54D86*X114600Y221000D02*Y220850D01*
G54D85*Y218750D02*Y216500D01*
X116100Y219500D02*X119100D01*
X116100Y216500D02*X119100Y219500D01*
X116100Y216500D02*X119100D01*
X121650D02*X123900D01*
X120900Y217250D02*X121650Y216500D01*
X120900Y218750D02*Y217250D01*
Y218750D02*X121650Y219500D01*
X123150D01*
X123900Y218750D01*
X120900Y218000D02*X123900D01*
Y218750D02*Y218000D01*
X126450Y216500D02*X128700D01*
X129450Y217250D01*
X128700Y218000D02*X129450Y217250D01*
X126450Y218000D02*X128700D01*
X125700Y218750D02*X126450Y218000D01*
X125700Y218750D02*X126450Y219500D01*
X128700D01*
X129450Y218750D01*
X125700Y217250D02*X126450Y216500D01*
X133950Y219500D02*Y217250D01*
X134700Y216500D01*
X136200D01*
X136950Y217250D01*
Y219500D02*Y217250D01*
X139500Y216500D02*X141750D01*
X142500Y217250D01*
X141750Y218000D02*X142500Y217250D01*
X139500Y218000D02*X141750D01*
X138750Y218750D02*X139500Y218000D01*
X138750Y218750D02*X139500Y219500D01*
X141750D01*
X142500Y218750D01*
X138750Y217250D02*X139500Y216500D01*
X145050D02*X147300D01*
X144300Y217250D02*X145050Y216500D01*
X144300Y218750D02*Y217250D01*
Y218750D02*X145050Y219500D01*
X146550D01*
X147300Y218750D01*
X144300Y218000D02*X147300D01*
Y218750D02*Y218000D01*
X152100Y222500D02*Y216500D01*
X151350D02*X152100Y217250D01*
X149850Y216500D02*X151350D01*
X149100Y217250D02*X149850Y216500D01*
X149100Y218750D02*Y217250D01*
Y218750D02*X149850Y219500D01*
X151350D01*
X152100Y218750D01*
G54D86*X156600Y221000D02*Y220850D01*
G54D85*Y218750D02*Y216500D01*
X158850Y218750D02*Y216500D01*
Y218750D02*X159600Y219500D01*
X160350D01*
X161100Y218750D01*
Y216500D01*
X158100Y219500D02*X158850Y218750D01*
X166350Y222500D02*Y217250D01*
X167100Y216500D01*
X165600Y220250D02*X167100D01*
X168600Y222500D02*Y216500D01*
Y218750D02*X169350Y219500D01*
X170850D01*
X171600Y218750D01*
Y216500D01*
G54D86*X173400Y221000D02*Y220850D01*
G54D85*Y218750D02*Y216500D01*
X175650D02*X177900D01*
X178650Y217250D01*
X177900Y218000D02*X178650Y217250D01*
X175650Y218000D02*X177900D01*
X174900Y218750D02*X175650Y218000D01*
X174900Y218750D02*X175650Y219500D01*
X177900D01*
X178650Y218750D01*
X174900Y217250D02*X175650Y216500D01*
X183150Y222500D02*Y217250D01*
X183900Y216500D01*
X187650Y219500D02*X188400Y218750D01*
X186150Y219500D02*X187650D01*
X185400Y218750D02*X186150Y219500D01*
X185400Y218750D02*Y217250D01*
X186150Y216500D01*
X188400Y219500D02*Y217250D01*
X189150Y216500D01*
X186150D02*X187650D01*
X188400Y217250D01*
X190950Y219500D02*Y217250D01*
X191700Y216500D01*
X193950Y219500D02*Y215000D01*
X193200Y214250D02*X193950Y215000D01*
X191700Y214250D02*X193200D01*
X190950Y215000D02*X191700Y214250D01*
Y216500D02*X193200D01*
X193950Y217250D01*
X195750Y218750D02*Y217250D01*
Y218750D02*X196500Y219500D01*
X198000D01*
X198750Y218750D01*
Y217250D01*
X198000Y216500D02*X198750Y217250D01*
X196500Y216500D02*X198000D01*
X195750Y217250D02*X196500Y216500D01*
X200550Y219500D02*Y217250D01*
X201300Y216500D01*
X202800D01*
X203550Y217250D01*
Y219500D02*Y217250D01*
X206100Y222500D02*Y217250D01*
X206850Y216500D01*
X205350Y220250D02*X206850D01*
X208350Y215000D02*X209850Y216500D01*
X216600Y222500D02*X217350Y221750D01*
X215100Y222500D02*X216600D01*
X214350Y221750D02*X215100Y222500D01*
X214350Y221750D02*Y217250D01*
X215100Y216500D01*
X216600Y219800D02*X217350Y219050D01*
X214350Y219800D02*X216600D01*
X215100Y216500D02*X216600D01*
X217350Y217250D01*
Y219050D02*Y217250D01*
X219150Y221750D02*X219900Y222500D01*
X222150D01*
X222900Y221750D01*
Y220250D01*
X219150Y216500D02*X222900Y220250D01*
X219150Y216500D02*X222900D01*
X227400Y222500D02*Y216500D01*
Y218750D02*X228150Y219500D01*
X229650D01*
X230400Y218750D01*
Y216500D01*
X232200Y218750D02*Y217250D01*
Y218750D02*X232950Y219500D01*
X234450D01*
X235200Y218750D01*
Y217250D01*
X234450Y216500D02*X235200Y217250D01*
X232950Y216500D02*X234450D01*
X232200Y217250D02*X232950Y216500D01*
X237000Y222500D02*Y217250D01*
X237750Y216500D01*
X240000D02*X242250D01*
X239250Y217250D02*X240000Y216500D01*
X239250Y218750D02*Y217250D01*
Y218750D02*X240000Y219500D01*
X241500D01*
X242250Y218750D01*
X239250Y218000D02*X242250D01*
Y218750D02*Y218000D01*
X244800Y216500D02*X247050D01*
X247800Y217250D01*
X247050Y218000D02*X247800Y217250D01*
X244800Y218000D02*X247050D01*
X244050Y218750D02*X244800Y218000D01*
X244050Y218750D02*X244800Y219500D01*
X247050D01*
X247800Y218750D01*
X244050Y217250D02*X244800Y216500D01*
X253050Y222500D02*Y217250D01*
X253800Y216500D01*
X252300Y220250D02*X253800D01*
X255300Y218750D02*Y217250D01*
Y218750D02*X256050Y219500D01*
X257550D01*
X258300Y218750D01*
Y217250D01*
X257550Y216500D02*X258300Y217250D01*
X256050Y216500D02*X257550D01*
X255300Y217250D02*X256050Y216500D01*
X260850Y222500D02*Y217250D01*
X261600Y216500D01*
X260100Y220250D02*X261600D01*
X265350Y219500D02*X266100Y218750D01*
X263850Y219500D02*X265350D01*
X263100Y218750D02*X263850Y219500D01*
X263100Y218750D02*Y217250D01*
X263850Y216500D01*
X266100Y219500D02*Y217250D01*
X266850Y216500D01*
X263850D02*X265350D01*
X266100Y217250D01*
X268650Y222500D02*Y217250D01*
X269400Y216500D01*
G54D87*X222000Y104000D02*Y0D01*
X0D01*
Y104000D01*
X222000D01*
G54D85*X24675Y-9500D02*X27675D01*
X28425Y-8750D01*
Y-6950D02*Y-8750D01*
X27675Y-6200D02*X28425Y-6950D01*
X25425Y-6200D02*X27675D01*
X25425Y-3500D02*Y-9500D01*
X24675Y-3500D02*X27675D01*
X28425Y-4250D01*
Y-5450D01*
X27675Y-6200D02*X28425Y-5450D01*
X30225Y-7250D02*Y-8750D01*
Y-7250D02*X30975Y-6500D01*
X32475D01*
X33225Y-7250D01*
Y-8750D01*
X32475Y-9500D02*X33225Y-8750D01*
X30975Y-9500D02*X32475D01*
X30225Y-8750D02*X30975Y-9500D01*
X37275Y-6500D02*X38025Y-7250D01*
X35775Y-6500D02*X37275D01*
X35025Y-7250D02*X35775Y-6500D01*
X35025Y-7250D02*Y-8750D01*
X35775Y-9500D01*
X38025Y-6500D02*Y-8750D01*
X38775Y-9500D01*
X35775D02*X37275D01*
X38025Y-8750D01*
X41325Y-7250D02*Y-9500D01*
Y-7250D02*X42075Y-6500D01*
X43575D01*
X40575D02*X41325Y-7250D01*
X48375Y-3500D02*Y-9500D01*
X47625D02*X48375Y-8750D01*
X46125Y-9500D02*X47625D01*
X45375Y-8750D02*X46125Y-9500D01*
X45375Y-7250D02*Y-8750D01*
Y-7250D02*X46125Y-6500D01*
X47625D01*
X48375Y-7250D01*
X52875D02*Y-8750D01*
Y-7250D02*X53625Y-6500D01*
X55125D01*
X55875Y-7250D01*
Y-8750D01*
X55125Y-9500D02*X55875Y-8750D01*
X53625Y-9500D02*X55125D01*
X52875Y-8750D02*X53625Y-9500D01*
X57675Y-6500D02*Y-8750D01*
X58425Y-9500D01*
X59925D01*
X60675Y-8750D01*
Y-6500D02*Y-8750D01*
X63225Y-3500D02*Y-8750D01*
X63975Y-9500D01*
X62475Y-5750D02*X63975D01*
X65475Y-3500D02*Y-8750D01*
X66225Y-9500D01*
G54D86*X67725Y-5000D02*Y-5150D01*
G54D85*Y-7250D02*Y-9500D01*
X69975Y-7250D02*Y-9500D01*
Y-7250D02*X70725Y-6500D01*
X71475D01*
X72225Y-7250D01*
Y-9500D01*
X69225Y-6500D02*X69975Y-7250D01*
X74775Y-9500D02*X77025D01*
X74025Y-8750D02*X74775Y-9500D01*
X74025Y-7250D02*Y-8750D01*
Y-7250D02*X74775Y-6500D01*
X76275D01*
X77025Y-7250D01*
X74025Y-8000D02*X77025D01*
Y-7250D02*Y-8000D01*
G54D86*X81525Y-5000D02*Y-5150D01*
G54D85*Y-7250D02*Y-9500D01*
X83775D02*X86025D01*
X86775Y-8750D01*
X86025Y-8000D02*X86775Y-8750D01*
X83775Y-8000D02*X86025D01*
X83025Y-7250D02*X83775Y-8000D01*
X83025Y-7250D02*X83775Y-6500D01*
X86025D01*
X86775Y-7250D01*
X83025Y-8750D02*X83775Y-9500D01*
X92025Y-3500D02*Y-8750D01*
X92775Y-9500D01*
X91275Y-5750D02*X92775D01*
X94275Y-3500D02*Y-9500D01*
Y-7250D02*X95025Y-6500D01*
X96525D01*
X97275Y-7250D01*
Y-9500D01*
X99825D02*X102075D01*
X99075Y-8750D02*X99825Y-9500D01*
X99075Y-7250D02*Y-8750D01*
Y-7250D02*X99825Y-6500D01*
X101325D01*
X102075Y-7250D01*
X99075Y-8000D02*X102075D01*
Y-7250D02*Y-8000D01*
X107325Y-6500D02*X109575D01*
X106575Y-7250D02*X107325Y-6500D01*
X106575Y-7250D02*Y-8750D01*
X107325Y-9500D01*
X109575D01*
X112125D02*X114375D01*
X111375Y-8750D02*X112125Y-9500D01*
X111375Y-7250D02*Y-8750D01*
Y-7250D02*X112125Y-6500D01*
X113625D01*
X114375Y-7250D01*
X111375Y-8000D02*X114375D01*
Y-7250D02*Y-8000D01*
X116925Y-7250D02*Y-9500D01*
Y-7250D02*X117675Y-6500D01*
X118425D01*
X119175Y-7250D01*
Y-9500D01*
X116175Y-6500D02*X116925Y-7250D01*
X121725Y-3500D02*Y-8750D01*
X122475Y-9500D01*
X120975Y-5750D02*X122475D01*
X124725Y-9500D02*X126975D01*
X123975Y-8750D02*X124725Y-9500D01*
X123975Y-7250D02*Y-8750D01*
Y-7250D02*X124725Y-6500D01*
X126225D01*
X126975Y-7250D01*
X123975Y-8000D02*X126975D01*
Y-7250D02*Y-8000D01*
X129525Y-7250D02*Y-9500D01*
Y-7250D02*X130275Y-6500D01*
X131775D01*
X128775D02*X129525Y-7250D01*
X133575Y-3500D02*Y-8750D01*
X134325Y-9500D01*
G54D86*X135825Y-5000D02*Y-5150D01*
G54D85*Y-7250D02*Y-9500D01*
X138075Y-7250D02*Y-9500D01*
Y-7250D02*X138825Y-6500D01*
X139575D01*
X140325Y-7250D01*
Y-9500D01*
X137325Y-6500D02*X138075Y-7250D01*
X142875Y-9500D02*X145125D01*
X142125Y-8750D02*X142875Y-9500D01*
X142125Y-7250D02*Y-8750D01*
Y-7250D02*X142875Y-6500D01*
X144375D01*
X145125Y-7250D01*
X142125Y-8000D02*X145125D01*
Y-7250D02*Y-8000D01*
X149625Y-7250D02*Y-8750D01*
Y-7250D02*X150375Y-6500D01*
X151875D01*
X152625Y-7250D01*
Y-8750D01*
X151875Y-9500D02*X152625Y-8750D01*
X150375Y-9500D02*X151875D01*
X149625Y-8750D02*X150375Y-9500D01*
X155175Y-4250D02*Y-9500D01*
Y-4250D02*X155925Y-3500D01*
X156675D01*
X154425Y-6500D02*X155925D01*
X161625Y-3500D02*Y-8750D01*
X162375Y-9500D01*
X160875Y-5750D02*X162375D01*
X163875Y-3500D02*Y-9500D01*
Y-7250D02*X164625Y-6500D01*
X166125D01*
X166875Y-7250D01*
Y-9500D01*
G54D86*X168675Y-5000D02*Y-5150D01*
G54D85*Y-7250D02*Y-9500D01*
X170925D02*X173175D01*
X173925Y-8750D01*
X173175Y-8000D02*X173925Y-8750D01*
X170925Y-8000D02*X173175D01*
X170175Y-7250D02*X170925Y-8000D01*
X170175Y-7250D02*X170925Y-6500D01*
X173175D01*
X173925Y-7250D01*
X170175Y-8750D02*X170925Y-9500D01*
X179175Y-7250D02*Y-11750D01*
X178425Y-6500D02*X179175Y-7250D01*
X179925Y-6500D01*
X181425D01*
X182175Y-7250D01*
Y-8750D01*
X181425Y-9500D02*X182175Y-8750D01*
X179925Y-9500D02*X181425D01*
X179175Y-8750D02*X179925Y-9500D01*
X186225Y-6500D02*X186975Y-7250D01*
X184725Y-6500D02*X186225D01*
X183975Y-7250D02*X184725Y-6500D01*
X183975Y-7250D02*Y-8750D01*
X184725Y-9500D01*
X186975Y-6500D02*Y-8750D01*
X187725Y-9500D01*
X184725D02*X186225D01*
X186975Y-8750D01*
X190275Y-3500D02*Y-8750D01*
X191025Y-9500D01*
X189525Y-5750D02*X191025D01*
X192525Y-3500D02*Y-9500D01*
Y-7250D02*X193275Y-6500D01*
X194775D01*
X195525Y-7250D01*
Y-9500D01*
X200750Y132500D02*Y126500D01*
X202700Y132500D02*X203750Y131450D01*
Y127550D01*
X202700Y126500D02*X203750Y127550D01*
X200000Y126500D02*X202700D01*
X200000Y132500D02*X202700D01*
X207800Y129500D02*X208550Y128750D01*
X206300Y129500D02*X207800D01*
X205550Y128750D02*X206300Y129500D01*
X205550Y128750D02*Y127250D01*
X206300Y126500D01*
X208550Y129500D02*Y127250D01*
X209300Y126500D01*
X206300D02*X207800D01*
X208550Y127250D01*
X211850Y132500D02*Y127250D01*
X212600Y126500D01*
X211100Y130250D02*X212600D01*
X214850Y126500D02*X217100D01*
X214100Y127250D02*X214850Y126500D01*
X214100Y128750D02*Y127250D01*
Y128750D02*X214850Y129500D01*
X216350D01*
X217100Y128750D01*
X214100Y128000D02*X217100D01*
Y128750D02*Y128000D01*
X218900Y130250D02*X219650D01*
X218900Y128750D02*X219650D01*
X224150Y132500D02*X227150D01*
X225650D02*Y126500D01*
X228950Y129500D02*Y127250D01*
X229700Y126500D01*
X231200D01*
X231950Y127250D01*
Y129500D02*Y127250D01*
X234500Y126500D02*X236750D01*
X233750Y127250D02*X234500Y126500D01*
X233750Y128750D02*Y127250D01*
Y128750D02*X234500Y129500D01*
X236000D01*
X236750Y128750D01*
X233750Y128000D02*X236750D01*
Y128750D02*Y128000D01*
X241250Y131300D02*X242450Y132500D01*
Y126500D01*
X241250D02*X243500D01*
X245300Y127250D02*X246050Y126500D01*
X245300Y131750D02*Y127250D01*
Y131750D02*X246050Y132500D01*
X247550D01*
X248300Y131750D01*
Y127250D01*
X247550Y126500D02*X248300Y127250D01*
X246050Y126500D02*X247550D01*
X245300Y128000D02*X248300Y131000D01*
X252800Y132500D02*Y126500D01*
Y132500D02*X255050Y129500D01*
X257300Y132500D01*
Y126500D01*
X261350Y129500D02*X262100Y128750D01*
X259850Y129500D02*X261350D01*
X259100Y128750D02*X259850Y129500D01*
X259100Y128750D02*Y127250D01*
X259850Y126500D01*
X262100Y129500D02*Y127250D01*
X262850Y126500D01*
X259850D02*X261350D01*
X262100Y127250D01*
X264650Y129500D02*Y127250D01*
X265400Y126500D01*
X267650Y129500D02*Y125000D01*
X266900Y124250D02*X267650Y125000D01*
X265400Y124250D02*X266900D01*
X264650Y125000D02*X265400Y124250D01*
Y126500D02*X266900D01*
X267650Y127250D01*
X272150Y131750D02*X272900Y132500D01*
X275150D01*
X275900Y131750D01*
Y130250D01*
X272150Y126500D02*X275900Y130250D01*
X272150Y126500D02*X275900D01*
X277700Y127250D02*X278450Y126500D01*
X277700Y131750D02*Y127250D01*
Y131750D02*X278450Y132500D01*
X279950D01*
X280700Y131750D01*
Y127250D01*
X279950Y126500D02*X280700Y127250D01*
X278450Y126500D02*X279950D01*
X277700Y128000D02*X280700Y131000D01*
X282500Y131300D02*X283700Y132500D01*
Y126500D01*
X282500D02*X284750D01*
X288800Y132500D02*X289550Y131750D01*
X287300Y132500D02*X288800D01*
X286550Y131750D02*X287300Y132500D01*
X286550Y131750D02*Y127250D01*
X287300Y126500D01*
X288800Y129800D02*X289550Y129050D01*
X286550Y129800D02*X288800D01*
X287300Y126500D02*X288800D01*
X289550Y127250D01*
Y129050D02*Y127250D01*
X294050D02*X294800Y126500D01*
X294050Y131750D02*Y127250D01*
Y131750D02*X294800Y132500D01*
X296300D01*
X297050Y131750D01*
Y127250D01*
X296300Y126500D02*X297050Y127250D01*
X294800Y126500D02*X296300D01*
X294050Y128000D02*X297050Y131000D01*
X299600Y126500D02*X301850Y129500D01*
Y131750D02*Y129500D01*
X301100Y132500D02*X301850Y131750D01*
X299600Y132500D02*X301100D01*
X298850Y131750D02*X299600Y132500D01*
X298850Y131750D02*Y130250D01*
X299600Y129500D01*
X301850D01*
X303650Y130250D02*X304400D01*
X303650Y128750D02*X304400D01*
X306200Y131750D02*X306950Y132500D01*
X309200D01*
X309950Y131750D01*
Y130250D01*
X306200Y126500D02*X309950Y130250D01*
X306200Y126500D02*X309950D01*
X311750Y131300D02*X312950Y132500D01*
Y126500D01*
X311750D02*X314000D01*
X315800Y130250D02*X316550D01*
X315800Y128750D02*X316550D01*
X318350Y131750D02*X319100Y132500D01*
X320600D01*
X321350Y131750D01*
X320600Y126500D02*X321350Y127250D01*
X319100Y126500D02*X320600D01*
X318350Y127250D02*X319100Y126500D01*
Y129800D02*X320600D01*
X321350Y131750D02*Y130550D01*
Y129050D02*Y127250D01*
Y129050D02*X320600Y129800D01*
X321350Y130550D02*X320600Y129800D01*
X325400Y132500D02*X326150Y131750D01*
X323900Y132500D02*X325400D01*
X323150Y131750D02*X323900Y132500D01*
X323150Y131750D02*Y127250D01*
X323900Y126500D01*
X325400Y129800D02*X326150Y129050D01*
X323150Y129800D02*X325400D01*
X323900Y126500D02*X325400D01*
X326150Y127250D01*
Y129050D02*Y127250D01*
X330650Y131000D02*Y126500D01*
Y131000D02*X331700Y132500D01*
X333350D01*
X334400Y131000D01*
Y126500D01*
X330650Y129500D02*X334400D01*
X336200Y132500D02*Y126500D01*
Y132500D02*X338450Y129500D01*
X340700Y132500D01*
Y126500D01*
X348200Y132500D02*X348950Y131750D01*
X345950Y132500D02*X348200D01*
X345200Y131750D02*X345950Y132500D01*
X345200Y131750D02*Y127250D01*
X345950Y126500D01*
X348200D01*
X348950Y127250D01*
Y128750D02*Y127250D01*
X348200Y129500D02*X348950Y128750D01*
X346700Y129500D02*X348200D01*
X350750Y132500D02*Y126500D01*
Y132500D02*X353000Y129500D01*
X355250Y132500D01*
Y126500D01*
X357050Y132500D02*X360050D01*
X358550D02*Y126500D01*
X364550Y132500D02*Y127250D01*
X365300Y126500D01*
X366800D01*
X367550Y127250D01*
Y132500D02*Y127250D01*
X369350Y132500D02*X372350D01*
X370850D02*Y126500D01*
X375200D02*X377150D01*
X374150Y127550D02*X375200Y126500D01*
X374150Y131450D02*Y127550D01*
Y131450D02*X375200Y132500D01*
X377150D01*
X200000Y146000D02*Y141500D01*
Y146000D02*X201050Y147500D01*
X202700D01*
X203750Y146000D01*
Y141500D01*
X200000Y144500D02*X203750D01*
X205550D02*Y142250D01*
X206300Y141500D01*
X207800D01*
X208550Y142250D01*
Y144500D02*Y142250D01*
X211100Y147500D02*Y142250D01*
X211850Y141500D01*
X210350Y145250D02*X211850D01*
X213350Y147500D02*Y141500D01*
Y143750D02*X214100Y144500D01*
X215600D01*
X216350Y143750D01*
Y141500D01*
X218150Y143750D02*Y142250D01*
Y143750D02*X218900Y144500D01*
X220400D01*
X221150Y143750D01*
Y142250D01*
X220400Y141500D02*X221150Y142250D01*
X218900Y141500D02*X220400D01*
X218150Y142250D02*X218900Y141500D01*
X223700Y143750D02*Y141500D01*
Y143750D02*X224450Y144500D01*
X225950D01*
X222950D02*X223700Y143750D01*
X227750Y145250D02*X228500D01*
X227750Y143750D02*X228500D01*
X233000Y147500D02*Y141500D01*
Y147500D02*X236750Y141500D01*
Y147500D02*Y141500D01*
X240800Y144500D02*X241550Y143750D01*
X239300Y144500D02*X240800D01*
X238550Y143750D02*X239300Y144500D01*
X238550Y143750D02*Y142250D01*
X239300Y141500D01*
X241550Y144500D02*Y142250D01*
X242300Y141500D01*
X239300D02*X240800D01*
X241550Y142250D01*
X244850Y147500D02*Y142250D01*
X245600Y141500D01*
X244100Y145250D02*X245600D01*
X247100Y147500D02*Y141500D01*
Y143750D02*X247850Y144500D01*
X249350D01*
X250100Y143750D01*
Y141500D01*
X254150Y144500D02*X254900Y143750D01*
X252650Y144500D02*X254150D01*
X251900Y143750D02*X252650Y144500D01*
X251900Y143750D02*Y142250D01*
X252650Y141500D01*
X254900Y144500D02*Y142250D01*
X255650Y141500D01*
X252650D02*X254150D01*
X254900Y142250D01*
X258200Y143750D02*Y141500D01*
Y143750D02*X258950Y144500D01*
X259700D01*
X260450Y143750D01*
Y141500D01*
X257450Y144500D02*X258200Y143750D01*
X265700Y147500D02*Y141500D01*
X267650Y147500D02*X268700Y146450D01*
Y142550D01*
X267650Y141500D02*X268700Y142550D01*
X264950Y141500D02*X267650D01*
X264950Y147500D02*X267650D01*
X270500Y141500D02*X271250D01*
X275750Y147500D02*Y141500D01*
X279500Y147500D02*Y141500D01*
X275750Y144500D02*X279500D01*
X281300Y143750D02*Y142250D01*
Y143750D02*X282050Y144500D01*
X283550D01*
X284300Y143750D01*
Y142250D01*
X283550Y141500D02*X284300Y142250D01*
X282050Y141500D02*X283550D01*
X281300Y142250D02*X282050Y141500D01*
X286100Y147500D02*Y142250D01*
X286850Y141500D01*
X289100Y143750D02*Y141500D01*
Y143750D02*X289850Y144500D01*
X290600D01*
X291350Y143750D01*
Y141500D01*
Y143750D02*X292100Y144500D01*
X292850D01*
X293600Y143750D01*
Y141500D01*
X288350Y144500D02*X289100Y143750D01*
X296150Y141500D02*X298400D01*
X295400Y142250D02*X296150Y141500D01*
X295400Y143750D02*Y142250D01*
Y143750D02*X296150Y144500D01*
X297650D01*
X298400Y143750D01*
X295400Y143000D02*X298400D01*
Y143750D02*Y143000D01*
X300950Y141500D02*X303200D01*
X303950Y142250D01*
X303200Y143000D02*X303950Y142250D01*
X300950Y143000D02*X303200D01*
X300200Y143750D02*X300950Y143000D01*
X300200Y143750D02*X300950Y144500D01*
X303200D01*
X303950Y143750D01*
X300200Y142250D02*X300950Y141500D01*
X200000Y162500D02*X203000D01*
X201500D02*Y156500D01*
G54D86*X204800Y161000D02*Y160850D01*
G54D85*Y158750D02*Y156500D01*
X207050Y162500D02*Y157250D01*
X207800Y156500D01*
X206300Y160250D02*X207800D01*
X209300Y162500D02*Y157250D01*
X210050Y156500D01*
X212300D02*X214550D01*
X211550Y157250D02*X212300Y156500D01*
X211550Y158750D02*Y157250D01*
Y158750D02*X212300Y159500D01*
X213800D01*
X214550Y158750D01*
X211550Y158000D02*X214550D01*
Y158750D02*Y158000D01*
X216350Y160250D02*X217100D01*
X216350Y158750D02*X217100D01*
X221600Y157250D02*X222350Y156500D01*
X221600Y161750D02*X222350Y162500D01*
X221600Y161750D02*Y157250D01*
X224150Y159500D02*Y157250D01*
X224900Y156500D01*
X226400D01*
X227150Y157250D01*
Y159500D02*Y157250D01*
X229700Y158750D02*Y156500D01*
Y158750D02*X230450Y159500D01*
X231200D01*
X231950Y158750D01*
Y156500D01*
X228950Y159500D02*X229700Y158750D01*
X233750Y162500D02*Y156500D01*
Y158750D02*X236000Y156500D01*
X233750Y158750D02*X235250Y160250D01*
X238550Y158750D02*Y156500D01*
Y158750D02*X239300Y159500D01*
X240050D01*
X240800Y158750D01*
Y156500D01*
X237800Y159500D02*X238550Y158750D01*
X242600D02*Y157250D01*
Y158750D02*X243350Y159500D01*
X244850D01*
X245600Y158750D01*
Y157250D01*
X244850Y156500D02*X245600Y157250D01*
X243350Y156500D02*X244850D01*
X242600Y157250D02*X243350Y156500D01*
X247400Y159500D02*Y157250D01*
X248150Y156500D01*
X248900D01*
X249650Y157250D01*
Y159500D02*Y157250D01*
X250400Y156500D01*
X251150D01*
X251900Y157250D01*
Y159500D02*Y157250D01*
X254450Y158750D02*Y156500D01*
Y158750D02*X255200Y159500D01*
X255950D01*
X256700Y158750D01*
Y156500D01*
X253700Y159500D02*X254450Y158750D01*
X258500Y162500D02*X259250Y161750D01*
Y157250D01*
X258500Y156500D02*X259250Y157250D01*
X263750Y159500D02*X266750D01*
X271250Y162500D02*Y156500D01*
Y162500D02*X274250D01*
X271250Y159800D02*X273500D01*
X278300Y159500D02*X279050Y158750D01*
X276800Y159500D02*X278300D01*
X276050Y158750D02*X276800Y159500D01*
X276050Y158750D02*Y157250D01*
X276800Y156500D01*
X279050Y159500D02*Y157250D01*
X279800Y156500D01*
X276800D02*X278300D01*
X279050Y157250D01*
X281600Y162500D02*Y156500D01*
Y157250D02*X282350Y156500D01*
X283850D01*
X284600Y157250D01*
Y158750D02*Y157250D01*
X283850Y159500D02*X284600Y158750D01*
X282350Y159500D02*X283850D01*
X281600Y158750D02*X282350Y159500D01*
X287150Y158750D02*Y156500D01*
Y158750D02*X287900Y159500D01*
X289400D01*
X286400D02*X287150Y158750D01*
G54D86*X291200Y161000D02*Y160850D01*
G54D85*Y158750D02*Y156500D01*
X293450Y159500D02*X295700D01*
X292700Y158750D02*X293450Y159500D01*
X292700Y158750D02*Y157250D01*
X293450Y156500D01*
X295700D01*
X299750Y159500D02*X300500Y158750D01*
X298250Y159500D02*X299750D01*
X297500Y158750D02*X298250Y159500D01*
X297500Y158750D02*Y157250D01*
X298250Y156500D01*
X300500Y159500D02*Y157250D01*
X301250Y156500D01*
X298250D02*X299750D01*
X300500Y157250D01*
X303800Y162500D02*Y157250D01*
X304550Y156500D01*
X303050Y160250D02*X304550D01*
G54D86*X306050Y161000D02*Y160850D01*
G54D85*Y158750D02*Y156500D01*
X307550Y158750D02*Y157250D01*
Y158750D02*X308300Y159500D01*
X309800D01*
X310550Y158750D01*
Y157250D01*
X309800Y156500D02*X310550Y157250D01*
X308300Y156500D02*X309800D01*
X307550Y157250D02*X308300Y156500D01*
X313100Y158750D02*Y156500D01*
Y158750D02*X313850Y159500D01*
X314600D01*
X315350Y158750D01*
Y156500D01*
X312350Y159500D02*X313100Y158750D01*
X320600Y162500D02*Y156500D01*
X322550Y162500D02*X323600Y161450D01*
Y157550D01*
X322550Y156500D02*X323600Y157550D01*
X319850Y156500D02*X322550D01*
X319850Y162500D02*X322550D01*
X326150Y158750D02*Y156500D01*
Y158750D02*X326900Y159500D01*
X328400D01*
X325400D02*X326150Y158750D01*
X332450Y159500D02*X333200Y158750D01*
X330950Y159500D02*X332450D01*
X330200Y158750D02*X330950Y159500D01*
X330200Y158750D02*Y157250D01*
X330950Y156500D01*
X333200Y159500D02*Y157250D01*
X333950Y156500D01*
X330950D02*X332450D01*
X333200Y157250D01*
X335750Y159500D02*Y157250D01*
X336500Y156500D01*
X337250D01*
X338000Y157250D01*
Y159500D02*Y157250D01*
X338750Y156500D01*
X339500D01*
X340250Y157250D01*
Y159500D02*Y157250D01*
G54D86*X342050Y161000D02*Y160850D01*
G54D85*Y158750D02*Y156500D01*
X344300Y158750D02*Y156500D01*
Y158750D02*X345050Y159500D01*
X345800D01*
X346550Y158750D01*
Y156500D01*
X343550Y159500D02*X344300Y158750D01*
X350600Y159500D02*X351350Y158750D01*
X349100Y159500D02*X350600D01*
X348350Y158750D02*X349100Y159500D01*
X348350Y158750D02*Y157250D01*
X349100Y156500D01*
X350600D01*
X351350Y157250D01*
X348350Y155000D02*X349100Y154250D01*
X350600D01*
X351350Y155000D01*
Y159500D02*Y155000D01*
M02*
