G04 start of page 6 for group -4063 idx -4063 *
G04 Title: (unknown), componentmask *
G04 Creator: pcb 20140316 *
G04 CreationDate: Tue 10 May 2016 09:21:36 AM GMT UTC *
G04 For: ndholmes *
G04 Format: Gerber/RS-274X *
G04 PCB-Dimensions (mil): 2220.00 1040.00 *
G04 PCB-Coordinate-Origin: lower left *
%MOIN*%
%FSLAX25Y25*%
%LNTOPMASK*%
%ADD67R,0.0190X0.0190*%
%ADD66R,0.0420X0.0420*%
%ADD65R,0.0572X0.0572*%
%ADD64R,0.1005X0.1005*%
%ADD63R,0.0438X0.0438*%
%ADD62R,0.0690X0.0690*%
%ADD61C,0.0001*%
%ADD60C,0.0760*%
%ADD59C,0.0860*%
%ADD58C,0.0660*%
%ADD57C,0.1500*%
%ADD56C,0.2997*%
G54D56*X206000Y88000D03*
G54D57*X189925Y19500D03*
Y59500D03*
G54D58*X56500Y76000D03*
X66500D03*
X76500D03*
X66500Y86000D03*
X76500D03*
X86500D03*
X96500D03*
X106500D03*
X116500D03*
X86500Y76000D03*
X96500D03*
X106500D03*
X116500D03*
G54D59*X145500Y84500D03*
G54D60*X154925Y27000D03*
Y37000D03*
Y47000D03*
X164925Y32000D03*
Y42000D03*
Y52000D03*
G54D61*G36*
X161200Y88800D02*Y80200D01*
X169800D01*
Y88800D01*
X161200D01*
G37*
G54D60*X67000Y53000D03*
X57000Y48000D03*
X67000Y43000D03*
X57000Y38000D03*
X67000Y33000D03*
X57000Y28000D03*
G54D57*X32000Y20500D03*
G54D61*G36*
X8200Y10800D02*Y4200D01*
X14800D01*
Y10800D01*
X8200D01*
G37*
G54D58*X21500Y8500D03*
X31500Y7500D03*
G54D61*G36*
X23200Y79300D02*Y72700D01*
X29800D01*
Y79300D01*
X23200D01*
G37*
G54D58*X36500Y76000D03*
G54D57*X32000Y60500D03*
G54D58*X46500Y76000D03*
Y86000D03*
X56500D03*
X26500D03*
X36500D03*
G54D61*G36*
X36700Y100300D02*Y93700D01*
X43300D01*
Y100300D01*
X36700D01*
G37*
G54D58*X30000Y96000D03*
X20000Y97000D03*
G54D61*G36*
X4200Y80300D02*Y73700D01*
X10800D01*
Y80300D01*
X4200D01*
G37*
G54D58*X8500Y87000D03*
X7500Y97000D03*
G54D62*X118508Y51500D02*X124807D01*
X138193D02*X144492D01*
G54D63*X135395Y21094D02*X139489D01*
X127679Y27000D02*X139489D01*
G54D64*X124055D02*X125945D01*
G54D61*G36*
X128826Y23695D02*X132090Y26959D01*
X133934Y25115D01*
X130670Y21851D01*
X128826Y23695D01*
G37*
G36*
X130670Y32149D02*X133934Y28885D01*
X132090Y27041D01*
X128826Y30305D01*
X130670Y32149D01*
G37*
G54D63*X135395Y32906D02*X139489D01*
G54D65*X127043Y9893D02*Y9107D01*
X119957Y9893D02*Y9107D01*
X143543Y9893D02*Y9107D01*
X136457Y9893D02*Y9107D01*
G54D66*X181900Y71600D02*X183100D01*
G54D65*X124405Y98181D02*Y95819D01*
X112595Y98181D02*Y95819D01*
G54D66*X181900Y84500D02*X183100D01*
G54D65*X93457Y97893D02*Y97107D01*
X100543Y97893D02*Y97107D01*
G54D67*X108074Y54417D02*Y49811D01*
X105515Y54417D02*Y49811D01*
X102956Y54417D02*Y49811D01*
X100397Y54417D02*Y49811D01*
X97838Y54417D02*Y49811D01*
X95279Y54417D02*Y49811D01*
X92721Y54417D02*Y49811D01*
X90162Y54417D02*Y49811D01*
X87603Y54417D02*Y49811D01*
X85044Y54417D02*Y49811D01*
X82485Y54417D02*Y49811D01*
X79926Y54417D02*Y49811D01*
Y31189D02*Y26583D01*
X82485Y31189D02*Y26583D01*
X85044Y31189D02*Y26583D01*
X87603Y31189D02*Y26583D01*
X90162Y31189D02*Y26583D01*
X92721Y31189D02*Y26583D01*
X95279Y31189D02*Y26583D01*
X97838Y31189D02*Y26583D01*
X100397Y31189D02*Y26583D01*
X102956Y31189D02*Y26583D01*
X105515Y31189D02*Y26583D01*
X108074Y31189D02*Y26583D01*
G54D65*X106957Y17893D02*Y17107D01*
X114043Y17893D02*Y17107D01*
M02*
