G04 start of page 2 for group 0 idx 0 *
G04 Title: (unknown), top *
G04 Creator: pcb 20140316 *
G04 CreationDate: Mon 17 Feb 2020 04:19:00 AM GMT UTC *
G04 For: railfan *
G04 Format: Gerber/RS-274X *
G04 PCB-Dimensions (mil): 2500.00 1600.00 *
G04 PCB-Coordinate-Origin: lower left *
%MOIN*%
%FSLAX25Y25*%
%LNTOP*%
%ADD35C,0.1280*%
%ADD34C,0.0300*%
%ADD33C,0.0433*%
%ADD32C,0.0380*%
%ADD31C,0.0120*%
%ADD30C,0.0260*%
%ADD29R,0.0500X0.0500*%
%ADD28R,0.0472X0.0472*%
%ADD27R,0.0236X0.0236*%
%ADD26R,0.0167X0.0167*%
%ADD25R,0.0157X0.0157*%
%ADD24R,0.0630X0.0630*%
%ADD23R,0.0177X0.0177*%
%ADD22R,0.0197X0.0197*%
%ADD21R,0.0340X0.0340*%
%ADD20R,0.0512X0.0512*%
%ADD19C,0.1440*%
%ADD18C,0.0700*%
%ADD17C,0.0633*%
%ADD16C,0.0200*%
%ADD15C,0.0250*%
%ADD14C,0.0150*%
%ADD13C,0.0600*%
%ADD12C,0.0100*%
%ADD11C,0.0001*%
G54D11*G36*
X1500Y158500D02*X39000D01*
Y141000D01*
X28267D01*
X28249Y141315D01*
X28096Y141953D01*
X27845Y142558D01*
X27502Y143117D01*
X27076Y143616D01*
X26578Y144042D01*
X26019Y144384D01*
X25413Y144635D01*
X24776Y144788D01*
X24122Y144840D01*
X23468Y144788D01*
X22831Y144635D01*
X22225Y144384D01*
X21666Y144042D01*
X21168Y143616D01*
X20742Y143117D01*
X20399Y142558D01*
X20148Y141953D01*
X19995Y141315D01*
X19970Y141000D01*
X1500D01*
Y158500D01*
G37*
G36*
Y105500D02*Y123000D01*
X19970D01*
X19995Y122685D01*
X20148Y122047D01*
X20399Y121442D01*
X20742Y120883D01*
X21168Y120384D01*
X21666Y119958D01*
X22225Y119616D01*
X22831Y119365D01*
X23468Y119212D01*
X24122Y119160D01*
X24776Y119212D01*
X25413Y119365D01*
X26019Y119616D01*
X26578Y119958D01*
X27076Y120384D01*
X27502Y120883D01*
X27845Y121442D01*
X28096Y122047D01*
X28249Y122685D01*
X28267Y123000D01*
X39000D01*
Y105500D01*
X1500D01*
G37*
G36*
X24116Y158500D02*X30000D01*
Y105500D01*
X24116D01*
Y119161D01*
X24122Y119160D01*
X24776Y119212D01*
X25413Y119365D01*
X26019Y119616D01*
X26578Y119958D01*
X27076Y120384D01*
X27502Y120883D01*
X27845Y121442D01*
X28096Y122047D01*
X28249Y122685D01*
X28287Y123339D01*
X28249Y123992D01*
X28096Y124630D01*
X27845Y125235D01*
X27502Y125794D01*
X27076Y126293D01*
X26578Y126719D01*
X26019Y127061D01*
X25413Y127312D01*
X24776Y127465D01*
X24122Y127517D01*
X24116Y127516D01*
Y136484D01*
X24122Y136483D01*
X24776Y136535D01*
X25413Y136688D01*
X26019Y136939D01*
X26578Y137281D01*
X27076Y137707D01*
X27502Y138206D01*
X27845Y138765D01*
X28096Y139370D01*
X28249Y140008D01*
X28287Y140661D01*
X28249Y141315D01*
X28096Y141953D01*
X27845Y142558D01*
X27502Y143117D01*
X27076Y143616D01*
X26578Y144042D01*
X26019Y144384D01*
X25413Y144635D01*
X24776Y144788D01*
X24122Y144840D01*
X24116Y144839D01*
Y158500D01*
G37*
G36*
X1500D02*X24116D01*
Y144839D01*
X23468Y144788D01*
X22831Y144635D01*
X22225Y144384D01*
X21666Y144042D01*
X21168Y143616D01*
X20742Y143117D01*
X20399Y142558D01*
X20148Y141953D01*
X19995Y141315D01*
X19944Y140661D01*
X19995Y140008D01*
X20148Y139370D01*
X20399Y138765D01*
X20742Y138206D01*
X21168Y137707D01*
X21666Y137281D01*
X22225Y136939D01*
X22831Y136688D01*
X23468Y136535D01*
X24116Y136484D01*
Y127516D01*
X23468Y127465D01*
X22831Y127312D01*
X22225Y127061D01*
X21666Y126719D01*
X21168Y126293D01*
X20742Y125794D01*
X20399Y125235D01*
X20148Y124630D01*
X19995Y123992D01*
X19944Y123339D01*
X19995Y122685D01*
X20148Y122047D01*
X20399Y121442D01*
X20742Y120883D01*
X21168Y120384D01*
X21666Y119958D01*
X22225Y119616D01*
X22831Y119365D01*
X23468Y119212D01*
X24116Y119161D01*
Y105500D01*
X1500D01*
Y158500D01*
G37*
G36*
X40000Y127000D02*X54672D01*
X54900Y126772D01*
Y125671D01*
X54735Y125631D01*
X54517Y125541D01*
X54316Y125417D01*
X54136Y125264D01*
X53983Y125084D01*
X53859Y124883D01*
X53769Y124665D01*
X53714Y124435D01*
X53700Y124200D01*
X53714Y119965D01*
X53769Y119735D01*
X53859Y119517D01*
X53983Y119316D01*
X54136Y119136D01*
X54316Y118983D01*
X54517Y118859D01*
X54735Y118769D01*
X54965Y118714D01*
X55200Y118700D01*
X56500Y118705D01*
Y101000D01*
X40000D01*
Y127000D01*
G37*
G36*
X82000Y88000D02*X106000D01*
Y64000D01*
X82000D01*
Y88000D01*
G37*
G36*
X57500Y117000D02*X68000D01*
Y80000D01*
X57500D01*
Y117000D01*
G37*
G36*
X61000Y79000D02*X70862D01*
X70790Y78827D01*
X70735Y78597D01*
X70721Y78362D01*
X70735Y76553D01*
X70790Y76323D01*
X70880Y76105D01*
X70945Y76000D01*
X70880Y75895D01*
X70790Y75677D01*
X70735Y75447D01*
X70721Y75212D01*
X70735Y73403D01*
X70790Y73173D01*
X70880Y72955D01*
X70945Y72850D01*
X70880Y72745D01*
X70790Y72527D01*
X70735Y72297D01*
X70721Y72062D01*
X70735Y70253D01*
X70790Y70023D01*
X70800Y70000D01*
X64121D01*
X61000Y73121D01*
Y79000D01*
G37*
G36*
X119675Y77500D02*X130000D01*
Y68000D01*
X119000D01*
Y76192D01*
X119166Y76334D01*
X119345Y76543D01*
X119489Y76778D01*
X119595Y77033D01*
X119659Y77300D01*
X119675Y77500D01*
G37*
G36*
X248500Y45000D02*Y14000D01*
X233121D01*
X236019Y16898D01*
X236064Y16936D01*
X236217Y17115D01*
X236217Y17116D01*
X236341Y17317D01*
X236431Y17535D01*
X236486Y17765D01*
X236505Y18000D01*
X236500Y18059D01*
Y30441D01*
X236505Y30500D01*
X236486Y30735D01*
X236486Y30735D01*
X236431Y30965D01*
X236341Y31183D01*
X236217Y31384D01*
X236064Y31564D01*
X236019Y31602D01*
X235134Y32488D01*
X235095Y32532D01*
X234916Y32686D01*
X234715Y32809D01*
X234496Y32899D01*
X234267Y32955D01*
X234032Y32973D01*
X234000Y32971D01*
X233945Y33105D01*
X233863Y33239D01*
X233760Y33359D01*
X233669Y33437D01*
X233760Y33515D01*
X233863Y33635D01*
X233945Y33769D01*
X234005Y33915D01*
X234042Y34068D01*
X234051Y34225D01*
X234042Y36743D01*
X234005Y36896D01*
X233945Y37042D01*
X233863Y37176D01*
X233760Y37296D01*
X233641Y37398D01*
X233506Y37480D01*
X233361Y37541D01*
X233208Y37577D01*
X233051Y37587D01*
X233000Y37586D01*
Y45000D01*
X248500D01*
G37*
G36*
X165000Y62000D02*X143500D01*
Y69000D01*
X165000D01*
Y62000D01*
G37*
G36*
X149500Y79500D02*X165000D01*
Y62000D01*
X149500D01*
Y79500D01*
G37*
G36*
X99113Y20500D02*X101379D01*
X108398Y13481D01*
X108436Y13436D01*
X108615Y13283D01*
X108616Y13283D01*
X108817Y13159D01*
X109035Y13069D01*
X109265Y13014D01*
X109500Y12995D01*
X109559Y13000D01*
X113500D01*
Y1500D01*
X99113D01*
Y3353D01*
X99156Y3360D01*
X99268Y3397D01*
X99373Y3452D01*
X99468Y3522D01*
X99551Y3606D01*
X99619Y3702D01*
X99670Y3808D01*
X99818Y4216D01*
X99922Y4637D01*
X99984Y5067D01*
X100005Y5500D01*
X99984Y5933D01*
X99922Y6363D01*
X99818Y6784D01*
X99675Y7194D01*
X99622Y7300D01*
X99553Y7396D01*
X99470Y7481D01*
X99375Y7551D01*
X99269Y7606D01*
X99157Y7643D01*
X99113Y7651D01*
Y13353D01*
X99156Y13360D01*
X99268Y13397D01*
X99373Y13452D01*
X99468Y13522D01*
X99551Y13606D01*
X99619Y13702D01*
X99670Y13808D01*
X99818Y14216D01*
X99922Y14637D01*
X99984Y15067D01*
X100005Y15500D01*
X99984Y15933D01*
X99922Y16363D01*
X99818Y16784D01*
X99675Y17194D01*
X99622Y17300D01*
X99553Y17396D01*
X99470Y17481D01*
X99375Y17551D01*
X99269Y17606D01*
X99157Y17643D01*
X99113Y17651D01*
Y20500D01*
G37*
G36*
X95498D02*X99113D01*
Y17651D01*
X99040Y17663D01*
X98921Y17664D01*
X98804Y17646D01*
X98691Y17610D01*
X98585Y17557D01*
X98488Y17488D01*
X98404Y17405D01*
X98333Y17309D01*
X98279Y17204D01*
X98241Y17092D01*
X98222Y16975D01*
X98221Y16856D01*
X98239Y16739D01*
X98277Y16626D01*
X98376Y16355D01*
X98444Y16075D01*
X98486Y15789D01*
X98500Y15500D01*
X98486Y15211D01*
X98444Y14925D01*
X98376Y14645D01*
X98280Y14372D01*
X98242Y14261D01*
X98225Y14144D01*
X98225Y14026D01*
X98245Y13909D01*
X98282Y13797D01*
X98336Y13693D01*
X98406Y13598D01*
X98491Y13515D01*
X98587Y13446D01*
X98692Y13393D01*
X98805Y13357D01*
X98921Y13340D01*
X99039Y13341D01*
X99113Y13353D01*
Y7651D01*
X99040Y7663D01*
X98921Y7664D01*
X98804Y7646D01*
X98691Y7610D01*
X98585Y7557D01*
X98488Y7488D01*
X98404Y7405D01*
X98333Y7309D01*
X98279Y7204D01*
X98241Y7092D01*
X98222Y6975D01*
X98221Y6856D01*
X98239Y6739D01*
X98277Y6626D01*
X98376Y6355D01*
X98444Y6075D01*
X98486Y5789D01*
X98500Y5500D01*
X98486Y5211D01*
X98444Y4925D01*
X98376Y4645D01*
X98280Y4372D01*
X98242Y4261D01*
X98225Y4144D01*
X98225Y4026D01*
X98245Y3909D01*
X98282Y3797D01*
X98336Y3693D01*
X98406Y3598D01*
X98491Y3515D01*
X98587Y3446D01*
X98692Y3393D01*
X98805Y3357D01*
X98921Y3340D01*
X99039Y3341D01*
X99113Y3353D01*
Y1500D01*
X97450D01*
X97481Y1530D01*
X97551Y1625D01*
X97606Y1731D01*
X97643Y1843D01*
X97663Y1960D01*
X97664Y2079D01*
X97646Y2196D01*
X97610Y2309D01*
X97557Y2415D01*
X97488Y2512D01*
X97405Y2596D01*
X97309Y2667D01*
X97204Y2721D01*
X97092Y2759D01*
X96975Y2778D01*
X96856Y2779D01*
X96739Y2761D01*
X96626Y2723D01*
X96355Y2624D01*
X96075Y2556D01*
X95789Y2514D01*
X95500Y2500D01*
X95498Y2500D01*
Y8500D01*
X95500Y8500D01*
X95789Y8486D01*
X96075Y8444D01*
X96355Y8376D01*
X96628Y8280D01*
X96739Y8242D01*
X96856Y8225D01*
X96974Y8225D01*
X97091Y8245D01*
X97203Y8282D01*
X97307Y8336D01*
X97402Y8406D01*
X97485Y8491D01*
X97554Y8587D01*
X97607Y8692D01*
X97643Y8805D01*
X97660Y8921D01*
X97659Y9039D01*
X97640Y9156D01*
X97603Y9268D01*
X97548Y9373D01*
X97478Y9468D01*
X97394Y9551D01*
X97298Y9619D01*
X97192Y9670D01*
X96784Y9818D01*
X96363Y9922D01*
X95933Y9984D01*
X95500Y10005D01*
X95498Y10005D01*
Y10995D01*
X95500Y10995D01*
X95933Y11016D01*
X96363Y11078D01*
X96784Y11182D01*
X97194Y11325D01*
X97300Y11378D01*
X97396Y11447D01*
X97481Y11530D01*
X97551Y11625D01*
X97606Y11731D01*
X97643Y11843D01*
X97663Y11960D01*
X97664Y12079D01*
X97646Y12196D01*
X97610Y12309D01*
X97557Y12415D01*
X97488Y12512D01*
X97405Y12596D01*
X97309Y12667D01*
X97204Y12721D01*
X97092Y12759D01*
X96975Y12778D01*
X96856Y12779D01*
X96739Y12761D01*
X96626Y12723D01*
X96355Y12624D01*
X96075Y12556D01*
X95789Y12514D01*
X95500Y12500D01*
X95498Y12500D01*
Y18500D01*
X95500Y18500D01*
X95789Y18486D01*
X96075Y18444D01*
X96355Y18376D01*
X96628Y18280D01*
X96739Y18242D01*
X96856Y18225D01*
X96974Y18225D01*
X97091Y18245D01*
X97203Y18282D01*
X97307Y18336D01*
X97402Y18406D01*
X97485Y18491D01*
X97554Y18587D01*
X97607Y18692D01*
X97643Y18805D01*
X97660Y18921D01*
X97659Y19039D01*
X97640Y19156D01*
X97603Y19268D01*
X97548Y19373D01*
X97478Y19468D01*
X97394Y19551D01*
X97298Y19619D01*
X97192Y19670D01*
X96784Y19818D01*
X96363Y19922D01*
X95933Y19984D01*
X95500Y20005D01*
X95498Y20005D01*
Y20500D01*
G37*
G36*
X91887D02*X92441D01*
X92500Y20495D01*
X92559Y20500D01*
X95498D01*
Y20005D01*
X95067Y19984D01*
X94637Y19922D01*
X94216Y19818D01*
X93806Y19675D01*
X93700Y19622D01*
X93604Y19553D01*
X93519Y19470D01*
X93449Y19375D01*
X93394Y19269D01*
X93357Y19157D01*
X93337Y19040D01*
X93336Y18921D01*
X93354Y18804D01*
X93390Y18691D01*
X93443Y18585D01*
X93512Y18488D01*
X93595Y18404D01*
X93691Y18333D01*
X93796Y18279D01*
X93908Y18241D01*
X94025Y18222D01*
X94144Y18221D01*
X94261Y18239D01*
X94374Y18277D01*
X94645Y18376D01*
X94925Y18444D01*
X95211Y18486D01*
X95498Y18500D01*
Y12500D01*
X95211Y12514D01*
X94925Y12556D01*
X94645Y12624D01*
X94372Y12720D01*
X94261Y12758D01*
X94144Y12775D01*
X94026Y12775D01*
X93909Y12755D01*
X93797Y12718D01*
X93693Y12664D01*
X93598Y12594D01*
X93515Y12509D01*
X93446Y12413D01*
X93393Y12308D01*
X93357Y12195D01*
X93340Y12079D01*
X93341Y11961D01*
X93360Y11844D01*
X93397Y11732D01*
X93452Y11627D01*
X93522Y11532D01*
X93606Y11449D01*
X93702Y11381D01*
X93808Y11330D01*
X94216Y11182D01*
X94637Y11078D01*
X95067Y11016D01*
X95498Y10995D01*
Y10005D01*
X95067Y9984D01*
X94637Y9922D01*
X94216Y9818D01*
X93806Y9675D01*
X93700Y9622D01*
X93604Y9553D01*
X93519Y9470D01*
X93449Y9375D01*
X93394Y9269D01*
X93357Y9157D01*
X93337Y9040D01*
X93336Y8921D01*
X93354Y8804D01*
X93390Y8691D01*
X93443Y8585D01*
X93512Y8488D01*
X93595Y8404D01*
X93691Y8333D01*
X93796Y8279D01*
X93908Y8241D01*
X94025Y8222D01*
X94144Y8221D01*
X94261Y8239D01*
X94374Y8277D01*
X94645Y8376D01*
X94925Y8444D01*
X95211Y8486D01*
X95498Y8500D01*
Y2500D01*
X95211Y2514D01*
X94925Y2556D01*
X94645Y2624D01*
X94372Y2720D01*
X94261Y2758D01*
X94144Y2775D01*
X94026Y2775D01*
X93909Y2755D01*
X93797Y2718D01*
X93693Y2664D01*
X93598Y2594D01*
X93515Y2509D01*
X93446Y2413D01*
X93393Y2308D01*
X93357Y2195D01*
X93340Y2079D01*
X93341Y1961D01*
X93360Y1844D01*
X93397Y1732D01*
X93452Y1627D01*
X93522Y1532D01*
X93555Y1500D01*
X91887D01*
Y3349D01*
X91960Y3337D01*
X92079Y3336D01*
X92196Y3354D01*
X92309Y3390D01*
X92415Y3443D01*
X92512Y3512D01*
X92596Y3595D01*
X92667Y3691D01*
X92721Y3796D01*
X92759Y3908D01*
X92778Y4025D01*
X92779Y4144D01*
X92761Y4261D01*
X92723Y4374D01*
X92624Y4645D01*
X92556Y4925D01*
X92514Y5211D01*
X92500Y5500D01*
X92514Y5789D01*
X92556Y6075D01*
X92624Y6355D01*
X92720Y6628D01*
X92758Y6739D01*
X92775Y6856D01*
X92775Y6974D01*
X92755Y7091D01*
X92718Y7203D01*
X92664Y7307D01*
X92594Y7402D01*
X92509Y7485D01*
X92413Y7554D01*
X92308Y7607D01*
X92195Y7643D01*
X92079Y7660D01*
X91961Y7659D01*
X91887Y7647D01*
Y13349D01*
X91960Y13337D01*
X92079Y13336D01*
X92196Y13354D01*
X92309Y13390D01*
X92415Y13443D01*
X92512Y13512D01*
X92596Y13595D01*
X92667Y13691D01*
X92721Y13796D01*
X92759Y13908D01*
X92778Y14025D01*
X92779Y14144D01*
X92761Y14261D01*
X92723Y14374D01*
X92624Y14645D01*
X92556Y14925D01*
X92514Y15211D01*
X92500Y15500D01*
X92514Y15789D01*
X92556Y16075D01*
X92624Y16355D01*
X92720Y16628D01*
X92758Y16739D01*
X92775Y16856D01*
X92775Y16974D01*
X92755Y17091D01*
X92718Y17203D01*
X92664Y17307D01*
X92594Y17402D01*
X92509Y17485D01*
X92413Y17554D01*
X92308Y17607D01*
X92195Y17643D01*
X92079Y17660D01*
X91961Y17659D01*
X91887Y17647D01*
Y20500D01*
G37*
G36*
X90000D02*X91887D01*
Y17647D01*
X91844Y17640D01*
X91732Y17603D01*
X91627Y17548D01*
X91532Y17478D01*
X91449Y17394D01*
X91381Y17298D01*
X91330Y17192D01*
X91182Y16784D01*
X91078Y16363D01*
X91016Y15933D01*
X90995Y15500D01*
X91016Y15067D01*
X91078Y14637D01*
X91182Y14216D01*
X91325Y13806D01*
X91378Y13700D01*
X91447Y13604D01*
X91530Y13519D01*
X91625Y13449D01*
X91731Y13394D01*
X91843Y13357D01*
X91887Y13349D01*
Y7647D01*
X91844Y7640D01*
X91732Y7603D01*
X91627Y7548D01*
X91532Y7478D01*
X91449Y7394D01*
X91381Y7298D01*
X91330Y7192D01*
X91182Y6784D01*
X91078Y6363D01*
X91016Y5933D01*
X90995Y5500D01*
X91016Y5067D01*
X91078Y4637D01*
X91182Y4216D01*
X91325Y3806D01*
X91378Y3700D01*
X91447Y3604D01*
X91530Y3519D01*
X91625Y3449D01*
X91731Y3394D01*
X91843Y3357D01*
X91887Y3349D01*
Y1500D01*
X90000D01*
Y20500D01*
G37*
G36*
X111000Y13000D02*X142256D01*
X142369Y12869D01*
X142644Y12634D01*
X142953Y12444D01*
X143287Y12306D01*
X143639Y12221D01*
X144000Y12193D01*
X144361Y12221D01*
X144713Y12306D01*
X145047Y12444D01*
X145356Y12634D01*
X145631Y12869D01*
X145744Y13000D01*
X231441D01*
X231500Y12995D01*
X231559Y13000D01*
X248500D01*
Y1500D01*
X111000D01*
Y13000D01*
G37*
G36*
X248500Y158500D02*Y152500D01*
X245897D01*
X245762Y152556D01*
X245609Y152593D01*
X245452Y152602D01*
X239391Y152593D01*
X239238Y152556D01*
X239103Y152500D01*
X238244D01*
X238366Y152644D01*
X238556Y152953D01*
X238694Y153287D01*
X238779Y153639D01*
X238800Y154000D01*
X238779Y154361D01*
X238694Y154713D01*
X238556Y155047D01*
X238366Y155356D01*
X238244Y155500D01*
X238366Y155644D01*
X238556Y155953D01*
X238694Y156287D01*
X238779Y156639D01*
X238800Y157000D01*
X238779Y157361D01*
X238694Y157713D01*
X238556Y158047D01*
X238366Y158356D01*
X238244Y158500D01*
X248500D01*
G37*
G54D12*X75776Y126848D02*Y132224D01*
X78925Y126848D02*Y132575D01*
X85224Y132224D02*Y126848D01*
X82075Y132575D02*Y126848D01*
X75776Y132224D02*X73500Y134500D01*
X65500D01*
X62500Y137500D01*
Y141957D01*
X78925Y132575D02*X74500Y137000D01*
Y141957D01*
X85224Y132224D02*X87500Y134500D01*
X95500D01*
X98500Y137500D01*
Y141957D02*Y137500D01*
X86500Y141957D02*Y137000D01*
X82075Y132575D02*X86500Y137000D01*
G54D13*X63000Y111000D02*Y129500D01*
G54D12*X82075Y120152D02*Y115925D01*
X88000Y110000D01*
X82976Y94779D02*Y99024D01*
X80000Y102000D01*
X86126Y94779D02*Y99874D01*
X84000Y102000D01*
X89275Y94779D02*Y100725D01*
X88000Y102000D01*
X92425Y94779D02*Y101575D01*
X92000Y102000D01*
X95575Y94779D02*Y101575D01*
X96000Y102000D01*
X77000Y90000D02*Y87000D01*
X113000Y90500D02*Y87000D01*
X77000Y90000D02*X106500D01*
X110000Y93500D01*
X112779Y83874D02*X116874D01*
X110000Y93500D02*X121500D01*
X99000Y121000D02*X120000D01*
X121000Y120000D01*
X123776D01*
Y120152D02*Y100224D01*
X127500Y96500D01*
X113000D02*Y113000D01*
X117000Y96500D02*Y114500D01*
X126925Y120152D02*Y101500D01*
X96000Y102000D02*Y120500D01*
X93000Y123500D01*
X92000Y105500D02*Y102000D01*
X93000Y123500D02*X77000D01*
X75776Y122276D01*
Y120152D01*
X85224D02*Y116776D01*
X78925Y120152D02*Y109075D01*
X85224Y116776D02*X87000Y115000D01*
X78925Y109075D02*X81000Y107000D01*
X90500D01*
X92000Y105500D01*
G54D14*X117925Y77575D02*X120500Y75000D01*
X122500Y80725D02*X100000D01*
X112779Y74425D02*X100000D01*
X117925Y77575D02*X112779D01*
G54D12*X116874Y83874D02*X118000Y85000D01*
Y89500D01*
X101874Y94779D02*Y99874D01*
X104000Y102000D01*
X105023Y99023D02*X108000Y102000D01*
X105023Y94779D02*Y99023D01*
X118000Y89500D02*X117000Y90500D01*
X121500Y93500D02*X128500Y86500D01*
X139760D01*
X120000Y99500D02*X128000Y91500D01*
X127500Y96500D02*X139760D01*
X130075Y120152D02*Y114500D01*
X133224Y120152D02*Y111500D01*
X36776Y70776D02*X34500Y68500D01*
Y60500D01*
X27043Y57500D02*X31500D01*
X36425Y73925D02*X32000Y69500D01*
X27043D02*X32000D01*
G54D15*X19957Y93500D02*Y57500D01*
G54D12*X36776Y70776D02*X42152D01*
X34500Y60500D02*X31500Y57500D01*
X36425Y73925D02*X42152D01*
X36776Y80224D02*X42152D01*
X36425Y77075D02*X42152D01*
X36776Y80224D02*X34500Y82500D01*
X36425Y77075D02*X32000Y81500D01*
X27043D02*X32000D01*
X34500Y90500D02*Y82500D01*
G54D16*X34850Y125701D02*X44500D01*
X56900Y127600D02*Y122200D01*
G54D12*X34500Y90500D02*X31500Y93500D01*
X27043D02*X31500D01*
G54D14*X75221Y83874D02*X64500D01*
G54D12*X48848Y80224D02*X54276D01*
X48848Y77075D02*X53925D01*
X48848Y73925D02*X53075D01*
X54000Y73000D01*
X48848Y70776D02*Y67652D01*
X54276Y80224D02*X58500Y76000D01*
X53925Y77075D02*X56000Y75000D01*
Y72500D01*
X54000Y73000D02*Y70500D01*
X58500Y76000D02*Y73500D01*
X63874Y68126D01*
X75221D01*
X56000Y72500D02*X63524Y64976D01*
X75221D01*
X54000Y70500D02*X67279Y57221D01*
X48848Y67652D02*X64500Y52000D01*
X67279Y57221D02*X82977D01*
X64500Y52000D02*X84500D01*
X86126Y53626D01*
Y57221D01*
X114000Y58500D02*X117500Y62000D01*
X112779Y68126D02*X116374D01*
X117500Y67000D01*
Y62000D02*Y67000D01*
X98724Y94779D02*Y100724D01*
X100000Y102000D01*
G54D14*X75221Y83874D02*X88000D01*
G54D15*X242500Y149043D02*X62500D01*
G54D13*X55000Y155500D02*X245500D01*
G54D12*X123776Y126848D02*Y132224D01*
X113500Y134500D02*X110500Y137500D01*
X126925Y126848D02*Y132575D01*
X123776Y132224D02*X121500Y134500D01*
X113500D01*
X110500Y137500D02*Y141957D01*
X126925Y132575D02*X122500Y137000D01*
Y141957D01*
X133224Y132224D02*X135500Y134500D01*
X130075Y132575D02*X134500Y137000D01*
X135500Y134500D02*X143500D01*
X146500Y137500D01*
Y141957D02*Y137500D01*
X134500Y141957D02*Y137000D01*
X226075Y132575D02*Y126848D01*
Y132575D02*X230500Y137000D01*
Y141957D02*Y137000D01*
X171776Y126848D02*Y132224D01*
X169500Y134500D01*
X161500D01*
X158500Y137500D01*
X174925Y126848D02*Y132575D01*
X158500Y137500D02*Y141957D01*
X174925Y132575D02*X170500Y137000D01*
Y141957D01*
G54D16*X34850Y138299D02*X41201D01*
X50000Y129500D01*
X55000D01*
X56900Y127600D01*
G54D13*X63000Y129500D02*X55000Y137500D01*
Y155500D01*
G54D12*X181224Y132224D02*Y126848D01*
Y132224D02*X183500Y134500D01*
X191500D01*
X194500Y137500D01*
Y141957D02*Y137500D01*
X178075Y132575D02*Y126848D01*
Y132575D02*X182500Y137000D01*
Y141957D02*Y137000D01*
X219776Y126848D02*Y132224D01*
X217500Y134500D01*
X209500D01*
X206500Y137500D01*
Y141957D01*
X222925Y126848D02*Y132575D01*
X218500Y137000D01*
X133224Y132224D02*Y126848D01*
X130075Y132575D02*Y126848D01*
X229224Y132224D02*Y126848D01*
Y132224D02*X231500Y134500D01*
X239500D01*
X218500Y137000D02*Y141957D01*
X239500Y134500D02*X242500Y137500D01*
Y141957D02*Y137500D01*
X230000Y55500D02*X224000Y61500D01*
X230000Y35406D02*Y55500D01*
X213500Y36000D02*Y74000D01*
X208500Y33000D02*Y79000D01*
X230000Y35406D02*X218000D01*
X218031Y31469D02*X213500Y36000D01*
X213969Y27531D02*X208500Y33000D01*
X230000Y27531D02*X213969D01*
X230000Y23594D02*X213500D01*
X231500Y14500D02*X235000Y18000D01*
X218031Y31469D02*X234031D01*
X235000Y18000D02*Y30500D01*
X234031Y31469D02*X235000Y30500D01*
X215000Y16500D02*X218000Y19500D01*
X109500Y14500D02*X231500D01*
X147000Y16500D02*X215000D01*
X112500Y18500D02*X137000D01*
X139000Y16500D02*X111000D01*
X146000Y17500D02*X140000D01*
X146000D02*X147000Y16500D01*
X137000Y18500D02*X139457Y20957D01*
X140000Y17500D02*X139000Y16500D01*
X143925Y38652D02*Y17500D01*
X147075Y38652D02*Y20925D01*
X148500Y19500D01*
X139457Y76500D02*Y20957D01*
X143925Y45348D02*X147075D01*
Y56500D01*
G54D16*X167500Y82000D02*X122500D01*
G54D12*X128000Y91500D02*X147500D01*
X152500Y86500D01*
G54D16*X157240Y96500D02*X166500D01*
X167500Y95500D01*
Y59000D01*
X165000Y56500D01*
X146543D01*
G54D12*X171776Y120152D02*Y32000D01*
X174925Y120152D02*Y28500D01*
X178075Y120152D02*Y39000D01*
X181224Y120152D02*Y35500D01*
X224000Y61500D02*Y97000D01*
X220500Y100500D01*
X207000D01*
X203500Y97000D01*
Y89000D01*
X208500Y79000D02*X213500Y84000D01*
X229224Y120152D02*Y112224D01*
X227000Y110000D01*
X226075Y120152D02*Y114575D01*
X224500Y113000D01*
X222925Y120152D02*Y116925D01*
X222000Y116000D01*
X227000Y110000D02*X196500D01*
X193500Y107000D01*
X196500Y113000D02*X190500Y107000D01*
X196500Y116000D02*X187500Y107000D01*
X196500Y119000D02*X184500Y107000D01*
X193500D02*Y49500D01*
X190500Y107000D02*Y53000D01*
X187500Y107000D02*Y42500D01*
X184500Y107000D02*Y46000D01*
X224500Y113000D02*X196500D01*
X222000Y116000D02*X196500D01*
X219776Y119000D02*X196500D01*
X85500Y5500D02*X80500Y10500D01*
X92500Y22000D02*X102000D01*
X109500Y14500D01*
X94000Y24500D02*X103000D01*
X111000Y16500D01*
X75500Y5500D02*X70500Y10500D01*
X65500Y5500D02*X60500Y10500D01*
X97000Y27000D02*X104000D01*
X112500Y18500D01*
X101500Y32000D02*X106000D01*
X101874Y37626D02*X104000Y35500D01*
X109000Y28500D02*Y33500D01*
X107000Y35500D01*
X104000D01*
X80500Y10500D02*Y48000D01*
X85500Y15500D02*Y48000D01*
X89276Y25224D02*X92500Y22000D01*
X92425Y26075D02*X94000Y24500D01*
X75500Y15500D02*Y48000D01*
G54D14*X75221Y74425D02*X64500D01*
G54D12*X70500Y10500D02*Y48000D01*
X65500Y15500D02*Y48000D01*
X60500Y10500D02*Y48000D01*
X89276Y57221D02*Y25224D01*
X92425Y57221D02*Y26075D01*
X95575Y57221D02*Y28425D01*
X97000Y27000D01*
X98725Y34775D02*X101500Y32000D01*
X98725Y57221D02*Y34775D01*
X101874Y57221D02*Y37626D01*
X105024Y57221D02*Y40976D01*
X107000Y39000D01*
X111000Y35500D02*Y64977D01*
X114000Y46000D02*Y58500D01*
X117000Y42500D02*Y57500D01*
X121500D02*Y21500D01*
X125000Y57500D02*Y25000D01*
G54D14*X112779Y71276D02*X122000D01*
G54D12*X108000Y49500D02*Y56500D01*
G54D11*G36*
X2500Y8500D02*Y2500D01*
X8500D01*
Y8500D01*
X2500D01*
G37*
G54D13*X15500Y5500D03*
X25500D03*
X5500Y15500D03*
X15500D03*
X25500D03*
G54D17*X24122Y140661D03*
Y123339D03*
G54D13*X35500Y5500D03*
X45500D03*
X55500D03*
X65500D03*
X75500D03*
X85500D03*
Y15500D03*
X95500Y5500D03*
Y15500D03*
X35500D03*
X45500D03*
X55500D03*
X65500D03*
X75500D03*
G54D18*X203500Y69000D03*
X213500Y74000D03*
X203500Y79000D03*
X213500Y84000D03*
X203500Y89000D03*
X213500Y94000D03*
G54D19*X238500Y61500D03*
Y101500D03*
G54D20*X60586Y104893D02*Y104107D01*
G54D21*X60800Y114300D02*Y113700D01*
G54D20*X62107Y149043D02*X62893D01*
X62107Y141957D02*X62893D01*
X53500Y104893D02*Y104107D01*
G54D21*X53000Y114300D02*Y113700D01*
X56900Y122500D02*Y121900D01*
G54D22*X32587Y138299D02*X36917D01*
G54D23*X33768D02*X35933D01*
G54D24*X11524Y149126D02*X13098D01*
X33177D02*X34752D01*
G54D22*X32587Y135150D02*X36917D01*
G54D23*X33768D02*X35933D01*
G54D22*X32587Y132000D02*X36917D01*
G54D23*X33768D02*X35933D01*
G54D22*X32587Y128850D02*X36917D01*
G54D23*X33768D02*X35933D01*
G54D22*X32587Y125701D02*X36917D01*
G54D23*X33768D02*X35933D01*
G54D24*X11524Y114874D02*X13098D01*
X33177D02*X34752D01*
G54D25*X73008Y87023D02*X77434D01*
X73008Y83874D02*X77434D01*
X73008Y80724D02*X77434D01*
X73008Y77575D02*X77434D01*
X73008Y74425D02*X77434D01*
X73008Y71275D02*X77434D01*
X73008Y68126D02*X77434D01*
X73008Y64976D02*X77434D01*
G54D20*X64107Y83043D02*X64893D01*
X64107Y75957D02*X64893D01*
G54D25*X82977Y59434D02*Y55008D01*
X86126Y59434D02*Y55008D01*
X89276Y59434D02*Y55008D01*
X92425Y59434D02*Y55008D01*
X95575Y59434D02*Y55008D01*
X98725Y59434D02*Y55008D01*
X101874Y59434D02*Y55008D01*
X105024Y59434D02*Y55008D01*
G54D20*X19957Y57893D02*Y57107D01*
X27043Y57893D02*Y57107D01*
G54D26*X47913Y70776D02*X49783D01*
X47913Y73925D02*X49783D01*
X47913Y77075D02*X49783D01*
X47913Y80224D02*X49783D01*
X41217D02*X43087D01*
X41217Y77075D02*X43087D01*
X41217Y73925D02*X43087D01*
X41217Y70776D02*X43087D01*
G54D20*X19957Y69893D02*Y69107D01*
X27043Y69893D02*Y69107D01*
X19957Y81893D02*Y81107D01*
X27043Y81893D02*Y81107D01*
X19957Y93893D02*Y93107D01*
X27043Y93893D02*Y93107D01*
G54D27*X228130Y23594D02*X231870D01*
G54D28*X244075Y18476D02*X246437D01*
G54D27*X228130Y27531D02*X231870D01*
X228130Y31469D02*X231870D01*
X228130Y35406D02*X231870D01*
G54D28*X244075Y40524D02*X246437D01*
G54D29*X135016Y76500D02*X144504D01*
X152496D02*X161984D01*
G54D26*X143925Y46283D02*Y44413D01*
G54D20*X146543Y56893D02*Y56107D01*
G54D29*X135016Y96500D02*X144504D01*
X135016Y86500D02*X144504D01*
X152496D02*X161984D01*
X152496Y96500D02*X161984D01*
G54D26*X143925Y39587D02*Y37717D01*
X171776Y121087D02*Y119217D01*
Y127783D02*Y125913D01*
X174925Y121087D02*Y119217D01*
Y127783D02*Y125913D01*
X178075Y121087D02*Y119217D01*
X181224Y121087D02*Y119217D01*
Y127783D02*Y125913D01*
X178075Y127783D02*Y125913D01*
G54D25*X110566Y74425D02*X114992D01*
X110566Y77575D02*X114992D01*
X110566Y80725D02*X114992D01*
X110566Y83874D02*X114992D01*
X110566Y87024D02*X114992D01*
G54D20*X122107Y81543D02*X122893D01*
G54D26*X123776Y121087D02*Y119217D01*
X126925Y121087D02*Y119217D01*
X130075Y121087D02*Y119217D01*
X133224Y121087D02*Y119217D01*
Y127783D02*Y125913D01*
X130075Y127783D02*Y125913D01*
X126925Y127783D02*Y125913D01*
X123776Y127783D02*Y125913D01*
X147075Y39587D02*Y37717D01*
Y46283D02*Y44413D01*
G54D20*X139457Y65893D02*Y65107D01*
X146543Y65893D02*Y65107D01*
X139457Y56893D02*Y56107D01*
X122107Y74457D02*X122893D01*
G54D25*X110566Y64977D02*X114992D01*
X110566Y68126D02*X114992D01*
X110566Y71276D02*X114992D01*
X105023Y96992D02*Y92566D01*
X101874Y96992D02*Y92566D01*
X98724Y96992D02*Y92566D01*
X95575Y96992D02*Y92566D01*
X92425Y96992D02*Y92566D01*
X89275Y96992D02*Y92566D01*
X86126Y96992D02*Y92566D01*
X82976Y96992D02*Y92566D01*
G54D26*X75776Y121087D02*Y119217D01*
Y127783D02*Y125913D01*
G54D20*X74107Y149043D02*X74893D01*
X74107Y141957D02*X74893D01*
G54D26*X78925Y121087D02*Y119217D01*
X82075Y121087D02*Y119217D01*
X85224Y121087D02*Y119217D01*
Y127783D02*Y125913D01*
X82075Y127783D02*Y125913D01*
X78925Y127783D02*Y125913D01*
G54D20*X86107Y149043D02*X86893D01*
X86107Y141957D02*X86893D01*
X98107Y149043D02*X98893D01*
X110107D02*X110893D01*
X122107D02*X122893D01*
X98107Y141957D02*X98893D01*
X110107D02*X110893D01*
X122107D02*X122893D01*
X134107D02*X134893D01*
X146107D02*X146893D01*
X158107D02*X158893D01*
X134107Y149043D02*X134893D01*
X146107D02*X146893D01*
X158107D02*X158893D01*
X170107D02*X170893D01*
X170107Y141957D02*X170893D01*
X182107Y149043D02*X182893D01*
X194107D02*X194893D01*
X206107D02*X206893D01*
X218107D02*X218893D01*
X230107D02*X230893D01*
X242107D02*X242893D01*
X182107Y141957D02*X182893D01*
X194107D02*X194893D01*
X206107D02*X206893D01*
X218107D02*X218893D01*
X230107D02*X230893D01*
X242107D02*X242893D01*
G54D26*X219776Y121087D02*Y119217D01*
X222925Y121087D02*Y119217D01*
X226075Y121087D02*Y119217D01*
X229224Y121087D02*Y119217D01*
Y127783D02*Y125913D01*
X226075Y127783D02*Y125913D01*
X222925Y127783D02*Y125913D01*
X219776Y127783D02*Y125913D01*
G54D30*X106000Y32000D03*
X109000Y28500D03*
X107000Y39000D03*
X111000Y35500D03*
X114000Y46000D03*
X108000Y56500D03*
Y49500D03*
X117000Y42500D03*
X121500Y21500D03*
X125000Y25000D03*
X144000Y14500D03*
X117000Y57500D03*
X121500D03*
X125000D03*
X121000Y70000D03*
X124500D03*
X128000D03*
Y73500D03*
X162500Y71000D03*
Y67500D03*
Y64000D03*
X159000D03*
Y67500D03*
X148500Y19500D03*
X171776Y32000D03*
X174925Y28500D03*
X178075Y39000D03*
X181224Y35500D03*
X193500Y49500D03*
X190500Y53000D03*
X187500Y42500D03*
X184500Y46000D03*
X213500Y23594D03*
X218000Y35406D03*
Y19500D03*
X222000Y10500D03*
Y7000D03*
Y3500D03*
X225500Y10500D03*
Y7000D03*
Y3500D03*
X229000Y10500D03*
X232500D03*
X229000Y7000D03*
Y3500D03*
X232500Y7000D03*
Y3500D03*
X236000Y10500D03*
Y7000D03*
Y3500D03*
X239500Y10500D03*
X243000D03*
X239500Y7000D03*
Y3500D03*
X243000Y7000D03*
Y3500D03*
X246500Y10500D03*
Y7000D03*
Y3500D03*
X68500Y149000D03*
X92500D03*
X116500D03*
X140500D03*
X164500D03*
X188500D03*
X212500D03*
X225000Y157000D03*
Y154000D03*
X236500Y157000D03*
Y154000D03*
X44000Y112000D03*
Y108000D03*
Y104000D03*
Y124000D03*
Y120000D03*
Y116000D03*
X48000Y124000D03*
Y120000D03*
Y116000D03*
Y112000D03*
Y108000D03*
Y104000D03*
X65500Y72000D03*
X69000D03*
X20000Y87500D03*
Y63500D03*
Y75500D03*
X92000Y102000D03*
X96000D03*
X100000D03*
X104000D03*
X108000D03*
X88000D03*
X84000D03*
X87000Y115000D03*
X99000Y121000D03*
X88000Y110000D03*
X80000Y102000D03*
X77000Y90000D03*
X85500Y48000D03*
X80500D03*
X70500D03*
X75500D03*
X60500D03*
X65500D03*
X113000Y90500D03*
Y96500D03*
Y113000D03*
X117000Y90500D03*
Y96500D03*
X120000Y99500D03*
X121500Y93500D03*
X117000Y114500D03*
X130075D03*
X133224Y111500D03*
X126925Y101500D03*
G54D31*G54D32*G54D33*G54D32*G54D34*G54D35*M02*
