G04 start of page 10 for group -4015 idx -4015 *
G04 Title: (unknown), toppaste *
G04 Creator: pcb 20140316 *
G04 CreationDate: Mon 17 Feb 2020 04:19:00 AM GMT UTC *
G04 For: railfan *
G04 Format: Gerber/RS-274X *
G04 PCB-Dimensions (mil): 2500.00 1600.00 *
G04 PCB-Coordinate-Origin: lower left *
%MOIN*%
%FSLAX25Y25*%
%LNTOPPASTE*%
%ADD85R,0.0472X0.0472*%
%ADD84R,0.0236X0.0236*%
%ADD83R,0.0630X0.0630*%
%ADD82R,0.0177X0.0177*%
%ADD81R,0.0157X0.0157*%
%ADD80R,0.0340X0.0340*%
%ADD79R,0.0512X0.0512*%
%ADD78R,0.0167X0.0167*%
%ADD77R,0.0500X0.0500*%
G54D77*X135016Y96500D02*X144504D01*
X135016Y86500D02*X144504D01*
X135016Y76500D02*X144504D01*
X152496D02*X161984D01*
X152496Y86500D02*X161984D01*
X152496Y96500D02*X161984D01*
G54D78*X147075Y46283D02*Y44413D01*
X143925Y46283D02*Y44413D01*
Y39587D02*Y37717D01*
X147075Y39587D02*Y37717D01*
G54D79*X60586Y104893D02*Y104107D01*
X53500Y104893D02*Y104107D01*
G54D80*X53000Y114300D02*Y113700D01*
X60800Y114300D02*Y113700D01*
X56900Y122500D02*Y121900D01*
G54D81*X110566Y64977D02*X114992D01*
X110566Y68126D02*X114992D01*
X110566Y71276D02*X114992D01*
X110566Y74425D02*X114992D01*
X110566Y77575D02*X114992D01*
X110566Y80725D02*X114992D01*
X110566Y83874D02*X114992D01*
X110566Y87024D02*X114992D01*
X105023Y96992D02*Y92566D01*
X101874Y96992D02*Y92566D01*
X98724Y96992D02*Y92566D01*
X95575Y96992D02*Y92566D01*
X92425Y96992D02*Y92566D01*
X89275Y96992D02*Y92566D01*
X86126Y96992D02*Y92566D01*
X82976Y96992D02*Y92566D01*
X73008Y87023D02*X77434D01*
X73008Y83874D02*X77434D01*
X73008Y80724D02*X77434D01*
X73008Y77575D02*X77434D01*
X73008Y74425D02*X77434D01*
X73008Y71275D02*X77434D01*
X73008Y68126D02*X77434D01*
X73008Y64976D02*X77434D01*
X82977Y59434D02*Y55008D01*
X86126Y59434D02*Y55008D01*
X89276Y59434D02*Y55008D01*
X92425Y59434D02*Y55008D01*
X95575Y59434D02*Y55008D01*
X98725Y59434D02*Y55008D01*
X101874Y59434D02*Y55008D01*
X105024Y59434D02*Y55008D01*
G54D82*X33768Y138299D02*X35933D01*
X33768Y135150D02*X35933D01*
X33768Y132000D02*X35933D01*
X33768Y128850D02*X35933D01*
X33768Y125701D02*X35933D01*
G54D83*X11524Y149126D02*X13098D01*
X11524Y114874D02*X13098D01*
X33177Y149126D02*X34752D01*
X33177Y114874D02*X34752D01*
G54D78*X47913Y70776D02*X49783D01*
X47913Y73925D02*X49783D01*
X47913Y77075D02*X49783D01*
X47913Y80224D02*X49783D01*
X41217D02*X43087D01*
X41217Y77075D02*X43087D01*
X41217Y73925D02*X43087D01*
X41217Y70776D02*X43087D01*
G54D79*X19957Y57893D02*Y57107D01*
X27043Y57893D02*Y57107D01*
X19957Y69893D02*Y69107D01*
X27043Y69893D02*Y69107D01*
X19957Y81893D02*Y81107D01*
X27043Y81893D02*Y81107D01*
X19957Y93893D02*Y93107D01*
X27043Y93893D02*Y93107D01*
X122107Y81543D02*X122893D01*
X122107Y74457D02*X122893D01*
X64107Y83043D02*X64893D01*
X64107Y75957D02*X64893D01*
G54D78*X75776Y121087D02*Y119217D01*
X78925Y121087D02*Y119217D01*
X82075Y121087D02*Y119217D01*
X85224Y121087D02*Y119217D01*
Y127783D02*Y125913D01*
X82075Y127783D02*Y125913D01*
X78925Y127783D02*Y125913D01*
X75776Y127783D02*Y125913D01*
G54D79*X62107Y149043D02*X62893D01*
X62107Y141957D02*X62893D01*
X74107Y149043D02*X74893D01*
X74107Y141957D02*X74893D01*
X86107Y149043D02*X86893D01*
X86107Y141957D02*X86893D01*
X98107Y149043D02*X98893D01*
X98107Y141957D02*X98893D01*
G54D78*X123776Y121087D02*Y119217D01*
X126925Y121087D02*Y119217D01*
X130075Y121087D02*Y119217D01*
X133224Y121087D02*Y119217D01*
Y127783D02*Y125913D01*
X130075Y127783D02*Y125913D01*
X126925Y127783D02*Y125913D01*
X123776Y127783D02*Y125913D01*
G54D79*X110107Y149043D02*X110893D01*
X110107Y141957D02*X110893D01*
X122107Y149043D02*X122893D01*
X122107Y141957D02*X122893D01*
X134107Y149043D02*X134893D01*
X134107Y141957D02*X134893D01*
X146107Y149043D02*X146893D01*
X146107Y141957D02*X146893D01*
G54D78*X171776Y121087D02*Y119217D01*
X174925Y121087D02*Y119217D01*
X178075Y121087D02*Y119217D01*
X181224Y121087D02*Y119217D01*
Y127783D02*Y125913D01*
X178075Y127783D02*Y125913D01*
X174925Y127783D02*Y125913D01*
X171776Y127783D02*Y125913D01*
G54D79*X158107Y149043D02*X158893D01*
X158107Y141957D02*X158893D01*
X170107Y149043D02*X170893D01*
X170107Y141957D02*X170893D01*
X182107Y149043D02*X182893D01*
X182107Y141957D02*X182893D01*
X194107Y149043D02*X194893D01*
X194107Y141957D02*X194893D01*
G54D78*X219776Y121087D02*Y119217D01*
X222925Y121087D02*Y119217D01*
X226075Y121087D02*Y119217D01*
X229224Y121087D02*Y119217D01*
Y127783D02*Y125913D01*
X226075Y127783D02*Y125913D01*
X222925Y127783D02*Y125913D01*
X219776Y127783D02*Y125913D01*
G54D79*X206107Y149043D02*X206893D01*
X206107Y141957D02*X206893D01*
X218107Y149043D02*X218893D01*
X218107Y141957D02*X218893D01*
X230107Y149043D02*X230893D01*
X230107Y141957D02*X230893D01*
X242107Y149043D02*X242893D01*
X242107Y141957D02*X242893D01*
G54D84*X228130Y23594D02*X231870D01*
X228130Y27531D02*X231870D01*
X228130Y31469D02*X231870D01*
X228130Y35406D02*X231870D01*
G54D85*X244075Y18476D02*X246437D01*
X244075Y40524D02*X246437D01*
G54D79*X139457Y65893D02*Y65107D01*
X146543Y65893D02*Y65107D01*
X139457Y56893D02*Y56107D01*
X146543Y56893D02*Y56107D01*
M02*
